%TF.GenerationSoftware,KiCad,Pcbnew,7.0.6-rc3*%
%TF.CreationDate,2023-07-14T23:43:47-04:00*%
%TF.ProjectId,esp,6573702e-6b69-4636-9164-5f7063625858,rev?*%
%TF.SameCoordinates,Original*%
%TF.FileFunction,Soldermask,Top*%
%TF.FilePolarity,Negative*%
%FSLAX46Y46*%
G04 Gerber Fmt 4.6, Leading zero omitted, Abs format (unit mm)*
G04 Created by KiCad (PCBNEW 7.0.6-rc3) date 2023-07-14 23:43:47*
%MOMM*%
%LPD*%
G01*
G04 APERTURE LIST*
G04 Aperture macros list*
%AMRoundRect*
0 Rectangle with rounded corners*
0 $1 Rounding radius*
0 $2 $3 $4 $5 $6 $7 $8 $9 X,Y pos of 4 corners*
0 Add a 4 corners polygon primitive as box body*
4,1,4,$2,$3,$4,$5,$6,$7,$8,$9,$2,$3,0*
0 Add four circle primitives for the rounded corners*
1,1,$1+$1,$2,$3*
1,1,$1+$1,$4,$5*
1,1,$1+$1,$6,$7*
1,1,$1+$1,$8,$9*
0 Add four rect primitives between the rounded corners*
20,1,$1+$1,$2,$3,$4,$5,0*
20,1,$1+$1,$4,$5,$6,$7,0*
20,1,$1+$1,$6,$7,$8,$9,0*
20,1,$1+$1,$8,$9,$2,$3,0*%
G04 Aperture macros list end*
%ADD10RoundRect,0.135000X0.185000X-0.135000X0.185000X0.135000X-0.185000X0.135000X-0.185000X-0.135000X0*%
%ADD11C,0.650000*%
%ADD12R,0.600000X1.450000*%
%ADD13R,0.300000X1.450000*%
%ADD14O,1.000000X2.100000*%
%ADD15O,1.000000X1.600000*%
%ADD16RoundRect,0.135000X-0.185000X0.135000X-0.185000X-0.135000X0.185000X-0.135000X0.185000X0.135000X0*%
%ADD17R,1.700000X1.700000*%
%ADD18O,1.700000X1.700000*%
%ADD19RoundRect,0.140000X0.170000X-0.140000X0.170000X0.140000X-0.170000X0.140000X-0.170000X-0.140000X0*%
%ADD20RoundRect,0.250000X0.325000X0.650000X-0.325000X0.650000X-0.325000X-0.650000X0.325000X-0.650000X0*%
%ADD21C,1.650000*%
%ADD22RoundRect,0.218750X-0.218750X-0.256250X0.218750X-0.256250X0.218750X0.256250X-0.218750X0.256250X0*%
%ADD23RoundRect,0.218750X-0.256250X0.218750X-0.256250X-0.218750X0.256250X-0.218750X0.256250X0.218750X0*%
%ADD24RoundRect,0.140000X0.140000X0.170000X-0.140000X0.170000X-0.140000X-0.170000X0.140000X-0.170000X0*%
%ADD25R,1.350000X1.350000*%
%ADD26O,1.350000X1.350000*%
%ADD27RoundRect,0.135000X-0.135000X-0.185000X0.135000X-0.185000X0.135000X0.185000X-0.135000X0.185000X0*%
%ADD28RoundRect,0.062500X-0.062500X0.375000X-0.062500X-0.375000X0.062500X-0.375000X0.062500X0.375000X0*%
%ADD29RoundRect,0.062500X-0.375000X0.062500X-0.375000X-0.062500X0.375000X-0.062500X0.375000X0.062500X0*%
%ADD30R,3.450000X3.450000*%
%ADD31R,0.900000X0.800000*%
%ADD32RoundRect,0.135000X0.135000X0.185000X-0.135000X0.185000X-0.135000X-0.185000X0.135000X-0.185000X0*%
%ADD33RoundRect,0.140000X-0.170000X0.140000X-0.170000X-0.140000X0.170000X-0.140000X0.170000X0.140000X0*%
%ADD34RoundRect,0.140000X-0.140000X-0.170000X0.140000X-0.170000X0.140000X0.170000X-0.140000X0.170000X0*%
%ADD35RoundRect,0.150000X-0.150000X0.512500X-0.150000X-0.512500X0.150000X-0.512500X0.150000X0.512500X0*%
%ADD36R,1.050000X0.650000*%
%ADD37R,1.500000X2.000000*%
%ADD38R,3.800000X2.000000*%
G04 APERTURE END LIST*
D10*
%TO.C,R303*%
X124060000Y-90190000D03*
X124060000Y-89170000D03*
%TD*%
D11*
%TO.C,P301*%
X115330000Y-91420000D03*
X121110000Y-91420000D03*
D12*
X114970000Y-89975000D03*
X115770000Y-89975000D03*
D13*
X116970000Y-89975000D03*
X117970000Y-89975000D03*
X118470000Y-89975000D03*
X119470000Y-89975000D03*
D12*
X120670000Y-89975000D03*
X121470000Y-89975000D03*
X121470000Y-89975000D03*
X120670000Y-89975000D03*
D13*
X119970000Y-89975000D03*
X118970000Y-89975000D03*
X117470000Y-89975000D03*
X116470000Y-89975000D03*
D12*
X115770000Y-89975000D03*
X114970000Y-89975000D03*
D14*
X113900000Y-90890000D03*
D15*
X113900000Y-95070000D03*
D14*
X122540000Y-90890000D03*
D15*
X122540000Y-95070000D03*
%TD*%
D16*
%TO.C,R203*%
X130420000Y-69420000D03*
X130420000Y-70440000D03*
%TD*%
D17*
%TO.C,R101*%
X131105000Y-73000000D03*
D18*
X131105000Y-75540000D03*
%TD*%
D19*
%TO.C,C213*%
X122140000Y-80370000D03*
X122140000Y-79410000D03*
%TD*%
D20*
%TO.C,C302*%
X128145000Y-65060000D03*
X125195000Y-65060000D03*
%TD*%
D19*
%TO.C,C207*%
X116347500Y-73592500D03*
X116347500Y-72632500D03*
%TD*%
D16*
%TO.C,R301*%
X132400000Y-69420000D03*
X132400000Y-70440000D03*
%TD*%
D10*
%TO.C,R304*%
X112380000Y-90190000D03*
X112380000Y-89170000D03*
%TD*%
D21*
%TO.C,REF\u002A\u002A*%
X104440000Y-95100000D03*
%TD*%
D22*
%TO.C,L202*%
X113572500Y-73292500D03*
X115147500Y-73292500D03*
%TD*%
D21*
%TO.C,REF\u002A\u002A*%
X109190000Y-67500000D03*
%TD*%
D23*
%TO.C,L201*%
X117890000Y-71095000D03*
X117890000Y-72670000D03*
%TD*%
D24*
%TO.C,C210*%
X111660000Y-76892500D03*
X110700000Y-76892500D03*
%TD*%
D10*
%TO.C,R204*%
X112260000Y-73590000D03*
X112260000Y-72570000D03*
%TD*%
D25*
%TO.C,J104*%
X131100000Y-85000000D03*
D26*
X131100000Y-83000000D03*
X131100000Y-81000000D03*
X131100000Y-79000000D03*
%TD*%
D17*
%TO.C,J105*%
X105600000Y-74360000D03*
D18*
X105600000Y-76900000D03*
X105600000Y-79440000D03*
%TD*%
D27*
%TO.C,R206*%
X110650000Y-78980000D03*
X111670000Y-78980000D03*
%TD*%
D28*
%TO.C,U201*%
X117860000Y-75192500D03*
X117360000Y-75192500D03*
X116860000Y-75192500D03*
X116360000Y-75192500D03*
X115860000Y-75192500D03*
X115360000Y-75192500D03*
X114860000Y-75192500D03*
X114360000Y-75192500D03*
D29*
X113672500Y-75880000D03*
X113672500Y-76380000D03*
X113672500Y-76880000D03*
X113672500Y-77380000D03*
X113672500Y-77880000D03*
X113672500Y-78380000D03*
X113672500Y-78880000D03*
X113672500Y-79380000D03*
D28*
X114360000Y-80067500D03*
X114860000Y-80067500D03*
X115360000Y-80067500D03*
X115860000Y-80067500D03*
X116360000Y-80067500D03*
X116860000Y-80067500D03*
X117360000Y-80067500D03*
X117860000Y-80067500D03*
D29*
X118547500Y-79380000D03*
X118547500Y-78880000D03*
X118547500Y-78380000D03*
X118547500Y-77880000D03*
X118547500Y-77380000D03*
X118547500Y-76880000D03*
X118547500Y-76380000D03*
X118547500Y-75880000D03*
D30*
X116110000Y-77630000D03*
%TD*%
D27*
%TO.C,R201*%
X121380000Y-81990000D03*
X122400000Y-81990000D03*
%TD*%
D24*
%TO.C,C211*%
X111660000Y-79950000D03*
X110700000Y-79950000D03*
%TD*%
D31*
%TO.C,Y201*%
X124860000Y-78950000D03*
X123460000Y-78950000D03*
X123460000Y-80050000D03*
X124860000Y-80050000D03*
%TD*%
D32*
%TO.C,R205*%
X111670000Y-77980000D03*
X110650000Y-77980000D03*
%TD*%
D27*
%TO.C,R202*%
X110650000Y-75880000D03*
X111670000Y-75880000D03*
%TD*%
D33*
%TO.C,C212*%
X126160000Y-79390000D03*
X126160000Y-80350000D03*
%TD*%
D34*
%TO.C,C202*%
X117860000Y-73860000D03*
X118820000Y-73860000D03*
%TD*%
D20*
%TO.C,C301*%
X128135000Y-76270000D03*
X125185000Y-76270000D03*
%TD*%
D35*
%TO.C,U302*%
X119110000Y-83670000D03*
X118160000Y-83670000D03*
X117210000Y-83670000D03*
X117210000Y-85945000D03*
X118160000Y-85945000D03*
X119110000Y-85945000D03*
%TD*%
D24*
%TO.C,C208*%
X111660000Y-74880000D03*
X110700000Y-74880000D03*
%TD*%
D33*
%TO.C,C209*%
X114360000Y-81312500D03*
X114360000Y-82272500D03*
%TD*%
D34*
%TO.C,C201*%
X117890000Y-69890000D03*
X118850000Y-69890000D03*
%TD*%
D21*
%TO.C,REF\u002A\u002A*%
X131990000Y-95100000D03*
%TD*%
D10*
%TO.C,R302*%
X131410000Y-70440000D03*
X131410000Y-69420000D03*
%TD*%
D36*
%TO.C,SW201*%
X104370000Y-83830000D03*
X108520000Y-83830000D03*
X104370000Y-85980000D03*
X108520000Y-85980000D03*
%TD*%
D34*
%TO.C,C204*%
X120080000Y-75992500D03*
X121040000Y-75992500D03*
%TD*%
D36*
%TO.C,SW202*%
X110655000Y-83830000D03*
X114805000Y-83830000D03*
X110655000Y-85980000D03*
X114805000Y-85980000D03*
%TD*%
D19*
%TO.C,C205*%
X113340000Y-72059999D03*
X113340000Y-71099999D03*
%TD*%
D34*
%TO.C,C203*%
X120080000Y-75022500D03*
X121040000Y-75022500D03*
%TD*%
D17*
%TO.C,J102*%
X126395000Y-88675000D03*
D18*
X126395000Y-91215000D03*
X126395000Y-93755000D03*
%TD*%
D17*
%TO.C,J101*%
X109990000Y-93810000D03*
D18*
X109990000Y-91270000D03*
X109990000Y-88730000D03*
%TD*%
D37*
%TO.C,U301*%
X123070000Y-73810000D03*
X125370000Y-73810000D03*
D38*
X125370000Y-67510000D03*
D37*
X127670000Y-73810000D03*
%TD*%
D17*
%TO.C,J103*%
X105600000Y-67360000D03*
D18*
X105600000Y-69900000D03*
%TD*%
D19*
%TO.C,C206*%
X114360000Y-72060000D03*
X114360000Y-71100000D03*
%TD*%
D27*
%TO.C,R207*%
X122420000Y-77190000D03*
X123440000Y-77190000D03*
%TD*%
M02*
