%TF.GenerationSoftware,KiCad,Pcbnew,7.0.6-rc3*%
%TF.CreationDate,2023-07-14T23:43:47-04:00*%
%TF.ProjectId,esp,6573702e-6b69-4636-9164-5f7063625858,rev?*%
%TF.SameCoordinates,Original*%
%TF.FileFunction,Other,Comment*%
%FSLAX46Y46*%
G04 Gerber Fmt 4.6, Leading zero omitted, Abs format (unit mm)*
G04 Created by KiCad (PCBNEW 7.0.6-rc3) date 2023-07-14 23:43:47*
%MOMM*%
%LPD*%
G01*
G04 APERTURE LIST*
%ADD10C,0.150000*%
%ADD11C,0.020000*%
G04 APERTURE END LIST*
D10*
X112273933Y-55521009D02*
X112416790Y-55568628D01*
X112416790Y-55568628D02*
X112464409Y-55616247D01*
X112464409Y-55616247D02*
X112512028Y-55711485D01*
X112512028Y-55711485D02*
X112512028Y-55854342D01*
X112512028Y-55854342D02*
X112464409Y-55949580D01*
X112464409Y-55949580D02*
X112416790Y-55997200D01*
X112416790Y-55997200D02*
X112321552Y-56044819D01*
X112321552Y-56044819D02*
X111940600Y-56044819D01*
X111940600Y-56044819D02*
X111940600Y-55044819D01*
X111940600Y-55044819D02*
X112273933Y-55044819D01*
X112273933Y-55044819D02*
X112369171Y-55092438D01*
X112369171Y-55092438D02*
X112416790Y-55140057D01*
X112416790Y-55140057D02*
X112464409Y-55235295D01*
X112464409Y-55235295D02*
X112464409Y-55330533D01*
X112464409Y-55330533D02*
X112416790Y-55425771D01*
X112416790Y-55425771D02*
X112369171Y-55473390D01*
X112369171Y-55473390D02*
X112273933Y-55521009D01*
X112273933Y-55521009D02*
X111940600Y-55521009D01*
X113131076Y-55044819D02*
X113321552Y-55044819D01*
X113321552Y-55044819D02*
X113416790Y-55092438D01*
X113416790Y-55092438D02*
X113512028Y-55187676D01*
X113512028Y-55187676D02*
X113559647Y-55378152D01*
X113559647Y-55378152D02*
X113559647Y-55711485D01*
X113559647Y-55711485D02*
X113512028Y-55901961D01*
X113512028Y-55901961D02*
X113416790Y-55997200D01*
X113416790Y-55997200D02*
X113321552Y-56044819D01*
X113321552Y-56044819D02*
X113131076Y-56044819D01*
X113131076Y-56044819D02*
X113035838Y-55997200D01*
X113035838Y-55997200D02*
X112940600Y-55901961D01*
X112940600Y-55901961D02*
X112892981Y-55711485D01*
X112892981Y-55711485D02*
X112892981Y-55378152D01*
X112892981Y-55378152D02*
X112940600Y-55187676D01*
X112940600Y-55187676D02*
X113035838Y-55092438D01*
X113035838Y-55092438D02*
X113131076Y-55044819D01*
X113940600Y-55759104D02*
X114416790Y-55759104D01*
X113845362Y-56044819D02*
X114178695Y-55044819D01*
X114178695Y-55044819D02*
X114512028Y-56044819D01*
X115416790Y-56044819D02*
X115083457Y-55568628D01*
X114845362Y-56044819D02*
X114845362Y-55044819D01*
X114845362Y-55044819D02*
X115226314Y-55044819D01*
X115226314Y-55044819D02*
X115321552Y-55092438D01*
X115321552Y-55092438D02*
X115369171Y-55140057D01*
X115369171Y-55140057D02*
X115416790Y-55235295D01*
X115416790Y-55235295D02*
X115416790Y-55378152D01*
X115416790Y-55378152D02*
X115369171Y-55473390D01*
X115369171Y-55473390D02*
X115321552Y-55521009D01*
X115321552Y-55521009D02*
X115226314Y-55568628D01*
X115226314Y-55568628D02*
X114845362Y-55568628D01*
X115845362Y-56044819D02*
X115845362Y-55044819D01*
X115845362Y-55044819D02*
X116083457Y-55044819D01*
X116083457Y-55044819D02*
X116226314Y-55092438D01*
X116226314Y-55092438D02*
X116321552Y-55187676D01*
X116321552Y-55187676D02*
X116369171Y-55282914D01*
X116369171Y-55282914D02*
X116416790Y-55473390D01*
X116416790Y-55473390D02*
X116416790Y-55616247D01*
X116416790Y-55616247D02*
X116369171Y-55806723D01*
X116369171Y-55806723D02*
X116321552Y-55901961D01*
X116321552Y-55901961D02*
X116226314Y-55997200D01*
X116226314Y-55997200D02*
X116083457Y-56044819D01*
X116083457Y-56044819D02*
X115845362Y-56044819D01*
X117607267Y-55521009D02*
X117940600Y-55521009D01*
X118083457Y-56044819D02*
X117607267Y-56044819D01*
X117607267Y-56044819D02*
X117607267Y-55044819D01*
X117607267Y-55044819D02*
X118083457Y-55044819D01*
X118512029Y-56044819D02*
X118512029Y-55044819D01*
X118512029Y-55044819D02*
X118750124Y-55044819D01*
X118750124Y-55044819D02*
X118892981Y-55092438D01*
X118892981Y-55092438D02*
X118988219Y-55187676D01*
X118988219Y-55187676D02*
X119035838Y-55282914D01*
X119035838Y-55282914D02*
X119083457Y-55473390D01*
X119083457Y-55473390D02*
X119083457Y-55616247D01*
X119083457Y-55616247D02*
X119035838Y-55806723D01*
X119035838Y-55806723D02*
X118988219Y-55901961D01*
X118988219Y-55901961D02*
X118892981Y-55997200D01*
X118892981Y-55997200D02*
X118750124Y-56044819D01*
X118750124Y-56044819D02*
X118512029Y-56044819D01*
X120035838Y-55092438D02*
X119940600Y-55044819D01*
X119940600Y-55044819D02*
X119797743Y-55044819D01*
X119797743Y-55044819D02*
X119654886Y-55092438D01*
X119654886Y-55092438D02*
X119559648Y-55187676D01*
X119559648Y-55187676D02*
X119512029Y-55282914D01*
X119512029Y-55282914D02*
X119464410Y-55473390D01*
X119464410Y-55473390D02*
X119464410Y-55616247D01*
X119464410Y-55616247D02*
X119512029Y-55806723D01*
X119512029Y-55806723D02*
X119559648Y-55901961D01*
X119559648Y-55901961D02*
X119654886Y-55997200D01*
X119654886Y-55997200D02*
X119797743Y-56044819D01*
X119797743Y-56044819D02*
X119892981Y-56044819D01*
X119892981Y-56044819D02*
X120035838Y-55997200D01*
X120035838Y-55997200D02*
X120083457Y-55949580D01*
X120083457Y-55949580D02*
X120083457Y-55616247D01*
X120083457Y-55616247D02*
X119892981Y-55616247D01*
X120512029Y-55521009D02*
X120845362Y-55521009D01*
X120988219Y-56044819D02*
X120512029Y-56044819D01*
X120512029Y-56044819D02*
X120512029Y-55044819D01*
X120512029Y-55044819D02*
X120988219Y-55044819D01*
D11*
%TO.C,AE201*%
X105472100Y-56315000D02*
X131072100Y-56315000D01*
X105472100Y-63825000D02*
X131072100Y-63825000D01*
%TD*%
M02*
