%TF.GenerationSoftware,KiCad,Pcbnew,7.0.6-rc3*%
%TF.CreationDate,2023-07-14T23:43:46-04:00*%
%TF.ProjectId,esp,6573702e-6b69-4636-9164-5f7063625858,rev?*%
%TF.SameCoordinates,Original*%
%TF.FileFunction,Legend,Top*%
%TF.FilePolarity,Positive*%
%FSLAX46Y46*%
G04 Gerber Fmt 4.6, Leading zero omitted, Abs format (unit mm)*
G04 Created by KiCad (PCBNEW 7.0.6-rc3) date 2023-07-14 23:43:46*
%MOMM*%
%LPD*%
G01*
G04 APERTURE LIST*
G04 Aperture macros list*
%AMRoundRect*
0 Rectangle with rounded corners*
0 $1 Rounding radius*
0 $2 $3 $4 $5 $6 $7 $8 $9 X,Y pos of 4 corners*
0 Add a 4 corners polygon primitive as box body*
4,1,4,$2,$3,$4,$5,$6,$7,$8,$9,$2,$3,0*
0 Add four circle primitives for the rounded corners*
1,1,$1+$1,$2,$3*
1,1,$1+$1,$4,$5*
1,1,$1+$1,$6,$7*
1,1,$1+$1,$8,$9*
0 Add four rect primitives between the rounded corners*
20,1,$1+$1,$2,$3,$4,$5,0*
20,1,$1+$1,$4,$5,$6,$7,0*
20,1,$1+$1,$6,$7,$8,$9,0*
20,1,$1+$1,$8,$9,$2,$3,0*%
G04 Aperture macros list end*
%ADD10C,0.150000*%
%ADD11C,0.100000*%
%ADD12C,0.250000*%
%ADD13C,0.125000*%
%ADD14C,0.120000*%
%ADD15RoundRect,0.135000X0.185000X-0.135000X0.185000X0.135000X-0.185000X0.135000X-0.185000X-0.135000X0*%
%ADD16C,0.650000*%
%ADD17R,0.600000X1.450000*%
%ADD18R,0.300000X1.450000*%
%ADD19O,1.000000X2.100000*%
%ADD20O,1.000000X1.600000*%
%ADD21RoundRect,0.135000X-0.185000X0.135000X-0.185000X-0.135000X0.185000X-0.135000X0.185000X0.135000X0*%
%ADD22R,1.700000X1.700000*%
%ADD23O,1.700000X1.700000*%
%ADD24RoundRect,0.140000X0.170000X-0.140000X0.170000X0.140000X-0.170000X0.140000X-0.170000X-0.140000X0*%
%ADD25RoundRect,0.250000X0.325000X0.650000X-0.325000X0.650000X-0.325000X-0.650000X0.325000X-0.650000X0*%
%ADD26C,1.650000*%
%ADD27RoundRect,0.218750X-0.218750X-0.256250X0.218750X-0.256250X0.218750X0.256250X-0.218750X0.256250X0*%
%ADD28RoundRect,0.218750X-0.256250X0.218750X-0.256250X-0.218750X0.256250X-0.218750X0.256250X0.218750X0*%
%ADD29RoundRect,0.140000X0.140000X0.170000X-0.140000X0.170000X-0.140000X-0.170000X0.140000X-0.170000X0*%
%ADD30R,1.350000X1.350000*%
%ADD31O,1.350000X1.350000*%
%ADD32RoundRect,0.135000X-0.135000X-0.185000X0.135000X-0.185000X0.135000X0.185000X-0.135000X0.185000X0*%
%ADD33RoundRect,0.062500X-0.062500X0.375000X-0.062500X-0.375000X0.062500X-0.375000X0.062500X0.375000X0*%
%ADD34RoundRect,0.062500X-0.375000X0.062500X-0.375000X-0.062500X0.375000X-0.062500X0.375000X0.062500X0*%
%ADD35R,3.450000X3.450000*%
%ADD36R,0.900000X0.800000*%
%ADD37RoundRect,0.135000X0.135000X0.185000X-0.135000X0.185000X-0.135000X-0.185000X0.135000X-0.185000X0*%
%ADD38RoundRect,0.140000X-0.170000X0.140000X-0.170000X-0.140000X0.170000X-0.140000X0.170000X0.140000X0*%
%ADD39RoundRect,0.140000X-0.140000X-0.170000X0.140000X-0.170000X0.140000X0.170000X-0.140000X0.170000X0*%
%ADD40RoundRect,0.150000X-0.150000X0.512500X-0.150000X-0.512500X0.150000X-0.512500X0.150000X0.512500X0*%
%ADD41R,1.050000X0.650000*%
%ADD42R,1.500000X2.000000*%
%ADD43R,3.800000X2.000000*%
G04 APERTURE END LIST*
D10*
G36*
X129075425Y-80602536D02*
G01*
X129089592Y-80603667D01*
X129103353Y-80605551D01*
X129116707Y-80608189D01*
X129129655Y-80611581D01*
X129142196Y-80615726D01*
X129154331Y-80620625D01*
X129166059Y-80626278D01*
X129177381Y-80632685D01*
X129188297Y-80639845D01*
X129198806Y-80647759D01*
X129208909Y-80656427D01*
X129218605Y-80665848D01*
X129227895Y-80676024D01*
X129236778Y-80686953D01*
X129245255Y-80698635D01*
X129253300Y-80710974D01*
X129260826Y-80723933D01*
X129267832Y-80737513D01*
X129274320Y-80751712D01*
X129280289Y-80766532D01*
X129285738Y-80781972D01*
X129290669Y-80798032D01*
X129295081Y-80814712D01*
X129298973Y-80832012D01*
X129302347Y-80849932D01*
X129305201Y-80868473D01*
X129307537Y-80887633D01*
X129308510Y-80897446D01*
X129309354Y-80907414D01*
X129310067Y-80917537D01*
X129310651Y-80927815D01*
X129311105Y-80938248D01*
X129311430Y-80948836D01*
X129311624Y-80959579D01*
X129311689Y-80970478D01*
X129311624Y-80981375D01*
X129311430Y-80992116D01*
X129311105Y-81002700D01*
X129310651Y-81013128D01*
X129310067Y-81023400D01*
X129309354Y-81033515D01*
X129308510Y-81043474D01*
X129307537Y-81053276D01*
X129305201Y-81072411D01*
X129302347Y-81090920D01*
X129298973Y-81108803D01*
X129295081Y-81126060D01*
X129290669Y-81142692D01*
X129285738Y-81158697D01*
X129280289Y-81174077D01*
X129274320Y-81188831D01*
X129267832Y-81202959D01*
X129260826Y-81216461D01*
X129253300Y-81229337D01*
X129245255Y-81241587D01*
X129236778Y-81253122D01*
X129227895Y-81263912D01*
X129218605Y-81273959D01*
X129208909Y-81283261D01*
X129198806Y-81291819D01*
X129188297Y-81299633D01*
X129177381Y-81306703D01*
X129166059Y-81313028D01*
X129154331Y-81318609D01*
X129142196Y-81323447D01*
X129129655Y-81327540D01*
X129116707Y-81330888D01*
X129103353Y-81333493D01*
X129089592Y-81335353D01*
X129075425Y-81336470D01*
X129060852Y-81336842D01*
X128863748Y-81336842D01*
X128863748Y-80602159D01*
X129060852Y-80602159D01*
X129075425Y-80602536D01*
G37*
G36*
X129548580Y-81573488D02*
G01*
X127051491Y-81573488D01*
X127051491Y-80970233D01*
X127194348Y-80970233D01*
X127194419Y-80981384D01*
X127194630Y-80992490D01*
X127194983Y-81003550D01*
X127195478Y-81014563D01*
X127196113Y-81025531D01*
X127196890Y-81036454D01*
X127197807Y-81047330D01*
X127198866Y-81058161D01*
X127200067Y-81068946D01*
X127201408Y-81079685D01*
X127202891Y-81090378D01*
X127204515Y-81101025D01*
X127206280Y-81111627D01*
X127208186Y-81122183D01*
X127210233Y-81132693D01*
X127212422Y-81143157D01*
X127214802Y-81153491D01*
X127217364Y-81163670D01*
X127220107Y-81173694D01*
X127223031Y-81183564D01*
X127226137Y-81193279D01*
X127229423Y-81202840D01*
X127232892Y-81212246D01*
X127236541Y-81221498D01*
X127240371Y-81230595D01*
X127244383Y-81239538D01*
X127250741Y-81252662D01*
X127257507Y-81265438D01*
X127264680Y-81277866D01*
X127272261Y-81289947D01*
X127277544Y-81297788D01*
X127285815Y-81309184D01*
X127294503Y-81320142D01*
X127303607Y-81330662D01*
X127313127Y-81340744D01*
X127323064Y-81350388D01*
X127333417Y-81359595D01*
X127344187Y-81368363D01*
X127355374Y-81376693D01*
X127366976Y-81384586D01*
X127378995Y-81392041D01*
X127387289Y-81396714D01*
X127400148Y-81403158D01*
X127413510Y-81408924D01*
X127422697Y-81412391D01*
X127432107Y-81415557D01*
X127441740Y-81418421D01*
X127451597Y-81420983D01*
X127461676Y-81423245D01*
X127471980Y-81425204D01*
X127482506Y-81426862D01*
X127493255Y-81428219D01*
X127504228Y-81429274D01*
X127515424Y-81430028D01*
X127526844Y-81430480D01*
X127538486Y-81430631D01*
X127544260Y-81430594D01*
X127555648Y-81430294D01*
X127566822Y-81429695D01*
X127577782Y-81428796D01*
X127588529Y-81427598D01*
X127599062Y-81426100D01*
X127609381Y-81424302D01*
X127619487Y-81422205D01*
X127629379Y-81419809D01*
X127639057Y-81417113D01*
X127648521Y-81414117D01*
X127657772Y-81410821D01*
X127671247Y-81405317D01*
X127684242Y-81399138D01*
X127696755Y-81392285D01*
X127704874Y-81387360D01*
X127716697Y-81379593D01*
X127728095Y-81371372D01*
X127739068Y-81362695D01*
X127749616Y-81353563D01*
X127759739Y-81343976D01*
X127769437Y-81333934D01*
X127778710Y-81323437D01*
X127787557Y-81312484D01*
X127795980Y-81301077D01*
X127803978Y-81289214D01*
X127809079Y-81281079D01*
X127816399Y-81268593D01*
X127823319Y-81255768D01*
X127827711Y-81247030D01*
X127831925Y-81238141D01*
X127835961Y-81229101D01*
X127839821Y-81219911D01*
X127843502Y-81210569D01*
X127847007Y-81201077D01*
X127850334Y-81191434D01*
X127853483Y-81181641D01*
X127856455Y-81171696D01*
X127859249Y-81161601D01*
X127861866Y-81151356D01*
X127864306Y-81140959D01*
X127866613Y-81130425D01*
X127868771Y-81119828D01*
X127870780Y-81109168D01*
X127872641Y-81098446D01*
X127874352Y-81087660D01*
X127875915Y-81076811D01*
X127877329Y-81065899D01*
X127878594Y-81054924D01*
X127879711Y-81043887D01*
X127880678Y-81032786D01*
X127881497Y-81021623D01*
X127882166Y-81010396D01*
X127882687Y-80999106D01*
X127883059Y-80987754D01*
X127883283Y-80976338D01*
X127883357Y-80964860D01*
X127883357Y-80946053D01*
X127585136Y-80946053D01*
X127585136Y-81024211D01*
X127783706Y-81024211D01*
X127782042Y-81043447D01*
X127779981Y-81062137D01*
X127777523Y-81080282D01*
X127774669Y-81097881D01*
X127771417Y-81114934D01*
X127767769Y-81131441D01*
X127763724Y-81147403D01*
X127759282Y-81162819D01*
X127754443Y-81177689D01*
X127749207Y-81192013D01*
X127743574Y-81205792D01*
X127737544Y-81219025D01*
X127731117Y-81231712D01*
X127724294Y-81243854D01*
X127717073Y-81255450D01*
X127709456Y-81266500D01*
X127701461Y-81276911D01*
X127693107Y-81286650D01*
X127684394Y-81295717D01*
X127675323Y-81304113D01*
X127665893Y-81311837D01*
X127656104Y-81318890D01*
X127645957Y-81325271D01*
X127635450Y-81330980D01*
X127624585Y-81336017D01*
X127613362Y-81340383D01*
X127601779Y-81344077D01*
X127589838Y-81347100D01*
X127577538Y-81349451D01*
X127564880Y-81351130D01*
X127551862Y-81352137D01*
X127538486Y-81352473D01*
X127529485Y-81352338D01*
X127516349Y-81351627D01*
X127503651Y-81350306D01*
X127491391Y-81348375D01*
X127479568Y-81345835D01*
X127468184Y-81342685D01*
X127457237Y-81338925D01*
X127446729Y-81334556D01*
X127436658Y-81329577D01*
X127427025Y-81323989D01*
X127417830Y-81317791D01*
X127411949Y-81313378D01*
X127403400Y-81306470D01*
X127395177Y-81299213D01*
X127387280Y-81291609D01*
X127379709Y-81283657D01*
X127372465Y-81275357D01*
X127365547Y-81266710D01*
X127358955Y-81257715D01*
X127352690Y-81248371D01*
X127346751Y-81238681D01*
X127341138Y-81228642D01*
X127337601Y-81221751D01*
X127332543Y-81211217D01*
X127327781Y-81200447D01*
X127323315Y-81189441D01*
X127319146Y-81178199D01*
X127315272Y-81166721D01*
X127311695Y-81155007D01*
X127308414Y-81143056D01*
X127305430Y-81130870D01*
X127302741Y-81118447D01*
X127300349Y-81105788D01*
X127298900Y-81097244D01*
X127296902Y-81084447D01*
X127295113Y-81071670D01*
X127293536Y-81058916D01*
X127292168Y-81046182D01*
X127291011Y-81033470D01*
X127290064Y-81020780D01*
X127289328Y-81008111D01*
X127288802Y-80995464D01*
X127288487Y-80982838D01*
X127288381Y-80970233D01*
X127288428Y-80961746D01*
X127288674Y-80949015D01*
X127289129Y-80936284D01*
X127289796Y-80923552D01*
X127290672Y-80910821D01*
X127291759Y-80898090D01*
X127293056Y-80885359D01*
X127294564Y-80872628D01*
X127296282Y-80859897D01*
X127298211Y-80847165D01*
X127300349Y-80834434D01*
X127301911Y-80825966D01*
X127304501Y-80813449D01*
X127307387Y-80801156D01*
X127310569Y-80789086D01*
X127314047Y-80777239D01*
X127317821Y-80765616D01*
X127321892Y-80754216D01*
X127326259Y-80743039D01*
X127330923Y-80732085D01*
X127335882Y-80721355D01*
X127341138Y-80710847D01*
X127344843Y-80703970D01*
X127350674Y-80693970D01*
X127356830Y-80684347D01*
X127363313Y-80675102D01*
X127370123Y-80666235D01*
X127377258Y-80657746D01*
X127384720Y-80649634D01*
X127392508Y-80641900D01*
X127400622Y-80634544D01*
X127409063Y-80627566D01*
X127417830Y-80620966D01*
X127423911Y-80616796D01*
X127433398Y-80611045D01*
X127443323Y-80605899D01*
X127453686Y-80601359D01*
X127464486Y-80597424D01*
X127475725Y-80594095D01*
X127487401Y-80591371D01*
X127499516Y-80589252D01*
X127512068Y-80587738D01*
X127525058Y-80586830D01*
X127538486Y-80586528D01*
X127550080Y-80586803D01*
X127561536Y-80587627D01*
X127572856Y-80589001D01*
X127584037Y-80590924D01*
X127595082Y-80593397D01*
X127605989Y-80596420D01*
X127616758Y-80599992D01*
X127627390Y-80604113D01*
X127637775Y-80608651D01*
X127647800Y-80613593D01*
X127657467Y-80618940D01*
X127666775Y-80624691D01*
X127675724Y-80630846D01*
X127684314Y-80637407D01*
X127692546Y-80644371D01*
X127700419Y-80651741D01*
X127707972Y-80659499D01*
X127715119Y-80667632D01*
X127721863Y-80676138D01*
X127728202Y-80685019D01*
X127734136Y-80694273D01*
X127739666Y-80703902D01*
X127744791Y-80713904D01*
X127749512Y-80724281D01*
X127753805Y-80734943D01*
X127757526Y-80745805D01*
X127760675Y-80756864D01*
X127763251Y-80768122D01*
X127765254Y-80779579D01*
X127766685Y-80791234D01*
X127767544Y-80803087D01*
X127767830Y-80815139D01*
X127848186Y-80815139D01*
X127848186Y-80524002D01*
X128005723Y-80524002D01*
X128005723Y-81415000D01*
X128099756Y-81415000D01*
X128099756Y-80661266D01*
X128461724Y-81415000D01*
X128578472Y-81415000D01*
X128578472Y-80524002D01*
X128769714Y-80524002D01*
X128769714Y-80602159D01*
X128769714Y-81415000D01*
X129060852Y-81415000D01*
X129072346Y-81414861D01*
X129083627Y-81414446D01*
X129094695Y-81413754D01*
X129105548Y-81412786D01*
X129116188Y-81411541D01*
X129126614Y-81410019D01*
X129136827Y-81408221D01*
X129146825Y-81406146D01*
X129156610Y-81403794D01*
X129166181Y-81401165D01*
X129180138Y-81396704D01*
X129193613Y-81391620D01*
X129206607Y-81385913D01*
X129219121Y-81379584D01*
X129227239Y-81375028D01*
X129239062Y-81367821D01*
X129250461Y-81360167D01*
X129261434Y-81352067D01*
X129271982Y-81343520D01*
X129282105Y-81334527D01*
X129291802Y-81325088D01*
X129301075Y-81315201D01*
X129309923Y-81304869D01*
X129318346Y-81294090D01*
X129326344Y-81282864D01*
X129331445Y-81275154D01*
X129338765Y-81263300D01*
X129345685Y-81251097D01*
X129352206Y-81238547D01*
X129358327Y-81225649D01*
X129364049Y-81212404D01*
X129369372Y-81198810D01*
X129372699Y-81189555D01*
X129375849Y-81180145D01*
X129378821Y-81170580D01*
X129381615Y-81160861D01*
X129384232Y-81150987D01*
X129386672Y-81140959D01*
X129388979Y-81130791D01*
X129391137Y-81120557D01*
X129393146Y-81110259D01*
X129395006Y-81099896D01*
X129396718Y-81089468D01*
X129398281Y-81078975D01*
X129399695Y-81068417D01*
X129400960Y-81057794D01*
X129402076Y-81047107D01*
X129403044Y-81036354D01*
X129403862Y-81025537D01*
X129404532Y-81014655D01*
X129405053Y-81003708D01*
X129405425Y-80992696D01*
X129405648Y-80981619D01*
X129405723Y-80970478D01*
X129405646Y-80959338D01*
X129405417Y-80948267D01*
X129405036Y-80937264D01*
X129404501Y-80926331D01*
X129403814Y-80915466D01*
X129402975Y-80904669D01*
X129401983Y-80893942D01*
X129400838Y-80883283D01*
X129399540Y-80872693D01*
X129398090Y-80862171D01*
X129396487Y-80851718D01*
X129394732Y-80841334D01*
X129392824Y-80831019D01*
X129390763Y-80820772D01*
X129388549Y-80810594D01*
X129386183Y-80800484D01*
X129383654Y-80790485D01*
X129380951Y-80780636D01*
X129378075Y-80770938D01*
X129375024Y-80761390D01*
X129371801Y-80751994D01*
X129368403Y-80742748D01*
X129364832Y-80733653D01*
X129359150Y-80720292D01*
X129353077Y-80707272D01*
X129346613Y-80694590D01*
X129339759Y-80682247D01*
X129332514Y-80670244D01*
X129324878Y-80658579D01*
X129319594Y-80650984D01*
X129311313Y-80639959D01*
X129302606Y-80629377D01*
X129293475Y-80619237D01*
X129283919Y-80609539D01*
X129273938Y-80600283D01*
X129263531Y-80591470D01*
X129252700Y-80583099D01*
X129241444Y-80575170D01*
X129229762Y-80567683D01*
X129217656Y-80560638D01*
X129205155Y-80554091D01*
X129192199Y-80548187D01*
X129178788Y-80542928D01*
X129164922Y-80538313D01*
X129155425Y-80535594D01*
X129145726Y-80533161D01*
X129135825Y-80531014D01*
X129125721Y-80529154D01*
X129115415Y-80527579D01*
X129104907Y-80526291D01*
X129094197Y-80525290D01*
X129083284Y-80524574D01*
X129072169Y-80524145D01*
X129060852Y-80524002D01*
X128769714Y-80524002D01*
X128578472Y-80524002D01*
X128483706Y-80524002D01*
X128483706Y-81243053D01*
X128138347Y-80524002D01*
X128005723Y-80524002D01*
X127848186Y-80524002D01*
X127767830Y-80524002D01*
X127767830Y-80627316D01*
X127764198Y-80619926D01*
X127758295Y-80609291D01*
X127751847Y-80599198D01*
X127744854Y-80589645D01*
X127737316Y-80580633D01*
X127729232Y-80572163D01*
X127720603Y-80564233D01*
X127711429Y-80556844D01*
X127701710Y-80549996D01*
X127691445Y-80543689D01*
X127680635Y-80537923D01*
X127673154Y-80534345D01*
X127661580Y-80529410D01*
X127649586Y-80524994D01*
X127637171Y-80521098D01*
X127624336Y-80517721D01*
X127611079Y-80514864D01*
X127597402Y-80512526D01*
X127583304Y-80510708D01*
X127568786Y-80509409D01*
X127558873Y-80508832D01*
X127548773Y-80508485D01*
X127538486Y-80508370D01*
X127532637Y-80508408D01*
X127521106Y-80508709D01*
X127509798Y-80509312D01*
X127498714Y-80510217D01*
X127487853Y-80511423D01*
X127477215Y-80512930D01*
X127466800Y-80514739D01*
X127456609Y-80516849D01*
X127446641Y-80519261D01*
X127436896Y-80521975D01*
X127427374Y-80524990D01*
X127418076Y-80528306D01*
X127404547Y-80533846D01*
X127391520Y-80540064D01*
X127378995Y-80546960D01*
X127370936Y-80551884D01*
X127359195Y-80559646D01*
X127347870Y-80567858D01*
X127336961Y-80576522D01*
X127326469Y-80585636D01*
X127316393Y-80595201D01*
X127306734Y-80605216D01*
X127297491Y-80615683D01*
X127288665Y-80626600D01*
X127280255Y-80637968D01*
X127272261Y-80649787D01*
X127269689Y-80653820D01*
X127262244Y-80666143D01*
X127255206Y-80678801D01*
X127248576Y-80691795D01*
X127244383Y-80700643D01*
X127240371Y-80709640D01*
X127236541Y-80718785D01*
X127232892Y-80728080D01*
X127229423Y-80737523D01*
X127226137Y-80747116D01*
X127223031Y-80756857D01*
X127220107Y-80766747D01*
X127217364Y-80776785D01*
X127214802Y-80786973D01*
X127212422Y-80797309D01*
X127210233Y-80807745D01*
X127208186Y-80818230D01*
X127206280Y-80828765D01*
X127204515Y-80839350D01*
X127202891Y-80849984D01*
X127201408Y-80860667D01*
X127200067Y-80871401D01*
X127198866Y-80882184D01*
X127197807Y-80893016D01*
X127196890Y-80903898D01*
X127196113Y-80914830D01*
X127195478Y-80925812D01*
X127194983Y-80936843D01*
X127194630Y-80947923D01*
X127194419Y-80959053D01*
X127194348Y-80970233D01*
X127051491Y-80970233D01*
X127051491Y-80365513D01*
X129548580Y-80365513D01*
X129548580Y-81573488D01*
G37*
D11*
X116127693Y-93933609D02*
X116127693Y-94290752D01*
X116127693Y-94290752D02*
X116103884Y-94362180D01*
X116103884Y-94362180D02*
X116056265Y-94409800D01*
X116056265Y-94409800D02*
X115984836Y-94433609D01*
X115984836Y-94433609D02*
X115937217Y-94433609D01*
X116603883Y-94433609D02*
X116365788Y-94433609D01*
X116365788Y-94433609D02*
X116365788Y-93933609D01*
X117056264Y-94385990D02*
X117032455Y-94409800D01*
X117032455Y-94409800D02*
X116961026Y-94433609D01*
X116961026Y-94433609D02*
X116913407Y-94433609D01*
X116913407Y-94433609D02*
X116841979Y-94409800D01*
X116841979Y-94409800D02*
X116794360Y-94362180D01*
X116794360Y-94362180D02*
X116770550Y-94314561D01*
X116770550Y-94314561D02*
X116746741Y-94219323D01*
X116746741Y-94219323D02*
X116746741Y-94147895D01*
X116746741Y-94147895D02*
X116770550Y-94052657D01*
X116770550Y-94052657D02*
X116794360Y-94005038D01*
X116794360Y-94005038D02*
X116841979Y-93957419D01*
X116841979Y-93957419D02*
X116913407Y-93933609D01*
X116913407Y-93933609D02*
X116961026Y-93933609D01*
X116961026Y-93933609D02*
X117032455Y-93957419D01*
X117032455Y-93957419D02*
X117056264Y-93981228D01*
X117413407Y-93933609D02*
X117413407Y-94290752D01*
X117413407Y-94290752D02*
X117389598Y-94362180D01*
X117389598Y-94362180D02*
X117341979Y-94409800D01*
X117341979Y-94409800D02*
X117270550Y-94433609D01*
X117270550Y-94433609D02*
X117222931Y-94433609D01*
X117889597Y-94433609D02*
X117651502Y-94433609D01*
X117651502Y-94433609D02*
X117651502Y-93933609D01*
X118341978Y-94385990D02*
X118318169Y-94409800D01*
X118318169Y-94409800D02*
X118246740Y-94433609D01*
X118246740Y-94433609D02*
X118199121Y-94433609D01*
X118199121Y-94433609D02*
X118127693Y-94409800D01*
X118127693Y-94409800D02*
X118080074Y-94362180D01*
X118080074Y-94362180D02*
X118056264Y-94314561D01*
X118056264Y-94314561D02*
X118032455Y-94219323D01*
X118032455Y-94219323D02*
X118032455Y-94147895D01*
X118032455Y-94147895D02*
X118056264Y-94052657D01*
X118056264Y-94052657D02*
X118080074Y-94005038D01*
X118080074Y-94005038D02*
X118127693Y-93957419D01*
X118127693Y-93957419D02*
X118199121Y-93933609D01*
X118199121Y-93933609D02*
X118246740Y-93933609D01*
X118246740Y-93933609D02*
X118318169Y-93957419D01*
X118318169Y-93957419D02*
X118341978Y-93981228D01*
X118699121Y-93933609D02*
X118699121Y-94290752D01*
X118699121Y-94290752D02*
X118675312Y-94362180D01*
X118675312Y-94362180D02*
X118627693Y-94409800D01*
X118627693Y-94409800D02*
X118556264Y-94433609D01*
X118556264Y-94433609D02*
X118508645Y-94433609D01*
X119175311Y-94433609D02*
X118937216Y-94433609D01*
X118937216Y-94433609D02*
X118937216Y-93933609D01*
X119627692Y-94385990D02*
X119603883Y-94409800D01*
X119603883Y-94409800D02*
X119532454Y-94433609D01*
X119532454Y-94433609D02*
X119484835Y-94433609D01*
X119484835Y-94433609D02*
X119413407Y-94409800D01*
X119413407Y-94409800D02*
X119365788Y-94362180D01*
X119365788Y-94362180D02*
X119341978Y-94314561D01*
X119341978Y-94314561D02*
X119318169Y-94219323D01*
X119318169Y-94219323D02*
X119318169Y-94147895D01*
X119318169Y-94147895D02*
X119341978Y-94052657D01*
X119341978Y-94052657D02*
X119365788Y-94005038D01*
X119365788Y-94005038D02*
X119413407Y-93957419D01*
X119413407Y-93957419D02*
X119484835Y-93933609D01*
X119484835Y-93933609D02*
X119532454Y-93933609D01*
X119532454Y-93933609D02*
X119603883Y-93957419D01*
X119603883Y-93957419D02*
X119627692Y-93981228D01*
X119984835Y-93933609D02*
X119984835Y-94290752D01*
X119984835Y-94290752D02*
X119961026Y-94362180D01*
X119961026Y-94362180D02*
X119913407Y-94409800D01*
X119913407Y-94409800D02*
X119841978Y-94433609D01*
X119841978Y-94433609D02*
X119794359Y-94433609D01*
X120461025Y-94433609D02*
X120222930Y-94433609D01*
X120222930Y-94433609D02*
X120222930Y-93933609D01*
X120913406Y-94385990D02*
X120889597Y-94409800D01*
X120889597Y-94409800D02*
X120818168Y-94433609D01*
X120818168Y-94433609D02*
X120770549Y-94433609D01*
X120770549Y-94433609D02*
X120699121Y-94409800D01*
X120699121Y-94409800D02*
X120651502Y-94362180D01*
X120651502Y-94362180D02*
X120627692Y-94314561D01*
X120627692Y-94314561D02*
X120603883Y-94219323D01*
X120603883Y-94219323D02*
X120603883Y-94147895D01*
X120603883Y-94147895D02*
X120627692Y-94052657D01*
X120627692Y-94052657D02*
X120651502Y-94005038D01*
X120651502Y-94005038D02*
X120699121Y-93957419D01*
X120699121Y-93957419D02*
X120770549Y-93933609D01*
X120770549Y-93933609D02*
X120818168Y-93933609D01*
X120818168Y-93933609D02*
X120889597Y-93957419D01*
X120889597Y-93957419D02*
X120913406Y-93981228D01*
D10*
G36*
X128307153Y-82602200D02*
G01*
X128319187Y-82602522D01*
X128330892Y-82603167D01*
X128342266Y-82604134D01*
X128353311Y-82605424D01*
X128364025Y-82607037D01*
X128374409Y-82608972D01*
X128384463Y-82611229D01*
X128394187Y-82613809D01*
X128408154Y-82618283D01*
X128421378Y-82623483D01*
X128433860Y-82629409D01*
X128445598Y-82636060D01*
X128456594Y-82643436D01*
X128466721Y-82651599D01*
X128475851Y-82660607D01*
X128483986Y-82670461D01*
X128491124Y-82681160D01*
X128497266Y-82692706D01*
X128502413Y-82705097D01*
X128506563Y-82718334D01*
X128509717Y-82732417D01*
X128511267Y-82742276D01*
X128512373Y-82752510D01*
X128513037Y-82763120D01*
X128513259Y-82774106D01*
X128513037Y-82785238D01*
X128512373Y-82795981D01*
X128511267Y-82806335D01*
X128509717Y-82816299D01*
X128506563Y-82830516D01*
X128502413Y-82843857D01*
X128497266Y-82856322D01*
X128491124Y-82867911D01*
X128483986Y-82878624D01*
X128475851Y-82888462D01*
X128466721Y-82897423D01*
X128456594Y-82905509D01*
X128449346Y-82910419D01*
X128437855Y-82917189D01*
X128425621Y-82923247D01*
X128412645Y-82928592D01*
X128398925Y-82933225D01*
X128389366Y-82935917D01*
X128379477Y-82938293D01*
X128369258Y-82940352D01*
X128358709Y-82942094D01*
X128347830Y-82943519D01*
X128336621Y-82944628D01*
X128325081Y-82945420D01*
X128313211Y-82945895D01*
X128301012Y-82946053D01*
X128099756Y-82946053D01*
X128099756Y-82602159D01*
X128301012Y-82602159D01*
X128307153Y-82602200D01*
G37*
G36*
X129534169Y-83557857D02*
G01*
X127862865Y-83557857D01*
X127862865Y-82524002D01*
X128005722Y-82524002D01*
X128005722Y-82602159D01*
X128005722Y-83415000D01*
X128099756Y-83415000D01*
X128099756Y-83024211D01*
X128239218Y-83024211D01*
X128501047Y-83415000D01*
X128620481Y-83415000D01*
X128720132Y-83415000D01*
X128975122Y-83415000D01*
X128975122Y-83336842D01*
X128914550Y-83336842D01*
X129056699Y-83043018D01*
X129197627Y-83336842D01*
X129137299Y-83336842D01*
X129137299Y-83415000D01*
X129391312Y-83415000D01*
X129391312Y-83336842D01*
X129304117Y-83336842D01*
X129111654Y-82966325D01*
X129298499Y-82602159D01*
X129376169Y-82602159D01*
X129376169Y-82524002D01*
X129119958Y-82524002D01*
X129119958Y-82602159D01*
X129192254Y-82602159D01*
X129056699Y-82889389D01*
X128917481Y-82602159D01*
X128992219Y-82602159D01*
X128992219Y-82524002D01*
X128736008Y-82524002D01*
X128736008Y-82602159D01*
X128810991Y-82602159D01*
X129001744Y-82966325D01*
X128807571Y-83336842D01*
X128720132Y-83336842D01*
X128720132Y-83415000D01*
X128620481Y-83415000D01*
X128350593Y-83024211D01*
X128361051Y-83023304D01*
X128371358Y-83022139D01*
X128381516Y-83020716D01*
X128391523Y-83019036D01*
X128401379Y-83017098D01*
X128411086Y-83014903D01*
X128420642Y-83012450D01*
X128430048Y-83009740D01*
X128442356Y-83005725D01*
X128454396Y-83001252D01*
X128466154Y-82996302D01*
X128477492Y-82990979D01*
X128488411Y-82985281D01*
X128498909Y-82979209D01*
X128508988Y-82972763D01*
X128518647Y-82965944D01*
X128527887Y-82958750D01*
X128536706Y-82951182D01*
X128545087Y-82943222D01*
X128553009Y-82934849D01*
X128560474Y-82926063D01*
X128567481Y-82916866D01*
X128574029Y-82907257D01*
X128580120Y-82897235D01*
X128585753Y-82886801D01*
X128590928Y-82875956D01*
X128595622Y-82864671D01*
X128599690Y-82853043D01*
X128603132Y-82841071D01*
X128605949Y-82828756D01*
X128608139Y-82816097D01*
X128609372Y-82806378D01*
X128610252Y-82796465D01*
X128610780Y-82786359D01*
X128610956Y-82776060D01*
X128610639Y-82760611D01*
X128609689Y-82745648D01*
X128608105Y-82731172D01*
X128605888Y-82717182D01*
X128603037Y-82703679D01*
X128599553Y-82690663D01*
X128595435Y-82678133D01*
X128590684Y-82666090D01*
X128585299Y-82654533D01*
X128579281Y-82643463D01*
X128572629Y-82632880D01*
X128565343Y-82622783D01*
X128557425Y-82613172D01*
X128548872Y-82604048D01*
X128539686Y-82595411D01*
X128529867Y-82587260D01*
X128519471Y-82579600D01*
X128508553Y-82572434D01*
X128497115Y-82565762D01*
X128485155Y-82559585D01*
X128472675Y-82553901D01*
X128459674Y-82548712D01*
X128446152Y-82544017D01*
X128432109Y-82539816D01*
X128417545Y-82536110D01*
X128402460Y-82532897D01*
X128386854Y-82530179D01*
X128370728Y-82527955D01*
X128354080Y-82526226D01*
X128336911Y-82524990D01*
X128319222Y-82524249D01*
X128301012Y-82524002D01*
X128005722Y-82524002D01*
X127862865Y-82524002D01*
X127862865Y-82381145D01*
X129534169Y-82381145D01*
X129534169Y-83557857D01*
G37*
D12*
G36*
X105368753Y-82004188D02*
G01*
X105382889Y-82004895D01*
X105396425Y-82006206D01*
X105409359Y-82008123D01*
X105421693Y-82010646D01*
X105433425Y-82013773D01*
X105444556Y-82017506D01*
X105455086Y-82021845D01*
X105465015Y-82026789D01*
X105474343Y-82032338D01*
X105483070Y-82038492D01*
X105488512Y-82042901D01*
X105496017Y-82050019D01*
X105502732Y-82057742D01*
X105508656Y-82066070D01*
X105513791Y-82075004D01*
X105518136Y-82084543D01*
X105521691Y-82094687D01*
X105524456Y-82105437D01*
X105526431Y-82116792D01*
X105527616Y-82128753D01*
X105528011Y-82141318D01*
X105527835Y-82150030D01*
X105526913Y-82162564D01*
X105525202Y-82174459D01*
X105522700Y-82185714D01*
X105519409Y-82196329D01*
X105515327Y-82206305D01*
X105510456Y-82215641D01*
X105504794Y-82224337D01*
X105498343Y-82232393D01*
X105491101Y-82239810D01*
X105483070Y-82246587D01*
X105477319Y-82250728D01*
X105468191Y-82256438D01*
X105458463Y-82261547D01*
X105448133Y-82266055D01*
X105437202Y-82269962D01*
X105425670Y-82273268D01*
X105413537Y-82275973D01*
X105400803Y-82278076D01*
X105387468Y-82279579D01*
X105373532Y-82280481D01*
X105358995Y-82280781D01*
X105205854Y-82280781D01*
X105205854Y-82004054D01*
X105358995Y-82004054D01*
X105368753Y-82004188D01*
G37*
G36*
X107339779Y-82928488D02*
G01*
X104920848Y-82928488D01*
X104920848Y-81879002D01*
X105063705Y-81879002D01*
X105063705Y-82004054D01*
X105063705Y-82770000D01*
X105205854Y-82770000D01*
X105205854Y-82407299D01*
X105270334Y-82407299D01*
X105502609Y-82770000D01*
X105682616Y-82770000D01*
X105812554Y-82770000D01*
X105940293Y-82770000D01*
X105940293Y-82689644D01*
X105944898Y-82695942D01*
X105952017Y-82704968D01*
X105959389Y-82713488D01*
X105967015Y-82721501D01*
X105974894Y-82729007D01*
X105983026Y-82736006D01*
X105991412Y-82742499D01*
X106000051Y-82748486D01*
X106008943Y-82753965D01*
X106018088Y-82758938D01*
X106027487Y-82763405D01*
X106033886Y-82766096D01*
X106043667Y-82769808D01*
X106053667Y-82773129D01*
X106063886Y-82776059D01*
X106074324Y-82778599D01*
X106084980Y-82780747D01*
X106095856Y-82782505D01*
X106106951Y-82783873D01*
X106118265Y-82784850D01*
X106129797Y-82785436D01*
X106141549Y-82785631D01*
X106148546Y-82785561D01*
X106158949Y-82785196D01*
X106169240Y-82784517D01*
X106179419Y-82783524D01*
X106189487Y-82782218D01*
X106199443Y-82780599D01*
X106209288Y-82778666D01*
X106219021Y-82776420D01*
X106228642Y-82773861D01*
X106238152Y-82770988D01*
X106247550Y-82767801D01*
X106250651Y-82766672D01*
X106259789Y-82763100D01*
X106271593Y-82757909D01*
X106282961Y-82752231D01*
X106293895Y-82746064D01*
X106304394Y-82739408D01*
X106314457Y-82732264D01*
X106324086Y-82724631D01*
X106333279Y-82716510D01*
X106335524Y-82714405D01*
X106344206Y-82705696D01*
X106352415Y-82696529D01*
X106360150Y-82686904D01*
X106367413Y-82676822D01*
X106374202Y-82666281D01*
X106380518Y-82655283D01*
X106386361Y-82643826D01*
X106390432Y-82634933D01*
X106392976Y-82628837D01*
X106396483Y-82619499D01*
X106399622Y-82609929D01*
X106402391Y-82600127D01*
X106404791Y-82590094D01*
X106406822Y-82579828D01*
X106408483Y-82569331D01*
X106409776Y-82558602D01*
X106410699Y-82547641D01*
X106411252Y-82536448D01*
X106411437Y-82525024D01*
X106411338Y-82516649D01*
X106410817Y-82504394D01*
X106409849Y-82492509D01*
X106408436Y-82480993D01*
X106406575Y-82469846D01*
X106404268Y-82459068D01*
X106401515Y-82448660D01*
X106398315Y-82438621D01*
X106394668Y-82428951D01*
X106390575Y-82419650D01*
X106386036Y-82410718D01*
X106382804Y-82404912D01*
X106377746Y-82396410D01*
X106372435Y-82388156D01*
X106364958Y-82377539D01*
X106357032Y-82367365D01*
X106348655Y-82357634D01*
X106339828Y-82348345D01*
X106330551Y-82339499D01*
X106320823Y-82331095D01*
X106310706Y-82323016D01*
X106300261Y-82315265D01*
X106292211Y-82309667D01*
X106283978Y-82304254D01*
X106275559Y-82299026D01*
X106266956Y-82293982D01*
X106258168Y-82289122D01*
X106249196Y-82284448D01*
X106240039Y-82279957D01*
X106230697Y-82275652D01*
X106224436Y-82272833D01*
X106215033Y-82268679D01*
X106205617Y-82264615D01*
X106196188Y-82260642D01*
X106186746Y-82256758D01*
X106177291Y-82252965D01*
X106167824Y-82249262D01*
X106158343Y-82245649D01*
X106148850Y-82242127D01*
X106139344Y-82238694D01*
X106129825Y-82235352D01*
X106119838Y-82231425D01*
X106110148Y-82227582D01*
X106100756Y-82223823D01*
X106089435Y-82219242D01*
X106078579Y-82214793D01*
X106068188Y-82210474D01*
X106058262Y-82206287D01*
X106052584Y-82203751D01*
X106043531Y-82199448D01*
X106033344Y-82194159D01*
X106023896Y-82188732D01*
X106015186Y-82183168D01*
X106007215Y-82177466D01*
X106003498Y-82174551D01*
X105995475Y-82167515D01*
X105988364Y-82160152D01*
X105982165Y-82152462D01*
X105976196Y-82143272D01*
X105974319Y-82139677D01*
X105970217Y-82129419D01*
X105967704Y-82119642D01*
X105966196Y-82109117D01*
X105965694Y-82097843D01*
X105966331Y-82085204D01*
X105968243Y-82073297D01*
X105971430Y-82062123D01*
X105975891Y-82051681D01*
X105981627Y-82041973D01*
X105988637Y-82032997D01*
X105996923Y-82024754D01*
X106006482Y-82017243D01*
X106014359Y-82012092D01*
X106025428Y-82006013D01*
X106037146Y-82000834D01*
X106046360Y-81997541D01*
X106055939Y-81994755D01*
X106065883Y-81992475D01*
X106076192Y-81990702D01*
X106086866Y-81989436D01*
X106097905Y-81988676D01*
X106109309Y-81988422D01*
X106117959Y-81988596D01*
X106130517Y-81989508D01*
X106142571Y-81991201D01*
X106154124Y-81993675D01*
X106165174Y-81996931D01*
X106175722Y-82000968D01*
X106185768Y-82005787D01*
X106195311Y-82011386D01*
X106204353Y-82017768D01*
X106212891Y-82024930D01*
X106220928Y-82032875D01*
X106225956Y-82038537D01*
X106232889Y-82047542D01*
X106239093Y-82057161D01*
X106244567Y-82067395D01*
X106249311Y-82078242D01*
X106253326Y-82089703D01*
X106256610Y-82101778D01*
X106259165Y-82114467D01*
X106260989Y-82127770D01*
X106262084Y-82141686D01*
X106262449Y-82156217D01*
X106390188Y-82156217D01*
X106390188Y-81879002D01*
X106557983Y-81879002D01*
X106557983Y-82202379D01*
X106684501Y-82202379D01*
X106684501Y-82004054D01*
X106806622Y-82004054D01*
X106806622Y-82644947D01*
X106665205Y-82644947D01*
X106665205Y-82770000D01*
X107091165Y-82770000D01*
X107091165Y-82644947D01*
X106948771Y-82644947D01*
X106948771Y-82004054D01*
X107069672Y-82004054D01*
X107069672Y-82202379D01*
X107196922Y-82202379D01*
X107196922Y-81879002D01*
X106557983Y-81879002D01*
X106390188Y-81879002D01*
X106262449Y-81879002D01*
X106262449Y-81957892D01*
X106256144Y-81947470D01*
X106249199Y-81937574D01*
X106241612Y-81928205D01*
X106233384Y-81919363D01*
X106224515Y-81911047D01*
X106215005Y-81903258D01*
X106204853Y-81895996D01*
X106194061Y-81889260D01*
X106182734Y-81883192D01*
X106170858Y-81877933D01*
X106161590Y-81874520D01*
X106152013Y-81871562D01*
X106142127Y-81869059D01*
X106131932Y-81867011D01*
X106121427Y-81865418D01*
X106110614Y-81864280D01*
X106099491Y-81863598D01*
X106088060Y-81863370D01*
X106081366Y-81863430D01*
X106071411Y-81863746D01*
X106061559Y-81864332D01*
X106048584Y-81865534D01*
X106035792Y-81867217D01*
X106023183Y-81869381D01*
X106010757Y-81872025D01*
X105998514Y-81875151D01*
X105986454Y-81878757D01*
X105974727Y-81882837D01*
X105963358Y-81887382D01*
X105952348Y-81892393D01*
X105941697Y-81897869D01*
X105931404Y-81903811D01*
X105921471Y-81910219D01*
X105911896Y-81917092D01*
X105902679Y-81924431D01*
X105893925Y-81932163D01*
X105885613Y-81940337D01*
X105877744Y-81948954D01*
X105870317Y-81958014D01*
X105863333Y-81967517D01*
X105856792Y-81977462D01*
X105850694Y-81987850D01*
X105845038Y-81998681D01*
X105842435Y-82004234D01*
X105837733Y-82015691D01*
X105833703Y-82027613D01*
X105830345Y-82040001D01*
X105828267Y-82049597D01*
X105826567Y-82059455D01*
X105825245Y-82069575D01*
X105824300Y-82079957D01*
X105823733Y-82090601D01*
X105823545Y-82101507D01*
X105823755Y-82113899D01*
X105824386Y-82125887D01*
X105825438Y-82137472D01*
X105826910Y-82148653D01*
X105828804Y-82159431D01*
X105831118Y-82169805D01*
X105833853Y-82179776D01*
X105837008Y-82189343D01*
X105841870Y-82201471D01*
X105847480Y-82212882D01*
X105853747Y-82223659D01*
X105860456Y-82234009D01*
X105867607Y-82243931D01*
X105875202Y-82253426D01*
X105883239Y-82262493D01*
X105891719Y-82271133D01*
X105900641Y-82279346D01*
X105910006Y-82287131D01*
X105912428Y-82289000D01*
X105922310Y-82296287D01*
X105932506Y-82303276D01*
X105943014Y-82309968D01*
X105953835Y-82316363D01*
X105964969Y-82322459D01*
X105976416Y-82328258D01*
X105988176Y-82333759D01*
X105997201Y-82337690D01*
X106000254Y-82338968D01*
X106009413Y-82342754D01*
X106018572Y-82346467D01*
X106027732Y-82350107D01*
X106036891Y-82353674D01*
X106046050Y-82357168D01*
X106058262Y-82361713D01*
X106070474Y-82366129D01*
X106082686Y-82370414D01*
X106094898Y-82374570D01*
X106097454Y-82375546D01*
X106107506Y-82379419D01*
X106117284Y-82383247D01*
X106126786Y-82387029D01*
X106136014Y-82390765D01*
X106147162Y-82395371D01*
X106157881Y-82399905D01*
X106168171Y-82404368D01*
X106178072Y-82408838D01*
X106187472Y-82413546D01*
X106196371Y-82418493D01*
X106204769Y-82423678D01*
X106214186Y-82430216D01*
X106222882Y-82437096D01*
X106225649Y-82439467D01*
X106233460Y-82446820D01*
X106240533Y-82454534D01*
X106246867Y-82462608D01*
X106252463Y-82471043D01*
X106257320Y-82479839D01*
X106260125Y-82485976D01*
X106263631Y-82495753D01*
X106266296Y-82506217D01*
X106268119Y-82517368D01*
X106268996Y-82527186D01*
X106269288Y-82537480D01*
X106268942Y-82549220D01*
X106267905Y-82560349D01*
X106266177Y-82570870D01*
X106263758Y-82580780D01*
X106259457Y-82593046D01*
X106253927Y-82604227D01*
X106247168Y-82614325D01*
X106239181Y-82623339D01*
X106229965Y-82631270D01*
X106224983Y-82634819D01*
X106214443Y-82641230D01*
X106203131Y-82646726D01*
X106191049Y-82651305D01*
X106181481Y-82654139D01*
X106171480Y-82656457D01*
X106161045Y-82658260D01*
X106150176Y-82659548D01*
X106138874Y-82660321D01*
X106127138Y-82660579D01*
X106122422Y-82660532D01*
X106110774Y-82660006D01*
X106099329Y-82658896D01*
X106088086Y-82657201D01*
X106077047Y-82654922D01*
X106066210Y-82652059D01*
X106055575Y-82648611D01*
X106051424Y-82647072D01*
X106041322Y-82642849D01*
X106031613Y-82638089D01*
X106022297Y-82632793D01*
X106013376Y-82626960D01*
X106004847Y-82620590D01*
X105996713Y-82613684D01*
X105993576Y-82610744D01*
X105986067Y-82603042D01*
X105979036Y-82594839D01*
X105972481Y-82586136D01*
X105966404Y-82576931D01*
X105960803Y-82567226D01*
X105955680Y-82557020D01*
X105953817Y-82552766D01*
X105949684Y-82541783D01*
X105946303Y-82530298D01*
X105944139Y-82520750D01*
X105942456Y-82510881D01*
X105941254Y-82500691D01*
X105940533Y-82490181D01*
X105940293Y-82479351D01*
X105812554Y-82479351D01*
X105812554Y-82770000D01*
X105682616Y-82770000D01*
X105427138Y-82401926D01*
X105439908Y-82400029D01*
X105452448Y-82397758D01*
X105464759Y-82395113D01*
X105476842Y-82392095D01*
X105488695Y-82388702D01*
X105500320Y-82384935D01*
X105511715Y-82380795D01*
X105522882Y-82376280D01*
X105533762Y-82371372D01*
X105544299Y-82366052D01*
X105554492Y-82360320D01*
X105564342Y-82354176D01*
X105573848Y-82347620D01*
X105583011Y-82340651D01*
X105591831Y-82333270D01*
X105600307Y-82325478D01*
X105608431Y-82317280D01*
X105616075Y-82308686D01*
X105623239Y-82299695D01*
X105629921Y-82290307D01*
X105636122Y-82280522D01*
X105641843Y-82270340D01*
X105647083Y-82259761D01*
X105651842Y-82248785D01*
X105654060Y-82243114D01*
X105658067Y-82231452D01*
X105661502Y-82219362D01*
X105664364Y-82206844D01*
X105666135Y-82197176D01*
X105667584Y-82187267D01*
X105668711Y-82177117D01*
X105669516Y-82166727D01*
X105669999Y-82156097D01*
X105670160Y-82145226D01*
X105669840Y-82129022D01*
X105668882Y-82113322D01*
X105667283Y-82098126D01*
X105665046Y-82083433D01*
X105662170Y-82069244D01*
X105658654Y-82055559D01*
X105654499Y-82042377D01*
X105649705Y-82029699D01*
X105644271Y-82017525D01*
X105638199Y-82005855D01*
X105631487Y-81994689D01*
X105624135Y-81984026D01*
X105616145Y-81973867D01*
X105607516Y-81964212D01*
X105598247Y-81955060D01*
X105588339Y-81946413D01*
X105577883Y-81938250D01*
X105566910Y-81930613D01*
X105555420Y-81923503D01*
X105543413Y-81916920D01*
X105530889Y-81910864D01*
X105517848Y-81905334D01*
X105504290Y-81900331D01*
X105490214Y-81895854D01*
X105475622Y-81891904D01*
X105460512Y-81888481D01*
X105444885Y-81885585D01*
X105428741Y-81883215D01*
X105412080Y-81881372D01*
X105394902Y-81880055D01*
X105377207Y-81879265D01*
X105358995Y-81879002D01*
X105063705Y-81879002D01*
X104920848Y-81879002D01*
X104920848Y-81720513D01*
X107339779Y-81720513D01*
X107339779Y-82928488D01*
G37*
D10*
G36*
X109190240Y-70473488D02*
G01*
X107459829Y-70473488D01*
X107459829Y-70051217D01*
X107602686Y-70051217D01*
X107603466Y-70059555D01*
X107604925Y-70071843D01*
X107606731Y-70083869D01*
X107608886Y-70095634D01*
X107611388Y-70107136D01*
X107614238Y-70118377D01*
X107617436Y-70129356D01*
X107620982Y-70140073D01*
X107624875Y-70150528D01*
X107629116Y-70160721D01*
X107633705Y-70170652D01*
X107636943Y-70177119D01*
X107642036Y-70186568D01*
X107647413Y-70195717D01*
X107653073Y-70204566D01*
X107659017Y-70213114D01*
X107665243Y-70221361D01*
X107671753Y-70229308D01*
X107678547Y-70236955D01*
X107685624Y-70244301D01*
X107692984Y-70251346D01*
X107700628Y-70258091D01*
X107705870Y-70262423D01*
X107713931Y-70268682D01*
X107722228Y-70274654D01*
X107730761Y-70280337D01*
X107739530Y-70285733D01*
X107748535Y-70290842D01*
X107757777Y-70295662D01*
X107767254Y-70300195D01*
X107776968Y-70304441D01*
X107786918Y-70308399D01*
X107797103Y-70312069D01*
X107804011Y-70314316D01*
X107814515Y-70317416D01*
X107825191Y-70320190D01*
X107836039Y-70322637D01*
X107847059Y-70324758D01*
X107858250Y-70326552D01*
X107869613Y-70328021D01*
X107881148Y-70329163D01*
X107892854Y-70329978D01*
X107904733Y-70330468D01*
X107916782Y-70330631D01*
X107925654Y-70330534D01*
X107938801Y-70330023D01*
X107951755Y-70329074D01*
X107964515Y-70327687D01*
X107977083Y-70325863D01*
X107989457Y-70323600D01*
X108001638Y-70320899D01*
X108013625Y-70317761D01*
X108025420Y-70314185D01*
X108037021Y-70310170D01*
X108048429Y-70305718D01*
X108055932Y-70302533D01*
X108066929Y-70297486D01*
X108077616Y-70292117D01*
X108087995Y-70286426D01*
X108098064Y-70280413D01*
X108107824Y-70274079D01*
X108117275Y-70267422D01*
X108126417Y-70260443D01*
X108135250Y-70253142D01*
X108143774Y-70245519D01*
X108151988Y-70237575D01*
X108157290Y-70232082D01*
X108164974Y-70223625D01*
X108172337Y-70214906D01*
X108179377Y-70205925D01*
X108186096Y-70196682D01*
X108192492Y-70187177D01*
X108198566Y-70177411D01*
X108204319Y-70167382D01*
X108209749Y-70157092D01*
X108214857Y-70146539D01*
X108219644Y-70135725D01*
X108222631Y-70128397D01*
X108226750Y-70117287D01*
X108230436Y-70106034D01*
X108233688Y-70094641D01*
X108236507Y-70083105D01*
X108238892Y-70071428D01*
X108240843Y-70059609D01*
X108242361Y-70047649D01*
X108243445Y-70035547D01*
X108244095Y-70023303D01*
X108244312Y-70010917D01*
X108244221Y-70001693D01*
X108243740Y-69988072D01*
X108242847Y-69974708D01*
X108241542Y-69961602D01*
X108239824Y-69948754D01*
X108237695Y-69936163D01*
X108235153Y-69923829D01*
X108232199Y-69911754D01*
X108228833Y-69899935D01*
X108225055Y-69888375D01*
X108220865Y-69877072D01*
X108217891Y-69869694D01*
X108213155Y-69858896D01*
X108208088Y-69848419D01*
X108202690Y-69838265D01*
X108196962Y-69828432D01*
X108190904Y-69818922D01*
X108184515Y-69809734D01*
X108177795Y-69800867D01*
X108170744Y-69792323D01*
X108163364Y-69784100D01*
X108155652Y-69776200D01*
X108150368Y-69771114D01*
X108142207Y-69763760D01*
X108133762Y-69756737D01*
X108125033Y-69750044D01*
X108116022Y-69743682D01*
X108106727Y-69737651D01*
X108097148Y-69731950D01*
X108087286Y-69726580D01*
X108077141Y-69721540D01*
X108066713Y-69716831D01*
X108056001Y-69712452D01*
X108048750Y-69709702D01*
X108037702Y-69705909D01*
X108026448Y-69702515D01*
X108014987Y-69699520D01*
X108003321Y-69696925D01*
X107991448Y-69694729D01*
X107979370Y-69692932D01*
X107967085Y-69691535D01*
X107954594Y-69690536D01*
X107941898Y-69689937D01*
X107928995Y-69689738D01*
X107922135Y-69689832D01*
X107911881Y-69690328D01*
X107901670Y-69691249D01*
X107891502Y-69692595D01*
X107881377Y-69694366D01*
X107871295Y-69696562D01*
X107861255Y-69699183D01*
X107851259Y-69702229D01*
X107841306Y-69705700D01*
X107831395Y-69709597D01*
X107821528Y-69713918D01*
X107815008Y-69716990D01*
X107805392Y-69721899D01*
X107795974Y-69727168D01*
X107786753Y-69732798D01*
X107777730Y-69738789D01*
X107768904Y-69745140D01*
X107760276Y-69751852D01*
X107751846Y-69758924D01*
X107743612Y-69766358D01*
X107735577Y-69774151D01*
X107727739Y-69782306D01*
X107727739Y-69502159D01*
X108194975Y-69502159D01*
X108194975Y-69424002D01*
X108323447Y-69424002D01*
X108620202Y-70315000D01*
X108747941Y-70315000D01*
X109047383Y-69424002D01*
X108945045Y-69424002D01*
X108684682Y-70219989D01*
X108423098Y-69424002D01*
X108323447Y-69424002D01*
X108194975Y-69424002D01*
X107633705Y-69424002D01*
X107633705Y-69857777D01*
X107727739Y-69857777D01*
X107732431Y-69852363D01*
X107739662Y-69844551D01*
X107747125Y-69837108D01*
X107754820Y-69830034D01*
X107762747Y-69823329D01*
X107770906Y-69816994D01*
X107779297Y-69811027D01*
X107787919Y-69805430D01*
X107796773Y-69800202D01*
X107805859Y-69795344D01*
X107815177Y-69790854D01*
X107821514Y-69788074D01*
X107831084Y-69784240D01*
X107840731Y-69780810D01*
X107850456Y-69777783D01*
X107860257Y-69775160D01*
X107870136Y-69772940D01*
X107880093Y-69771124D01*
X107890126Y-69769712D01*
X107900237Y-69768703D01*
X107910425Y-69768097D01*
X107920690Y-69767896D01*
X107933612Y-69768186D01*
X107946244Y-69769056D01*
X107958586Y-69770506D01*
X107970638Y-69772536D01*
X107982400Y-69775146D01*
X107993872Y-69778337D01*
X108005053Y-69782107D01*
X108015945Y-69786458D01*
X108026482Y-69791316D01*
X108036599Y-69796609D01*
X108046296Y-69802338D01*
X108055573Y-69808501D01*
X108064431Y-69815099D01*
X108072869Y-69822133D01*
X108080887Y-69829601D01*
X108088485Y-69837505D01*
X108095664Y-69845759D01*
X108102422Y-69854403D01*
X108108761Y-69863436D01*
X108114680Y-69872859D01*
X108120180Y-69882671D01*
X108125259Y-69892872D01*
X108129919Y-69903462D01*
X108134159Y-69914441D01*
X108137937Y-69925673D01*
X108141211Y-69937141D01*
X108143982Y-69948845D01*
X108146249Y-69960786D01*
X108148012Y-69972964D01*
X108149271Y-69985379D01*
X108150027Y-69998030D01*
X108150279Y-70010917D01*
X108150027Y-70023282D01*
X108149271Y-70035464D01*
X108148012Y-70047462D01*
X108146249Y-70059277D01*
X108143982Y-70070909D01*
X108141211Y-70082358D01*
X108137937Y-70093624D01*
X108134159Y-70104706D01*
X108129907Y-70115476D01*
X108125213Y-70125925D01*
X108120076Y-70136053D01*
X108114497Y-70145861D01*
X108108475Y-70155349D01*
X108102010Y-70164515D01*
X108095103Y-70173362D01*
X108087752Y-70181887D01*
X108079982Y-70190020D01*
X108071816Y-70197687D01*
X108063252Y-70204888D01*
X108054291Y-70211624D01*
X108044934Y-70217894D01*
X108035179Y-70223698D01*
X108025028Y-70229037D01*
X108014480Y-70233911D01*
X108006358Y-70237228D01*
X107995195Y-70241144D01*
X107983651Y-70244479D01*
X107971725Y-70247235D01*
X107959418Y-70249410D01*
X107946728Y-70251005D01*
X107936961Y-70251821D01*
X107926979Y-70252310D01*
X107916782Y-70252473D01*
X107905181Y-70252221D01*
X107893824Y-70251466D01*
X107882711Y-70250206D01*
X107871842Y-70248443D01*
X107861217Y-70246176D01*
X107850837Y-70243406D01*
X107840701Y-70240131D01*
X107830809Y-70236353D01*
X107821196Y-70232079D01*
X107811895Y-70227438D01*
X107802908Y-70222431D01*
X107794234Y-70217058D01*
X107785872Y-70211318D01*
X107777824Y-70205212D01*
X107770088Y-70198740D01*
X107762665Y-70191901D01*
X107755632Y-70184692D01*
X107748942Y-70177109D01*
X107742595Y-70169152D01*
X107736592Y-70160821D01*
X107730933Y-70152116D01*
X107725617Y-70143037D01*
X107720644Y-70133584D01*
X107716015Y-70123757D01*
X107711771Y-70113579D01*
X107707955Y-70103195D01*
X107704566Y-70092605D01*
X107701605Y-70081809D01*
X107699071Y-70070806D01*
X107696964Y-70059598D01*
X107695285Y-70048183D01*
X107694033Y-70036563D01*
X107602686Y-70051217D01*
X107459829Y-70051217D01*
X107459829Y-69281145D01*
X109190240Y-69281145D01*
X109190240Y-70473488D01*
G37*
G36*
X108912790Y-74162805D02*
G01*
X108915308Y-74173063D01*
X108917674Y-74183443D01*
X108919888Y-74193946D01*
X108921949Y-74204570D01*
X108923857Y-74215317D01*
X108925612Y-74226186D01*
X108927215Y-74237177D01*
X108928703Y-74248252D01*
X108929993Y-74259494D01*
X108931085Y-74270905D01*
X108931978Y-74282484D01*
X108932672Y-74294230D01*
X108933169Y-74306145D01*
X108933466Y-74318227D01*
X108933565Y-74330478D01*
X108933502Y-74341502D01*
X108933310Y-74352379D01*
X108932990Y-74363110D01*
X108932543Y-74373693D01*
X108931967Y-74384130D01*
X108931264Y-74394420D01*
X108930433Y-74404562D01*
X108929474Y-74414558D01*
X108928388Y-74424407D01*
X108927173Y-74434109D01*
X108924361Y-74453072D01*
X108921037Y-74471448D01*
X108917201Y-74489235D01*
X108912854Y-74506435D01*
X108907996Y-74523048D01*
X108902627Y-74539072D01*
X108896746Y-74554509D01*
X108890354Y-74569358D01*
X108883450Y-74583620D01*
X108876035Y-74597294D01*
X108868108Y-74610380D01*
X108859750Y-74622743D01*
X108850977Y-74634308D01*
X108841790Y-74645076D01*
X108832189Y-74655046D01*
X108822174Y-74664218D01*
X108811746Y-74672593D01*
X108800902Y-74680170D01*
X108789645Y-74686950D01*
X108777974Y-74692932D01*
X108765889Y-74698116D01*
X108753390Y-74702503D01*
X108740476Y-74706092D01*
X108727149Y-74708884D01*
X108713407Y-74710878D01*
X108699252Y-74712075D01*
X108684682Y-74712473D01*
X108669302Y-74712003D01*
X108654365Y-74710592D01*
X108639871Y-74708240D01*
X108625819Y-74704948D01*
X108612211Y-74700714D01*
X108599044Y-74695540D01*
X108586321Y-74689426D01*
X108574040Y-74682370D01*
X108562202Y-74674374D01*
X108550806Y-74665438D01*
X108539854Y-74655560D01*
X108529344Y-74644742D01*
X108519276Y-74632983D01*
X108509651Y-74620283D01*
X108500469Y-74606643D01*
X108491730Y-74592062D01*
X108910118Y-74152669D01*
X108912790Y-74162805D01*
G37*
G36*
X108692709Y-73946657D02*
G01*
X108704509Y-73947333D01*
X108716021Y-73948589D01*
X108727246Y-73950424D01*
X108738184Y-73952839D01*
X108748833Y-73955834D01*
X108759195Y-73959408D01*
X108769269Y-73963562D01*
X108779056Y-73968295D01*
X108788555Y-73973608D01*
X108797766Y-73979501D01*
X108803751Y-73983705D01*
X108812503Y-73990438D01*
X108820985Y-73997681D01*
X108829196Y-74005436D01*
X108837136Y-74013701D01*
X108844806Y-74022478D01*
X108852206Y-74031765D01*
X108859335Y-74041563D01*
X108866194Y-74051872D01*
X108872782Y-74062692D01*
X108879099Y-74074023D01*
X108459490Y-74516102D01*
X108456592Y-74505185D01*
X108453880Y-74494170D01*
X108451356Y-74483058D01*
X108449018Y-74471848D01*
X108446868Y-74460542D01*
X108444904Y-74449138D01*
X108443128Y-74437636D01*
X108441538Y-74426038D01*
X108440136Y-74414342D01*
X108438920Y-74402548D01*
X108437892Y-74390658D01*
X108437050Y-74378670D01*
X108436396Y-74366584D01*
X108435928Y-74354402D01*
X108435648Y-74342122D01*
X108435554Y-74329745D01*
X108435617Y-74318675D01*
X108435804Y-74307754D01*
X108436117Y-74296982D01*
X108436554Y-74286357D01*
X108437117Y-74275881D01*
X108437804Y-74265554D01*
X108438616Y-74255375D01*
X108439554Y-74245344D01*
X108440616Y-74235461D01*
X108441803Y-74225727D01*
X108444553Y-74206704D01*
X108447803Y-74188274D01*
X108451552Y-74170437D01*
X108455802Y-74153194D01*
X108460551Y-74136545D01*
X108465800Y-74120489D01*
X108471550Y-74105026D01*
X108477799Y-74090157D01*
X108484548Y-74075881D01*
X108491797Y-74062199D01*
X108499546Y-74049110D01*
X108507797Y-74036688D01*
X108516490Y-74025067D01*
X108525626Y-74014248D01*
X108535205Y-74004230D01*
X108545227Y-73995014D01*
X108555691Y-73986599D01*
X108566598Y-73978985D01*
X108577948Y-73972173D01*
X108589740Y-73966163D01*
X108601975Y-73960953D01*
X108614653Y-73956546D01*
X108627773Y-73952939D01*
X108641337Y-73950134D01*
X108655342Y-73948131D01*
X108669791Y-73946928D01*
X108684682Y-73946528D01*
X108692709Y-73946657D01*
G37*
G36*
X107939416Y-73962536D02*
G01*
X107953583Y-73963667D01*
X107967344Y-73965551D01*
X107980698Y-73968189D01*
X107993646Y-73971581D01*
X108006187Y-73975726D01*
X108018322Y-73980625D01*
X108030050Y-73986278D01*
X108041372Y-73992685D01*
X108052288Y-73999845D01*
X108062797Y-74007759D01*
X108072899Y-74016427D01*
X108082596Y-74025848D01*
X108091886Y-74036024D01*
X108100769Y-74046953D01*
X108109246Y-74058635D01*
X108117291Y-74070974D01*
X108124816Y-74083933D01*
X108131823Y-74097513D01*
X108138311Y-74111712D01*
X108144279Y-74126532D01*
X108149729Y-74141972D01*
X108154660Y-74158032D01*
X108159071Y-74174712D01*
X108162964Y-74192012D01*
X108166338Y-74209932D01*
X108169192Y-74228473D01*
X108171528Y-74247633D01*
X108172501Y-74257446D01*
X108173344Y-74267414D01*
X108174058Y-74277537D01*
X108174642Y-74287815D01*
X108175096Y-74298248D01*
X108175420Y-74308836D01*
X108175615Y-74319579D01*
X108175680Y-74330478D01*
X108175615Y-74341375D01*
X108175420Y-74352116D01*
X108175096Y-74362700D01*
X108174642Y-74373128D01*
X108174058Y-74383400D01*
X108173344Y-74393515D01*
X108172501Y-74403474D01*
X108171528Y-74413276D01*
X108169192Y-74432411D01*
X108166338Y-74450920D01*
X108162964Y-74468803D01*
X108159071Y-74486060D01*
X108154660Y-74502692D01*
X108149729Y-74518697D01*
X108144279Y-74534077D01*
X108138311Y-74548831D01*
X108131823Y-74562959D01*
X108124816Y-74576461D01*
X108117291Y-74589337D01*
X108109246Y-74601587D01*
X108100769Y-74613122D01*
X108091886Y-74623912D01*
X108082596Y-74633959D01*
X108072899Y-74643261D01*
X108062797Y-74651819D01*
X108052288Y-74659633D01*
X108041372Y-74666703D01*
X108030050Y-74673028D01*
X108018322Y-74678609D01*
X108006187Y-74683447D01*
X107993646Y-74687540D01*
X107980698Y-74690888D01*
X107967344Y-74693493D01*
X107953583Y-74695353D01*
X107939416Y-74696470D01*
X107924842Y-74696842D01*
X107727739Y-74696842D01*
X107727739Y-73962159D01*
X107924842Y-73962159D01*
X107939416Y-73962536D01*
G37*
G36*
X109171189Y-74933488D02*
G01*
X107490848Y-74933488D01*
X107490848Y-73884002D01*
X107633705Y-73884002D01*
X107633705Y-73962159D01*
X107633705Y-74775000D01*
X107924842Y-74775000D01*
X107936337Y-74774861D01*
X107947618Y-74774446D01*
X107958685Y-74773754D01*
X107969539Y-74772786D01*
X107980179Y-74771541D01*
X107990605Y-74770019D01*
X108000817Y-74768221D01*
X108010816Y-74766146D01*
X108020601Y-74763794D01*
X108030172Y-74761165D01*
X108044128Y-74756704D01*
X108057604Y-74751620D01*
X108070598Y-74745913D01*
X108083112Y-74739584D01*
X108091230Y-74735028D01*
X108103053Y-74727821D01*
X108114451Y-74720167D01*
X108125424Y-74712067D01*
X108135972Y-74703520D01*
X108146095Y-74694527D01*
X108155793Y-74685088D01*
X108165066Y-74675201D01*
X108173914Y-74664869D01*
X108182337Y-74654090D01*
X108190334Y-74642864D01*
X108195436Y-74635154D01*
X108202755Y-74623300D01*
X108209675Y-74611097D01*
X108216196Y-74598547D01*
X108222318Y-74585649D01*
X108228040Y-74572404D01*
X108233363Y-74558810D01*
X108236690Y-74549555D01*
X108239839Y-74540145D01*
X108242811Y-74530580D01*
X108245606Y-74520861D01*
X108248223Y-74510987D01*
X108250662Y-74500959D01*
X108252969Y-74490791D01*
X108255128Y-74480557D01*
X108257137Y-74470259D01*
X108258997Y-74459896D01*
X108260709Y-74449468D01*
X108262272Y-74438975D01*
X108263686Y-74428417D01*
X108264951Y-74417794D01*
X108266067Y-74407107D01*
X108267034Y-74396354D01*
X108267853Y-74385537D01*
X108268523Y-74374655D01*
X108269044Y-74363708D01*
X108269416Y-74352696D01*
X108269639Y-74341619D01*
X108269713Y-74330478D01*
X108269711Y-74330233D01*
X108341277Y-74330233D01*
X108341348Y-74341384D01*
X108341563Y-74352490D01*
X108341921Y-74363550D01*
X108342421Y-74374563D01*
X108343065Y-74385531D01*
X108343853Y-74396454D01*
X108344783Y-74407330D01*
X108345856Y-74418161D01*
X108347073Y-74428946D01*
X108348432Y-74439685D01*
X108349935Y-74450378D01*
X108351581Y-74461025D01*
X108353369Y-74471627D01*
X108355301Y-74482183D01*
X108357377Y-74492693D01*
X108359595Y-74503157D01*
X108361943Y-74513491D01*
X108364468Y-74523670D01*
X108367171Y-74533694D01*
X108370051Y-74543564D01*
X108373109Y-74553279D01*
X108376344Y-74562840D01*
X108379757Y-74572246D01*
X108383347Y-74581498D01*
X108387115Y-74590595D01*
X108387762Y-74592062D01*
X108391060Y-74599538D01*
X108397310Y-74612662D01*
X108403960Y-74625438D01*
X108411009Y-74637866D01*
X108418457Y-74649947D01*
X108423682Y-74657788D01*
X108431876Y-74669184D01*
X108440500Y-74680142D01*
X108449553Y-74690662D01*
X108459036Y-74700744D01*
X108468948Y-74710388D01*
X108479289Y-74719595D01*
X108490060Y-74728363D01*
X108501259Y-74736693D01*
X108512889Y-74744586D01*
X108524947Y-74752041D01*
X108533271Y-74756714D01*
X108546176Y-74763158D01*
X108559584Y-74768924D01*
X108568801Y-74772391D01*
X108578242Y-74775557D01*
X108587906Y-74778421D01*
X108597793Y-74780983D01*
X108607903Y-74783245D01*
X108618236Y-74785204D01*
X108628793Y-74786862D01*
X108639573Y-74788219D01*
X108650577Y-74789274D01*
X108661803Y-74790028D01*
X108673253Y-74790480D01*
X108684926Y-74790631D01*
X108690775Y-74790593D01*
X108702306Y-74790292D01*
X108713614Y-74789689D01*
X108724698Y-74788784D01*
X108735560Y-74787578D01*
X108746198Y-74786071D01*
X108756612Y-74784262D01*
X108766804Y-74782152D01*
X108776772Y-74779740D01*
X108786517Y-74777026D01*
X108796038Y-74774012D01*
X108805337Y-74770695D01*
X108818866Y-74765155D01*
X108831892Y-74758937D01*
X108844417Y-74752041D01*
X108852531Y-74747120D01*
X108864334Y-74739373D01*
X108875695Y-74731188D01*
X108886614Y-74722566D01*
X108897090Y-74713506D01*
X108907124Y-74704007D01*
X108916717Y-74694071D01*
X108925866Y-74683697D01*
X108934574Y-74672885D01*
X108942839Y-74661635D01*
X108950662Y-74649947D01*
X108958071Y-74637866D01*
X108965094Y-74625438D01*
X108971730Y-74612662D01*
X108977979Y-74599538D01*
X108981931Y-74590595D01*
X108985711Y-74581498D01*
X108989320Y-74572246D01*
X108992756Y-74562840D01*
X108996021Y-74553279D01*
X108999114Y-74543564D01*
X109002035Y-74533694D01*
X109004785Y-74523670D01*
X109007363Y-74513491D01*
X109009769Y-74503157D01*
X109012017Y-74492693D01*
X109014120Y-74482183D01*
X109016078Y-74471627D01*
X109017890Y-74461025D01*
X109019558Y-74450378D01*
X109021081Y-74439685D01*
X109022458Y-74428946D01*
X109023691Y-74418161D01*
X109024779Y-74407330D01*
X109025721Y-74396454D01*
X109026519Y-74385531D01*
X109027172Y-74374563D01*
X109027679Y-74363550D01*
X109028042Y-74352490D01*
X109028259Y-74341384D01*
X109028332Y-74330233D01*
X109028259Y-74319053D01*
X109028042Y-74307923D01*
X109027679Y-74296843D01*
X109027172Y-74285812D01*
X109026519Y-74274830D01*
X109025721Y-74263898D01*
X109024779Y-74253016D01*
X109023691Y-74242184D01*
X109022458Y-74231401D01*
X109021081Y-74220667D01*
X109019558Y-74209984D01*
X109017890Y-74199350D01*
X109016078Y-74188765D01*
X109014120Y-74178230D01*
X109012017Y-74167745D01*
X109009769Y-74157309D01*
X109007360Y-74146973D01*
X109004774Y-74136785D01*
X109002010Y-74126747D01*
X108999068Y-74116857D01*
X108995949Y-74107116D01*
X108992653Y-74097523D01*
X108989179Y-74088080D01*
X108985528Y-74078785D01*
X108981699Y-74069640D01*
X108977693Y-74060643D01*
X108971351Y-74047426D01*
X108964610Y-74034545D01*
X108957470Y-74021998D01*
X108949930Y-74009787D01*
X108944704Y-74001857D01*
X108936505Y-73990339D01*
X108927872Y-73979272D01*
X108918805Y-73968655D01*
X108909304Y-73958489D01*
X108899370Y-73948774D01*
X108889003Y-73939510D01*
X108878201Y-73930696D01*
X108866966Y-73922333D01*
X108855298Y-73914422D01*
X108843196Y-73906960D01*
X108834878Y-73902287D01*
X108822008Y-73895843D01*
X108808666Y-73890077D01*
X108799509Y-73886610D01*
X108790141Y-73883444D01*
X108780564Y-73880580D01*
X108770778Y-73878018D01*
X108760781Y-73875756D01*
X108750574Y-73873797D01*
X108740158Y-73872139D01*
X108729531Y-73870782D01*
X108718695Y-73869727D01*
X108707648Y-73868973D01*
X108696392Y-73868521D01*
X108684926Y-73868370D01*
X108679152Y-73868408D01*
X108667762Y-73868709D01*
X108656584Y-73869312D01*
X108645618Y-73870217D01*
X108634864Y-73871423D01*
X108624321Y-73872930D01*
X108613991Y-73874739D01*
X108603872Y-73876849D01*
X108593965Y-73879261D01*
X108584269Y-73881975D01*
X108574786Y-73884990D01*
X108565514Y-73888306D01*
X108552004Y-73893846D01*
X108538970Y-73900064D01*
X108526413Y-73906960D01*
X108518298Y-73911884D01*
X108506495Y-73919646D01*
X108495134Y-73927858D01*
X108484216Y-73936522D01*
X108473739Y-73945636D01*
X108463705Y-73955201D01*
X108454113Y-73965216D01*
X108444963Y-73975683D01*
X108436256Y-73986600D01*
X108427990Y-73997968D01*
X108420167Y-74009787D01*
X108412795Y-74021998D01*
X108405793Y-74034545D01*
X108399160Y-74047426D01*
X108392896Y-74060643D01*
X108388925Y-74069640D01*
X108385118Y-74078785D01*
X108381475Y-74088080D01*
X108377997Y-74097523D01*
X108374682Y-74107116D01*
X108371532Y-74116857D01*
X108368546Y-74126747D01*
X108365724Y-74136785D01*
X108363066Y-74146973D01*
X108360572Y-74157309D01*
X108358235Y-74167745D01*
X108356049Y-74178230D01*
X108354014Y-74188765D01*
X108352130Y-74199350D01*
X108350397Y-74209984D01*
X108348814Y-74220667D01*
X108347382Y-74231401D01*
X108346100Y-74242184D01*
X108344970Y-74253016D01*
X108343990Y-74263898D01*
X108343161Y-74274830D01*
X108342482Y-74285812D01*
X108341955Y-74296843D01*
X108341578Y-74307923D01*
X108341352Y-74319053D01*
X108341280Y-74329745D01*
X108341277Y-74330233D01*
X108269711Y-74330233D01*
X108269637Y-74319338D01*
X108269408Y-74308267D01*
X108269026Y-74297264D01*
X108268492Y-74286331D01*
X108267805Y-74275466D01*
X108266966Y-74264669D01*
X108265973Y-74253942D01*
X108264829Y-74243283D01*
X108263531Y-74232693D01*
X108262081Y-74222171D01*
X108260478Y-74211718D01*
X108258722Y-74201334D01*
X108256814Y-74191019D01*
X108254754Y-74180772D01*
X108252540Y-74170594D01*
X108250174Y-74160484D01*
X108247645Y-74150485D01*
X108244942Y-74140636D01*
X108242065Y-74130938D01*
X108239015Y-74121390D01*
X108235791Y-74111994D01*
X108232394Y-74102748D01*
X108228823Y-74093653D01*
X108223141Y-74080292D01*
X108217068Y-74067272D01*
X108210604Y-74054590D01*
X108203750Y-74042247D01*
X108196505Y-74030244D01*
X108188869Y-74018579D01*
X108183584Y-74010984D01*
X108175303Y-73999959D01*
X108166597Y-73989377D01*
X108157466Y-73979237D01*
X108147910Y-73969539D01*
X108137928Y-73960283D01*
X108127522Y-73951470D01*
X108116691Y-73943099D01*
X108105434Y-73935170D01*
X108093753Y-73927683D01*
X108081646Y-73920638D01*
X108069146Y-73914091D01*
X108056190Y-73908187D01*
X108042779Y-73902928D01*
X108028913Y-73898313D01*
X108019416Y-73895594D01*
X108009717Y-73893161D01*
X107999816Y-73891014D01*
X107989712Y-73889154D01*
X107979406Y-73887579D01*
X107968898Y-73886291D01*
X107958187Y-73885290D01*
X107947275Y-73884574D01*
X107936160Y-73884145D01*
X107924842Y-73884002D01*
X107633705Y-73884002D01*
X107490848Y-73884002D01*
X107490848Y-73725513D01*
X109171189Y-73725513D01*
X109171189Y-74933488D01*
G37*
G36*
X107939416Y-76502536D02*
G01*
X107953583Y-76503667D01*
X107967344Y-76505551D01*
X107980698Y-76508189D01*
X107993646Y-76511581D01*
X108006187Y-76515726D01*
X108018322Y-76520625D01*
X108030050Y-76526278D01*
X108041372Y-76532685D01*
X108052288Y-76539845D01*
X108062797Y-76547759D01*
X108072899Y-76556427D01*
X108082596Y-76565848D01*
X108091886Y-76576024D01*
X108100769Y-76586953D01*
X108109246Y-76598635D01*
X108117291Y-76610974D01*
X108124816Y-76623933D01*
X108131823Y-76637513D01*
X108138311Y-76651712D01*
X108144279Y-76666532D01*
X108149729Y-76681972D01*
X108154660Y-76698032D01*
X108159071Y-76714712D01*
X108162964Y-76732012D01*
X108166338Y-76749932D01*
X108169192Y-76768473D01*
X108171528Y-76787633D01*
X108172501Y-76797446D01*
X108173344Y-76807414D01*
X108174058Y-76817537D01*
X108174642Y-76827815D01*
X108175096Y-76838248D01*
X108175420Y-76848836D01*
X108175615Y-76859579D01*
X108175680Y-76870478D01*
X108175615Y-76881375D01*
X108175420Y-76892116D01*
X108175096Y-76902700D01*
X108174642Y-76913128D01*
X108174058Y-76923400D01*
X108173344Y-76933515D01*
X108172501Y-76943474D01*
X108171528Y-76953276D01*
X108169192Y-76972411D01*
X108166338Y-76990920D01*
X108162964Y-77008803D01*
X108159071Y-77026060D01*
X108154660Y-77042692D01*
X108149729Y-77058697D01*
X108144279Y-77074077D01*
X108138311Y-77088831D01*
X108131823Y-77102959D01*
X108124816Y-77116461D01*
X108117291Y-77129337D01*
X108109246Y-77141587D01*
X108100769Y-77153122D01*
X108091886Y-77163912D01*
X108082596Y-77173959D01*
X108072899Y-77183261D01*
X108062797Y-77191819D01*
X108052288Y-77199633D01*
X108041372Y-77206703D01*
X108030050Y-77213028D01*
X108018322Y-77218609D01*
X108006187Y-77223447D01*
X107993646Y-77227540D01*
X107980698Y-77230888D01*
X107967344Y-77233493D01*
X107953583Y-77235353D01*
X107939416Y-77236470D01*
X107924842Y-77236842D01*
X107727739Y-77236842D01*
X107727739Y-76502159D01*
X107924842Y-76502159D01*
X107939416Y-76502536D01*
G37*
G36*
X109018537Y-77457857D02*
G01*
X107490848Y-77457857D01*
X107490848Y-76424002D01*
X107633705Y-76424002D01*
X107633705Y-76502159D01*
X107633705Y-77315000D01*
X107924842Y-77315000D01*
X107936337Y-77314861D01*
X107947618Y-77314446D01*
X107958685Y-77313754D01*
X107969539Y-77312786D01*
X107980179Y-77311541D01*
X107990605Y-77310019D01*
X108000817Y-77308221D01*
X108010816Y-77306146D01*
X108020601Y-77303794D01*
X108030172Y-77301165D01*
X108044128Y-77296704D01*
X108057604Y-77291620D01*
X108070598Y-77285913D01*
X108083112Y-77279584D01*
X108091230Y-77275028D01*
X108103053Y-77267821D01*
X108114451Y-77260167D01*
X108125424Y-77252067D01*
X108135972Y-77243520D01*
X108146095Y-77234527D01*
X108155793Y-77225088D01*
X108165066Y-77215201D01*
X108173914Y-77204869D01*
X108182337Y-77194090D01*
X108190334Y-77182864D01*
X108195436Y-77175154D01*
X108202755Y-77163300D01*
X108209675Y-77151097D01*
X108216196Y-77138547D01*
X108222318Y-77125649D01*
X108228040Y-77112404D01*
X108233363Y-77098810D01*
X108236690Y-77089555D01*
X108239839Y-77080145D01*
X108242811Y-77070580D01*
X108245606Y-77060861D01*
X108248223Y-77050987D01*
X108250662Y-77040959D01*
X108252969Y-77030791D01*
X108255128Y-77020557D01*
X108257137Y-77010259D01*
X108258997Y-76999896D01*
X108260709Y-76989468D01*
X108262272Y-76978975D01*
X108263686Y-76968417D01*
X108264951Y-76957794D01*
X108266067Y-76947107D01*
X108267034Y-76936354D01*
X108267853Y-76925537D01*
X108268523Y-76914655D01*
X108269044Y-76903708D01*
X108269416Y-76892696D01*
X108269639Y-76881619D01*
X108269713Y-76870478D01*
X108269637Y-76859338D01*
X108269408Y-76848267D01*
X108269026Y-76837264D01*
X108268492Y-76826331D01*
X108267805Y-76815466D01*
X108267183Y-76807463D01*
X108363991Y-76807463D01*
X108375604Y-76807184D01*
X108387118Y-76806349D01*
X108398532Y-76804956D01*
X108409848Y-76803005D01*
X108421064Y-76800498D01*
X108432181Y-76797434D01*
X108443198Y-76793812D01*
X108454117Y-76789633D01*
X108464932Y-76784985D01*
X108475519Y-76780077D01*
X108485876Y-76774910D01*
X108496004Y-76769483D01*
X108505904Y-76763797D01*
X108515574Y-76757851D01*
X108525016Y-76751646D01*
X108534228Y-76745181D01*
X108543231Y-76738499D01*
X108551921Y-76731641D01*
X108560297Y-76724607D01*
X108568361Y-76717398D01*
X108576112Y-76710014D01*
X108583550Y-76702454D01*
X108590675Y-76694718D01*
X108597487Y-76686807D01*
X108602398Y-76680842D01*
X108608552Y-76672996D01*
X108615611Y-76663360D01*
X108621966Y-76653914D01*
X108627618Y-76644660D01*
X108632566Y-76635596D01*
X108636810Y-76626723D01*
X108636810Y-77236842D01*
X108491730Y-77236842D01*
X108491730Y-77315000D01*
X108875680Y-77315000D01*
X108875680Y-77236842D01*
X108731577Y-77236842D01*
X108731577Y-76424002D01*
X108636810Y-76424002D01*
X108636705Y-76430324D01*
X108635866Y-76442987D01*
X108634187Y-76455672D01*
X108631668Y-76468380D01*
X108629228Y-76477927D01*
X108626316Y-76487486D01*
X108622931Y-76497058D01*
X108619074Y-76506642D01*
X108614745Y-76516240D01*
X108609944Y-76525851D01*
X108606532Y-76532191D01*
X108601214Y-76541547D01*
X108595655Y-76550718D01*
X108589857Y-76559704D01*
X108583817Y-76568507D01*
X108577538Y-76577124D01*
X108571017Y-76585557D01*
X108564257Y-76593805D01*
X108557256Y-76601869D01*
X108550014Y-76609748D01*
X108542533Y-76617442D01*
X108537435Y-76622424D01*
X108529678Y-76629690D01*
X108521787Y-76636707D01*
X108513764Y-76643474D01*
X108505607Y-76649993D01*
X108497317Y-76656263D01*
X108488895Y-76662283D01*
X108480339Y-76668055D01*
X108471650Y-76673578D01*
X108462828Y-76678851D01*
X108453872Y-76683876D01*
X108450886Y-76685469D01*
X108441996Y-76689944D01*
X108430303Y-76695203D01*
X108418793Y-76699653D01*
X108407466Y-76703293D01*
X108396323Y-76706125D01*
X108385362Y-76708148D01*
X108374585Y-76709361D01*
X108363991Y-76709766D01*
X108363991Y-76807463D01*
X108267183Y-76807463D01*
X108266966Y-76804669D01*
X108265973Y-76793942D01*
X108264829Y-76783283D01*
X108263531Y-76772693D01*
X108262081Y-76762171D01*
X108260478Y-76751718D01*
X108258722Y-76741334D01*
X108256814Y-76731019D01*
X108254754Y-76720772D01*
X108252540Y-76710594D01*
X108250174Y-76700484D01*
X108247645Y-76690485D01*
X108244942Y-76680636D01*
X108242065Y-76670938D01*
X108239015Y-76661390D01*
X108235791Y-76651994D01*
X108232394Y-76642748D01*
X108228823Y-76633653D01*
X108223141Y-76620292D01*
X108217068Y-76607272D01*
X108210604Y-76594590D01*
X108203750Y-76582247D01*
X108196505Y-76570244D01*
X108188869Y-76558579D01*
X108183584Y-76550984D01*
X108175303Y-76539959D01*
X108166597Y-76529377D01*
X108157466Y-76519237D01*
X108147910Y-76509539D01*
X108137928Y-76500283D01*
X108127522Y-76491470D01*
X108116691Y-76483099D01*
X108105434Y-76475170D01*
X108093753Y-76467683D01*
X108081646Y-76460638D01*
X108069146Y-76454091D01*
X108056190Y-76448187D01*
X108042779Y-76442928D01*
X108028913Y-76438313D01*
X108019416Y-76435594D01*
X108009717Y-76433161D01*
X107999816Y-76431014D01*
X107989712Y-76429154D01*
X107979406Y-76427579D01*
X107968898Y-76426291D01*
X107958187Y-76425290D01*
X107947275Y-76424574D01*
X107936160Y-76424145D01*
X107924842Y-76424002D01*
X107633705Y-76424002D01*
X107490848Y-76424002D01*
X107490848Y-76281145D01*
X109018537Y-76281145D01*
X109018537Y-77457857D01*
G37*
D13*
G36*
X111652264Y-81941631D02*
G01*
X111663081Y-81942172D01*
X111673671Y-81943176D01*
X111684033Y-81944645D01*
X111694167Y-81946577D01*
X111704074Y-81948972D01*
X111713753Y-81951832D01*
X111723205Y-81955155D01*
X111732429Y-81958942D01*
X111741426Y-81963192D01*
X111750195Y-81967906D01*
X111755937Y-81971297D01*
X111764333Y-81976734D01*
X111772467Y-81982591D01*
X111780339Y-81988869D01*
X111787949Y-81995568D01*
X111795297Y-82002688D01*
X111802383Y-82010229D01*
X111809207Y-82018190D01*
X111815769Y-82026572D01*
X111822070Y-82035375D01*
X111828108Y-82044598D01*
X111832019Y-82050939D01*
X111837667Y-82060758D01*
X111843053Y-82070946D01*
X111848177Y-82081503D01*
X111853039Y-82092430D01*
X111857640Y-82103726D01*
X111861978Y-82115391D01*
X111866054Y-82127425D01*
X111869869Y-82139828D01*
X111873422Y-82152601D01*
X111876713Y-82165743D01*
X111879724Y-82179180D01*
X111882440Y-82192931D01*
X111884859Y-82206995D01*
X111886982Y-82221373D01*
X111888233Y-82231132D01*
X111889352Y-82241031D01*
X111890340Y-82251068D01*
X111891196Y-82261245D01*
X111891920Y-82271562D01*
X111892512Y-82282018D01*
X111892973Y-82292613D01*
X111893302Y-82303347D01*
X111893500Y-82314220D01*
X111893565Y-82325233D01*
X111893523Y-82333634D01*
X111893297Y-82346253D01*
X111892879Y-82358893D01*
X111892267Y-82371555D01*
X111891462Y-82384238D01*
X111890464Y-82396943D01*
X111889272Y-82409669D01*
X111887888Y-82422416D01*
X111886310Y-82435185D01*
X111884539Y-82447976D01*
X111882575Y-82460788D01*
X111881131Y-82469254D01*
X111878705Y-82481755D01*
X111875965Y-82494020D01*
X111872911Y-82506050D01*
X111869545Y-82517843D01*
X111865865Y-82529400D01*
X111861871Y-82540720D01*
X111857564Y-82551805D01*
X111852944Y-82562654D01*
X111848010Y-82573266D01*
X111842763Y-82583642D01*
X111839085Y-82590373D01*
X111833285Y-82600180D01*
X111827147Y-82609639D01*
X111820669Y-82618750D01*
X111813852Y-82627513D01*
X111806695Y-82635929D01*
X111799200Y-82643997D01*
X111791365Y-82651717D01*
X111783192Y-82659089D01*
X111774679Y-82666114D01*
X111765826Y-82672791D01*
X111759716Y-82676991D01*
X111750188Y-82682782D01*
X111740227Y-82687964D01*
X111729832Y-82692537D01*
X111719003Y-82696500D01*
X111707741Y-82699853D01*
X111696045Y-82702596D01*
X111683916Y-82704730D01*
X111671353Y-82706254D01*
X111658356Y-82707169D01*
X111644926Y-82707473D01*
X111635837Y-82707338D01*
X111622578Y-82706627D01*
X111609771Y-82705306D01*
X111597414Y-82703375D01*
X111585507Y-82700835D01*
X111574052Y-82697685D01*
X111563048Y-82693925D01*
X111552494Y-82689556D01*
X111542391Y-82684577D01*
X111532739Y-82678989D01*
X111523538Y-82672791D01*
X111517658Y-82668378D01*
X111509113Y-82661470D01*
X111500899Y-82654213D01*
X111493016Y-82646609D01*
X111485463Y-82638657D01*
X111478241Y-82630357D01*
X111471350Y-82621710D01*
X111464789Y-82612715D01*
X111458558Y-82603371D01*
X111452659Y-82593681D01*
X111447090Y-82583642D01*
X111443555Y-82576751D01*
X111438506Y-82566217D01*
X111433763Y-82555447D01*
X111429324Y-82544441D01*
X111425191Y-82533199D01*
X111421362Y-82521721D01*
X111417838Y-82510007D01*
X111414618Y-82498056D01*
X111411704Y-82485870D01*
X111409094Y-82473447D01*
X111406789Y-82460788D01*
X111405429Y-82452244D01*
X111403553Y-82439447D01*
X111401874Y-82426670D01*
X111400393Y-82413916D01*
X111399109Y-82401182D01*
X111398023Y-82388470D01*
X111397134Y-82375780D01*
X111396443Y-82363111D01*
X111395949Y-82350464D01*
X111395653Y-82337838D01*
X111395554Y-82325233D01*
X111395598Y-82316746D01*
X111395829Y-82304015D01*
X111396256Y-82291284D01*
X111396882Y-82278552D01*
X111397705Y-82265821D01*
X111398725Y-82253090D01*
X111399943Y-82240359D01*
X111401358Y-82227628D01*
X111402971Y-82214897D01*
X111404782Y-82202165D01*
X111406789Y-82189434D01*
X111408292Y-82180966D01*
X111410800Y-82168449D01*
X111413613Y-82156156D01*
X111416731Y-82144086D01*
X111420153Y-82132239D01*
X111423880Y-82120616D01*
X111427913Y-82109216D01*
X111432250Y-82098039D01*
X111436891Y-82087085D01*
X111441838Y-82076355D01*
X111447090Y-82065847D01*
X111450766Y-82058970D01*
X111456555Y-82048970D01*
X111462675Y-82039347D01*
X111469126Y-82030102D01*
X111475907Y-82021235D01*
X111483019Y-82012746D01*
X111490462Y-82004634D01*
X111498235Y-81996900D01*
X111506338Y-81989544D01*
X111514773Y-81982566D01*
X111523538Y-81975966D01*
X111529622Y-81971796D01*
X111539124Y-81966045D01*
X111549076Y-81960899D01*
X111559480Y-81956359D01*
X111570334Y-81952424D01*
X111581639Y-81949095D01*
X111593395Y-81946371D01*
X111605601Y-81944252D01*
X111618259Y-81942738D01*
X111631367Y-81941830D01*
X111644926Y-81941528D01*
X111652264Y-81941631D01*
G37*
G36*
X112416256Y-81941631D02*
G01*
X112427073Y-81942172D01*
X112437662Y-81943176D01*
X112448024Y-81944645D01*
X112458159Y-81946577D01*
X112468065Y-81948972D01*
X112477745Y-81951832D01*
X112487196Y-81955155D01*
X112496421Y-81958942D01*
X112505417Y-81963192D01*
X112514187Y-81967906D01*
X112519929Y-81971297D01*
X112528325Y-81976734D01*
X112536458Y-81982591D01*
X112544330Y-81988869D01*
X112551940Y-81995568D01*
X112559288Y-82002688D01*
X112566374Y-82010229D01*
X112573199Y-82018190D01*
X112579761Y-82026572D01*
X112586061Y-82035375D01*
X112592100Y-82044598D01*
X112596011Y-82050939D01*
X112601659Y-82060758D01*
X112607045Y-82070946D01*
X112612169Y-82081503D01*
X112617031Y-82092430D01*
X112621631Y-82103726D01*
X112625970Y-82115391D01*
X112630046Y-82127425D01*
X112633861Y-82139828D01*
X112637413Y-82152601D01*
X112640704Y-82165743D01*
X112643716Y-82179180D01*
X112646432Y-82192931D01*
X112648851Y-82206995D01*
X112650974Y-82221373D01*
X112652225Y-82231132D01*
X112653344Y-82241031D01*
X112654331Y-82251068D01*
X112655187Y-82261245D01*
X112655911Y-82271562D01*
X112656504Y-82282018D01*
X112656965Y-82292613D01*
X112657294Y-82303347D01*
X112657491Y-82314220D01*
X112657557Y-82325233D01*
X112657514Y-82333634D01*
X112657289Y-82346253D01*
X112656870Y-82358893D01*
X112656258Y-82371555D01*
X112655453Y-82384238D01*
X112654455Y-82396943D01*
X112653264Y-82409669D01*
X112651879Y-82422416D01*
X112650301Y-82435185D01*
X112648530Y-82447976D01*
X112646566Y-82460788D01*
X112645123Y-82469254D01*
X112642696Y-82481755D01*
X112639956Y-82494020D01*
X112636903Y-82506050D01*
X112633536Y-82517843D01*
X112629856Y-82529400D01*
X112625863Y-82540720D01*
X112621556Y-82551805D01*
X112616935Y-82562654D01*
X112612002Y-82573266D01*
X112606755Y-82583642D01*
X112603077Y-82590373D01*
X112597277Y-82600180D01*
X112591138Y-82609639D01*
X112584660Y-82618750D01*
X112577843Y-82627513D01*
X112570687Y-82635929D01*
X112563192Y-82643997D01*
X112555357Y-82651717D01*
X112547183Y-82659089D01*
X112538670Y-82666114D01*
X112529818Y-82672791D01*
X112523707Y-82676991D01*
X112514180Y-82682782D01*
X112504218Y-82687964D01*
X112493823Y-82692537D01*
X112482995Y-82696500D01*
X112471733Y-82699853D01*
X112460037Y-82702596D01*
X112447908Y-82704730D01*
X112435345Y-82706254D01*
X112422348Y-82707169D01*
X112408918Y-82707473D01*
X112399828Y-82707338D01*
X112386570Y-82706627D01*
X112373762Y-82705306D01*
X112361405Y-82703375D01*
X112349499Y-82700835D01*
X112338044Y-82697685D01*
X112327039Y-82693925D01*
X112316486Y-82689556D01*
X112306383Y-82684577D01*
X112296730Y-82678989D01*
X112287529Y-82672791D01*
X112281649Y-82668378D01*
X112273105Y-82661470D01*
X112264891Y-82654213D01*
X112257008Y-82646609D01*
X112249455Y-82638657D01*
X112242233Y-82630357D01*
X112235341Y-82621710D01*
X112228780Y-82612715D01*
X112222550Y-82603371D01*
X112216650Y-82593681D01*
X112211081Y-82583642D01*
X112207546Y-82576751D01*
X112202498Y-82566217D01*
X112197755Y-82555447D01*
X112193316Y-82544441D01*
X112189182Y-82533199D01*
X112185353Y-82521721D01*
X112181829Y-82510007D01*
X112178610Y-82498056D01*
X112175696Y-82485870D01*
X112173086Y-82473447D01*
X112170781Y-82460788D01*
X112169421Y-82452244D01*
X112167544Y-82439447D01*
X112165866Y-82426670D01*
X112164384Y-82413916D01*
X112163101Y-82401182D01*
X112162015Y-82388470D01*
X112161126Y-82375780D01*
X112160435Y-82363111D01*
X112159941Y-82350464D01*
X112159645Y-82337838D01*
X112159546Y-82325233D01*
X112159590Y-82316746D01*
X112159820Y-82304015D01*
X112160248Y-82291284D01*
X112160873Y-82278552D01*
X112161696Y-82265821D01*
X112162717Y-82253090D01*
X112163935Y-82240359D01*
X112165350Y-82227628D01*
X112166963Y-82214897D01*
X112168773Y-82202165D01*
X112170781Y-82189434D01*
X112172284Y-82180966D01*
X112174792Y-82168449D01*
X112177605Y-82156156D01*
X112180722Y-82144086D01*
X112184145Y-82132239D01*
X112187872Y-82120616D01*
X112191904Y-82109216D01*
X112196241Y-82098039D01*
X112200883Y-82087085D01*
X112205830Y-82076355D01*
X112211081Y-82065847D01*
X112214757Y-82058970D01*
X112220547Y-82048970D01*
X112226667Y-82039347D01*
X112233118Y-82030102D01*
X112239899Y-82021235D01*
X112247011Y-82012746D01*
X112254453Y-82004634D01*
X112262226Y-81996900D01*
X112270330Y-81989544D01*
X112278764Y-81982566D01*
X112287529Y-81975966D01*
X112293613Y-81971796D01*
X112303115Y-81966045D01*
X112313068Y-81960899D01*
X112323471Y-81956359D01*
X112334326Y-81952424D01*
X112345631Y-81949095D01*
X112357386Y-81946371D01*
X112369593Y-81944252D01*
X112382251Y-81942738D01*
X112395359Y-81941830D01*
X112408918Y-81941528D01*
X112416256Y-81941631D01*
G37*
G36*
X110885989Y-82332358D02*
G01*
X110898766Y-82332694D01*
X110911192Y-82333366D01*
X110923267Y-82334373D01*
X110934991Y-82335717D01*
X110946363Y-82337396D01*
X110957385Y-82339411D01*
X110968055Y-82341762D01*
X110978374Y-82344448D01*
X110988342Y-82347471D01*
X110997959Y-82350829D01*
X111007225Y-82354523D01*
X111020466Y-82360694D01*
X111032917Y-82367621D01*
X111044577Y-82375303D01*
X111051853Y-82380878D01*
X111061887Y-82389995D01*
X111070864Y-82400017D01*
X111078785Y-82410946D01*
X111085650Y-82422781D01*
X111091459Y-82435521D01*
X111096212Y-82449167D01*
X111098793Y-82458768D01*
X111100906Y-82468772D01*
X111102549Y-82479178D01*
X111103722Y-82489987D01*
X111104426Y-82501198D01*
X111104661Y-82512812D01*
X111104426Y-82523754D01*
X111103722Y-82534355D01*
X111102549Y-82544614D01*
X111100906Y-82554532D01*
X111097561Y-82568767D01*
X111093161Y-82582235D01*
X111087704Y-82594934D01*
X111081191Y-82606864D01*
X111073622Y-82618026D01*
X111064996Y-82628420D01*
X111055315Y-82638045D01*
X111044577Y-82646901D01*
X111032917Y-82654932D01*
X111020466Y-82662174D01*
X111011727Y-82666563D01*
X111002636Y-82670600D01*
X110993195Y-82674287D01*
X110983402Y-82677622D01*
X110973258Y-82680607D01*
X110962764Y-82683240D01*
X110951918Y-82685522D01*
X110940721Y-82687453D01*
X110929173Y-82689033D01*
X110917273Y-82690262D01*
X110905023Y-82691140D01*
X110892422Y-82691666D01*
X110879469Y-82691842D01*
X110687739Y-82691842D01*
X110687739Y-82332316D01*
X110879469Y-82332316D01*
X110885989Y-82332358D01*
G37*
G36*
X110867909Y-81957180D02*
G01*
X110878789Y-81957416D01*
X110889800Y-81957915D01*
X110900942Y-81958676D01*
X110912216Y-81959699D01*
X110923621Y-81960985D01*
X110935157Y-81962533D01*
X110939772Y-81963242D01*
X110951095Y-81965339D01*
X110962107Y-81967902D01*
X110972810Y-81970930D01*
X110983202Y-81974423D01*
X110993284Y-81978381D01*
X111003056Y-81982805D01*
X111006889Y-81984719D01*
X111016089Y-81989954D01*
X111024740Y-81995834D01*
X111032843Y-82002357D01*
X111040397Y-82009525D01*
X111047402Y-82017336D01*
X111053859Y-82025792D01*
X111059628Y-82034886D01*
X111064420Y-82044768D01*
X111068234Y-82055437D01*
X111071070Y-82066893D01*
X111072635Y-82076625D01*
X111073574Y-82086860D01*
X111073886Y-82097599D01*
X111073585Y-82108445D01*
X111072681Y-82118756D01*
X111071173Y-82128534D01*
X111068441Y-82140004D01*
X111064766Y-82150640D01*
X111060150Y-82160440D01*
X111054591Y-82169406D01*
X111052139Y-82172750D01*
X111045659Y-82180718D01*
X111038677Y-82188125D01*
X111031195Y-82194972D01*
X111023212Y-82201258D01*
X111014728Y-82206984D01*
X111005743Y-82212149D01*
X111002049Y-82214063D01*
X110992546Y-82218497D01*
X110982662Y-82222430D01*
X110972396Y-82225862D01*
X110961748Y-82228794D01*
X110950719Y-82231224D01*
X110939309Y-82233154D01*
X110934662Y-82233804D01*
X110922996Y-82235247D01*
X110911259Y-82236428D01*
X110899450Y-82237346D01*
X110887569Y-82238002D01*
X110875617Y-82238396D01*
X110863593Y-82238527D01*
X110687739Y-82238527D01*
X110687739Y-81957159D01*
X110863593Y-81957159D01*
X110867909Y-81957180D01*
G37*
G36*
X113634992Y-82928488D02*
G01*
X110450848Y-82928488D01*
X110450848Y-81879002D01*
X110593705Y-81879002D01*
X110593705Y-81957159D01*
X110593705Y-82332316D01*
X110593705Y-82770000D01*
X110879469Y-82770000D01*
X110898338Y-82769744D01*
X110916659Y-82768977D01*
X110934432Y-82767698D01*
X110951658Y-82765908D01*
X110968336Y-82763607D01*
X110984467Y-82760795D01*
X111000050Y-82757471D01*
X111015085Y-82753635D01*
X111029573Y-82749288D01*
X111043513Y-82744430D01*
X111056905Y-82739061D01*
X111069750Y-82733180D01*
X111082047Y-82726788D01*
X111093796Y-82719884D01*
X111104998Y-82712469D01*
X111115652Y-82704542D01*
X111125737Y-82696072D01*
X111135172Y-82687087D01*
X111143956Y-82677586D01*
X111152090Y-82667570D01*
X111159573Y-82657039D01*
X111166405Y-82645993D01*
X111172586Y-82634431D01*
X111178117Y-82622355D01*
X111182997Y-82609763D01*
X111187227Y-82596656D01*
X111190805Y-82583034D01*
X111193733Y-82568896D01*
X111196011Y-82554243D01*
X111197637Y-82539076D01*
X111198613Y-82523392D01*
X111198939Y-82507194D01*
X111198772Y-82496683D01*
X111198273Y-82486400D01*
X111197440Y-82476344D01*
X111196275Y-82466516D01*
X111192945Y-82447543D01*
X111188284Y-82429479D01*
X111182290Y-82412326D01*
X111174965Y-82396083D01*
X111166308Y-82380750D01*
X111156318Y-82366327D01*
X111144997Y-82352815D01*
X111132344Y-82340212D01*
X111118360Y-82328520D01*
X111113690Y-82325233D01*
X111301277Y-82325233D01*
X111301348Y-82336384D01*
X111301563Y-82347490D01*
X111301921Y-82358550D01*
X111302421Y-82369563D01*
X111303065Y-82380531D01*
X111303853Y-82391454D01*
X111304783Y-82402330D01*
X111305856Y-82413161D01*
X111307073Y-82423946D01*
X111308432Y-82434685D01*
X111309935Y-82445378D01*
X111311581Y-82456025D01*
X111313369Y-82466627D01*
X111315301Y-82477183D01*
X111317377Y-82487693D01*
X111319595Y-82498157D01*
X111321943Y-82508491D01*
X111324468Y-82518670D01*
X111327171Y-82528694D01*
X111330051Y-82538564D01*
X111333109Y-82548279D01*
X111336344Y-82557840D01*
X111339757Y-82567246D01*
X111343347Y-82576498D01*
X111347115Y-82585595D01*
X111351060Y-82594538D01*
X111357310Y-82607662D01*
X111363960Y-82620438D01*
X111371009Y-82632866D01*
X111378457Y-82644947D01*
X111383682Y-82652788D01*
X111391876Y-82664184D01*
X111400500Y-82675142D01*
X111409553Y-82685662D01*
X111419036Y-82695744D01*
X111428948Y-82705388D01*
X111439289Y-82714595D01*
X111450060Y-82723363D01*
X111461259Y-82731693D01*
X111472889Y-82739586D01*
X111484947Y-82747041D01*
X111493271Y-82751714D01*
X111506176Y-82758158D01*
X111519584Y-82763924D01*
X111528801Y-82767391D01*
X111538242Y-82770557D01*
X111547906Y-82773421D01*
X111557793Y-82775983D01*
X111567903Y-82778245D01*
X111578236Y-82780204D01*
X111588793Y-82781862D01*
X111599573Y-82783219D01*
X111610577Y-82784274D01*
X111621803Y-82785028D01*
X111633253Y-82785480D01*
X111644926Y-82785631D01*
X111650775Y-82785593D01*
X111662306Y-82785292D01*
X111673614Y-82784689D01*
X111684698Y-82783784D01*
X111695560Y-82782578D01*
X111706198Y-82781071D01*
X111716612Y-82779262D01*
X111726804Y-82777152D01*
X111736772Y-82774740D01*
X111746517Y-82772026D01*
X111756038Y-82769012D01*
X111765337Y-82765695D01*
X111778866Y-82760155D01*
X111791892Y-82753937D01*
X111804417Y-82747041D01*
X111812531Y-82742120D01*
X111824334Y-82734373D01*
X111835695Y-82726188D01*
X111846614Y-82717566D01*
X111857090Y-82708506D01*
X111867124Y-82699007D01*
X111876717Y-82689071D01*
X111885866Y-82678697D01*
X111894574Y-82667885D01*
X111902839Y-82656635D01*
X111910662Y-82644947D01*
X111918071Y-82632866D01*
X111925094Y-82620438D01*
X111931730Y-82607662D01*
X111937979Y-82594538D01*
X111941931Y-82585595D01*
X111945711Y-82576498D01*
X111949320Y-82567246D01*
X111952756Y-82557840D01*
X111956021Y-82548279D01*
X111959114Y-82538564D01*
X111962035Y-82528694D01*
X111964785Y-82518670D01*
X111967363Y-82508491D01*
X111969769Y-82498157D01*
X111972017Y-82487693D01*
X111974120Y-82477183D01*
X111976078Y-82466627D01*
X111977890Y-82456025D01*
X111979558Y-82445378D01*
X111981081Y-82434685D01*
X111982458Y-82423946D01*
X111983691Y-82413161D01*
X111984779Y-82402330D01*
X111985721Y-82391454D01*
X111986519Y-82380531D01*
X111987172Y-82369563D01*
X111987679Y-82358550D01*
X111988042Y-82347490D01*
X111988259Y-82336384D01*
X111988332Y-82325233D01*
X112065268Y-82325233D01*
X112065340Y-82336384D01*
X112065554Y-82347490D01*
X112065912Y-82358550D01*
X112066413Y-82369563D01*
X112067057Y-82380531D01*
X112067844Y-82391454D01*
X112068774Y-82402330D01*
X112069848Y-82413161D01*
X112071064Y-82423946D01*
X112072424Y-82434685D01*
X112073926Y-82445378D01*
X112075572Y-82456025D01*
X112077361Y-82466627D01*
X112079293Y-82477183D01*
X112081368Y-82487693D01*
X112083586Y-82498157D01*
X112085934Y-82508491D01*
X112088460Y-82518670D01*
X112091163Y-82528694D01*
X112094043Y-82538564D01*
X112097101Y-82548279D01*
X112100336Y-82557840D01*
X112103749Y-82567246D01*
X112107339Y-82576498D01*
X112111107Y-82585595D01*
X112115052Y-82594538D01*
X112121302Y-82607662D01*
X112127952Y-82620438D01*
X112135001Y-82632866D01*
X112142449Y-82644947D01*
X112147673Y-82652788D01*
X112155868Y-82664184D01*
X112164492Y-82675142D01*
X112173545Y-82685662D01*
X112183028Y-82695744D01*
X112192939Y-82705388D01*
X112203281Y-82714595D01*
X112214051Y-82723363D01*
X112225251Y-82731693D01*
X112236880Y-82739586D01*
X112248939Y-82747041D01*
X112257263Y-82751714D01*
X112270168Y-82758158D01*
X112283575Y-82763924D01*
X112292793Y-82767391D01*
X112302233Y-82770557D01*
X112311897Y-82773421D01*
X112321784Y-82775983D01*
X112331895Y-82778245D01*
X112342228Y-82780204D01*
X112352785Y-82781862D01*
X112363565Y-82783219D01*
X112374568Y-82784274D01*
X112385795Y-82785028D01*
X112397245Y-82785480D01*
X112408918Y-82785631D01*
X112414767Y-82785593D01*
X112426298Y-82785292D01*
X112437606Y-82784689D01*
X112448690Y-82783784D01*
X112459551Y-82782578D01*
X112470189Y-82781071D01*
X112480604Y-82779262D01*
X112490795Y-82777152D01*
X112500763Y-82774740D01*
X112510508Y-82772026D01*
X112520030Y-82769012D01*
X112529328Y-82765695D01*
X112542857Y-82760155D01*
X112555884Y-82753937D01*
X112568408Y-82747041D01*
X112576523Y-82742120D01*
X112588326Y-82734373D01*
X112599687Y-82726188D01*
X112610605Y-82717566D01*
X112621082Y-82708506D01*
X112631116Y-82699007D01*
X112640708Y-82689071D01*
X112649858Y-82678697D01*
X112658566Y-82667885D01*
X112666831Y-82656635D01*
X112674654Y-82644947D01*
X112682063Y-82632866D01*
X112689085Y-82620438D01*
X112695721Y-82607662D01*
X112701971Y-82594538D01*
X112705923Y-82585595D01*
X112709703Y-82576498D01*
X112713311Y-82567246D01*
X112716748Y-82557840D01*
X112720013Y-82548279D01*
X112723106Y-82538564D01*
X112726027Y-82528694D01*
X112728777Y-82518670D01*
X112731355Y-82508491D01*
X112733761Y-82498157D01*
X112736009Y-82487693D01*
X112738111Y-82477183D01*
X112740069Y-82466627D01*
X112741882Y-82456025D01*
X112743550Y-82445378D01*
X112745072Y-82434685D01*
X112746450Y-82423946D01*
X112747683Y-82413161D01*
X112748770Y-82402330D01*
X112749713Y-82391454D01*
X112750511Y-82380531D01*
X112751163Y-82369563D01*
X112751671Y-82358550D01*
X112752033Y-82347490D01*
X112752251Y-82336384D01*
X112752323Y-82325233D01*
X112752248Y-82314053D01*
X112752022Y-82302923D01*
X112751645Y-82291843D01*
X112751117Y-82280812D01*
X112750439Y-82269830D01*
X112749610Y-82258898D01*
X112748630Y-82248016D01*
X112747500Y-82237184D01*
X112746218Y-82226401D01*
X112744786Y-82215667D01*
X112743203Y-82204984D01*
X112741470Y-82194350D01*
X112739585Y-82183765D01*
X112737550Y-82173230D01*
X112735365Y-82162745D01*
X112733028Y-82152309D01*
X112730533Y-82141973D01*
X112727872Y-82131785D01*
X112725045Y-82121747D01*
X112722052Y-82111857D01*
X112718894Y-82102116D01*
X112715569Y-82092523D01*
X112712078Y-82083080D01*
X112708421Y-82073785D01*
X112704598Y-82064640D01*
X112700609Y-82055643D01*
X112694314Y-82042426D01*
X112687646Y-82029545D01*
X112680604Y-82016998D01*
X112673189Y-82004787D01*
X112668052Y-81996857D01*
X112659975Y-81985339D01*
X112651451Y-81974272D01*
X112642481Y-81963655D01*
X112633064Y-81953489D01*
X112623201Y-81943774D01*
X112612891Y-81934510D01*
X112602135Y-81925696D01*
X112590932Y-81917333D01*
X112579283Y-81909422D01*
X112567187Y-81901960D01*
X112558870Y-81897287D01*
X112546000Y-81890843D01*
X112532657Y-81885077D01*
X112523500Y-81881610D01*
X112515784Y-81879002D01*
X112851974Y-81879002D01*
X112851974Y-82179665D01*
X112932330Y-82179665D01*
X112932330Y-81957159D01*
X113124794Y-81957159D01*
X113124794Y-82691842D01*
X112979713Y-82691842D01*
X112979713Y-82770000D01*
X113363663Y-82770000D01*
X113363663Y-82691842D01*
X113219560Y-82691842D01*
X113219560Y-81957159D01*
X113411779Y-81957159D01*
X113411779Y-82179665D01*
X113492135Y-82179665D01*
X113492135Y-81879002D01*
X112851974Y-81879002D01*
X112515784Y-81879002D01*
X112514133Y-81878444D01*
X112504556Y-81875580D01*
X112494769Y-81873018D01*
X112484772Y-81870756D01*
X112474566Y-81868797D01*
X112464149Y-81867139D01*
X112453523Y-81865782D01*
X112442686Y-81864727D01*
X112431640Y-81863973D01*
X112420384Y-81863521D01*
X112408918Y-81863370D01*
X112403144Y-81863408D01*
X112391754Y-81863709D01*
X112380576Y-81864312D01*
X112369610Y-81865217D01*
X112358855Y-81866423D01*
X112348313Y-81867930D01*
X112337982Y-81869739D01*
X112327863Y-81871849D01*
X112317956Y-81874261D01*
X112308261Y-81876975D01*
X112298777Y-81879990D01*
X112289506Y-81883306D01*
X112275995Y-81888846D01*
X112262962Y-81895064D01*
X112250404Y-81901960D01*
X112242286Y-81906884D01*
X112230463Y-81914646D01*
X112219065Y-81922858D01*
X112208092Y-81931522D01*
X112197544Y-81940636D01*
X112187421Y-81950201D01*
X112177723Y-81960216D01*
X112168450Y-81970683D01*
X112159602Y-81981600D01*
X112151179Y-81992968D01*
X112143182Y-82004787D01*
X112140609Y-82008820D01*
X112133168Y-82021143D01*
X112126138Y-82033801D01*
X112119521Y-82046795D01*
X112115338Y-82055643D01*
X112111338Y-82064640D01*
X112107522Y-82073785D01*
X112103889Y-82083080D01*
X112100439Y-82092523D01*
X112097172Y-82102116D01*
X112094089Y-82111857D01*
X112091188Y-82121747D01*
X112088471Y-82131785D01*
X112085937Y-82141973D01*
X112083586Y-82152309D01*
X112081368Y-82162745D01*
X112079293Y-82173230D01*
X112077361Y-82183765D01*
X112075572Y-82194350D01*
X112073926Y-82204984D01*
X112072424Y-82215667D01*
X112071064Y-82226401D01*
X112069848Y-82237184D01*
X112068774Y-82248016D01*
X112067844Y-82258898D01*
X112067057Y-82269830D01*
X112066413Y-82280812D01*
X112065912Y-82291843D01*
X112065554Y-82302923D01*
X112065340Y-82314053D01*
X112065268Y-82325233D01*
X111988332Y-82325233D01*
X111988256Y-82314053D01*
X111988030Y-82302923D01*
X111987653Y-82291843D01*
X111987126Y-82280812D01*
X111986447Y-82269830D01*
X111985618Y-82258898D01*
X111984638Y-82248016D01*
X111983508Y-82237184D01*
X111982227Y-82226401D01*
X111980794Y-82215667D01*
X111979212Y-82204984D01*
X111977478Y-82194350D01*
X111975594Y-82183765D01*
X111973559Y-82173230D01*
X111971373Y-82162745D01*
X111969036Y-82152309D01*
X111966542Y-82141973D01*
X111963881Y-82131785D01*
X111961054Y-82121747D01*
X111958061Y-82111857D01*
X111954902Y-82102116D01*
X111951577Y-82092523D01*
X111948086Y-82083080D01*
X111944429Y-82073785D01*
X111940606Y-82064640D01*
X111936617Y-82055643D01*
X111930322Y-82042426D01*
X111923654Y-82029545D01*
X111916612Y-82016998D01*
X111909197Y-82004787D01*
X111904060Y-81996857D01*
X111895983Y-81985339D01*
X111887459Y-81974272D01*
X111878489Y-81963655D01*
X111869072Y-81953489D01*
X111859209Y-81943774D01*
X111848900Y-81934510D01*
X111838143Y-81925696D01*
X111826941Y-81917333D01*
X111815291Y-81909422D01*
X111803196Y-81901960D01*
X111794878Y-81897287D01*
X111782008Y-81890843D01*
X111768666Y-81885077D01*
X111759509Y-81881610D01*
X111750141Y-81878444D01*
X111740564Y-81875580D01*
X111730778Y-81873018D01*
X111720781Y-81870756D01*
X111710574Y-81868797D01*
X111700158Y-81867139D01*
X111689531Y-81865782D01*
X111678695Y-81864727D01*
X111667648Y-81863973D01*
X111656392Y-81863521D01*
X111644926Y-81863370D01*
X111639152Y-81863408D01*
X111627762Y-81863709D01*
X111616584Y-81864312D01*
X111605618Y-81865217D01*
X111594864Y-81866423D01*
X111584321Y-81867930D01*
X111573991Y-81869739D01*
X111563872Y-81871849D01*
X111553965Y-81874261D01*
X111544269Y-81876975D01*
X111534786Y-81879990D01*
X111525514Y-81883306D01*
X111512004Y-81888846D01*
X111498970Y-81895064D01*
X111486413Y-81901960D01*
X111478294Y-81906884D01*
X111466471Y-81914646D01*
X111455073Y-81922858D01*
X111444100Y-81931522D01*
X111433552Y-81940636D01*
X111423429Y-81950201D01*
X111413731Y-81960216D01*
X111404458Y-81970683D01*
X111395611Y-81981600D01*
X111387188Y-81992968D01*
X111379190Y-82004787D01*
X111376618Y-82008820D01*
X111369176Y-82021143D01*
X111362146Y-82033801D01*
X111355529Y-82046795D01*
X111351346Y-82055643D01*
X111347347Y-82064640D01*
X111343531Y-82073785D01*
X111339897Y-82083080D01*
X111336448Y-82092523D01*
X111333181Y-82102116D01*
X111330097Y-82111857D01*
X111327197Y-82121747D01*
X111324480Y-82131785D01*
X111321946Y-82141973D01*
X111319595Y-82152309D01*
X111317377Y-82162745D01*
X111315301Y-82173230D01*
X111313369Y-82183765D01*
X111311581Y-82194350D01*
X111309935Y-82204984D01*
X111308432Y-82215667D01*
X111307073Y-82226401D01*
X111305856Y-82237184D01*
X111304783Y-82248016D01*
X111303853Y-82258898D01*
X111303065Y-82269830D01*
X111302421Y-82280812D01*
X111301921Y-82291843D01*
X111301563Y-82302923D01*
X111301348Y-82314053D01*
X111301277Y-82325233D01*
X111113690Y-82325233D01*
X111103043Y-82317738D01*
X111086394Y-82307866D01*
X111077571Y-82303272D01*
X111068414Y-82298905D01*
X111058924Y-82294765D01*
X111049102Y-82290853D01*
X111038946Y-82287169D01*
X111028457Y-82283712D01*
X111045345Y-82277304D01*
X111061144Y-82270233D01*
X111075853Y-82262497D01*
X111089472Y-82254098D01*
X111102002Y-82245034D01*
X111113442Y-82235306D01*
X111123793Y-82224914D01*
X111133054Y-82213859D01*
X111141226Y-82202139D01*
X111148308Y-82189755D01*
X111154301Y-82176707D01*
X111159204Y-82162995D01*
X111163017Y-82148619D01*
X111165741Y-82133579D01*
X111167375Y-82117875D01*
X111167920Y-82101507D01*
X111167894Y-82097167D01*
X111167500Y-82084463D01*
X111166634Y-82072232D01*
X111165296Y-82060472D01*
X111163486Y-82049185D01*
X111161203Y-82038370D01*
X111158448Y-82028027D01*
X111155221Y-82018157D01*
X111151522Y-82008759D01*
X111147350Y-81999833D01*
X111141053Y-81988667D01*
X111134142Y-81978157D01*
X111126719Y-81968242D01*
X111118785Y-81958922D01*
X111110340Y-81950198D01*
X111101383Y-81942070D01*
X111091915Y-81934536D01*
X111081935Y-81927598D01*
X111071444Y-81921256D01*
X111060522Y-81915394D01*
X111049248Y-81910020D01*
X111037624Y-81905136D01*
X111025648Y-81900739D01*
X111013322Y-81896831D01*
X111003846Y-81894221D01*
X110994174Y-81891885D01*
X110984303Y-81889825D01*
X110974235Y-81888039D01*
X110967449Y-81886944D01*
X110957237Y-81885435D01*
X110946987Y-81884085D01*
X110936698Y-81882893D01*
X110926370Y-81881861D01*
X110916004Y-81880987D01*
X110905599Y-81880272D01*
X110895156Y-81879716D01*
X110884674Y-81879319D01*
X110874153Y-81879081D01*
X110863593Y-81879002D01*
X110593705Y-81879002D01*
X110450848Y-81879002D01*
X110450848Y-81720513D01*
X113634992Y-81720513D01*
X113634992Y-82928488D01*
G37*
D10*
G36*
X107939416Y-79042536D02*
G01*
X107953583Y-79043667D01*
X107967344Y-79045551D01*
X107980698Y-79048189D01*
X107993646Y-79051581D01*
X108006187Y-79055726D01*
X108018322Y-79060625D01*
X108030050Y-79066278D01*
X108041372Y-79072685D01*
X108052288Y-79079845D01*
X108062797Y-79087759D01*
X108072899Y-79096427D01*
X108082596Y-79105848D01*
X108091886Y-79116024D01*
X108100769Y-79126953D01*
X108109246Y-79138635D01*
X108117291Y-79150974D01*
X108124816Y-79163933D01*
X108131823Y-79177513D01*
X108138311Y-79191712D01*
X108144279Y-79206532D01*
X108149729Y-79221972D01*
X108154660Y-79238032D01*
X108159071Y-79254712D01*
X108162964Y-79272012D01*
X108166338Y-79289932D01*
X108169192Y-79308473D01*
X108171528Y-79327633D01*
X108172501Y-79337446D01*
X108173344Y-79347414D01*
X108174058Y-79357537D01*
X108174642Y-79367815D01*
X108175096Y-79378248D01*
X108175420Y-79388836D01*
X108175615Y-79399579D01*
X108175680Y-79410478D01*
X108175615Y-79421375D01*
X108175420Y-79432116D01*
X108175096Y-79442700D01*
X108174642Y-79453128D01*
X108174058Y-79463400D01*
X108173344Y-79473515D01*
X108172501Y-79483474D01*
X108171528Y-79493276D01*
X108169192Y-79512411D01*
X108166338Y-79530920D01*
X108162964Y-79548803D01*
X108159071Y-79566060D01*
X108154660Y-79582692D01*
X108149729Y-79598697D01*
X108144279Y-79614077D01*
X108138311Y-79628831D01*
X108131823Y-79642959D01*
X108124816Y-79656461D01*
X108117291Y-79669337D01*
X108109246Y-79681587D01*
X108100769Y-79693122D01*
X108091886Y-79703912D01*
X108082596Y-79713959D01*
X108072899Y-79723261D01*
X108062797Y-79731819D01*
X108052288Y-79739633D01*
X108041372Y-79746703D01*
X108030050Y-79753028D01*
X108018322Y-79758609D01*
X108006187Y-79763447D01*
X107993646Y-79767540D01*
X107980698Y-79770888D01*
X107967344Y-79773493D01*
X107953583Y-79775353D01*
X107939416Y-79776470D01*
X107924842Y-79776842D01*
X107727739Y-79776842D01*
X107727739Y-79042159D01*
X107924842Y-79042159D01*
X107939416Y-79042536D01*
G37*
G36*
X109116234Y-79997857D02*
G01*
X107490848Y-79997857D01*
X107490848Y-78964002D01*
X107633705Y-78964002D01*
X107633705Y-79042159D01*
X107633705Y-79855000D01*
X107924842Y-79855000D01*
X107936337Y-79854861D01*
X107947618Y-79854446D01*
X107958685Y-79853754D01*
X107969539Y-79852786D01*
X107980179Y-79851541D01*
X107990605Y-79850019D01*
X108000817Y-79848221D01*
X108010816Y-79846146D01*
X108020601Y-79843794D01*
X108030172Y-79841165D01*
X108044128Y-79836704D01*
X108057604Y-79831620D01*
X108070598Y-79825913D01*
X108083112Y-79819584D01*
X108091230Y-79815028D01*
X108103053Y-79807821D01*
X108114451Y-79800167D01*
X108125424Y-79792067D01*
X108135972Y-79783520D01*
X108146095Y-79774527D01*
X108155793Y-79765088D01*
X108165066Y-79755201D01*
X108173914Y-79744869D01*
X108182337Y-79734090D01*
X108190334Y-79722864D01*
X108195436Y-79715154D01*
X108202755Y-79703300D01*
X108209675Y-79691097D01*
X108216196Y-79678547D01*
X108222318Y-79665649D01*
X108228040Y-79652404D01*
X108233363Y-79638810D01*
X108236690Y-79629555D01*
X108239839Y-79620145D01*
X108242811Y-79610580D01*
X108245606Y-79600861D01*
X108248223Y-79590987D01*
X108250662Y-79580959D01*
X108252969Y-79570791D01*
X108255128Y-79560557D01*
X108257137Y-79550259D01*
X108258997Y-79539896D01*
X108260709Y-79529468D01*
X108262272Y-79518975D01*
X108263686Y-79508417D01*
X108264951Y-79497794D01*
X108266067Y-79487107D01*
X108267034Y-79476354D01*
X108267853Y-79465537D01*
X108268523Y-79454655D01*
X108269044Y-79443708D01*
X108269416Y-79432696D01*
X108269639Y-79421619D01*
X108269713Y-79410478D01*
X108269637Y-79399338D01*
X108269408Y-79388267D01*
X108269026Y-79377264D01*
X108268492Y-79366331D01*
X108267805Y-79355466D01*
X108266966Y-79344669D01*
X108265973Y-79333942D01*
X108264829Y-79323283D01*
X108263531Y-79312693D01*
X108262081Y-79302171D01*
X108260478Y-79291718D01*
X108258722Y-79281334D01*
X108256814Y-79271019D01*
X108256518Y-79269549D01*
X108370830Y-79269549D01*
X108458025Y-79269549D01*
X108458250Y-79255020D01*
X108458925Y-79240923D01*
X108460051Y-79227260D01*
X108461627Y-79214030D01*
X108463654Y-79201233D01*
X108466130Y-79188869D01*
X108469058Y-79176938D01*
X108472435Y-79165441D01*
X108476263Y-79154376D01*
X108480541Y-79143745D01*
X108485269Y-79133547D01*
X108490448Y-79123782D01*
X108496077Y-79114450D01*
X108502156Y-79105552D01*
X108508686Y-79097086D01*
X108515666Y-79089054D01*
X108523115Y-79081482D01*
X108530992Y-79074399D01*
X108539296Y-79067805D01*
X108548028Y-79061699D01*
X108557187Y-79056081D01*
X108566774Y-79050952D01*
X108576788Y-79046311D01*
X108587229Y-79042159D01*
X108598098Y-79038496D01*
X108609394Y-79035321D01*
X108621118Y-79032634D01*
X108633269Y-79030436D01*
X108645847Y-79028726D01*
X108658853Y-79027505D01*
X108672287Y-79026772D01*
X108686147Y-79026528D01*
X108696091Y-79026693D01*
X108710627Y-79027559D01*
X108724707Y-79029169D01*
X108738333Y-79031521D01*
X108751503Y-79034615D01*
X108764219Y-79038453D01*
X108776479Y-79043033D01*
X108788284Y-79048356D01*
X108799634Y-79054422D01*
X108810530Y-79061231D01*
X108820969Y-79068782D01*
X108824335Y-79071447D01*
X108833792Y-79079910D01*
X108842287Y-79089078D01*
X108849821Y-79098950D01*
X108856392Y-79109525D01*
X108862002Y-79120806D01*
X108866651Y-79132790D01*
X108870337Y-79145478D01*
X108873062Y-79158870D01*
X108874825Y-79172967D01*
X108875466Y-79182755D01*
X108875680Y-79192857D01*
X108875637Y-79196877D01*
X108875154Y-79206834D01*
X108874134Y-79216659D01*
X108872578Y-79226354D01*
X108870485Y-79235917D01*
X108867855Y-79245350D01*
X108864689Y-79254651D01*
X108863283Y-79258307D01*
X108859483Y-79267380D01*
X108855278Y-79276358D01*
X108850667Y-79285240D01*
X108845651Y-79294027D01*
X108840230Y-79302719D01*
X108834403Y-79311315D01*
X108832000Y-79314732D01*
X108825811Y-79323259D01*
X108819359Y-79331763D01*
X108812645Y-79340242D01*
X108805668Y-79348697D01*
X108798429Y-79357129D01*
X108790928Y-79365537D01*
X108787865Y-79368865D01*
X108780125Y-79377184D01*
X108772266Y-79385504D01*
X108764288Y-79393823D01*
X108756190Y-79402143D01*
X108747973Y-79410462D01*
X108739637Y-79418782D01*
X108390858Y-79772201D01*
X108390858Y-79855000D01*
X108973377Y-79855000D01*
X108973377Y-79600987D01*
X108893021Y-79600987D01*
X108893021Y-79776842D01*
X108514445Y-79776842D01*
X108827076Y-79461280D01*
X108829672Y-79458588D01*
X108837292Y-79450625D01*
X108844658Y-79442834D01*
X108851772Y-79435215D01*
X108858632Y-79427767D01*
X108865239Y-79420491D01*
X108873653Y-79411058D01*
X108881618Y-79401929D01*
X108889132Y-79393106D01*
X108896196Y-79384588D01*
X108897911Y-79382485D01*
X108904559Y-79374144D01*
X108910871Y-79365918D01*
X108916847Y-79357807D01*
X108922488Y-79349810D01*
X108929066Y-79339974D01*
X108935120Y-79330318D01*
X108940648Y-79320840D01*
X108945659Y-79311470D01*
X108950156Y-79302136D01*
X108954140Y-79292837D01*
X108957612Y-79283574D01*
X108961101Y-79272506D01*
X108963852Y-79261489D01*
X108964257Y-79259635D01*
X108966421Y-79248197D01*
X108967870Y-79238260D01*
X108968997Y-79227952D01*
X108969802Y-79217275D01*
X108970285Y-79206228D01*
X108970446Y-79194811D01*
X108970357Y-79187506D01*
X108969892Y-79176745D01*
X108969026Y-79166219D01*
X108967762Y-79155930D01*
X108966098Y-79145878D01*
X108964035Y-79136061D01*
X108961573Y-79126480D01*
X108957669Y-79114074D01*
X108953055Y-79102087D01*
X108947732Y-79090519D01*
X108941790Y-79079322D01*
X108935321Y-79068568D01*
X108928326Y-79058256D01*
X108920804Y-79048387D01*
X108912755Y-79038961D01*
X108904180Y-79029978D01*
X108895078Y-79021437D01*
X108885450Y-79013339D01*
X108877971Y-79007562D01*
X108867673Y-79000267D01*
X108857001Y-78993438D01*
X108845955Y-78987074D01*
X108834534Y-78981176D01*
X108822740Y-78975744D01*
X108813649Y-78971975D01*
X108804347Y-78968468D01*
X108794836Y-78965223D01*
X108788429Y-78963182D01*
X108778722Y-78960368D01*
X108768900Y-78957850D01*
X108758962Y-78955628D01*
X108748907Y-78953702D01*
X108738737Y-78952073D01*
X108728451Y-78950740D01*
X108718049Y-78949703D01*
X108707531Y-78948963D01*
X108696897Y-78948518D01*
X108686147Y-78948370D01*
X108667286Y-78948701D01*
X108648988Y-78949694D01*
X108631253Y-78951350D01*
X108614081Y-78953667D01*
X108597471Y-78956647D01*
X108581425Y-78960288D01*
X108565941Y-78964592D01*
X108551020Y-78969558D01*
X108536662Y-78975186D01*
X108522867Y-78981476D01*
X108509635Y-78988429D01*
X108496966Y-78996043D01*
X108484860Y-79004320D01*
X108473317Y-79013259D01*
X108462336Y-79022859D01*
X108451919Y-79033122D01*
X108442099Y-79043978D01*
X108432913Y-79055356D01*
X108424361Y-79067257D01*
X108416442Y-79079681D01*
X108409157Y-79092628D01*
X108402505Y-79106098D01*
X108396487Y-79120090D01*
X108391102Y-79134605D01*
X108386351Y-79149643D01*
X108382233Y-79165204D01*
X108378749Y-79181288D01*
X108375898Y-79197895D01*
X108373681Y-79215024D01*
X108372097Y-79232676D01*
X108371147Y-79250851D01*
X108370830Y-79269549D01*
X108256518Y-79269549D01*
X108254754Y-79260772D01*
X108252540Y-79250594D01*
X108250174Y-79240484D01*
X108247645Y-79230485D01*
X108244942Y-79220636D01*
X108242065Y-79210938D01*
X108239015Y-79201390D01*
X108235791Y-79191994D01*
X108232394Y-79182748D01*
X108228823Y-79173653D01*
X108223141Y-79160292D01*
X108217068Y-79147272D01*
X108210604Y-79134590D01*
X108203750Y-79122247D01*
X108196505Y-79110244D01*
X108188869Y-79098579D01*
X108183584Y-79090984D01*
X108175303Y-79079959D01*
X108166597Y-79069377D01*
X108157466Y-79059237D01*
X108147910Y-79049539D01*
X108137928Y-79040283D01*
X108127522Y-79031470D01*
X108116691Y-79023099D01*
X108105434Y-79015170D01*
X108093753Y-79007683D01*
X108081646Y-79000638D01*
X108069146Y-78994091D01*
X108056190Y-78988187D01*
X108042779Y-78982928D01*
X108028913Y-78978313D01*
X108019416Y-78975594D01*
X108009717Y-78973161D01*
X107999816Y-78971014D01*
X107989712Y-78969154D01*
X107979406Y-78967579D01*
X107968898Y-78966291D01*
X107958187Y-78965290D01*
X107947275Y-78964574D01*
X107936160Y-78964145D01*
X107924842Y-78964002D01*
X107633705Y-78964002D01*
X107490848Y-78964002D01*
X107490848Y-78805513D01*
X109116234Y-78805513D01*
X109116234Y-79997857D01*
G37*
G36*
X129534169Y-85557857D02*
G01*
X127829160Y-85557857D01*
X127829160Y-84524002D01*
X127972017Y-84524002D01*
X127972017Y-84824665D01*
X128052372Y-84824665D01*
X128052372Y-84602159D01*
X128244836Y-84602159D01*
X128244836Y-85336842D01*
X128099756Y-85336842D01*
X128099756Y-85415000D01*
X128483705Y-85415000D01*
X128720132Y-85415000D01*
X128975122Y-85415000D01*
X128975122Y-85336842D01*
X128914550Y-85336842D01*
X129056699Y-85043018D01*
X129197627Y-85336842D01*
X129137299Y-85336842D01*
X129137299Y-85415000D01*
X129391312Y-85415000D01*
X129391312Y-85336842D01*
X129304117Y-85336842D01*
X129111654Y-84966325D01*
X129298499Y-84602159D01*
X129376169Y-84602159D01*
X129376169Y-84524002D01*
X129119958Y-84524002D01*
X129119958Y-84602159D01*
X129192254Y-84602159D01*
X129056699Y-84889389D01*
X128917481Y-84602159D01*
X128992219Y-84602159D01*
X128992219Y-84524002D01*
X128736008Y-84524002D01*
X128736008Y-84602159D01*
X128810991Y-84602159D01*
X129001744Y-84966325D01*
X128807571Y-85336842D01*
X128720132Y-85336842D01*
X128720132Y-85415000D01*
X128483705Y-85415000D01*
X128483705Y-85336842D01*
X128339602Y-85336842D01*
X128339602Y-84602159D01*
X128531821Y-84602159D01*
X128531821Y-84824665D01*
X128612177Y-84824665D01*
X128612177Y-84524002D01*
X127972017Y-84524002D01*
X127829160Y-84524002D01*
X127829160Y-84381145D01*
X129534169Y-84381145D01*
X129534169Y-85557857D01*
G37*
G36*
X129562257Y-79573488D02*
G01*
X127831846Y-79573488D01*
X127831846Y-79151217D01*
X127974703Y-79151217D01*
X127975483Y-79159555D01*
X127976942Y-79171843D01*
X127978748Y-79183869D01*
X127980903Y-79195634D01*
X127983405Y-79207136D01*
X127986255Y-79218377D01*
X127989453Y-79229356D01*
X127992999Y-79240073D01*
X127996892Y-79250528D01*
X128001133Y-79260721D01*
X128005722Y-79270652D01*
X128008960Y-79277119D01*
X128014053Y-79286568D01*
X128019430Y-79295717D01*
X128025090Y-79304566D01*
X128031034Y-79313114D01*
X128037260Y-79321361D01*
X128043770Y-79329308D01*
X128050564Y-79336955D01*
X128057641Y-79344301D01*
X128065001Y-79351346D01*
X128072645Y-79358091D01*
X128077887Y-79362423D01*
X128085948Y-79368682D01*
X128094245Y-79374654D01*
X128102778Y-79380337D01*
X128111547Y-79385733D01*
X128120552Y-79390842D01*
X128129794Y-79395662D01*
X128139271Y-79400195D01*
X128148985Y-79404441D01*
X128158935Y-79408399D01*
X128169120Y-79412069D01*
X128176028Y-79414316D01*
X128186532Y-79417416D01*
X128197208Y-79420190D01*
X128208056Y-79422637D01*
X128219076Y-79424758D01*
X128230267Y-79426552D01*
X128241630Y-79428021D01*
X128253165Y-79429163D01*
X128264871Y-79429978D01*
X128276750Y-79430468D01*
X128288799Y-79430631D01*
X128297671Y-79430534D01*
X128310818Y-79430023D01*
X128323772Y-79429074D01*
X128336532Y-79427687D01*
X128349100Y-79425863D01*
X128361474Y-79423600D01*
X128373655Y-79420899D01*
X128385642Y-79417761D01*
X128397437Y-79414185D01*
X128409038Y-79410170D01*
X128420446Y-79405718D01*
X128427949Y-79402533D01*
X128438946Y-79397486D01*
X128449633Y-79392117D01*
X128460012Y-79386426D01*
X128470081Y-79380413D01*
X128479841Y-79374079D01*
X128489292Y-79367422D01*
X128498434Y-79360443D01*
X128507267Y-79353142D01*
X128515791Y-79345519D01*
X128524005Y-79337575D01*
X128529307Y-79332082D01*
X128536991Y-79323625D01*
X128544354Y-79314906D01*
X128551394Y-79305925D01*
X128558113Y-79296682D01*
X128564509Y-79287177D01*
X128570583Y-79277411D01*
X128576336Y-79267382D01*
X128581766Y-79257092D01*
X128586874Y-79246539D01*
X128591661Y-79235725D01*
X128594648Y-79228397D01*
X128598767Y-79217287D01*
X128602453Y-79206034D01*
X128605705Y-79194641D01*
X128608524Y-79183105D01*
X128610909Y-79171428D01*
X128612860Y-79159609D01*
X128614378Y-79147649D01*
X128615462Y-79135547D01*
X128616112Y-79123303D01*
X128616329Y-79110917D01*
X128616238Y-79101693D01*
X128615757Y-79088072D01*
X128614864Y-79074708D01*
X128613559Y-79061602D01*
X128611841Y-79048754D01*
X128609712Y-79036163D01*
X128607170Y-79023829D01*
X128604216Y-79011754D01*
X128600850Y-78999935D01*
X128597072Y-78988375D01*
X128592882Y-78977072D01*
X128589908Y-78969694D01*
X128585172Y-78958896D01*
X128580105Y-78948419D01*
X128574707Y-78938265D01*
X128568979Y-78928432D01*
X128562921Y-78918922D01*
X128556532Y-78909734D01*
X128549812Y-78900867D01*
X128542761Y-78892323D01*
X128535381Y-78884100D01*
X128527669Y-78876200D01*
X128522385Y-78871114D01*
X128514224Y-78863760D01*
X128505779Y-78856737D01*
X128497050Y-78850044D01*
X128488039Y-78843682D01*
X128478744Y-78837651D01*
X128469165Y-78831950D01*
X128459303Y-78826580D01*
X128449158Y-78821540D01*
X128438730Y-78816831D01*
X128428018Y-78812452D01*
X128420767Y-78809702D01*
X128409719Y-78805909D01*
X128398465Y-78802515D01*
X128387004Y-78799520D01*
X128375338Y-78796925D01*
X128363465Y-78794729D01*
X128351387Y-78792932D01*
X128339102Y-78791535D01*
X128326611Y-78790536D01*
X128313915Y-78789937D01*
X128301012Y-78789738D01*
X128294152Y-78789832D01*
X128283898Y-78790328D01*
X128273687Y-78791249D01*
X128263519Y-78792595D01*
X128253394Y-78794366D01*
X128243312Y-78796562D01*
X128233272Y-78799183D01*
X128223276Y-78802229D01*
X128213323Y-78805700D01*
X128203412Y-78809597D01*
X128193545Y-78813918D01*
X128187025Y-78816990D01*
X128177409Y-78821899D01*
X128167991Y-78827168D01*
X128158770Y-78832798D01*
X128149747Y-78838789D01*
X128140921Y-78845140D01*
X128132293Y-78851852D01*
X128123863Y-78858924D01*
X128115629Y-78866358D01*
X128107594Y-78874151D01*
X128099756Y-78882306D01*
X128099756Y-78602159D01*
X128566992Y-78602159D01*
X128566992Y-78524002D01*
X128695464Y-78524002D01*
X128992219Y-79415000D01*
X129119958Y-79415000D01*
X129419400Y-78524002D01*
X129317062Y-78524002D01*
X129056699Y-79319989D01*
X128795115Y-78524002D01*
X128695464Y-78524002D01*
X128566992Y-78524002D01*
X128005722Y-78524002D01*
X128005722Y-78957777D01*
X128099756Y-78957777D01*
X128104448Y-78952363D01*
X128111679Y-78944551D01*
X128119142Y-78937108D01*
X128126837Y-78930034D01*
X128134764Y-78923329D01*
X128142923Y-78916994D01*
X128151314Y-78911027D01*
X128159936Y-78905430D01*
X128168790Y-78900202D01*
X128177876Y-78895344D01*
X128187194Y-78890854D01*
X128193531Y-78888074D01*
X128203101Y-78884240D01*
X128212748Y-78880810D01*
X128222473Y-78877783D01*
X128232274Y-78875160D01*
X128242153Y-78872940D01*
X128252110Y-78871124D01*
X128262143Y-78869712D01*
X128272254Y-78868703D01*
X128282442Y-78868097D01*
X128292707Y-78867896D01*
X128305629Y-78868186D01*
X128318261Y-78869056D01*
X128330603Y-78870506D01*
X128342655Y-78872536D01*
X128354417Y-78875146D01*
X128365889Y-78878337D01*
X128377070Y-78882107D01*
X128387962Y-78886458D01*
X128398499Y-78891316D01*
X128408616Y-78896609D01*
X128418313Y-78902338D01*
X128427590Y-78908501D01*
X128436448Y-78915099D01*
X128444886Y-78922133D01*
X128452904Y-78929601D01*
X128460502Y-78937505D01*
X128467681Y-78945759D01*
X128474439Y-78954403D01*
X128480778Y-78963436D01*
X128486697Y-78972859D01*
X128492197Y-78982671D01*
X128497276Y-78992872D01*
X128501936Y-79003462D01*
X128506176Y-79014441D01*
X128509954Y-79025673D01*
X128513228Y-79037141D01*
X128515999Y-79048845D01*
X128518266Y-79060786D01*
X128520029Y-79072964D01*
X128521288Y-79085379D01*
X128522044Y-79098030D01*
X128522296Y-79110917D01*
X128522044Y-79123282D01*
X128521288Y-79135464D01*
X128520029Y-79147462D01*
X128518266Y-79159277D01*
X128515999Y-79170909D01*
X128513228Y-79182358D01*
X128509954Y-79193624D01*
X128506176Y-79204706D01*
X128501924Y-79215476D01*
X128497230Y-79225925D01*
X128492093Y-79236053D01*
X128486514Y-79245861D01*
X128480492Y-79255349D01*
X128474027Y-79264515D01*
X128467120Y-79273362D01*
X128459769Y-79281887D01*
X128451999Y-79290020D01*
X128443833Y-79297687D01*
X128435269Y-79304888D01*
X128426308Y-79311624D01*
X128416951Y-79317894D01*
X128407196Y-79323698D01*
X128397045Y-79329037D01*
X128386497Y-79333911D01*
X128378375Y-79337228D01*
X128367212Y-79341144D01*
X128355668Y-79344479D01*
X128343742Y-79347235D01*
X128331435Y-79349410D01*
X128318745Y-79351005D01*
X128308978Y-79351821D01*
X128298996Y-79352310D01*
X128288799Y-79352473D01*
X128277198Y-79352221D01*
X128265841Y-79351466D01*
X128254728Y-79350206D01*
X128243859Y-79348443D01*
X128233234Y-79346176D01*
X128222854Y-79343406D01*
X128212718Y-79340131D01*
X128202826Y-79336353D01*
X128193213Y-79332079D01*
X128183912Y-79327438D01*
X128174925Y-79322431D01*
X128166251Y-79317058D01*
X128157889Y-79311318D01*
X128149841Y-79305212D01*
X128142105Y-79298740D01*
X128134682Y-79291901D01*
X128127649Y-79284692D01*
X128120959Y-79277109D01*
X128114612Y-79269152D01*
X128108609Y-79260821D01*
X128102950Y-79252116D01*
X128097634Y-79243037D01*
X128092661Y-79233584D01*
X128088032Y-79223757D01*
X128083788Y-79213579D01*
X128079972Y-79203195D01*
X128076583Y-79192605D01*
X128073622Y-79181809D01*
X128071088Y-79170806D01*
X128068981Y-79159598D01*
X128067302Y-79148183D01*
X128066050Y-79136563D01*
X127974703Y-79151217D01*
X127831846Y-79151217D01*
X127831846Y-78381145D01*
X129562257Y-78381145D01*
X129562257Y-79573488D01*
G37*
D13*
G36*
X124556018Y-59361652D02*
G01*
X124566015Y-59361945D01*
X124575916Y-59362591D01*
X124585724Y-59363588D01*
X124595437Y-59364938D01*
X124608241Y-59367285D01*
X124620876Y-59370258D01*
X124633344Y-59373857D01*
X124645644Y-59378081D01*
X124654759Y-59381660D01*
X124660773Y-59384261D01*
X124669680Y-59388527D01*
X124678450Y-59393231D01*
X124687083Y-59398373D01*
X124695578Y-59403953D01*
X124703936Y-59409971D01*
X124712156Y-59416427D01*
X124720239Y-59423320D01*
X124728184Y-59430652D01*
X124735992Y-59438422D01*
X124743663Y-59446629D01*
X124743663Y-59775380D01*
X124738565Y-59780991D01*
X124730802Y-59789039D01*
X124722903Y-59796644D01*
X124714865Y-59803808D01*
X124706691Y-59810529D01*
X124698379Y-59816808D01*
X124689930Y-59822645D01*
X124681343Y-59828039D01*
X124672619Y-59832992D01*
X124663758Y-59837502D01*
X124654759Y-59841570D01*
X124648693Y-59844024D01*
X124639515Y-59847410D01*
X124627131Y-59851369D01*
X124614579Y-59854695D01*
X124601860Y-59857387D01*
X124592210Y-59858991D01*
X124582465Y-59860238D01*
X124572626Y-59861129D01*
X124562693Y-59861664D01*
X124552665Y-59861842D01*
X124538659Y-59861585D01*
X124525096Y-59860815D01*
X124511976Y-59859532D01*
X124499298Y-59857735D01*
X124487063Y-59855426D01*
X124475271Y-59852603D01*
X124463921Y-59849266D01*
X124453014Y-59845416D01*
X124442550Y-59841053D01*
X124432528Y-59836177D01*
X124422949Y-59830788D01*
X124413813Y-59824885D01*
X124405120Y-59818469D01*
X124396869Y-59811539D01*
X124389061Y-59804096D01*
X124381695Y-59796140D01*
X124374804Y-59787752D01*
X124368357Y-59779013D01*
X124362355Y-59769923D01*
X124356798Y-59760481D01*
X124351685Y-59750688D01*
X124347017Y-59740545D01*
X124342793Y-59730050D01*
X124339014Y-59719204D01*
X124335679Y-59708007D01*
X124332789Y-59696459D01*
X124330344Y-59684560D01*
X124328343Y-59672309D01*
X124326787Y-59659708D01*
X124325676Y-59646755D01*
X124325009Y-59633452D01*
X124324787Y-59619797D01*
X124324844Y-59613076D01*
X124325144Y-59603090D01*
X124325703Y-59593220D01*
X124326847Y-59580241D01*
X124328450Y-59567468D01*
X124330511Y-59554901D01*
X124333030Y-59542540D01*
X124336007Y-59530385D01*
X124339441Y-59518436D01*
X124343372Y-59506789D01*
X124347715Y-59495539D01*
X124352470Y-59484685D01*
X124357637Y-59474228D01*
X124363217Y-59464169D01*
X124369208Y-59454506D01*
X124375612Y-59445240D01*
X124382428Y-59436371D01*
X124389683Y-59427929D01*
X124397403Y-59419945D01*
X124405589Y-59412420D01*
X124414241Y-59405352D01*
X124423358Y-59398742D01*
X124432940Y-59392590D01*
X124442989Y-59386896D01*
X124453503Y-59381660D01*
X124464455Y-59376966D01*
X124475820Y-59372898D01*
X124487597Y-59369456D01*
X124499787Y-59366639D01*
X124512388Y-59364449D01*
X124522110Y-59363217D01*
X124532063Y-59362337D01*
X124542248Y-59361808D01*
X124552665Y-59361632D01*
X124556018Y-59361652D01*
G37*
G36*
X126849725Y-59361811D02*
G01*
X126859943Y-59362345D01*
X126869921Y-59363236D01*
X126879658Y-59364483D01*
X126892267Y-59366700D01*
X126904449Y-59369551D01*
X126916203Y-59373036D01*
X126927530Y-59377153D01*
X126938429Y-59381905D01*
X126948966Y-59387141D01*
X126959083Y-59392834D01*
X126968780Y-59398986D01*
X126978058Y-59405596D01*
X126986915Y-59412664D01*
X126995353Y-59420190D01*
X127003371Y-59428173D01*
X127010969Y-59436615D01*
X127018125Y-59445484D01*
X127024815Y-59454750D01*
X127031039Y-59464413D01*
X127036798Y-59474473D01*
X127042091Y-59484929D01*
X127046919Y-59495783D01*
X127051281Y-59507033D01*
X127055177Y-59518681D01*
X127058669Y-59530633D01*
X127061696Y-59542800D01*
X127064256Y-59555180D01*
X127066352Y-59567773D01*
X127067981Y-59580581D01*
X127068898Y-59590327D01*
X127069552Y-59600193D01*
X127069945Y-59610179D01*
X127070076Y-59620286D01*
X127070018Y-59627005D01*
X127069713Y-59636981D01*
X127069145Y-59646832D01*
X127067981Y-59659773D01*
X127066352Y-59672493D01*
X127064256Y-59684991D01*
X127061696Y-59697268D01*
X127058669Y-59709324D01*
X127055177Y-59721158D01*
X127051281Y-59732634D01*
X127046919Y-59743735D01*
X127042091Y-59754463D01*
X127036798Y-59764816D01*
X127031039Y-59774796D01*
X127024815Y-59784402D01*
X127018125Y-59793633D01*
X127010969Y-59802491D01*
X127003371Y-59810936D01*
X126995353Y-59818931D01*
X126986915Y-59826476D01*
X126978058Y-59833571D01*
X126968780Y-59840215D01*
X126959083Y-59846409D01*
X126948966Y-59852152D01*
X126938429Y-59857445D01*
X126927530Y-59862139D01*
X126916203Y-59866208D01*
X126904449Y-59869650D01*
X126892267Y-59872466D01*
X126879658Y-59874657D01*
X126869921Y-59875889D01*
X126859943Y-59876769D01*
X126849725Y-59877297D01*
X126839267Y-59877473D01*
X126832579Y-59877398D01*
X126822654Y-59877002D01*
X126812858Y-59876267D01*
X126799997Y-59874760D01*
X126787365Y-59872650D01*
X126774962Y-59869936D01*
X126762788Y-59866620D01*
X126750843Y-59862700D01*
X126739127Y-59858178D01*
X126727663Y-59852896D01*
X126716352Y-59846821D01*
X126707968Y-59841743D01*
X126699671Y-59836219D01*
X126691459Y-59830249D01*
X126683333Y-59823831D01*
X126675293Y-59816968D01*
X126667339Y-59809658D01*
X126659471Y-59801901D01*
X126651688Y-59793698D01*
X126651688Y-59446873D01*
X126659471Y-59438666D01*
X126667339Y-59430896D01*
X126675293Y-59423565D01*
X126683333Y-59416671D01*
X126691459Y-59410215D01*
X126699671Y-59404197D01*
X126707968Y-59398618D01*
X126716352Y-59393476D01*
X126727663Y-59387301D01*
X126739127Y-59381905D01*
X126747893Y-59378282D01*
X126759781Y-59374006D01*
X126771897Y-59370363D01*
X126784243Y-59367354D01*
X126796818Y-59364978D01*
X126809621Y-59363236D01*
X126819374Y-59362345D01*
X126829256Y-59361811D01*
X126839267Y-59361632D01*
X126849725Y-59361811D01*
G37*
G36*
X129905692Y-59361811D02*
G01*
X129915910Y-59362345D01*
X129925888Y-59363236D01*
X129935625Y-59364483D01*
X129948234Y-59366700D01*
X129960416Y-59369551D01*
X129972170Y-59373036D01*
X129983497Y-59377153D01*
X129994396Y-59381905D01*
X130004933Y-59387141D01*
X130015050Y-59392834D01*
X130024747Y-59398986D01*
X130034024Y-59405596D01*
X130042882Y-59412664D01*
X130051320Y-59420190D01*
X130059338Y-59428173D01*
X130066936Y-59436615D01*
X130074092Y-59445484D01*
X130080782Y-59454750D01*
X130087006Y-59464413D01*
X130092765Y-59474473D01*
X130098058Y-59484929D01*
X130102885Y-59495783D01*
X130107248Y-59507033D01*
X130111144Y-59518681D01*
X130114636Y-59530633D01*
X130117662Y-59542800D01*
X130120223Y-59555180D01*
X130122318Y-59567773D01*
X130123948Y-59580581D01*
X130124864Y-59590327D01*
X130125519Y-59600193D01*
X130125912Y-59610179D01*
X130126043Y-59620286D01*
X130125985Y-59627005D01*
X130125679Y-59636981D01*
X130125112Y-59646832D01*
X130123948Y-59659773D01*
X130122318Y-59672493D01*
X130120223Y-59684991D01*
X130117662Y-59697268D01*
X130114636Y-59709324D01*
X130111144Y-59721158D01*
X130107248Y-59732634D01*
X130102885Y-59743735D01*
X130098058Y-59754463D01*
X130092765Y-59764816D01*
X130087006Y-59774796D01*
X130080782Y-59784402D01*
X130074092Y-59793633D01*
X130066936Y-59802491D01*
X130059338Y-59810936D01*
X130051320Y-59818931D01*
X130042882Y-59826476D01*
X130034024Y-59833571D01*
X130024747Y-59840215D01*
X130015050Y-59846409D01*
X130004933Y-59852152D01*
X129994396Y-59857445D01*
X129983497Y-59862139D01*
X129972170Y-59866208D01*
X129960416Y-59869650D01*
X129948234Y-59872466D01*
X129935625Y-59874657D01*
X129925888Y-59875889D01*
X129915910Y-59876769D01*
X129905692Y-59877297D01*
X129895233Y-59877473D01*
X129888545Y-59877398D01*
X129878620Y-59877002D01*
X129868825Y-59876267D01*
X129855964Y-59874760D01*
X129843332Y-59872650D01*
X129830929Y-59869936D01*
X129818755Y-59866620D01*
X129806810Y-59862700D01*
X129795094Y-59858178D01*
X129783630Y-59852896D01*
X129772318Y-59846821D01*
X129763935Y-59841743D01*
X129755637Y-59836219D01*
X129747425Y-59830249D01*
X129739299Y-59823831D01*
X129731260Y-59816968D01*
X129723305Y-59809658D01*
X129715437Y-59801901D01*
X129707655Y-59793698D01*
X129707655Y-59446873D01*
X129715437Y-59438666D01*
X129723305Y-59430896D01*
X129731260Y-59423565D01*
X129739299Y-59416671D01*
X129747425Y-59410215D01*
X129755637Y-59404197D01*
X129763935Y-59398618D01*
X129772318Y-59393476D01*
X129783630Y-59387301D01*
X129795094Y-59381905D01*
X129803859Y-59378282D01*
X129815747Y-59374006D01*
X129827864Y-59370363D01*
X129840209Y-59367354D01*
X129852784Y-59364978D01*
X129865588Y-59363236D01*
X129875341Y-59362345D01*
X129885223Y-59361811D01*
X129895233Y-59361632D01*
X129905692Y-59361811D01*
G37*
G36*
X125327135Y-59361811D02*
G01*
X125337411Y-59362345D01*
X125347485Y-59363236D01*
X125357358Y-59364483D01*
X125370207Y-59366700D01*
X125382698Y-59369551D01*
X125394830Y-59373036D01*
X125406603Y-59377153D01*
X125418018Y-59381905D01*
X125429043Y-59387152D01*
X125439648Y-59392880D01*
X125449834Y-59399089D01*
X125459600Y-59405779D01*
X125468946Y-59412950D01*
X125477872Y-59420602D01*
X125486379Y-59428734D01*
X125494466Y-59437348D01*
X125502159Y-59446324D01*
X125509364Y-59455666D01*
X125516081Y-59465375D01*
X125522309Y-59475450D01*
X125528049Y-59485891D01*
X125533300Y-59496699D01*
X125538063Y-59507873D01*
X125542337Y-59519413D01*
X125543329Y-59522338D01*
X125546981Y-59534212D01*
X125550130Y-59546369D01*
X125552774Y-59558808D01*
X125554915Y-59571530D01*
X125556190Y-59581256D01*
X125557182Y-59591142D01*
X125557891Y-59601186D01*
X125558316Y-59611389D01*
X125558457Y-59621751D01*
X125558316Y-59632072D01*
X125557891Y-59642242D01*
X125557182Y-59652262D01*
X125556190Y-59662131D01*
X125554427Y-59675057D01*
X125552160Y-59687716D01*
X125549390Y-59700107D01*
X125546115Y-59712232D01*
X125542337Y-59724089D01*
X125538063Y-59735553D01*
X125533300Y-59746620D01*
X125528049Y-59757291D01*
X125522309Y-59767564D01*
X125516081Y-59777441D01*
X125509364Y-59786920D01*
X125502159Y-59796003D01*
X125494466Y-59804689D01*
X125486379Y-59812951D01*
X125477872Y-59820763D01*
X125468946Y-59828125D01*
X125459600Y-59835036D01*
X125449834Y-59841497D01*
X125439648Y-59847508D01*
X125429043Y-59853068D01*
X125418018Y-59858178D01*
X125415198Y-59859365D01*
X125403693Y-59863737D01*
X125391830Y-59867505D01*
X125379609Y-59870671D01*
X125367028Y-59873234D01*
X125357358Y-59874760D01*
X125347485Y-59875947D01*
X125337411Y-59876795D01*
X125327135Y-59877304D01*
X125316657Y-59877473D01*
X125306220Y-59877304D01*
X125295977Y-59876795D01*
X125285927Y-59875947D01*
X125276071Y-59874760D01*
X125263229Y-59872650D01*
X125250730Y-59869936D01*
X125238575Y-59866620D01*
X125226764Y-59862700D01*
X125215296Y-59858178D01*
X125204278Y-59853068D01*
X125193696Y-59847508D01*
X125183548Y-59841497D01*
X125173836Y-59835036D01*
X125164558Y-59828125D01*
X125155716Y-59820763D01*
X125147309Y-59812951D01*
X125139337Y-59804689D01*
X125131872Y-59796003D01*
X125124865Y-59786920D01*
X125118316Y-59777441D01*
X125112226Y-59767564D01*
X125106593Y-59757291D01*
X125101418Y-59746620D01*
X125096701Y-59735553D01*
X125092442Y-59724089D01*
X125091450Y-59721150D01*
X125087798Y-59709226D01*
X125084650Y-59697034D01*
X125082005Y-59684576D01*
X125079864Y-59671851D01*
X125078589Y-59662131D01*
X125077597Y-59652262D01*
X125076889Y-59642242D01*
X125076464Y-59632072D01*
X125076322Y-59621751D01*
X125076338Y-59618279D01*
X125076574Y-59607970D01*
X125077093Y-59597820D01*
X125077896Y-59587829D01*
X125078982Y-59577997D01*
X125080352Y-59568323D01*
X125082619Y-59555672D01*
X125085389Y-59543303D01*
X125088664Y-59531217D01*
X125092442Y-59519413D01*
X125096701Y-59507873D01*
X125101418Y-59496699D01*
X125106593Y-59485891D01*
X125112226Y-59475450D01*
X125118316Y-59465375D01*
X125124865Y-59455666D01*
X125131872Y-59446324D01*
X125139337Y-59437348D01*
X125147309Y-59428734D01*
X125155716Y-59420602D01*
X125164558Y-59412950D01*
X125173836Y-59405779D01*
X125183548Y-59399089D01*
X125193696Y-59392880D01*
X125204278Y-59387152D01*
X125215296Y-59381905D01*
X125218131Y-59380657D01*
X125229685Y-59376064D01*
X125241582Y-59372105D01*
X125253823Y-59368779D01*
X125266407Y-59366087D01*
X125276071Y-59364483D01*
X125285927Y-59363236D01*
X125295977Y-59362345D01*
X125306220Y-59361811D01*
X125316657Y-59361632D01*
X125327135Y-59361811D01*
G37*
G36*
X127621069Y-59361844D02*
G01*
X127631820Y-59362480D01*
X127642349Y-59363539D01*
X127652657Y-59365021D01*
X127662743Y-59366928D01*
X127672608Y-59369257D01*
X127682252Y-59372011D01*
X127691674Y-59375188D01*
X127700875Y-59378789D01*
X127709855Y-59382813D01*
X127718614Y-59387261D01*
X127727151Y-59392132D01*
X127735466Y-59397427D01*
X127743561Y-59403146D01*
X127751434Y-59409288D01*
X127759085Y-59415854D01*
X127766482Y-59422852D01*
X127773530Y-59430288D01*
X127780229Y-59438162D01*
X127786578Y-59446476D01*
X127792578Y-59455229D01*
X127798229Y-59464421D01*
X127803531Y-59474051D01*
X127808483Y-59484120D01*
X127813087Y-59494628D01*
X127817341Y-59505575D01*
X127821246Y-59516961D01*
X127824802Y-59528786D01*
X127828009Y-59541050D01*
X127830866Y-59553752D01*
X127833374Y-59566894D01*
X127835533Y-59580474D01*
X127383440Y-59580474D01*
X127385012Y-59568502D01*
X127387042Y-59556767D01*
X127389531Y-59545269D01*
X127392477Y-59534007D01*
X127395881Y-59522982D01*
X127399743Y-59512193D01*
X127404063Y-59501641D01*
X127408841Y-59491325D01*
X127413993Y-59481315D01*
X127419435Y-59471679D01*
X127425167Y-59462417D01*
X127431189Y-59453529D01*
X127437501Y-59445015D01*
X127444104Y-59436875D01*
X127450996Y-59429108D01*
X127458178Y-59421716D01*
X127465704Y-59414664D01*
X127473504Y-59408039D01*
X127481580Y-59401841D01*
X127489930Y-59396071D01*
X127498555Y-59390728D01*
X127507454Y-59385812D01*
X127516629Y-59381325D01*
X127526078Y-59377264D01*
X127535832Y-59373600D01*
X127545800Y-59370425D01*
X127555982Y-59367739D01*
X127566378Y-59365540D01*
X127576987Y-59363831D01*
X127587810Y-59362609D01*
X127598847Y-59361877D01*
X127610097Y-59361632D01*
X127621069Y-59361844D01*
G37*
G36*
X130677036Y-59361844D02*
G01*
X130687786Y-59362480D01*
X130698315Y-59363539D01*
X130708623Y-59365021D01*
X130718709Y-59366928D01*
X130728575Y-59369257D01*
X130738218Y-59372011D01*
X130747641Y-59375188D01*
X130756842Y-59378789D01*
X130765822Y-59382813D01*
X130774580Y-59387261D01*
X130783117Y-59392132D01*
X130791433Y-59397427D01*
X130799527Y-59403146D01*
X130807400Y-59409288D01*
X130815052Y-59415854D01*
X130822449Y-59422852D01*
X130829497Y-59430288D01*
X130836195Y-59438162D01*
X130842544Y-59446476D01*
X130848545Y-59455229D01*
X130854196Y-59464421D01*
X130859497Y-59474051D01*
X130864450Y-59484120D01*
X130869053Y-59494628D01*
X130873308Y-59505575D01*
X130877213Y-59516961D01*
X130880768Y-59528786D01*
X130883975Y-59541050D01*
X130886833Y-59553752D01*
X130889341Y-59566894D01*
X130891500Y-59580474D01*
X130439406Y-59580474D01*
X130440979Y-59568502D01*
X130443009Y-59556767D01*
X130445497Y-59545269D01*
X130448443Y-59534007D01*
X130451847Y-59522982D01*
X130455710Y-59512193D01*
X130460030Y-59501641D01*
X130464808Y-59491325D01*
X130469960Y-59481315D01*
X130475402Y-59471679D01*
X130481134Y-59462417D01*
X130487156Y-59453529D01*
X130493468Y-59445015D01*
X130500070Y-59436875D01*
X130506962Y-59429108D01*
X130514145Y-59421716D01*
X130521670Y-59414664D01*
X130529471Y-59408039D01*
X130537546Y-59401841D01*
X130545896Y-59396071D01*
X130554521Y-59390728D01*
X130563421Y-59385812D01*
X130572595Y-59381325D01*
X130582044Y-59377264D01*
X130591799Y-59373600D01*
X130601767Y-59370425D01*
X130611949Y-59367739D01*
X130622344Y-59365540D01*
X130632954Y-59363831D01*
X130643777Y-59362609D01*
X130654813Y-59361877D01*
X130666064Y-59361632D01*
X130677036Y-59361844D01*
G37*
G36*
X122275136Y-59127200D02*
G01*
X122287170Y-59127522D01*
X122298875Y-59128167D01*
X122310249Y-59129134D01*
X122321294Y-59130424D01*
X122332008Y-59132037D01*
X122342392Y-59133972D01*
X122352446Y-59136229D01*
X122362170Y-59138809D01*
X122376137Y-59143283D01*
X122389361Y-59148483D01*
X122401843Y-59154409D01*
X122413581Y-59161060D01*
X122424577Y-59168436D01*
X122434704Y-59176599D01*
X122443834Y-59185607D01*
X122451969Y-59195461D01*
X122459107Y-59206160D01*
X122465249Y-59217706D01*
X122470396Y-59230097D01*
X122474546Y-59243334D01*
X122477700Y-59257417D01*
X122479250Y-59267276D01*
X122480356Y-59277510D01*
X122481020Y-59288120D01*
X122481242Y-59299106D01*
X122481020Y-59310238D01*
X122480356Y-59320981D01*
X122479250Y-59331335D01*
X122477700Y-59341299D01*
X122474546Y-59355516D01*
X122470396Y-59368857D01*
X122465249Y-59381322D01*
X122459107Y-59392911D01*
X122451969Y-59403624D01*
X122443834Y-59413462D01*
X122434704Y-59422423D01*
X122424577Y-59430509D01*
X122417329Y-59435419D01*
X122405838Y-59442189D01*
X122393604Y-59448247D01*
X122380628Y-59453592D01*
X122366908Y-59458225D01*
X122357349Y-59460917D01*
X122347460Y-59463293D01*
X122337241Y-59465352D01*
X122326692Y-59467094D01*
X122315813Y-59468519D01*
X122304604Y-59469628D01*
X122293064Y-59470420D01*
X122281194Y-59470895D01*
X122268995Y-59471053D01*
X122067739Y-59471053D01*
X122067739Y-59127159D01*
X122268995Y-59127159D01*
X122275136Y-59127200D01*
G37*
G36*
X131912166Y-60364224D02*
G01*
X121830848Y-60364224D01*
X121830848Y-59049002D01*
X121973705Y-59049002D01*
X121973705Y-59127159D01*
X121973705Y-59940000D01*
X122067739Y-59940000D01*
X122067739Y-59549211D01*
X122207201Y-59549211D01*
X122469030Y-59940000D01*
X122588464Y-59940000D01*
X122318576Y-59549211D01*
X122329034Y-59548304D01*
X122339341Y-59547139D01*
X122349499Y-59545716D01*
X122359506Y-59544036D01*
X122369362Y-59542098D01*
X122379069Y-59539903D01*
X122388625Y-59537450D01*
X122398031Y-59534740D01*
X122410339Y-59530725D01*
X122422379Y-59526252D01*
X122434137Y-59521302D01*
X122445475Y-59515979D01*
X122456394Y-59510281D01*
X122466892Y-59504209D01*
X122476971Y-59497763D01*
X122486630Y-59490944D01*
X122495870Y-59483750D01*
X122504689Y-59476182D01*
X122513070Y-59468222D01*
X122520992Y-59459849D01*
X122528457Y-59451063D01*
X122535464Y-59441866D01*
X122542012Y-59432257D01*
X122548103Y-59422235D01*
X122553736Y-59411801D01*
X122558911Y-59400956D01*
X122563605Y-59389671D01*
X122567673Y-59378043D01*
X122571115Y-59366071D01*
X122573932Y-59353756D01*
X122576122Y-59341097D01*
X122577355Y-59331378D01*
X122578235Y-59321465D01*
X122578763Y-59311359D01*
X122578939Y-59301060D01*
X122578622Y-59285611D01*
X122577672Y-59270648D01*
X122576088Y-59256172D01*
X122573871Y-59242182D01*
X122571020Y-59228679D01*
X122567536Y-59215663D01*
X122563418Y-59203133D01*
X122558667Y-59191090D01*
X122553282Y-59179533D01*
X122547264Y-59168463D01*
X122540612Y-59157880D01*
X122533326Y-59147783D01*
X122525408Y-59138172D01*
X122516855Y-59129048D01*
X122507669Y-59120411D01*
X122497850Y-59112260D01*
X122487454Y-59104600D01*
X122476536Y-59097434D01*
X122465098Y-59090762D01*
X122453138Y-59084585D01*
X122440658Y-59078901D01*
X122427657Y-59073712D01*
X122414135Y-59069017D01*
X122400092Y-59064816D01*
X122385528Y-59061110D01*
X122370443Y-59057897D01*
X122354837Y-59055179D01*
X122338711Y-59052955D01*
X122322063Y-59051226D01*
X122304894Y-59049990D01*
X122287205Y-59049249D01*
X122268995Y-59049002D01*
X122737697Y-59049002D01*
X122737697Y-59940000D01*
X122831730Y-59940000D01*
X122831730Y-59619309D01*
X124230509Y-59619309D01*
X124230518Y-59619797D01*
X124230844Y-59637686D01*
X124231848Y-59655571D01*
X124233523Y-59672964D01*
X124235867Y-59689864D01*
X124238881Y-59706272D01*
X124242565Y-59722188D01*
X124246918Y-59737612D01*
X124251941Y-59752543D01*
X124257634Y-59766982D01*
X124263997Y-59780929D01*
X124271029Y-59794383D01*
X124278732Y-59807345D01*
X124287104Y-59819815D01*
X124296145Y-59831792D01*
X124305857Y-59843277D01*
X124316238Y-59854270D01*
X124327237Y-59864652D01*
X124338739Y-59874363D01*
X124350745Y-59883405D01*
X124363255Y-59891777D01*
X124376268Y-59899479D01*
X124389786Y-59906512D01*
X124403807Y-59912874D01*
X124418332Y-59918567D01*
X124433360Y-59923590D01*
X124448893Y-59927944D01*
X124464929Y-59931628D01*
X124481468Y-59934641D01*
X124498512Y-59936986D01*
X124516059Y-59938660D01*
X124534110Y-59939665D01*
X124552665Y-59940000D01*
X124565976Y-59939718D01*
X124579105Y-59938874D01*
X124592049Y-59937466D01*
X124604811Y-59935496D01*
X124617390Y-59932963D01*
X124629785Y-59929867D01*
X124641997Y-59926208D01*
X124654026Y-59921987D01*
X124665872Y-59917202D01*
X124677534Y-59911854D01*
X124689014Y-59905944D01*
X124700310Y-59899470D01*
X124711423Y-59892434D01*
X124722353Y-59884835D01*
X124733100Y-59876673D01*
X124743663Y-59867948D01*
X124743663Y-59940000D01*
X124743608Y-59945651D01*
X124743165Y-59956703D01*
X124742280Y-59967420D01*
X124740952Y-59977800D01*
X124739181Y-59987844D01*
X124736967Y-59997553D01*
X124732817Y-60011486D01*
X124727671Y-60024664D01*
X124721529Y-60037086D01*
X124714390Y-60048752D01*
X124706256Y-60059663D01*
X124697125Y-60069818D01*
X124686999Y-60079218D01*
X124676016Y-60087860D01*
X124664316Y-60095653D01*
X124651899Y-60102595D01*
X124638765Y-60108687D01*
X124629610Y-60112277D01*
X124620137Y-60115488D01*
X124610346Y-60118322D01*
X124600235Y-60120777D01*
X124589806Y-60122855D01*
X124579059Y-60124556D01*
X124567992Y-60125878D01*
X124556607Y-60126822D01*
X124544904Y-60127389D01*
X124532882Y-60127578D01*
X124523998Y-60127460D01*
X124510906Y-60126839D01*
X124498092Y-60125685D01*
X124485558Y-60123999D01*
X124473303Y-60121781D01*
X124461326Y-60119030D01*
X124449629Y-60115747D01*
X124438211Y-60111932D01*
X124427072Y-60107584D01*
X124416212Y-60102704D01*
X124405631Y-60097292D01*
X124398802Y-60093479D01*
X124388937Y-60087546D01*
X124379528Y-60081355D01*
X124370573Y-60074906D01*
X124362074Y-60068200D01*
X124354029Y-60061236D01*
X124346440Y-60054015D01*
X124339306Y-60046536D01*
X124332627Y-60038800D01*
X124326403Y-60030805D01*
X124320635Y-60022554D01*
X124254689Y-60073356D01*
X124257760Y-60077617D01*
X124264007Y-60085969D01*
X124270395Y-60094094D01*
X124276925Y-60101992D01*
X124283596Y-60109663D01*
X124290408Y-60117106D01*
X124297361Y-60124323D01*
X124304456Y-60131312D01*
X124311692Y-60138075D01*
X124319068Y-60144610D01*
X124326587Y-60150919D01*
X124334246Y-60157000D01*
X124346000Y-60165696D01*
X124358071Y-60173881D01*
X124370460Y-60181556D01*
X124378937Y-60186377D01*
X124387637Y-60190887D01*
X124396561Y-60195085D01*
X124405707Y-60198973D01*
X124415077Y-60202550D01*
X124424671Y-60205816D01*
X124434487Y-60208771D01*
X124444527Y-60211414D01*
X124454790Y-60213747D01*
X124465276Y-60215769D01*
X124475985Y-60217479D01*
X124486918Y-60218879D01*
X124498074Y-60219968D01*
X124509453Y-60220745D01*
X124521056Y-60221212D01*
X124532882Y-60221367D01*
X124541319Y-60221293D01*
X124553790Y-60220902D01*
X124566038Y-60220177D01*
X124578062Y-60219116D01*
X124589863Y-60217721D01*
X124601440Y-60215991D01*
X124612795Y-60213925D01*
X124623926Y-60211526D01*
X124634834Y-60208791D01*
X124645519Y-60205721D01*
X124655980Y-60202316D01*
X124662853Y-60199868D01*
X124672948Y-60195945D01*
X124682786Y-60191722D01*
X124686213Y-60190104D01*
X126557655Y-60190104D01*
X126651688Y-60190104D01*
X129613621Y-60190104D01*
X129707655Y-60190104D01*
X129707655Y-59884068D01*
X129715450Y-59890556D01*
X129723357Y-59896739D01*
X129731375Y-59902617D01*
X129739506Y-59908191D01*
X129750519Y-59915148D01*
X129761732Y-59921563D01*
X129773142Y-59927436D01*
X129784752Y-59932768D01*
X129796559Y-59937557D01*
X129808573Y-59941793D01*
X129820678Y-59945464D01*
X129832875Y-59948571D01*
X129845163Y-59951113D01*
X129857544Y-59953089D01*
X129870015Y-59954501D01*
X129882578Y-59955349D01*
X129895233Y-59955631D01*
X129904429Y-59955535D01*
X129918014Y-59955029D01*
X129931351Y-59954089D01*
X129944438Y-59952716D01*
X129957277Y-59950909D01*
X129969866Y-59948669D01*
X129982207Y-59945995D01*
X129994298Y-59942887D01*
X130006141Y-59939346D01*
X130017734Y-59935371D01*
X130029078Y-59930963D01*
X130036490Y-59927773D01*
X130047349Y-59922706D01*
X130057899Y-59917300D01*
X130068140Y-59911555D01*
X130078072Y-59905471D01*
X130087695Y-59899047D01*
X130097008Y-59892284D01*
X130106013Y-59885182D01*
X130114708Y-59877741D01*
X130123095Y-59869961D01*
X130131172Y-59861842D01*
X130136379Y-59856219D01*
X130143911Y-59847539D01*
X130151108Y-59838562D01*
X130157970Y-59829290D01*
X130164498Y-59819720D01*
X130170690Y-59809855D01*
X130176548Y-59799693D01*
X130182070Y-59789236D01*
X130187258Y-59778482D01*
X130192111Y-59767431D01*
X130196629Y-59756085D01*
X130199468Y-59748368D01*
X130203384Y-59736593D01*
X130206887Y-59724577D01*
X130209978Y-59712321D01*
X130212657Y-59699825D01*
X130214924Y-59687088D01*
X130216779Y-59674111D01*
X130218222Y-59660893D01*
X130219252Y-59647435D01*
X130219870Y-59633736D01*
X130220076Y-59619797D01*
X130341221Y-59619797D01*
X130341317Y-59629117D01*
X130341823Y-59642895D01*
X130342762Y-59656434D01*
X130344136Y-59669731D01*
X130345942Y-59682789D01*
X130348183Y-59695606D01*
X130350857Y-59708183D01*
X130353965Y-59720519D01*
X130357506Y-59732614D01*
X130361481Y-59744470D01*
X130365889Y-59756085D01*
X130369052Y-59763682D01*
X130374093Y-59774831D01*
X130379491Y-59785684D01*
X130385244Y-59796240D01*
X130391354Y-59806501D01*
X130397821Y-59816465D01*
X130404644Y-59826133D01*
X130411823Y-59835504D01*
X130419358Y-59844580D01*
X130427250Y-59853359D01*
X130435498Y-59861842D01*
X130441211Y-59867292D01*
X130450024Y-59875186D01*
X130459129Y-59882740D01*
X130468526Y-59889955D01*
X130478214Y-59896831D01*
X130488195Y-59903367D01*
X130498467Y-59909565D01*
X130509032Y-59915423D01*
X130519888Y-59920942D01*
X130531037Y-59926122D01*
X130542477Y-59930963D01*
X130550250Y-59933950D01*
X130562091Y-59938069D01*
X130574152Y-59941755D01*
X130586432Y-59945007D01*
X130598930Y-59947826D01*
X130611648Y-59950211D01*
X130624584Y-59952162D01*
X130637740Y-59953680D01*
X130651114Y-59954764D01*
X130664708Y-59955414D01*
X130678520Y-59955631D01*
X130690581Y-59955497D01*
X130702402Y-59955093D01*
X130713983Y-59954420D01*
X130725323Y-59953479D01*
X130736423Y-59952268D01*
X130747282Y-59950788D01*
X130757901Y-59949039D01*
X130768279Y-59947021D01*
X130778417Y-59944735D01*
X130788315Y-59942179D01*
X130797972Y-59939354D01*
X130807389Y-59936260D01*
X130816565Y-59932896D01*
X130829879Y-59927347D01*
X130842651Y-59921193D01*
X130846801Y-59919008D01*
X130859031Y-59912072D01*
X130870935Y-59904560D01*
X130882512Y-59896473D01*
X130893764Y-59887810D01*
X130904689Y-59878572D01*
X130915288Y-59868759D01*
X130925560Y-59858371D01*
X130932227Y-59851126D01*
X130938749Y-59843625D01*
X130945126Y-59835868D01*
X130951358Y-59827856D01*
X130957445Y-59819588D01*
X130891500Y-59774403D01*
X130887849Y-59779842D01*
X130881960Y-59787790D01*
X130875578Y-59795484D01*
X130868702Y-59802925D01*
X130861333Y-59810113D01*
X130853470Y-59817047D01*
X130845113Y-59823728D01*
X130836262Y-59830156D01*
X130826918Y-59836331D01*
X130817079Y-59842252D01*
X130806748Y-59847920D01*
X130799664Y-59851499D01*
X130788805Y-59856434D01*
X130777667Y-59860850D01*
X130766251Y-59864746D01*
X130754555Y-59868122D01*
X130742580Y-59870980D01*
X130730326Y-59873317D01*
X130717793Y-59875136D01*
X130704981Y-59876434D01*
X130691890Y-59877214D01*
X130678520Y-59877473D01*
X130665878Y-59877241D01*
X130653535Y-59876546D01*
X130641492Y-59875387D01*
X130629748Y-59873764D01*
X130618304Y-59871677D01*
X130607159Y-59869127D01*
X130596314Y-59866113D01*
X130585769Y-59862636D01*
X130575523Y-59858694D01*
X130565577Y-59854289D01*
X130555930Y-59849421D01*
X130546583Y-59844088D01*
X130537536Y-59838292D01*
X130528788Y-59832033D01*
X130520339Y-59825309D01*
X130512191Y-59818122D01*
X130504430Y-59810515D01*
X130497086Y-59802594D01*
X130490157Y-59794357D01*
X130483645Y-59785806D01*
X130477548Y-59776940D01*
X130471868Y-59767759D01*
X130466603Y-59758263D01*
X130461755Y-59748452D01*
X130457322Y-59738326D01*
X130453305Y-59727886D01*
X130449705Y-59717131D01*
X130446520Y-59706061D01*
X130443751Y-59694676D01*
X130441398Y-59682976D01*
X130439462Y-59670961D01*
X130437941Y-59658632D01*
X130990907Y-59658632D01*
X130990888Y-59653441D01*
X130990735Y-59643144D01*
X130990430Y-59632962D01*
X130989972Y-59622895D01*
X130989361Y-59612942D01*
X130988598Y-59603104D01*
X130987167Y-59588561D01*
X130985392Y-59574275D01*
X130983274Y-59560248D01*
X130980813Y-59546478D01*
X130978008Y-59532965D01*
X130974859Y-59519710D01*
X130971367Y-59506713D01*
X130968841Y-59498209D01*
X130964736Y-59485736D01*
X130960254Y-59473603D01*
X130955394Y-59461808D01*
X130950156Y-59450353D01*
X130944541Y-59439237D01*
X130938547Y-59428460D01*
X130932176Y-59418022D01*
X130925427Y-59407923D01*
X130918300Y-59398164D01*
X130910795Y-59388743D01*
X130905617Y-59382660D01*
X130897554Y-59373850D01*
X130889134Y-59365418D01*
X130880357Y-59357364D01*
X130871225Y-59349687D01*
X130861736Y-59342389D01*
X130851891Y-59335468D01*
X130841689Y-59328925D01*
X130831131Y-59322760D01*
X130820216Y-59316972D01*
X130808946Y-59311563D01*
X130801232Y-59308161D01*
X130789357Y-59303471D01*
X130777118Y-59299274D01*
X130776546Y-59299106D01*
X131089337Y-59299106D01*
X131220495Y-59940000D01*
X131330404Y-59940000D01*
X131427369Y-59469588D01*
X131529706Y-59940000D01*
X131639616Y-59940000D01*
X131769309Y-59299106D01*
X131670390Y-59299106D01*
X131577822Y-59812016D01*
X131475484Y-59299106D01*
X131381939Y-59299106D01*
X131282288Y-59812016D01*
X131189720Y-59299106D01*
X131089337Y-59299106D01*
X130776546Y-59299106D01*
X130764513Y-59295571D01*
X130751544Y-59292362D01*
X130738210Y-59289646D01*
X130724510Y-59287425D01*
X130710446Y-59285697D01*
X130696017Y-59284462D01*
X130686195Y-59283914D01*
X130676210Y-59283584D01*
X130666064Y-59283475D01*
X130656777Y-59283573D01*
X130643054Y-59284089D01*
X130629580Y-59285047D01*
X130616355Y-59286447D01*
X130603379Y-59288290D01*
X130590652Y-59290575D01*
X130578174Y-59293302D01*
X130565946Y-59296471D01*
X130553966Y-59300082D01*
X130542235Y-59304136D01*
X130530753Y-59308632D01*
X130523283Y-59311855D01*
X130512342Y-59316982D01*
X130501719Y-59322462D01*
X130491413Y-59328294D01*
X130481426Y-59334478D01*
X130471756Y-59341013D01*
X130462403Y-59347901D01*
X130453369Y-59355141D01*
X130444652Y-59362733D01*
X130436253Y-59370678D01*
X130428171Y-59378974D01*
X130422967Y-59384656D01*
X130415450Y-59393423D01*
X130408281Y-59402482D01*
X130401459Y-59411833D01*
X130394986Y-59421476D01*
X130388860Y-59431411D01*
X130383082Y-59441637D01*
X130377651Y-59452156D01*
X130372569Y-59462967D01*
X130367834Y-59474069D01*
X130363447Y-59485464D01*
X130360755Y-59493201D01*
X130357044Y-59504972D01*
X130353723Y-59516940D01*
X130350793Y-59529106D01*
X130348253Y-59541470D01*
X130346104Y-59554030D01*
X130344346Y-59566789D01*
X130342979Y-59579745D01*
X130342925Y-59580474D01*
X130342002Y-59592898D01*
X130341416Y-59606249D01*
X130341221Y-59619797D01*
X130220076Y-59619797D01*
X130219985Y-59610740D01*
X130219504Y-59597308D01*
X130218611Y-59584061D01*
X130217306Y-59570999D01*
X130215588Y-59558121D01*
X130213459Y-59545428D01*
X130210917Y-59532919D01*
X130207963Y-59520595D01*
X130204597Y-59508456D01*
X130200819Y-59496501D01*
X130196629Y-59484731D01*
X130193654Y-59477013D01*
X130188913Y-59465691D01*
X130183837Y-59454674D01*
X130178426Y-59443961D01*
X130172680Y-59433553D01*
X130166599Y-59423450D01*
X130160183Y-59413652D01*
X130153433Y-59404159D01*
X130146347Y-59394971D01*
X130138927Y-59386087D01*
X130131172Y-59377508D01*
X130125821Y-59371941D01*
X130117538Y-59363895D01*
X130108946Y-59356213D01*
X130100044Y-59348897D01*
X130090834Y-59341945D01*
X130081314Y-59335358D01*
X130071485Y-59329137D01*
X130061347Y-59323280D01*
X130050900Y-59317788D01*
X130040144Y-59312661D01*
X130029078Y-59307899D01*
X130021543Y-59304941D01*
X130010033Y-59300863D01*
X129998273Y-59297213D01*
X129986265Y-59293993D01*
X129974007Y-59291203D01*
X129961501Y-59288841D01*
X129948745Y-59286909D01*
X129935741Y-59285407D01*
X129922487Y-59284333D01*
X129908985Y-59283689D01*
X129895233Y-59283475D01*
X129882737Y-59283759D01*
X129870343Y-59284612D01*
X129858053Y-59286034D01*
X129845866Y-59288024D01*
X129833781Y-59290583D01*
X129821800Y-59293710D01*
X129809922Y-59297406D01*
X129798147Y-59301671D01*
X129786475Y-59306504D01*
X129774906Y-59311906D01*
X129763439Y-59317877D01*
X129752076Y-59324416D01*
X129740816Y-59331524D01*
X129729660Y-59339200D01*
X129718606Y-59347445D01*
X129707655Y-59356259D01*
X129707655Y-59299106D01*
X129613621Y-59299106D01*
X129613621Y-59793698D01*
X129613621Y-60190104D01*
X126651688Y-60190104D01*
X126651688Y-59884068D01*
X126659484Y-59890556D01*
X126667390Y-59896739D01*
X126675409Y-59902617D01*
X126683539Y-59908191D01*
X126694553Y-59915148D01*
X126705765Y-59921563D01*
X126717176Y-59927436D01*
X126728785Y-59932768D01*
X126740593Y-59937557D01*
X126752606Y-59941793D01*
X126764712Y-59945464D01*
X126776909Y-59948571D01*
X126789197Y-59951113D01*
X126801577Y-59953089D01*
X126814049Y-59954501D01*
X126826612Y-59955349D01*
X126839267Y-59955631D01*
X126848462Y-59955535D01*
X126862048Y-59955029D01*
X126875384Y-59954089D01*
X126888472Y-59952716D01*
X126901310Y-59950909D01*
X126913900Y-59948669D01*
X126926240Y-59945995D01*
X126938332Y-59942887D01*
X126950174Y-59939346D01*
X126961767Y-59935371D01*
X126973112Y-59930963D01*
X126980523Y-59927773D01*
X126991382Y-59922706D01*
X127001933Y-59917300D01*
X127012174Y-59911555D01*
X127022105Y-59905471D01*
X127031728Y-59899047D01*
X127041042Y-59892284D01*
X127050046Y-59885182D01*
X127058742Y-59877741D01*
X127067128Y-59869961D01*
X127075205Y-59861842D01*
X127080413Y-59856219D01*
X127087945Y-59847539D01*
X127095142Y-59838562D01*
X127102004Y-59829290D01*
X127108531Y-59819720D01*
X127114724Y-59809855D01*
X127120581Y-59799693D01*
X127126104Y-59789236D01*
X127131292Y-59778482D01*
X127136144Y-59767431D01*
X127140662Y-59756085D01*
X127143502Y-59748368D01*
X127147417Y-59736593D01*
X127150921Y-59724577D01*
X127154012Y-59712321D01*
X127156691Y-59699825D01*
X127158958Y-59687088D01*
X127160812Y-59674111D01*
X127162255Y-59660893D01*
X127163285Y-59647435D01*
X127163904Y-59633736D01*
X127164110Y-59619797D01*
X127285254Y-59619797D01*
X127285351Y-59629117D01*
X127285856Y-59642895D01*
X127286796Y-59656434D01*
X127288169Y-59669731D01*
X127289976Y-59682789D01*
X127292216Y-59695606D01*
X127294890Y-59708183D01*
X127297998Y-59720519D01*
X127301539Y-59732614D01*
X127305514Y-59744470D01*
X127309923Y-59756085D01*
X127313085Y-59763682D01*
X127318127Y-59774831D01*
X127323524Y-59785684D01*
X127329278Y-59796240D01*
X127335388Y-59806501D01*
X127341854Y-59816465D01*
X127348677Y-59826133D01*
X127355856Y-59835504D01*
X127363392Y-59844580D01*
X127371284Y-59853359D01*
X127379532Y-59861842D01*
X127385245Y-59867292D01*
X127394058Y-59875186D01*
X127403162Y-59882740D01*
X127412559Y-59889955D01*
X127422248Y-59896831D01*
X127432228Y-59903367D01*
X127442501Y-59909565D01*
X127453065Y-59915423D01*
X127463922Y-59920942D01*
X127475070Y-59926122D01*
X127486510Y-59930963D01*
X127494283Y-59933950D01*
X127506125Y-59938069D01*
X127518186Y-59941755D01*
X127530465Y-59945007D01*
X127542964Y-59947826D01*
X127555681Y-59950211D01*
X127568618Y-59952162D01*
X127581773Y-59953680D01*
X127595148Y-59954764D01*
X127608741Y-59955414D01*
X127622554Y-59955631D01*
X127634615Y-59955497D01*
X127646436Y-59955093D01*
X127658016Y-59954420D01*
X127669357Y-59953479D01*
X127680456Y-59952268D01*
X127691316Y-59950788D01*
X127701934Y-59949039D01*
X127712313Y-59947021D01*
X127722451Y-59944735D01*
X127732348Y-59942179D01*
X127742006Y-59939354D01*
X127751422Y-59936260D01*
X127760598Y-59932896D01*
X127773912Y-59927347D01*
X127786685Y-59921193D01*
X127790834Y-59919008D01*
X127803064Y-59912072D01*
X127814968Y-59904560D01*
X127826546Y-59896473D01*
X127837797Y-59887810D01*
X127848722Y-59878572D01*
X127859321Y-59868759D01*
X127869594Y-59858371D01*
X127876261Y-59851126D01*
X127882783Y-59843625D01*
X127889160Y-59835868D01*
X127895392Y-59827856D01*
X127901479Y-59819588D01*
X127835533Y-59774403D01*
X127831882Y-59779842D01*
X127825994Y-59787790D01*
X127819612Y-59795484D01*
X127812736Y-59802925D01*
X127805366Y-59810113D01*
X127797503Y-59817047D01*
X127789146Y-59823728D01*
X127780296Y-59830156D01*
X127770951Y-59836331D01*
X127761113Y-59842252D01*
X127750781Y-59847920D01*
X127743697Y-59851499D01*
X127732839Y-59856434D01*
X127721701Y-59860850D01*
X127710284Y-59864746D01*
X127698588Y-59868122D01*
X127686614Y-59870980D01*
X127674360Y-59873317D01*
X127661827Y-59875136D01*
X127649015Y-59876434D01*
X127635924Y-59877214D01*
X127622554Y-59877473D01*
X127609911Y-59877241D01*
X127597568Y-59876546D01*
X127585525Y-59875387D01*
X127573781Y-59873764D01*
X127562337Y-59871677D01*
X127551193Y-59869127D01*
X127540348Y-59866113D01*
X127529802Y-59862636D01*
X127519557Y-59858694D01*
X127509610Y-59854289D01*
X127499964Y-59849421D01*
X127490617Y-59844088D01*
X127481569Y-59838292D01*
X127472821Y-59832033D01*
X127464373Y-59825309D01*
X127456224Y-59818122D01*
X127448464Y-59810515D01*
X127441119Y-59802594D01*
X127434191Y-59794357D01*
X127427678Y-59785806D01*
X127421582Y-59776940D01*
X127415901Y-59767759D01*
X127410637Y-59758263D01*
X127405788Y-59748452D01*
X127401355Y-59738326D01*
X127397339Y-59727886D01*
X127393738Y-59717131D01*
X127390553Y-59706061D01*
X127387785Y-59694676D01*
X127385432Y-59682976D01*
X127383495Y-59670961D01*
X127381974Y-59658632D01*
X127934940Y-59658632D01*
X127934921Y-59653441D01*
X127934768Y-59643144D01*
X127934463Y-59632962D01*
X127934005Y-59622895D01*
X127933395Y-59612942D01*
X127932631Y-59603104D01*
X127931200Y-59588561D01*
X127929426Y-59574275D01*
X127927308Y-59560248D01*
X127924846Y-59546478D01*
X127922041Y-59532965D01*
X127918893Y-59519710D01*
X127915401Y-59506713D01*
X127912874Y-59498209D01*
X127908770Y-59485736D01*
X127904288Y-59473603D01*
X127899428Y-59461808D01*
X127894190Y-59450353D01*
X127888574Y-59439237D01*
X127882581Y-59428460D01*
X127876209Y-59418022D01*
X127869460Y-59407923D01*
X127862333Y-59398164D01*
X127854829Y-59388743D01*
X127849651Y-59382660D01*
X127841587Y-59373850D01*
X127833167Y-59365418D01*
X127824391Y-59357364D01*
X127815258Y-59349687D01*
X127805769Y-59342389D01*
X127795924Y-59335468D01*
X127785722Y-59328925D01*
X127775164Y-59322760D01*
X127764250Y-59316972D01*
X127752979Y-59311563D01*
X127745266Y-59308161D01*
X127733391Y-59303471D01*
X127721151Y-59299274D01*
X127720579Y-59299106D01*
X128033370Y-59299106D01*
X128164528Y-59940000D01*
X128274438Y-59940000D01*
X128371402Y-59469588D01*
X128473740Y-59940000D01*
X128583649Y-59940000D01*
X128713342Y-59299106D01*
X128614424Y-59299106D01*
X128521856Y-59812016D01*
X128419518Y-59299106D01*
X128325973Y-59299106D01*
X128226322Y-59812016D01*
X128133754Y-59299106D01*
X128033370Y-59299106D01*
X127720579Y-59299106D01*
X127708547Y-59295571D01*
X127695577Y-59292362D01*
X127682243Y-59289646D01*
X127668544Y-59287425D01*
X127654480Y-59285697D01*
X127640050Y-59284462D01*
X127630228Y-59283914D01*
X127620244Y-59283584D01*
X127610097Y-59283475D01*
X127600810Y-59283573D01*
X127587087Y-59284089D01*
X127573613Y-59285047D01*
X127560389Y-59286447D01*
X127547413Y-59288290D01*
X127534686Y-59290575D01*
X127522208Y-59293302D01*
X127509979Y-59296471D01*
X127497999Y-59300082D01*
X127486268Y-59304136D01*
X127474787Y-59308632D01*
X127467316Y-59311855D01*
X127456375Y-59316982D01*
X127445752Y-59322462D01*
X127435447Y-59328294D01*
X127425459Y-59334478D01*
X127415789Y-59341013D01*
X127406437Y-59347901D01*
X127397402Y-59355141D01*
X127388685Y-59362733D01*
X127380286Y-59370678D01*
X127372205Y-59378974D01*
X127367000Y-59384656D01*
X127359483Y-59393423D01*
X127352314Y-59402482D01*
X127345493Y-59411833D01*
X127339019Y-59421476D01*
X127332893Y-59431411D01*
X127327115Y-59441637D01*
X127321685Y-59452156D01*
X127316602Y-59462967D01*
X127311867Y-59474069D01*
X127307480Y-59485464D01*
X127304789Y-59493201D01*
X127301077Y-59504972D01*
X127297756Y-59516940D01*
X127294826Y-59529106D01*
X127292287Y-59541470D01*
X127290138Y-59554030D01*
X127288380Y-59566789D01*
X127287012Y-59579745D01*
X127286958Y-59580474D01*
X127286036Y-59592898D01*
X127285450Y-59606249D01*
X127285254Y-59619797D01*
X127164110Y-59619797D01*
X127164018Y-59610740D01*
X127163537Y-59597308D01*
X127162644Y-59584061D01*
X127161339Y-59570999D01*
X127159622Y-59558121D01*
X127157492Y-59545428D01*
X127154951Y-59532919D01*
X127151997Y-59520595D01*
X127148631Y-59508456D01*
X127144853Y-59496501D01*
X127140662Y-59484731D01*
X127137688Y-59477013D01*
X127132946Y-59465691D01*
X127127870Y-59454674D01*
X127122459Y-59443961D01*
X127116713Y-59433553D01*
X127110633Y-59423450D01*
X127104217Y-59413652D01*
X127097466Y-59404159D01*
X127090381Y-59394971D01*
X127082961Y-59386087D01*
X127075205Y-59377508D01*
X127069855Y-59371941D01*
X127061572Y-59363895D01*
X127052979Y-59356213D01*
X127044078Y-59348897D01*
X127034867Y-59341945D01*
X127025347Y-59335358D01*
X127015519Y-59329137D01*
X127005381Y-59323280D01*
X126994933Y-59317788D01*
X126984177Y-59312661D01*
X126973112Y-59307899D01*
X126965577Y-59304941D01*
X126954066Y-59300863D01*
X126942307Y-59297213D01*
X126930298Y-59293993D01*
X126918041Y-59291203D01*
X126905534Y-59288841D01*
X126892779Y-59286909D01*
X126879774Y-59285407D01*
X126866521Y-59284333D01*
X126853018Y-59283689D01*
X126839267Y-59283475D01*
X126826770Y-59283759D01*
X126814377Y-59284612D01*
X126802087Y-59286034D01*
X126789899Y-59288024D01*
X126777815Y-59290583D01*
X126765834Y-59293710D01*
X126753955Y-59297406D01*
X126742180Y-59301671D01*
X126730508Y-59306504D01*
X126718939Y-59311906D01*
X126707473Y-59317877D01*
X126696110Y-59324416D01*
X126684850Y-59331524D01*
X126673693Y-59339200D01*
X126662639Y-59347445D01*
X126651688Y-59356259D01*
X126651688Y-59299106D01*
X126557655Y-59299106D01*
X126557655Y-59793698D01*
X126557655Y-60190104D01*
X124686213Y-60190104D01*
X124692365Y-60187199D01*
X124701688Y-60182374D01*
X124710752Y-60177249D01*
X124719559Y-60171824D01*
X124728109Y-60166098D01*
X124736401Y-60160072D01*
X124744435Y-60153745D01*
X124752212Y-60147117D01*
X124757240Y-60142536D01*
X124764517Y-60135428D01*
X124771476Y-60128036D01*
X124778118Y-60120361D01*
X124784442Y-60112403D01*
X124790449Y-60104161D01*
X124796137Y-60095636D01*
X124801508Y-60086827D01*
X124806561Y-60077735D01*
X124811297Y-60068360D01*
X124815715Y-60058702D01*
X124818465Y-60052141D01*
X124822259Y-60042086D01*
X124825652Y-60031774D01*
X124828647Y-60021204D01*
X124831242Y-60010376D01*
X124833438Y-59999290D01*
X124835235Y-59987947D01*
X124836633Y-59976347D01*
X124837631Y-59964489D01*
X124838230Y-59952373D01*
X124838429Y-59940000D01*
X124838429Y-59621263D01*
X124982288Y-59621263D01*
X124982293Y-59621751D01*
X124982381Y-59630582D01*
X124982867Y-59644361D01*
X124983769Y-59657899D01*
X124985088Y-59671197D01*
X124986823Y-59684254D01*
X124988975Y-59697071D01*
X124991543Y-59709648D01*
X124994527Y-59721984D01*
X124997929Y-59734080D01*
X125001746Y-59745935D01*
X125005980Y-59757550D01*
X125009022Y-59765115D01*
X125013884Y-59776208D01*
X125019108Y-59786997D01*
X125024692Y-59797480D01*
X125030637Y-59807659D01*
X125036943Y-59817533D01*
X125043609Y-59827102D01*
X125050635Y-59836366D01*
X125058023Y-59845326D01*
X125065771Y-59853980D01*
X125073879Y-59862330D01*
X125079504Y-59867722D01*
X125088194Y-59875533D01*
X125097189Y-59883015D01*
X125106489Y-59890165D01*
X125116094Y-59896985D01*
X125126004Y-59903474D01*
X125136219Y-59909633D01*
X125146738Y-59915461D01*
X125157562Y-59920959D01*
X125168691Y-59926126D01*
X125180125Y-59930963D01*
X125187901Y-59933950D01*
X125199758Y-59938069D01*
X125211846Y-59941755D01*
X125224167Y-59945007D01*
X125236719Y-59947826D01*
X125249503Y-59950211D01*
X125262519Y-59952162D01*
X125275767Y-59953680D01*
X125289246Y-59954764D01*
X125302958Y-59955414D01*
X125316901Y-59955631D01*
X125326370Y-59955535D01*
X125340363Y-59955029D01*
X125354102Y-59954089D01*
X125367588Y-59952716D01*
X125380821Y-59950909D01*
X125393801Y-59948669D01*
X125406527Y-59945995D01*
X125419000Y-59942887D01*
X125431219Y-59939346D01*
X125443185Y-59935371D01*
X125454898Y-59930963D01*
X125462554Y-59927775D01*
X125473779Y-59922718D01*
X125484696Y-59917331D01*
X125495303Y-59911613D01*
X125505602Y-59905564D01*
X125515591Y-59899185D01*
X125525271Y-59892475D01*
X125534642Y-59885435D01*
X125543703Y-59878064D01*
X125552456Y-59870362D01*
X125560900Y-59862330D01*
X125566375Y-59856798D01*
X125574284Y-59848245D01*
X125581828Y-59839387D01*
X125589007Y-59830224D01*
X125595822Y-59820757D01*
X125602271Y-59810984D01*
X125608355Y-59800907D01*
X125614075Y-59790525D01*
X125619429Y-59779838D01*
X125624419Y-59768847D01*
X125629043Y-59757550D01*
X125631912Y-59749834D01*
X125635869Y-59738058D01*
X125639409Y-59726043D01*
X125642532Y-59713787D01*
X125645239Y-59701290D01*
X125647529Y-59688553D01*
X125649403Y-59675576D01*
X125650861Y-59662358D01*
X125651902Y-59648900D01*
X125652527Y-59635202D01*
X125652735Y-59621263D01*
X125652642Y-59612174D01*
X125652157Y-59598692D01*
X125651254Y-59585389D01*
X125649936Y-59572268D01*
X125648200Y-59559326D01*
X125646049Y-59546565D01*
X125643481Y-59533984D01*
X125640496Y-59521583D01*
X125637095Y-59509363D01*
X125633277Y-59497323D01*
X125629043Y-59485464D01*
X125626001Y-59477660D01*
X125621133Y-59466231D01*
X125615900Y-59455132D01*
X125610302Y-59444363D01*
X125604340Y-59433925D01*
X125598012Y-59423818D01*
X125591319Y-59414042D01*
X125584262Y-59404596D01*
X125576839Y-59395480D01*
X125569052Y-59386695D01*
X125560900Y-59378241D01*
X125555305Y-59372760D01*
X125546655Y-59364821D01*
X125537697Y-59357221D01*
X125528429Y-59349960D01*
X125518852Y-59343038D01*
X125508966Y-59336456D01*
X125498770Y-59330213D01*
X125488266Y-59324309D01*
X125477453Y-59318744D01*
X125466330Y-59313518D01*
X125454898Y-59308632D01*
X125447118Y-59305585D01*
X125435236Y-59301384D01*
X125423101Y-59297626D01*
X125410713Y-59294309D01*
X125398071Y-59291435D01*
X125385176Y-59289002D01*
X125372027Y-59287012D01*
X125358626Y-59285465D01*
X125344971Y-59284359D01*
X125331063Y-59283696D01*
X125316901Y-59283475D01*
X125307580Y-59283573D01*
X125293791Y-59284089D01*
X125280234Y-59285047D01*
X125266909Y-59286447D01*
X125253816Y-59288290D01*
X125240954Y-59290575D01*
X125228325Y-59293302D01*
X125215927Y-59296471D01*
X125203761Y-59300082D01*
X125191827Y-59304136D01*
X125180125Y-59308632D01*
X125172469Y-59311852D01*
X125161238Y-59316964D01*
X125150312Y-59322416D01*
X125139691Y-59328207D01*
X125129375Y-59334337D01*
X125119364Y-59340807D01*
X125109657Y-59347615D01*
X125100256Y-59354763D01*
X125091159Y-59362250D01*
X125082367Y-59370076D01*
X125073879Y-59378241D01*
X125068434Y-59383840D01*
X125060565Y-59392515D01*
X125053058Y-59401520D01*
X125045911Y-59410856D01*
X125039124Y-59420523D01*
X125032699Y-59430520D01*
X125026634Y-59440847D01*
X125020929Y-59451505D01*
X125015586Y-59462494D01*
X125010602Y-59473814D01*
X125005980Y-59485464D01*
X125003111Y-59493350D01*
X124999155Y-59505330D01*
X124995615Y-59517490D01*
X124992492Y-59529830D01*
X124989785Y-59542351D01*
X124987494Y-59555052D01*
X124985620Y-59567934D01*
X124984162Y-59580995D01*
X124983121Y-59594237D01*
X124982497Y-59607660D01*
X124982288Y-59621263D01*
X124838429Y-59621263D01*
X124838429Y-59299106D01*
X124743663Y-59299106D01*
X124743663Y-59354794D01*
X124738562Y-59350406D01*
X124730784Y-59344085D01*
X124722857Y-59338078D01*
X124714779Y-59332385D01*
X124706551Y-59327004D01*
X124698172Y-59321937D01*
X124686767Y-59315669D01*
X124675095Y-59309958D01*
X124663156Y-59304804D01*
X124654026Y-59301304D01*
X124650955Y-59300208D01*
X124638607Y-59296168D01*
X124626160Y-59292686D01*
X124613614Y-59289760D01*
X124600969Y-59287392D01*
X124588224Y-59285582D01*
X124575381Y-59284328D01*
X124562438Y-59283631D01*
X124552665Y-59283475D01*
X124543381Y-59283573D01*
X124529673Y-59284089D01*
X124516227Y-59285047D01*
X124503043Y-59286447D01*
X124490121Y-59288290D01*
X124477461Y-59290575D01*
X124465062Y-59293302D01*
X124452926Y-59296471D01*
X124441051Y-59300082D01*
X124429438Y-59304136D01*
X124418087Y-59308632D01*
X124410679Y-59311825D01*
X124399835Y-59316912D01*
X124389313Y-59322355D01*
X124379112Y-59328155D01*
X124369234Y-59334311D01*
X124359678Y-59340823D01*
X124350444Y-59347692D01*
X124341531Y-59354916D01*
X124332941Y-59362498D01*
X124324673Y-59370435D01*
X124316727Y-59378729D01*
X124311611Y-59384412D01*
X124304216Y-59393179D01*
X124297157Y-59402238D01*
X124290432Y-59411589D01*
X124284042Y-59421232D01*
X124277987Y-59431166D01*
X124272267Y-59441393D01*
X124266882Y-59451912D01*
X124261831Y-59462722D01*
X124257116Y-59473825D01*
X124252735Y-59485219D01*
X124250044Y-59492927D01*
X124246332Y-59504657D01*
X124243011Y-59516589D01*
X124240081Y-59528723D01*
X124237541Y-59541058D01*
X124235393Y-59553596D01*
X124233634Y-59566335D01*
X124232267Y-59579275D01*
X124231290Y-59592418D01*
X124230704Y-59605762D01*
X124230509Y-59619309D01*
X122831730Y-59619309D01*
X122831730Y-59517948D01*
X123184905Y-59517948D01*
X123184905Y-59439790D01*
X122831730Y-59439790D01*
X122831730Y-59127159D01*
X123310446Y-59127159D01*
X123310446Y-59049002D01*
X122737697Y-59049002D01*
X122268995Y-59049002D01*
X121973705Y-59049002D01*
X121830848Y-59049002D01*
X121830848Y-58906145D01*
X131912166Y-58906145D01*
X131912166Y-60364224D01*
G37*
G36*
X131101434Y-76852536D02*
G01*
X131115601Y-76853667D01*
X131129361Y-76855551D01*
X131142715Y-76858189D01*
X131155663Y-76861581D01*
X131168204Y-76865726D01*
X131180339Y-76870625D01*
X131192068Y-76876278D01*
X131203390Y-76882685D01*
X131214305Y-76889845D01*
X131224814Y-76897759D01*
X131234917Y-76906427D01*
X131244613Y-76915848D01*
X131253903Y-76926024D01*
X131262787Y-76936953D01*
X131271263Y-76948635D01*
X131279308Y-76960974D01*
X131286834Y-76973933D01*
X131293841Y-76987513D01*
X131300328Y-77001712D01*
X131306297Y-77016532D01*
X131311747Y-77031972D01*
X131316677Y-77048032D01*
X131321089Y-77064712D01*
X131324982Y-77082012D01*
X131328355Y-77099932D01*
X131331210Y-77118473D01*
X131333545Y-77137633D01*
X131334519Y-77147446D01*
X131335362Y-77157414D01*
X131336076Y-77167537D01*
X131336659Y-77177815D01*
X131337114Y-77188248D01*
X131337438Y-77198836D01*
X131337633Y-77209579D01*
X131337698Y-77220478D01*
X131337633Y-77231375D01*
X131337438Y-77242116D01*
X131337114Y-77252700D01*
X131336659Y-77263128D01*
X131336076Y-77273400D01*
X131335362Y-77283515D01*
X131334519Y-77293474D01*
X131333545Y-77303276D01*
X131331210Y-77322411D01*
X131328355Y-77340920D01*
X131324982Y-77358803D01*
X131321089Y-77376060D01*
X131316677Y-77392692D01*
X131311747Y-77408697D01*
X131306297Y-77424077D01*
X131300328Y-77438831D01*
X131293841Y-77452959D01*
X131286834Y-77466461D01*
X131279308Y-77479337D01*
X131271263Y-77491587D01*
X131262787Y-77503122D01*
X131253903Y-77513912D01*
X131244613Y-77523959D01*
X131234917Y-77533261D01*
X131224814Y-77541819D01*
X131214305Y-77549633D01*
X131203390Y-77556703D01*
X131192068Y-77563028D01*
X131180339Y-77568609D01*
X131168204Y-77573447D01*
X131155663Y-77577540D01*
X131142715Y-77580888D01*
X131129361Y-77583493D01*
X131115601Y-77585353D01*
X131101434Y-77586470D01*
X131086860Y-77586842D01*
X130889756Y-77586842D01*
X130889756Y-76852159D01*
X131086860Y-76852159D01*
X131101434Y-76852536D01*
G37*
G36*
X131861145Y-76852200D02*
G01*
X131873180Y-76852522D01*
X131884884Y-76853167D01*
X131896259Y-76854134D01*
X131907303Y-76855424D01*
X131918017Y-76857037D01*
X131928401Y-76858972D01*
X131938455Y-76861229D01*
X131948179Y-76863809D01*
X131962146Y-76868283D01*
X131975371Y-76873483D01*
X131987852Y-76879409D01*
X131999591Y-76886060D01*
X132010587Y-76893436D01*
X132020713Y-76901599D01*
X132029844Y-76910607D01*
X132037978Y-76920461D01*
X132045116Y-76931160D01*
X132051259Y-76942706D01*
X132056405Y-76955097D01*
X132060555Y-76968334D01*
X132063709Y-76982417D01*
X132065259Y-76992276D01*
X132066366Y-77002510D01*
X132067030Y-77013120D01*
X132067251Y-77024106D01*
X132067030Y-77035238D01*
X132066366Y-77045981D01*
X132065259Y-77056335D01*
X132063709Y-77066299D01*
X132060555Y-77080516D01*
X132056405Y-77093857D01*
X132051259Y-77106322D01*
X132045116Y-77117911D01*
X132037978Y-77128624D01*
X132029844Y-77138462D01*
X132020713Y-77147423D01*
X132010587Y-77155509D01*
X132003338Y-77160419D01*
X131991847Y-77167189D01*
X131979614Y-77173247D01*
X131966637Y-77178592D01*
X131952918Y-77183225D01*
X131943359Y-77185917D01*
X131933470Y-77188293D01*
X131923251Y-77190352D01*
X131912701Y-77192094D01*
X131901822Y-77193519D01*
X131890613Y-77194628D01*
X131879073Y-77195420D01*
X131867204Y-77195895D01*
X131855004Y-77196053D01*
X131653748Y-77196053D01*
X131653748Y-76852159D01*
X131855004Y-76852159D01*
X131861145Y-76852200D01*
G37*
G36*
X132317331Y-77807857D02*
G01*
X129888874Y-77807857D01*
X129888874Y-76774002D01*
X130031731Y-76774002D01*
X130031731Y-77665000D01*
X130604480Y-77665000D01*
X130604480Y-77586842D01*
X130125765Y-77586842D01*
X130125765Y-76774002D01*
X130795723Y-76774002D01*
X130795723Y-76852159D01*
X130795723Y-77665000D01*
X131086860Y-77665000D01*
X131098355Y-77664861D01*
X131109636Y-77664446D01*
X131120703Y-77663754D01*
X131131557Y-77662786D01*
X131142196Y-77661541D01*
X131152622Y-77660019D01*
X131162835Y-77658221D01*
X131172834Y-77656146D01*
X131182619Y-77653794D01*
X131192190Y-77651165D01*
X131206146Y-77646704D01*
X131219621Y-77641620D01*
X131232616Y-77635913D01*
X131245129Y-77629584D01*
X131253248Y-77625028D01*
X131265071Y-77617821D01*
X131276469Y-77610167D01*
X131287442Y-77602067D01*
X131297990Y-77593520D01*
X131308113Y-77584527D01*
X131317811Y-77575088D01*
X131327084Y-77565201D01*
X131335932Y-77554869D01*
X131344354Y-77544090D01*
X131352352Y-77532864D01*
X131357454Y-77525154D01*
X131364773Y-77513300D01*
X131371693Y-77501097D01*
X131378214Y-77488547D01*
X131384335Y-77475649D01*
X131390058Y-77462404D01*
X131395381Y-77448810D01*
X131398708Y-77439555D01*
X131401857Y-77430145D01*
X131404829Y-77420580D01*
X131407623Y-77410861D01*
X131410241Y-77400987D01*
X131412680Y-77390959D01*
X131414987Y-77380791D01*
X131417145Y-77370557D01*
X131419154Y-77360259D01*
X131421015Y-77349896D01*
X131422726Y-77339468D01*
X131424289Y-77328975D01*
X131425703Y-77318417D01*
X131426968Y-77307794D01*
X131428085Y-77297107D01*
X131429052Y-77286354D01*
X131429871Y-77275537D01*
X131430540Y-77264655D01*
X131431061Y-77253708D01*
X131431433Y-77242696D01*
X131431657Y-77231619D01*
X131431731Y-77220478D01*
X131431655Y-77209338D01*
X131431426Y-77198267D01*
X131431044Y-77187264D01*
X131430510Y-77176331D01*
X131429823Y-77165466D01*
X131428983Y-77154669D01*
X131427991Y-77143942D01*
X131426846Y-77133283D01*
X131425549Y-77122693D01*
X131424098Y-77112171D01*
X131422496Y-77101718D01*
X131420740Y-77091334D01*
X131418832Y-77081019D01*
X131416771Y-77070772D01*
X131414558Y-77060594D01*
X131412192Y-77050484D01*
X131409662Y-77040485D01*
X131406959Y-77030636D01*
X131404083Y-77020938D01*
X131401033Y-77011390D01*
X131397809Y-77001994D01*
X131394411Y-76992748D01*
X131390840Y-76983653D01*
X131385158Y-76970292D01*
X131379085Y-76957272D01*
X131372622Y-76944590D01*
X131365767Y-76932247D01*
X131358522Y-76920244D01*
X131350887Y-76908579D01*
X131345602Y-76900984D01*
X131337321Y-76889959D01*
X131328615Y-76879377D01*
X131319484Y-76869237D01*
X131309927Y-76859539D01*
X131299946Y-76850283D01*
X131289540Y-76841470D01*
X131278708Y-76833099D01*
X131267452Y-76825170D01*
X131255770Y-76817683D01*
X131243664Y-76810638D01*
X131231163Y-76804091D01*
X131218207Y-76798187D01*
X131204796Y-76792928D01*
X131190930Y-76788313D01*
X131181434Y-76785594D01*
X131171735Y-76783161D01*
X131161833Y-76781014D01*
X131151729Y-76779154D01*
X131141424Y-76777579D01*
X131130915Y-76776291D01*
X131120205Y-76775290D01*
X131109292Y-76774574D01*
X131098177Y-76774145D01*
X131086860Y-76774002D01*
X131559714Y-76774002D01*
X131559714Y-76852159D01*
X131559714Y-77665000D01*
X131653748Y-77665000D01*
X131653748Y-77274211D01*
X131793210Y-77274211D01*
X132055039Y-77665000D01*
X132174474Y-77665000D01*
X131904585Y-77274211D01*
X131915043Y-77273304D01*
X131925351Y-77272139D01*
X131935508Y-77270716D01*
X131945515Y-77269036D01*
X131955372Y-77267098D01*
X131965078Y-77264903D01*
X131974634Y-77262450D01*
X131984040Y-77259740D01*
X131996348Y-77255725D01*
X132008388Y-77251252D01*
X132020146Y-77246302D01*
X132031485Y-77240979D01*
X132042403Y-77235281D01*
X132052902Y-77229209D01*
X132062980Y-77222763D01*
X132072640Y-77215944D01*
X132081879Y-77208750D01*
X132090698Y-77201182D01*
X132099079Y-77193222D01*
X132107001Y-77184849D01*
X132114466Y-77176063D01*
X132121473Y-77166866D01*
X132128022Y-77157257D01*
X132134112Y-77147235D01*
X132139745Y-77136801D01*
X132144920Y-77125956D01*
X132149614Y-77114671D01*
X132153682Y-77103043D01*
X132157125Y-77091071D01*
X132159941Y-77078756D01*
X132162132Y-77066097D01*
X132163364Y-77056378D01*
X132164244Y-77046465D01*
X132164772Y-77036359D01*
X132164948Y-77026060D01*
X132164631Y-77010611D01*
X132163681Y-76995648D01*
X132162097Y-76981172D01*
X132159880Y-76967182D01*
X132157029Y-76953679D01*
X132153545Y-76940663D01*
X132149427Y-76928133D01*
X132144676Y-76916090D01*
X132139291Y-76904533D01*
X132133273Y-76893463D01*
X132126621Y-76882880D01*
X132119336Y-76872783D01*
X132111417Y-76863172D01*
X132102865Y-76854048D01*
X132093679Y-76845411D01*
X132083859Y-76837260D01*
X132073463Y-76829600D01*
X132062545Y-76822434D01*
X132051107Y-76815762D01*
X132039148Y-76809585D01*
X132026667Y-76803901D01*
X132013666Y-76798712D01*
X132000144Y-76794017D01*
X131986101Y-76789816D01*
X131971537Y-76786110D01*
X131956452Y-76782897D01*
X131940847Y-76780179D01*
X131924720Y-76777955D01*
X131908072Y-76776226D01*
X131890904Y-76774990D01*
X131873214Y-76774249D01*
X131855004Y-76774002D01*
X131559714Y-76774002D01*
X131086860Y-76774002D01*
X130795723Y-76774002D01*
X130125765Y-76774002D01*
X130031731Y-76774002D01*
X129888874Y-76774002D01*
X129888874Y-76631145D01*
X132317331Y-76631145D01*
X132317331Y-77807857D01*
G37*
D14*
%TO.C,R303*%
X123680000Y-89833641D02*
X123680000Y-89526359D01*
X124440000Y-89833641D02*
X124440000Y-89526359D01*
%TO.C,P301*%
X113520000Y-92120000D02*
X113520000Y-94120000D01*
X113520000Y-96020000D02*
X113520000Y-97920000D01*
X113520000Y-97920000D02*
X122920000Y-97920000D01*
X122920000Y-92120000D02*
X122920000Y-94120000D01*
X122920000Y-96020000D02*
X122920000Y-97920000D01*
%TO.C,R203*%
X130800000Y-69776359D02*
X130800000Y-70083641D01*
X130040000Y-69776359D02*
X130040000Y-70083641D01*
%TO.C,R101*%
X129775000Y-71670000D02*
X131105000Y-71670000D01*
X129775000Y-73000000D02*
X129775000Y-71670000D01*
X129775000Y-74270000D02*
X129775000Y-76870000D01*
X129775000Y-74270000D02*
X132435000Y-74270000D01*
X132435000Y-74270000D02*
X132435000Y-76870000D01*
%TO.C,C213*%
X121780000Y-79997836D02*
X121780000Y-79782164D01*
X122500000Y-79997836D02*
X122500000Y-79782164D01*
%TO.C,C302*%
X127381252Y-65970000D02*
X125958748Y-65970000D01*
X127381252Y-64150000D02*
X125958748Y-64150000D01*
%TO.C,C207*%
X115987500Y-73220336D02*
X115987500Y-73004664D01*
X116707500Y-73220336D02*
X116707500Y-73004664D01*
%TO.C,R301*%
X132780000Y-69776359D02*
X132780000Y-70083641D01*
X132020000Y-69776359D02*
X132020000Y-70083641D01*
%TO.C,R304*%
X112000000Y-89833641D02*
X112000000Y-89526359D01*
X112760000Y-89833641D02*
X112760000Y-89526359D01*
%TO.C,L202*%
X114197221Y-72782500D02*
X114522779Y-72782500D01*
X114197221Y-73802500D02*
X114522779Y-73802500D01*
%TO.C,L201*%
X118400000Y-71719721D02*
X118400000Y-72045279D01*
X117380000Y-71719721D02*
X117380000Y-72045279D01*
%TO.C,C210*%
X111287836Y-77252500D02*
X111072164Y-77252500D01*
X111287836Y-76532500D02*
X111072164Y-76532500D01*
%TO.C,R204*%
X111880000Y-73233641D02*
X111880000Y-72926359D01*
X112640000Y-73233641D02*
X112640000Y-72926359D01*
%TO.C,J104*%
X132160000Y-84000000D02*
X132160000Y-77940000D01*
X132160000Y-84000000D02*
X130040000Y-84000000D01*
X132160000Y-77940000D02*
X130040000Y-77940000D01*
X131100000Y-86060000D02*
X130040000Y-86060000D01*
X130040000Y-86060000D02*
X130040000Y-85000000D01*
X130040000Y-84000000D02*
X130040000Y-77940000D01*
%TO.C,J105*%
X104270000Y-73030000D02*
X105600000Y-73030000D01*
X104270000Y-74360000D02*
X104270000Y-73030000D01*
X104270000Y-75630000D02*
X104270000Y-80770000D01*
X104270000Y-75630000D02*
X106930000Y-75630000D01*
X104270000Y-80770000D02*
X106930000Y-80770000D01*
X106930000Y-75630000D02*
X106930000Y-80770000D01*
%TO.C,R206*%
X111006359Y-78600000D02*
X111313641Y-78600000D01*
X111006359Y-79360000D02*
X111313641Y-79360000D01*
%TO.C,U201*%
X113500000Y-75020000D02*
X113975000Y-75020000D01*
X118720000Y-75495000D02*
X118720000Y-75020000D01*
X113500000Y-75495000D02*
X113500000Y-75020000D01*
X118720000Y-79765000D02*
X118720000Y-80240000D01*
X113500000Y-79765000D02*
X113500000Y-80240000D01*
X118720000Y-80240000D02*
X118245000Y-80240000D01*
X113500000Y-80240000D02*
X113975000Y-80240000D01*
%TO.C,R201*%
X121736359Y-81610000D02*
X122043641Y-81610000D01*
X121736359Y-82370000D02*
X122043641Y-82370000D01*
%TO.C,C211*%
X111287836Y-80310000D02*
X111072164Y-80310000D01*
X111287836Y-79590000D02*
X111072164Y-79590000D01*
%TO.C,Y201*%
X125510000Y-80650000D02*
X125510000Y-78350000D01*
X125510000Y-78350000D02*
X122810000Y-78350000D01*
%TO.C,R205*%
X111313641Y-78360000D02*
X111006359Y-78360000D01*
X111313641Y-77600000D02*
X111006359Y-77600000D01*
%TO.C,R202*%
X111006359Y-75500000D02*
X111313641Y-75500000D01*
X111006359Y-76260000D02*
X111313641Y-76260000D01*
%TO.C,C212*%
X126520000Y-79762164D02*
X126520000Y-79977836D01*
X125800000Y-79762164D02*
X125800000Y-79977836D01*
%TO.C,C202*%
X118232164Y-73500000D02*
X118447836Y-73500000D01*
X118232164Y-74220000D02*
X118447836Y-74220000D01*
%TO.C,C301*%
X127371252Y-77180000D02*
X125948748Y-77180000D01*
X127371252Y-75360000D02*
X125948748Y-75360000D01*
%TO.C,U302*%
X119720000Y-84807500D02*
X119720000Y-83007500D01*
X119720000Y-84807500D02*
X119720000Y-85607500D01*
X116600000Y-84807500D02*
X116600000Y-84007500D01*
X116600000Y-84807500D02*
X116600000Y-85607500D01*
%TO.C,C208*%
X111287836Y-75240000D02*
X111072164Y-75240000D01*
X111287836Y-74520000D02*
X111072164Y-74520000D01*
%TO.C,C209*%
X114720000Y-81684664D02*
X114720000Y-81900336D01*
X114000000Y-81684664D02*
X114000000Y-81900336D01*
%TO.C,C201*%
X118262164Y-69530000D02*
X118477836Y-69530000D01*
X118262164Y-70250000D02*
X118477836Y-70250000D01*
%TO.C,R302*%
X131030000Y-70083641D02*
X131030000Y-69776359D01*
X131790000Y-70083641D02*
X131790000Y-69776359D01*
%TO.C,SW201*%
X104245000Y-83205000D02*
X104245000Y-83325000D01*
X104245000Y-84335000D02*
X104245000Y-85475000D01*
X104245000Y-86485000D02*
X104245000Y-86605000D01*
X104245000Y-86605000D02*
X108645000Y-86605000D01*
X108645000Y-83205000D02*
X104245000Y-83205000D01*
X108645000Y-83325000D02*
X108645000Y-83205000D01*
X108645000Y-85475000D02*
X108645000Y-84335000D01*
X108645000Y-86605000D02*
X108645000Y-86485000D01*
%TO.C,C204*%
X120452164Y-75632500D02*
X120667836Y-75632500D01*
X120452164Y-76352500D02*
X120667836Y-76352500D01*
%TO.C,SW202*%
X110530000Y-83205000D02*
X110530000Y-83325000D01*
X110530000Y-84335000D02*
X110530000Y-85475000D01*
X110530000Y-86485000D02*
X110530000Y-86605000D01*
X110530000Y-86605000D02*
X114930000Y-86605000D01*
X114930000Y-83205000D02*
X110530000Y-83205000D01*
X114930000Y-83325000D02*
X114930000Y-83205000D01*
X114930000Y-85475000D02*
X114930000Y-84335000D01*
X114930000Y-86605000D02*
X114930000Y-86485000D01*
%TO.C,C205*%
X112980000Y-71687835D02*
X112980000Y-71472163D01*
X113700000Y-71687835D02*
X113700000Y-71472163D01*
%TO.C,C203*%
X120452164Y-74662500D02*
X120667836Y-74662500D01*
X120452164Y-75382500D02*
X120667836Y-75382500D01*
%TO.C,J102*%
X125125000Y-87405000D02*
X126395000Y-87405000D01*
X125125000Y-88675000D02*
X125125000Y-87405000D01*
X127437929Y-90835000D02*
X127835000Y-90835000D01*
X127437929Y-91595000D02*
X127835000Y-91595000D01*
X127437929Y-93375000D02*
X127835000Y-93375000D01*
X127437929Y-94135000D02*
X127835000Y-94135000D01*
X127505000Y-88295000D02*
X127835000Y-88295000D01*
X127505000Y-89055000D02*
X127835000Y-89055000D01*
X127835000Y-87345000D02*
X127835000Y-95085000D01*
X127835000Y-89945000D02*
X130495000Y-89945000D01*
X127835000Y-92485000D02*
X130495000Y-92485000D01*
X127835000Y-95085000D02*
X130495000Y-95085000D01*
X130495000Y-87345000D02*
X127835000Y-87345000D01*
X130495000Y-88295000D02*
X136495000Y-88295000D01*
X130495000Y-88355000D02*
X136495000Y-88355000D01*
X130495000Y-88475000D02*
X136495000Y-88475000D01*
X130495000Y-88595000D02*
X136495000Y-88595000D01*
X130495000Y-88715000D02*
X136495000Y-88715000D01*
X130495000Y-88835000D02*
X136495000Y-88835000D01*
X130495000Y-88955000D02*
X136495000Y-88955000D01*
X130495000Y-90835000D02*
X136495000Y-90835000D01*
X130495000Y-93375000D02*
X136495000Y-93375000D01*
X130495000Y-95085000D02*
X130495000Y-87345000D01*
X136495000Y-88295000D02*
X136495000Y-89055000D01*
X136495000Y-89055000D02*
X130495000Y-89055000D01*
X136495000Y-90835000D02*
X136495000Y-91595000D01*
X136495000Y-91595000D02*
X130495000Y-91595000D01*
X136495000Y-93375000D02*
X136495000Y-94135000D01*
X136495000Y-94135000D02*
X130495000Y-94135000D01*
%TO.C,J101*%
X111260000Y-95080000D02*
X109990000Y-95080000D01*
X111260000Y-93810000D02*
X111260000Y-95080000D01*
X108947071Y-91650000D02*
X108550000Y-91650000D01*
X108947071Y-90890000D02*
X108550000Y-90890000D01*
X108947071Y-89110000D02*
X108550000Y-89110000D01*
X108947071Y-88350000D02*
X108550000Y-88350000D01*
X108880000Y-94190000D02*
X108550000Y-94190000D01*
X108880000Y-93430000D02*
X108550000Y-93430000D01*
X108550000Y-95140000D02*
X108550000Y-87400000D01*
X108550000Y-92540000D02*
X105890000Y-92540000D01*
X108550000Y-90000000D02*
X105890000Y-90000000D01*
X108550000Y-87400000D02*
X105890000Y-87400000D01*
X105890000Y-95140000D02*
X108550000Y-95140000D01*
X105890000Y-94190000D02*
X99890000Y-94190000D01*
X105890000Y-94130000D02*
X99890000Y-94130000D01*
X105890000Y-94010000D02*
X99890000Y-94010000D01*
X105890000Y-93890000D02*
X99890000Y-93890000D01*
X105890000Y-93770000D02*
X99890000Y-93770000D01*
X105890000Y-93650000D02*
X99890000Y-93650000D01*
X105890000Y-93530000D02*
X99890000Y-93530000D01*
X105890000Y-91650000D02*
X99890000Y-91650000D01*
X105890000Y-89110000D02*
X99890000Y-89110000D01*
X105890000Y-87400000D02*
X105890000Y-95140000D01*
X99890000Y-94190000D02*
X99890000Y-93430000D01*
X99890000Y-93430000D02*
X105890000Y-93430000D01*
X99890000Y-91650000D02*
X99890000Y-90890000D01*
X99890000Y-90890000D02*
X105890000Y-90890000D01*
X99890000Y-89110000D02*
X99890000Y-88350000D01*
X99890000Y-88350000D02*
X105890000Y-88350000D01*
%TO.C,U301*%
X121960000Y-74760000D02*
X121960000Y-68750000D01*
X128780000Y-72510000D02*
X128780000Y-68750000D01*
X121960000Y-68750000D02*
X123220000Y-68750000D01*
X128780000Y-68750000D02*
X127520000Y-68750000D01*
%TO.C,J103*%
X104270000Y-66030000D02*
X105600000Y-66030000D01*
X104270000Y-67360000D02*
X104270000Y-66030000D01*
X104270000Y-68630000D02*
X104270000Y-71230000D01*
X104270000Y-68630000D02*
X106930000Y-68630000D01*
X104270000Y-71230000D02*
X106930000Y-71230000D01*
X106930000Y-68630000D02*
X106930000Y-71230000D01*
%TO.C,C206*%
X114000000Y-71687836D02*
X114000000Y-71472164D01*
X114720000Y-71687836D02*
X114720000Y-71472164D01*
%TO.C,R207*%
X122776359Y-76810000D02*
X123083641Y-76810000D01*
X122776359Y-77570000D02*
X123083641Y-77570000D01*
%TD*%
%LPC*%
D15*
%TO.C,R303*%
X124060000Y-90190000D03*
X124060000Y-89170000D03*
%TD*%
D16*
%TO.C,P301*%
X115330000Y-91420000D03*
X121110000Y-91420000D03*
D17*
X114970000Y-89975000D03*
X115770000Y-89975000D03*
D18*
X116970000Y-89975000D03*
X117970000Y-89975000D03*
X118470000Y-89975000D03*
X119470000Y-89975000D03*
D17*
X120670000Y-89975000D03*
X121470000Y-89975000D03*
X121470000Y-89975000D03*
X120670000Y-89975000D03*
D18*
X119970000Y-89975000D03*
X118970000Y-89975000D03*
X117470000Y-89975000D03*
X116470000Y-89975000D03*
D17*
X115770000Y-89975000D03*
X114970000Y-89975000D03*
D19*
X113900000Y-90890000D03*
D20*
X113900000Y-95070000D03*
D19*
X122540000Y-90890000D03*
D20*
X122540000Y-95070000D03*
%TD*%
D21*
%TO.C,R203*%
X130420000Y-69420000D03*
X130420000Y-70440000D03*
%TD*%
D22*
%TO.C,R101*%
X131105000Y-73000000D03*
D23*
X131105000Y-75540000D03*
%TD*%
D24*
%TO.C,C213*%
X122140000Y-80370000D03*
X122140000Y-79410000D03*
%TD*%
D25*
%TO.C,C302*%
X128145000Y-65060000D03*
X125195000Y-65060000D03*
%TD*%
D24*
%TO.C,C207*%
X116347500Y-73592500D03*
X116347500Y-72632500D03*
%TD*%
D21*
%TO.C,R301*%
X132400000Y-69420000D03*
X132400000Y-70440000D03*
%TD*%
D15*
%TO.C,R304*%
X112380000Y-90190000D03*
X112380000Y-89170000D03*
%TD*%
D26*
%TO.C,REF\u002A\u002A*%
X104440000Y-95100000D03*
%TD*%
D27*
%TO.C,L202*%
X113572500Y-73292500D03*
X115147500Y-73292500D03*
%TD*%
D26*
%TO.C,REF\u002A\u002A*%
X109190000Y-67500000D03*
%TD*%
D28*
%TO.C,L201*%
X117890000Y-71095000D03*
X117890000Y-72670000D03*
%TD*%
D29*
%TO.C,C210*%
X111660000Y-76892500D03*
X110700000Y-76892500D03*
%TD*%
D15*
%TO.C,R204*%
X112260000Y-73590000D03*
X112260000Y-72570000D03*
%TD*%
D30*
%TO.C,J104*%
X131100000Y-85000000D03*
D31*
X131100000Y-83000000D03*
X131100000Y-81000000D03*
X131100000Y-79000000D03*
%TD*%
D22*
%TO.C,J105*%
X105600000Y-74360000D03*
D23*
X105600000Y-76900000D03*
X105600000Y-79440000D03*
%TD*%
D32*
%TO.C,R206*%
X110650000Y-78980000D03*
X111670000Y-78980000D03*
%TD*%
D33*
%TO.C,U201*%
X117860000Y-75192500D03*
X117360000Y-75192500D03*
X116860000Y-75192500D03*
X116360000Y-75192500D03*
X115860000Y-75192500D03*
X115360000Y-75192500D03*
X114860000Y-75192500D03*
X114360000Y-75192500D03*
D34*
X113672500Y-75880000D03*
X113672500Y-76380000D03*
X113672500Y-76880000D03*
X113672500Y-77380000D03*
X113672500Y-77880000D03*
X113672500Y-78380000D03*
X113672500Y-78880000D03*
X113672500Y-79380000D03*
D33*
X114360000Y-80067500D03*
X114860000Y-80067500D03*
X115360000Y-80067500D03*
X115860000Y-80067500D03*
X116360000Y-80067500D03*
X116860000Y-80067500D03*
X117360000Y-80067500D03*
X117860000Y-80067500D03*
D34*
X118547500Y-79380000D03*
X118547500Y-78880000D03*
X118547500Y-78380000D03*
X118547500Y-77880000D03*
X118547500Y-77380000D03*
X118547500Y-76880000D03*
X118547500Y-76380000D03*
X118547500Y-75880000D03*
D35*
X116110000Y-77630000D03*
%TD*%
D32*
%TO.C,R201*%
X121380000Y-81990000D03*
X122400000Y-81990000D03*
%TD*%
D29*
%TO.C,C211*%
X111660000Y-79950000D03*
X110700000Y-79950000D03*
%TD*%
D36*
%TO.C,Y201*%
X124860000Y-78950000D03*
X123460000Y-78950000D03*
X123460000Y-80050000D03*
X124860000Y-80050000D03*
%TD*%
D37*
%TO.C,R205*%
X111670000Y-77980000D03*
X110650000Y-77980000D03*
%TD*%
D32*
%TO.C,R202*%
X110650000Y-75880000D03*
X111670000Y-75880000D03*
%TD*%
D38*
%TO.C,C212*%
X126160000Y-79390000D03*
X126160000Y-80350000D03*
%TD*%
D39*
%TO.C,C202*%
X117860000Y-73860000D03*
X118820000Y-73860000D03*
%TD*%
D25*
%TO.C,C301*%
X128135000Y-76270000D03*
X125185000Y-76270000D03*
%TD*%
D40*
%TO.C,U302*%
X119110000Y-83670000D03*
X118160000Y-83670000D03*
X117210000Y-83670000D03*
X117210000Y-85945000D03*
X118160000Y-85945000D03*
X119110000Y-85945000D03*
%TD*%
D29*
%TO.C,C208*%
X111660000Y-74880000D03*
X110700000Y-74880000D03*
%TD*%
D38*
%TO.C,C209*%
X114360000Y-81312500D03*
X114360000Y-82272500D03*
%TD*%
D39*
%TO.C,C201*%
X117890000Y-69890000D03*
X118850000Y-69890000D03*
%TD*%
D26*
%TO.C,REF\u002A\u002A*%
X131990000Y-95100000D03*
%TD*%
D15*
%TO.C,R302*%
X131410000Y-70440000D03*
X131410000Y-69420000D03*
%TD*%
D41*
%TO.C,SW201*%
X104370000Y-83830000D03*
X108520000Y-83830000D03*
X104370000Y-85980000D03*
X108520000Y-85980000D03*
%TD*%
D39*
%TO.C,C204*%
X120080000Y-75992500D03*
X121040000Y-75992500D03*
%TD*%
D41*
%TO.C,SW202*%
X110655000Y-83830000D03*
X114805000Y-83830000D03*
X110655000Y-85980000D03*
X114805000Y-85980000D03*
%TD*%
D24*
%TO.C,C205*%
X113340000Y-72059999D03*
X113340000Y-71099999D03*
%TD*%
D39*
%TO.C,C203*%
X120080000Y-75022500D03*
X121040000Y-75022500D03*
%TD*%
D22*
%TO.C,J102*%
X126395000Y-88675000D03*
D23*
X126395000Y-91215000D03*
X126395000Y-93755000D03*
%TD*%
D22*
%TO.C,J101*%
X109990000Y-93810000D03*
D23*
X109990000Y-91270000D03*
X109990000Y-88730000D03*
%TD*%
D42*
%TO.C,U301*%
X123070000Y-73810000D03*
X125370000Y-73810000D03*
D43*
X125370000Y-67510000D03*
D42*
X127670000Y-73810000D03*
%TD*%
D22*
%TO.C,J103*%
X105600000Y-67360000D03*
D23*
X105600000Y-69900000D03*
%TD*%
D24*
%TO.C,C206*%
X114360000Y-72060000D03*
X114360000Y-71100000D03*
%TD*%
D32*
%TO.C,R207*%
X122420000Y-77190000D03*
X123440000Y-77190000D03*
%TD*%
%LPD*%
M02*
