%TF.GenerationSoftware,KiCad,Pcbnew,7.0.6-rc3*%
%TF.CreationDate,2023-07-14T23:43:46-04:00*%
%TF.ProjectId,esp,6573702e-6b69-4636-9164-5f7063625858,rev?*%
%TF.SameCoordinates,Original*%
%TF.FileFunction,Copper,L1,Top*%
%TF.FilePolarity,Positive*%
%FSLAX46Y46*%
G04 Gerber Fmt 4.6, Leading zero omitted, Abs format (unit mm)*
G04 Created by KiCad (PCBNEW 7.0.6-rc3) date 2023-07-14 23:43:46*
%MOMM*%
%LPD*%
G01*
G04 APERTURE LIST*
G04 Aperture macros list*
%AMRoundRect*
0 Rectangle with rounded corners*
0 $1 Rounding radius*
0 $2 $3 $4 $5 $6 $7 $8 $9 X,Y pos of 4 corners*
0 Add a 4 corners polygon primitive as box body*
4,1,4,$2,$3,$4,$5,$6,$7,$8,$9,$2,$3,0*
0 Add four circle primitives for the rounded corners*
1,1,$1+$1,$2,$3*
1,1,$1+$1,$4,$5*
1,1,$1+$1,$6,$7*
1,1,$1+$1,$8,$9*
0 Add four rect primitives between the rounded corners*
20,1,$1+$1,$2,$3,$4,$5,0*
20,1,$1+$1,$4,$5,$6,$7,0*
20,1,$1+$1,$6,$7,$8,$9,0*
20,1,$1+$1,$8,$9,$2,$3,0*%
G04 Aperture macros list end*
%TA.AperFunction,EtchedComponent*%
%ADD10C,0.010000*%
%TD*%
%TA.AperFunction,SMDPad,CuDef*%
%ADD11RoundRect,0.135000X0.185000X-0.135000X0.185000X0.135000X-0.185000X0.135000X-0.185000X-0.135000X0*%
%TD*%
%TA.AperFunction,SMDPad,CuDef*%
%ADD12R,0.600000X1.450000*%
%TD*%
%TA.AperFunction,SMDPad,CuDef*%
%ADD13R,0.300000X1.450000*%
%TD*%
%TA.AperFunction,ComponentPad*%
%ADD14O,1.000000X2.100000*%
%TD*%
%TA.AperFunction,ComponentPad*%
%ADD15O,1.000000X1.600000*%
%TD*%
%TA.AperFunction,SMDPad,CuDef*%
%ADD16RoundRect,0.135000X-0.185000X0.135000X-0.185000X-0.135000X0.185000X-0.135000X0.185000X0.135000X0*%
%TD*%
%TA.AperFunction,ComponentPad*%
%ADD17R,1.700000X1.700000*%
%TD*%
%TA.AperFunction,ComponentPad*%
%ADD18O,1.700000X1.700000*%
%TD*%
%TA.AperFunction,SMDPad,CuDef*%
%ADD19RoundRect,0.140000X0.170000X-0.140000X0.170000X0.140000X-0.170000X0.140000X-0.170000X-0.140000X0*%
%TD*%
%TA.AperFunction,SMDPad,CuDef*%
%ADD20RoundRect,0.250000X0.325000X0.650000X-0.325000X0.650000X-0.325000X-0.650000X0.325000X-0.650000X0*%
%TD*%
%TA.AperFunction,ComponentPad*%
%ADD21C,1.650000*%
%TD*%
%TA.AperFunction,SMDPad,CuDef*%
%ADD22RoundRect,0.218750X-0.218750X-0.256250X0.218750X-0.256250X0.218750X0.256250X-0.218750X0.256250X0*%
%TD*%
%TA.AperFunction,SMDPad,CuDef*%
%ADD23RoundRect,0.218750X-0.256250X0.218750X-0.256250X-0.218750X0.256250X-0.218750X0.256250X0.218750X0*%
%TD*%
%TA.AperFunction,ConnectorPad*%
%ADD24R,0.468800X0.450000*%
%TD*%
%TA.AperFunction,ConnectorPad*%
%ADD25R,1.365500X0.450000*%
%TD*%
%TA.AperFunction,ConnectorPad*%
%ADD26R,1.212000X0.450000*%
%TD*%
%TA.AperFunction,SMDPad,CuDef*%
%ADD27RoundRect,0.140000X0.140000X0.170000X-0.140000X0.170000X-0.140000X-0.170000X0.140000X-0.170000X0*%
%TD*%
%TA.AperFunction,ComponentPad*%
%ADD28R,1.350000X1.350000*%
%TD*%
%TA.AperFunction,ComponentPad*%
%ADD29O,1.350000X1.350000*%
%TD*%
%TA.AperFunction,SMDPad,CuDef*%
%ADD30RoundRect,0.135000X-0.135000X-0.185000X0.135000X-0.185000X0.135000X0.185000X-0.135000X0.185000X0*%
%TD*%
%TA.AperFunction,SMDPad,CuDef*%
%ADD31RoundRect,0.062500X-0.062500X0.375000X-0.062500X-0.375000X0.062500X-0.375000X0.062500X0.375000X0*%
%TD*%
%TA.AperFunction,SMDPad,CuDef*%
%ADD32RoundRect,0.062500X-0.375000X0.062500X-0.375000X-0.062500X0.375000X-0.062500X0.375000X0.062500X0*%
%TD*%
%TA.AperFunction,SMDPad,CuDef*%
%ADD33R,3.450000X3.450000*%
%TD*%
%TA.AperFunction,SMDPad,CuDef*%
%ADD34R,0.900000X0.800000*%
%TD*%
%TA.AperFunction,SMDPad,CuDef*%
%ADD35RoundRect,0.135000X0.135000X0.185000X-0.135000X0.185000X-0.135000X-0.185000X0.135000X-0.185000X0*%
%TD*%
%TA.AperFunction,SMDPad,CuDef*%
%ADD36RoundRect,0.140000X-0.170000X0.140000X-0.170000X-0.140000X0.170000X-0.140000X0.170000X0.140000X0*%
%TD*%
%TA.AperFunction,SMDPad,CuDef*%
%ADD37RoundRect,0.140000X-0.140000X-0.170000X0.140000X-0.170000X0.140000X0.170000X-0.140000X0.170000X0*%
%TD*%
%TA.AperFunction,SMDPad,CuDef*%
%ADD38RoundRect,0.150000X-0.150000X0.512500X-0.150000X-0.512500X0.150000X-0.512500X0.150000X0.512500X0*%
%TD*%
%TA.AperFunction,SMDPad,CuDef*%
%ADD39R,1.050000X0.650000*%
%TD*%
%TA.AperFunction,SMDPad,CuDef*%
%ADD40R,1.500000X2.000000*%
%TD*%
%TA.AperFunction,SMDPad,CuDef*%
%ADD41R,3.800000X2.000000*%
%TD*%
%TA.AperFunction,ViaPad*%
%ADD42C,0.600000*%
%TD*%
%TA.AperFunction,Conductor*%
%ADD43C,0.200000*%
%TD*%
%TA.AperFunction,Conductor*%
%ADD44C,0.100000*%
%TD*%
%TA.AperFunction,Conductor*%
%ADD45C,0.600000*%
%TD*%
%TA.AperFunction,Conductor*%
%ADD46C,0.349300*%
%TD*%
%TA.AperFunction,Conductor*%
%ADD47C,0.286000*%
%TD*%
%TA.AperFunction,Conductor*%
%ADD48C,0.781000*%
%TD*%
G04 APERTURE END LIST*
%TO.C,AE201*%
D10*
X120275217Y-56930084D02*
X120738551Y-56930085D01*
X121188319Y-56930088D01*
X121624721Y-56930093D01*
X122047962Y-56930099D01*
X122458241Y-56930107D01*
X122855762Y-56930117D01*
X123240727Y-56930130D01*
X123613336Y-56930145D01*
X123973793Y-56930164D01*
X124322300Y-56930185D01*
X124659058Y-56930209D01*
X124984269Y-56930237D01*
X125298136Y-56930269D01*
X125600860Y-56930305D01*
X125892644Y-56930345D01*
X126173689Y-56930390D01*
X126444197Y-56930439D01*
X126704372Y-56930493D01*
X126954413Y-56930552D01*
X127194524Y-56930617D01*
X127424907Y-56930687D01*
X127645763Y-56930763D01*
X127857295Y-56930845D01*
X128059704Y-56930934D01*
X128253193Y-56931029D01*
X128437964Y-56931130D01*
X128614218Y-56931239D01*
X128782157Y-56931355D01*
X128941985Y-56931478D01*
X129093902Y-56931609D01*
X129238110Y-56931747D01*
X129374813Y-56931894D01*
X129504210Y-56932049D01*
X129626506Y-56932213D01*
X129741901Y-56932386D01*
X129850598Y-56932567D01*
X129952799Y-56932758D01*
X130048706Y-56932958D01*
X130138520Y-56933168D01*
X130222444Y-56933388D01*
X130300680Y-56933618D01*
X130373429Y-56933859D01*
X130440894Y-56934110D01*
X130503278Y-56934372D01*
X130560781Y-56934645D01*
X130613605Y-56934929D01*
X130661954Y-56935225D01*
X130706028Y-56935532D01*
X130746031Y-56935852D01*
X130782163Y-56936184D01*
X130814627Y-56936528D01*
X130843625Y-56936885D01*
X130869359Y-56937255D01*
X130892031Y-56937638D01*
X130911843Y-56938034D01*
X130928996Y-56938444D01*
X130943694Y-56938868D01*
X130956138Y-56939306D01*
X130966529Y-56939758D01*
X130975071Y-56940224D01*
X130981964Y-56940705D01*
X130987412Y-56941202D01*
X130991616Y-56941713D01*
X130994777Y-56942240D01*
X130997099Y-56942782D01*
X130998783Y-56943341D01*
X131000031Y-56943915D01*
X131000975Y-56944462D01*
X131009828Y-56949760D01*
X131017535Y-56954629D01*
X131024171Y-56960058D01*
X131029811Y-56967037D01*
X131034531Y-56976553D01*
X131038405Y-56989597D01*
X131041510Y-57007158D01*
X131043921Y-57030223D01*
X131045713Y-57059782D01*
X131046962Y-57096825D01*
X131047742Y-57142339D01*
X131048129Y-57197314D01*
X131048199Y-57262739D01*
X131048026Y-57339603D01*
X131047687Y-57428895D01*
X131047257Y-57531603D01*
X131047179Y-57550807D01*
X131044983Y-58095029D01*
X131026763Y-58114527D01*
X131008349Y-58131120D01*
X130989235Y-58144069D01*
X130988860Y-58144265D01*
X130986344Y-58144795D01*
X130980705Y-58145306D01*
X130971705Y-58145800D01*
X130959104Y-58146276D01*
X130942663Y-58146735D01*
X130922144Y-58147177D01*
X130897305Y-58147603D01*
X130867910Y-58148012D01*
X130833718Y-58148405D01*
X130794490Y-58148783D01*
X130749987Y-58149146D01*
X130699970Y-58149493D01*
X130644200Y-58149825D01*
X130582436Y-58150144D01*
X130514441Y-58150447D01*
X130439976Y-58150738D01*
X130358799Y-58151014D01*
X130270674Y-58151277D01*
X130175360Y-58151528D01*
X130072618Y-58151765D01*
X129962209Y-58151991D01*
X129843894Y-58152204D01*
X129717434Y-58152406D01*
X129582589Y-58152596D01*
X129439121Y-58152775D01*
X129286789Y-58152943D01*
X129125355Y-58153100D01*
X128954580Y-58153248D01*
X128774225Y-58153385D01*
X128584050Y-58153513D01*
X128383815Y-58153631D01*
X128173283Y-58153740D01*
X127952213Y-58153841D01*
X127720367Y-58153933D01*
X127477506Y-58154017D01*
X127223389Y-58154093D01*
X126957778Y-58154162D01*
X126680434Y-58154223D01*
X126391117Y-58154277D01*
X126089589Y-58154325D01*
X125775610Y-58154366D01*
X125448941Y-58154402D01*
X125109343Y-58154431D01*
X124756576Y-58154456D01*
X124390401Y-58154475D01*
X124010580Y-58154489D01*
X123616873Y-58154498D01*
X123209040Y-58154504D01*
X122834987Y-58154505D01*
X114700794Y-58154505D01*
X114700794Y-59939738D01*
X115615486Y-59943802D01*
X115639283Y-59960776D01*
X115649933Y-59968478D01*
X115658775Y-59975927D01*
X115665975Y-59984482D01*
X115671703Y-59995503D01*
X115676128Y-60010349D01*
X115679416Y-60030379D01*
X115681737Y-60056954D01*
X115683259Y-60091432D01*
X115684151Y-60135173D01*
X115684580Y-60189537D01*
X115684716Y-60255882D01*
X115684725Y-60327712D01*
X115684725Y-60635818D01*
X116127820Y-61080599D01*
X116210281Y-61163468D01*
X116282913Y-61236674D01*
X116346266Y-61300791D01*
X116400890Y-61356393D01*
X116447334Y-61404053D01*
X116486148Y-61444345D01*
X116517880Y-61477843D01*
X116543082Y-61505120D01*
X116562301Y-61526749D01*
X116576088Y-61543306D01*
X116584993Y-61555362D01*
X116588810Y-61561822D01*
X116606705Y-61598264D01*
X116610535Y-63788422D01*
X116151181Y-63788422D01*
X116151181Y-61758544D01*
X115843216Y-61450642D01*
X115535250Y-61142741D01*
X114052097Y-61142729D01*
X113878767Y-61142723D01*
X113719416Y-61142704D01*
X113573448Y-61142666D01*
X113440265Y-61142605D01*
X113319270Y-61142516D01*
X113209866Y-61142394D01*
X113111455Y-61142233D01*
X113023440Y-61142029D01*
X112945224Y-61141777D01*
X112876210Y-61141471D01*
X112815801Y-61141106D01*
X112763399Y-61140678D01*
X112718407Y-61140181D01*
X112680229Y-61139610D01*
X112648265Y-61138961D01*
X112621921Y-61138227D01*
X112600598Y-61137405D01*
X112583698Y-61136489D01*
X112570626Y-61135474D01*
X112560783Y-61134355D01*
X112553573Y-61133127D01*
X112548398Y-61131785D01*
X112544661Y-61130323D01*
X112543952Y-61129975D01*
X112522605Y-61115540D01*
X112504738Y-61097814D01*
X112503866Y-61096657D01*
X112500991Y-61092475D01*
X112498502Y-61087635D01*
X112496366Y-61081105D01*
X112494552Y-61071858D01*
X112493027Y-61058862D01*
X112491760Y-61041088D01*
X112490718Y-61017505D01*
X112489870Y-60987085D01*
X112489182Y-60948797D01*
X112488624Y-60901612D01*
X112488163Y-60844498D01*
X112487767Y-60776428D01*
X112487403Y-60696370D01*
X112487041Y-60603294D01*
X112486844Y-60550029D01*
X112486440Y-60446155D01*
X112486102Y-60355858D01*
X112485928Y-60278138D01*
X112486013Y-60211995D01*
X112486453Y-60156430D01*
X112487343Y-60110442D01*
X112488780Y-60073032D01*
X112490859Y-60043200D01*
X112493676Y-60019946D01*
X112497326Y-60002270D01*
X112501906Y-59989173D01*
X112507511Y-59979654D01*
X112514237Y-59972714D01*
X112522180Y-59967353D01*
X112531435Y-59962571D01*
X112542099Y-59957368D01*
X112543696Y-59956557D01*
X112575676Y-59940158D01*
X113469058Y-59940158D01*
X113469058Y-59145725D01*
X107718488Y-59145725D01*
X107720330Y-60466743D01*
X107722171Y-61787762D01*
X111669149Y-61791406D01*
X111955982Y-61791672D01*
X112228600Y-61791929D01*
X112487366Y-61792177D01*
X112732644Y-61792418D01*
X112964795Y-61792654D01*
X113184183Y-61792886D01*
X113391169Y-61793117D01*
X113586117Y-61793346D01*
X113769388Y-61793577D01*
X113941347Y-61793810D01*
X114102354Y-61794047D01*
X114252774Y-61794290D01*
X114392967Y-61794540D01*
X114523298Y-61794798D01*
X114644129Y-61795066D01*
X114755821Y-61795347D01*
X114858739Y-61795640D01*
X114953243Y-61795948D01*
X115039698Y-61796272D01*
X115118465Y-61796615D01*
X115189908Y-61796976D01*
X115254388Y-61797359D01*
X115312269Y-61797764D01*
X115363912Y-61798193D01*
X115409681Y-61798647D01*
X115449939Y-61799128D01*
X115485047Y-61799638D01*
X115515368Y-61800179D01*
X115541265Y-61800750D01*
X115563101Y-61801355D01*
X115581238Y-61801995D01*
X115596039Y-61802671D01*
X115607866Y-61803384D01*
X115617082Y-61804137D01*
X115624050Y-61804931D01*
X115629131Y-61805767D01*
X115632690Y-61806648D01*
X115635087Y-61807573D01*
X115636197Y-61808201D01*
X115654133Y-61823895D01*
X115669942Y-61843792D01*
X115670469Y-61844643D01*
X115672507Y-61848277D01*
X115674341Y-61852647D01*
X115675980Y-61858504D01*
X115677436Y-61866599D01*
X115678720Y-61877684D01*
X115679843Y-61892508D01*
X115680815Y-61911823D01*
X115681647Y-61936380D01*
X115682351Y-61966931D01*
X115682937Y-62004225D01*
X115683416Y-62049015D01*
X115683798Y-62102051D01*
X115684095Y-62164085D01*
X115684318Y-62235866D01*
X115684477Y-62318147D01*
X115684584Y-62411678D01*
X115684648Y-62517210D01*
X115684682Y-62635495D01*
X115684696Y-62767283D01*
X115684698Y-62828178D01*
X115684725Y-63788422D01*
X114482143Y-63788422D01*
X114482143Y-63147045D01*
X113687709Y-63147045D01*
X113687709Y-63788422D01*
X112332071Y-63788422D01*
X112332071Y-63119955D01*
X111845572Y-63115254D01*
X111802928Y-63114875D01*
X111746317Y-63114427D01*
X111676345Y-63113912D01*
X111593623Y-63113334D01*
X111498757Y-63112697D01*
X111392356Y-63112005D01*
X111275030Y-63111260D01*
X111147385Y-63110467D01*
X111010030Y-63109629D01*
X110863575Y-63108749D01*
X110708627Y-63107832D01*
X110545794Y-63106880D01*
X110375685Y-63105898D01*
X110198909Y-63104888D01*
X110016074Y-63103855D01*
X109827787Y-63102802D01*
X109634658Y-63101733D01*
X109437295Y-63100650D01*
X109236306Y-63099559D01*
X109032300Y-63098461D01*
X108825884Y-63097361D01*
X108617669Y-63096263D01*
X108483807Y-63095563D01*
X108279751Y-63094490D01*
X108079344Y-63093419D01*
X107883082Y-63092352D01*
X107691459Y-63091293D01*
X107504971Y-63090245D01*
X107324113Y-63089211D01*
X107149381Y-63088195D01*
X106981269Y-63087199D01*
X106820274Y-63086227D01*
X106666890Y-63085282D01*
X106521614Y-63084368D01*
X106384939Y-63083486D01*
X106257362Y-63082642D01*
X106139377Y-63081837D01*
X106031481Y-63081075D01*
X105934168Y-63080359D01*
X105847934Y-63079693D01*
X105773274Y-63079079D01*
X105710683Y-63078521D01*
X105660657Y-63078022D01*
X105623690Y-63077585D01*
X105600279Y-63077213D01*
X105590919Y-63076910D01*
X105590813Y-63076894D01*
X105575460Y-63069695D01*
X105556165Y-63055470D01*
X105545982Y-63046114D01*
X105528568Y-63026049D01*
X105519122Y-63006076D01*
X105514193Y-62979169D01*
X105513870Y-62969154D01*
X105513564Y-62945055D01*
X105513274Y-62907363D01*
X105513001Y-62856572D01*
X105512746Y-62793174D01*
X105512508Y-62717660D01*
X105512288Y-62630524D01*
X105512087Y-62532258D01*
X105511905Y-62423355D01*
X105511743Y-62304306D01*
X105511600Y-62175604D01*
X105511478Y-62037741D01*
X105511376Y-61891210D01*
X105511296Y-61736503D01*
X105511237Y-61574112D01*
X105511200Y-61404531D01*
X105511185Y-61228250D01*
X105511193Y-61045763D01*
X105511224Y-60857562D01*
X105511279Y-60664140D01*
X105511358Y-60465988D01*
X105511462Y-60263599D01*
X105511590Y-60057466D01*
X105511649Y-59972956D01*
X105511830Y-59725195D01*
X105512005Y-59491592D01*
X105512178Y-59271727D01*
X105512349Y-59065180D01*
X105512521Y-58871533D01*
X105512696Y-58690364D01*
X105512877Y-58521256D01*
X105513065Y-58363789D01*
X105513263Y-58217543D01*
X105513472Y-58082099D01*
X105513695Y-57957037D01*
X105513934Y-57841938D01*
X105514192Y-57736382D01*
X105514469Y-57639951D01*
X105514770Y-57552224D01*
X105515094Y-57472782D01*
X105515446Y-57401207D01*
X105515826Y-57337077D01*
X105516237Y-57279974D01*
X105516681Y-57229479D01*
X105517161Y-57185172D01*
X105517678Y-57146633D01*
X105518234Y-57113444D01*
X105518833Y-57085184D01*
X105519475Y-57061434D01*
X105520163Y-57041775D01*
X105520899Y-57025788D01*
X105521685Y-57013052D01*
X105522524Y-57003149D01*
X105523417Y-56995660D01*
X105524367Y-56990163D01*
X105525375Y-56986241D01*
X105526445Y-56983474D01*
X105526901Y-56982576D01*
X105542697Y-56961773D01*
X105562725Y-56944722D01*
X105563343Y-56944339D01*
X105564400Y-56943757D01*
X105565769Y-56943191D01*
X105567652Y-56942640D01*
X105570250Y-56942106D01*
X105573767Y-56941587D01*
X105578403Y-56941082D01*
X105584361Y-56940593D01*
X105591843Y-56940119D01*
X105601051Y-56939659D01*
X105612186Y-56939214D01*
X105625452Y-56938782D01*
X105641049Y-56938365D01*
X105659180Y-56937961D01*
X105680047Y-56937570D01*
X105703851Y-56937193D01*
X105730796Y-56936828D01*
X105761082Y-56936477D01*
X105794912Y-56936137D01*
X105832488Y-56935810D01*
X105874012Y-56935495D01*
X105919685Y-56935192D01*
X105969710Y-56934901D01*
X106024289Y-56934620D01*
X106083624Y-56934351D01*
X106147917Y-56934093D01*
X106217369Y-56933846D01*
X106292183Y-56933608D01*
X106372561Y-56933382D01*
X106458704Y-56933165D01*
X106550816Y-56932958D01*
X106649097Y-56932760D01*
X106753749Y-56932572D01*
X106864976Y-56932393D01*
X106982978Y-56932223D01*
X107107958Y-56932061D01*
X107240118Y-56931908D01*
X107379659Y-56931763D01*
X107526784Y-56931626D01*
X107681695Y-56931496D01*
X107844594Y-56931374D01*
X108015682Y-56931260D01*
X108195162Y-56931152D01*
X108383236Y-56931052D01*
X108580105Y-56930958D01*
X108785972Y-56930870D01*
X109001039Y-56930788D01*
X109225507Y-56930713D01*
X109459579Y-56930643D01*
X109703457Y-56930578D01*
X109957342Y-56930519D01*
X110221437Y-56930465D01*
X110495944Y-56930416D01*
X110781065Y-56930371D01*
X111077001Y-56930330D01*
X111383954Y-56930294D01*
X111702128Y-56930261D01*
X112031723Y-56930232D01*
X112372941Y-56930207D01*
X112725985Y-56930185D01*
X113091057Y-56930166D01*
X113468359Y-56930149D01*
X113858092Y-56930135D01*
X114260459Y-56930123D01*
X114675661Y-56930114D01*
X115103901Y-56930106D01*
X115545380Y-56930100D01*
X116000301Y-56930095D01*
X116468866Y-56930092D01*
X116951276Y-56930089D01*
X117447734Y-56930087D01*
X117958442Y-56930086D01*
X118282172Y-56930085D01*
X118801793Y-56930084D01*
X119307040Y-56930083D01*
X119798114Y-56930083D01*
X120275217Y-56930084D01*
%TA.AperFunction,EtchedComponent*%
G36*
X120275217Y-56930084D02*
G01*
X120738551Y-56930085D01*
X121188319Y-56930088D01*
X121624721Y-56930093D01*
X122047962Y-56930099D01*
X122458241Y-56930107D01*
X122855762Y-56930117D01*
X123240727Y-56930130D01*
X123613336Y-56930145D01*
X123973793Y-56930164D01*
X124322300Y-56930185D01*
X124659058Y-56930209D01*
X124984269Y-56930237D01*
X125298136Y-56930269D01*
X125600860Y-56930305D01*
X125892644Y-56930345D01*
X126173689Y-56930390D01*
X126444197Y-56930439D01*
X126704372Y-56930493D01*
X126954413Y-56930552D01*
X127194524Y-56930617D01*
X127424907Y-56930687D01*
X127645763Y-56930763D01*
X127857295Y-56930845D01*
X128059704Y-56930934D01*
X128253193Y-56931029D01*
X128437964Y-56931130D01*
X128614218Y-56931239D01*
X128782157Y-56931355D01*
X128941985Y-56931478D01*
X129093902Y-56931609D01*
X129238110Y-56931747D01*
X129374813Y-56931894D01*
X129504210Y-56932049D01*
X129626506Y-56932213D01*
X129741901Y-56932386D01*
X129850598Y-56932567D01*
X129952799Y-56932758D01*
X130048706Y-56932958D01*
X130138520Y-56933168D01*
X130222444Y-56933388D01*
X130300680Y-56933618D01*
X130373429Y-56933859D01*
X130440894Y-56934110D01*
X130503278Y-56934372D01*
X130560781Y-56934645D01*
X130613605Y-56934929D01*
X130661954Y-56935225D01*
X130706028Y-56935532D01*
X130746031Y-56935852D01*
X130782163Y-56936184D01*
X130814627Y-56936528D01*
X130843625Y-56936885D01*
X130869359Y-56937255D01*
X130892031Y-56937638D01*
X130911843Y-56938034D01*
X130928996Y-56938444D01*
X130943694Y-56938868D01*
X130956138Y-56939306D01*
X130966529Y-56939758D01*
X130975071Y-56940224D01*
X130981964Y-56940705D01*
X130987412Y-56941202D01*
X130991616Y-56941713D01*
X130994777Y-56942240D01*
X130997099Y-56942782D01*
X130998783Y-56943341D01*
X131000031Y-56943915D01*
X131000975Y-56944462D01*
X131009828Y-56949760D01*
X131017535Y-56954629D01*
X131024171Y-56960058D01*
X131029811Y-56967037D01*
X131034531Y-56976553D01*
X131038405Y-56989597D01*
X131041510Y-57007158D01*
X131043921Y-57030223D01*
X131045713Y-57059782D01*
X131046962Y-57096825D01*
X131047742Y-57142339D01*
X131048129Y-57197314D01*
X131048199Y-57262739D01*
X131048026Y-57339603D01*
X131047687Y-57428895D01*
X131047257Y-57531603D01*
X131047179Y-57550807D01*
X131044983Y-58095029D01*
X131026763Y-58114527D01*
X131008349Y-58131120D01*
X130989235Y-58144069D01*
X130988860Y-58144265D01*
X130986344Y-58144795D01*
X130980705Y-58145306D01*
X130971705Y-58145800D01*
X130959104Y-58146276D01*
X130942663Y-58146735D01*
X130922144Y-58147177D01*
X130897305Y-58147603D01*
X130867910Y-58148012D01*
X130833718Y-58148405D01*
X130794490Y-58148783D01*
X130749987Y-58149146D01*
X130699970Y-58149493D01*
X130644200Y-58149825D01*
X130582436Y-58150144D01*
X130514441Y-58150447D01*
X130439976Y-58150738D01*
X130358799Y-58151014D01*
X130270674Y-58151277D01*
X130175360Y-58151528D01*
X130072618Y-58151765D01*
X129962209Y-58151991D01*
X129843894Y-58152204D01*
X129717434Y-58152406D01*
X129582589Y-58152596D01*
X129439121Y-58152775D01*
X129286789Y-58152943D01*
X129125355Y-58153100D01*
X128954580Y-58153248D01*
X128774225Y-58153385D01*
X128584050Y-58153513D01*
X128383815Y-58153631D01*
X128173283Y-58153740D01*
X127952213Y-58153841D01*
X127720367Y-58153933D01*
X127477506Y-58154017D01*
X127223389Y-58154093D01*
X126957778Y-58154162D01*
X126680434Y-58154223D01*
X126391117Y-58154277D01*
X126089589Y-58154325D01*
X125775610Y-58154366D01*
X125448941Y-58154402D01*
X125109343Y-58154431D01*
X124756576Y-58154456D01*
X124390401Y-58154475D01*
X124010580Y-58154489D01*
X123616873Y-58154498D01*
X123209040Y-58154504D01*
X122834987Y-58154505D01*
X114700794Y-58154505D01*
X114700794Y-59939738D01*
X115615486Y-59943802D01*
X115639283Y-59960776D01*
X115649933Y-59968478D01*
X115658775Y-59975927D01*
X115665975Y-59984482D01*
X115671703Y-59995503D01*
X115676128Y-60010349D01*
X115679416Y-60030379D01*
X115681737Y-60056954D01*
X115683259Y-60091432D01*
X115684151Y-60135173D01*
X115684580Y-60189537D01*
X115684716Y-60255882D01*
X115684725Y-60327712D01*
X115684725Y-60635818D01*
X116127820Y-61080599D01*
X116210281Y-61163468D01*
X116282913Y-61236674D01*
X116346266Y-61300791D01*
X116400890Y-61356393D01*
X116447334Y-61404053D01*
X116486148Y-61444345D01*
X116517880Y-61477843D01*
X116543082Y-61505120D01*
X116562301Y-61526749D01*
X116576088Y-61543306D01*
X116584993Y-61555362D01*
X116588810Y-61561822D01*
X116606705Y-61598264D01*
X116610535Y-63788422D01*
X116151181Y-63788422D01*
X116151181Y-61758544D01*
X115843216Y-61450642D01*
X115535250Y-61142741D01*
X114052097Y-61142729D01*
X113878767Y-61142723D01*
X113719416Y-61142704D01*
X113573448Y-61142666D01*
X113440265Y-61142605D01*
X113319270Y-61142516D01*
X113209866Y-61142394D01*
X113111455Y-61142233D01*
X113023440Y-61142029D01*
X112945224Y-61141777D01*
X112876210Y-61141471D01*
X112815801Y-61141106D01*
X112763399Y-61140678D01*
X112718407Y-61140181D01*
X112680229Y-61139610D01*
X112648265Y-61138961D01*
X112621921Y-61138227D01*
X112600598Y-61137405D01*
X112583698Y-61136489D01*
X112570626Y-61135474D01*
X112560783Y-61134355D01*
X112553573Y-61133127D01*
X112548398Y-61131785D01*
X112544661Y-61130323D01*
X112543952Y-61129975D01*
X112522605Y-61115540D01*
X112504738Y-61097814D01*
X112503866Y-61096657D01*
X112500991Y-61092475D01*
X112498502Y-61087635D01*
X112496366Y-61081105D01*
X112494552Y-61071858D01*
X112493027Y-61058862D01*
X112491760Y-61041088D01*
X112490718Y-61017505D01*
X112489870Y-60987085D01*
X112489182Y-60948797D01*
X112488624Y-60901612D01*
X112488163Y-60844498D01*
X112487767Y-60776428D01*
X112487403Y-60696370D01*
X112487041Y-60603294D01*
X112486844Y-60550029D01*
X112486440Y-60446155D01*
X112486102Y-60355858D01*
X112485928Y-60278138D01*
X112486013Y-60211995D01*
X112486453Y-60156430D01*
X112487343Y-60110442D01*
X112488780Y-60073032D01*
X112490859Y-60043200D01*
X112493676Y-60019946D01*
X112497326Y-60002270D01*
X112501906Y-59989173D01*
X112507511Y-59979654D01*
X112514237Y-59972714D01*
X112522180Y-59967353D01*
X112531435Y-59962571D01*
X112542099Y-59957368D01*
X112543696Y-59956557D01*
X112575676Y-59940158D01*
X113469058Y-59940158D01*
X113469058Y-59145725D01*
X107718488Y-59145725D01*
X107720330Y-60466743D01*
X107722171Y-61787762D01*
X111669149Y-61791406D01*
X111955982Y-61791672D01*
X112228600Y-61791929D01*
X112487366Y-61792177D01*
X112732644Y-61792418D01*
X112964795Y-61792654D01*
X113184183Y-61792886D01*
X113391169Y-61793117D01*
X113586117Y-61793346D01*
X113769388Y-61793577D01*
X113941347Y-61793810D01*
X114102354Y-61794047D01*
X114252774Y-61794290D01*
X114392967Y-61794540D01*
X114523298Y-61794798D01*
X114644129Y-61795066D01*
X114755821Y-61795347D01*
X114858739Y-61795640D01*
X114953243Y-61795948D01*
X115039698Y-61796272D01*
X115118465Y-61796615D01*
X115189908Y-61796976D01*
X115254388Y-61797359D01*
X115312269Y-61797764D01*
X115363912Y-61798193D01*
X115409681Y-61798647D01*
X115449939Y-61799128D01*
X115485047Y-61799638D01*
X115515368Y-61800179D01*
X115541265Y-61800750D01*
X115563101Y-61801355D01*
X115581238Y-61801995D01*
X115596039Y-61802671D01*
X115607866Y-61803384D01*
X115617082Y-61804137D01*
X115624050Y-61804931D01*
X115629131Y-61805767D01*
X115632690Y-61806648D01*
X115635087Y-61807573D01*
X115636197Y-61808201D01*
X115654133Y-61823895D01*
X115669942Y-61843792D01*
X115670469Y-61844643D01*
X115672507Y-61848277D01*
X115674341Y-61852647D01*
X115675980Y-61858504D01*
X115677436Y-61866599D01*
X115678720Y-61877684D01*
X115679843Y-61892508D01*
X115680815Y-61911823D01*
X115681647Y-61936380D01*
X115682351Y-61966931D01*
X115682937Y-62004225D01*
X115683416Y-62049015D01*
X115683798Y-62102051D01*
X115684095Y-62164085D01*
X115684318Y-62235866D01*
X115684477Y-62318147D01*
X115684584Y-62411678D01*
X115684648Y-62517210D01*
X115684682Y-62635495D01*
X115684696Y-62767283D01*
X115684698Y-62828178D01*
X115684725Y-63788422D01*
X114482143Y-63788422D01*
X114482143Y-63147045D01*
X113687709Y-63147045D01*
X113687709Y-63788422D01*
X112332071Y-63788422D01*
X112332071Y-63119955D01*
X111845572Y-63115254D01*
X111802928Y-63114875D01*
X111746317Y-63114427D01*
X111676345Y-63113912D01*
X111593623Y-63113334D01*
X111498757Y-63112697D01*
X111392356Y-63112005D01*
X111275030Y-63111260D01*
X111147385Y-63110467D01*
X111010030Y-63109629D01*
X110863575Y-63108749D01*
X110708627Y-63107832D01*
X110545794Y-63106880D01*
X110375685Y-63105898D01*
X110198909Y-63104888D01*
X110016074Y-63103855D01*
X109827787Y-63102802D01*
X109634658Y-63101733D01*
X109437295Y-63100650D01*
X109236306Y-63099559D01*
X109032300Y-63098461D01*
X108825884Y-63097361D01*
X108617669Y-63096263D01*
X108483807Y-63095563D01*
X108279751Y-63094490D01*
X108079344Y-63093419D01*
X107883082Y-63092352D01*
X107691459Y-63091293D01*
X107504971Y-63090245D01*
X107324113Y-63089211D01*
X107149381Y-63088195D01*
X106981269Y-63087199D01*
X106820274Y-63086227D01*
X106666890Y-63085282D01*
X106521614Y-63084368D01*
X106384939Y-63083486D01*
X106257362Y-63082642D01*
X106139377Y-63081837D01*
X106031481Y-63081075D01*
X105934168Y-63080359D01*
X105847934Y-63079693D01*
X105773274Y-63079079D01*
X105710683Y-63078521D01*
X105660657Y-63078022D01*
X105623690Y-63077585D01*
X105600279Y-63077213D01*
X105590919Y-63076910D01*
X105590813Y-63076894D01*
X105575460Y-63069695D01*
X105556165Y-63055470D01*
X105545982Y-63046114D01*
X105528568Y-63026049D01*
X105519122Y-63006076D01*
X105514193Y-62979169D01*
X105513870Y-62969154D01*
X105513564Y-62945055D01*
X105513274Y-62907363D01*
X105513001Y-62856572D01*
X105512746Y-62793174D01*
X105512508Y-62717660D01*
X105512288Y-62630524D01*
X105512087Y-62532258D01*
X105511905Y-62423355D01*
X105511743Y-62304306D01*
X105511600Y-62175604D01*
X105511478Y-62037741D01*
X105511376Y-61891210D01*
X105511296Y-61736503D01*
X105511237Y-61574112D01*
X105511200Y-61404531D01*
X105511185Y-61228250D01*
X105511193Y-61045763D01*
X105511224Y-60857562D01*
X105511279Y-60664140D01*
X105511358Y-60465988D01*
X105511462Y-60263599D01*
X105511590Y-60057466D01*
X105511649Y-59972956D01*
X105511830Y-59725195D01*
X105512005Y-59491592D01*
X105512178Y-59271727D01*
X105512349Y-59065180D01*
X105512521Y-58871533D01*
X105512696Y-58690364D01*
X105512877Y-58521256D01*
X105513065Y-58363789D01*
X105513263Y-58217543D01*
X105513472Y-58082099D01*
X105513695Y-57957037D01*
X105513934Y-57841938D01*
X105514192Y-57736382D01*
X105514469Y-57639951D01*
X105514770Y-57552224D01*
X105515094Y-57472782D01*
X105515446Y-57401207D01*
X105515826Y-57337077D01*
X105516237Y-57279974D01*
X105516681Y-57229479D01*
X105517161Y-57185172D01*
X105517678Y-57146633D01*
X105518234Y-57113444D01*
X105518833Y-57085184D01*
X105519475Y-57061434D01*
X105520163Y-57041775D01*
X105520899Y-57025788D01*
X105521685Y-57013052D01*
X105522524Y-57003149D01*
X105523417Y-56995660D01*
X105524367Y-56990163D01*
X105525375Y-56986241D01*
X105526445Y-56983474D01*
X105526901Y-56982576D01*
X105542697Y-56961773D01*
X105562725Y-56944722D01*
X105563343Y-56944339D01*
X105564400Y-56943757D01*
X105565769Y-56943191D01*
X105567652Y-56942640D01*
X105570250Y-56942106D01*
X105573767Y-56941587D01*
X105578403Y-56941082D01*
X105584361Y-56940593D01*
X105591843Y-56940119D01*
X105601051Y-56939659D01*
X105612186Y-56939214D01*
X105625452Y-56938782D01*
X105641049Y-56938365D01*
X105659180Y-56937961D01*
X105680047Y-56937570D01*
X105703851Y-56937193D01*
X105730796Y-56936828D01*
X105761082Y-56936477D01*
X105794912Y-56936137D01*
X105832488Y-56935810D01*
X105874012Y-56935495D01*
X105919685Y-56935192D01*
X105969710Y-56934901D01*
X106024289Y-56934620D01*
X106083624Y-56934351D01*
X106147917Y-56934093D01*
X106217369Y-56933846D01*
X106292183Y-56933608D01*
X106372561Y-56933382D01*
X106458704Y-56933165D01*
X106550816Y-56932958D01*
X106649097Y-56932760D01*
X106753749Y-56932572D01*
X106864976Y-56932393D01*
X106982978Y-56932223D01*
X107107958Y-56932061D01*
X107240118Y-56931908D01*
X107379659Y-56931763D01*
X107526784Y-56931626D01*
X107681695Y-56931496D01*
X107844594Y-56931374D01*
X108015682Y-56931260D01*
X108195162Y-56931152D01*
X108383236Y-56931052D01*
X108580105Y-56930958D01*
X108785972Y-56930870D01*
X109001039Y-56930788D01*
X109225507Y-56930713D01*
X109459579Y-56930643D01*
X109703457Y-56930578D01*
X109957342Y-56930519D01*
X110221437Y-56930465D01*
X110495944Y-56930416D01*
X110781065Y-56930371D01*
X111077001Y-56930330D01*
X111383954Y-56930294D01*
X111702128Y-56930261D01*
X112031723Y-56930232D01*
X112372941Y-56930207D01*
X112725985Y-56930185D01*
X113091057Y-56930166D01*
X113468359Y-56930149D01*
X113858092Y-56930135D01*
X114260459Y-56930123D01*
X114675661Y-56930114D01*
X115103901Y-56930106D01*
X115545380Y-56930100D01*
X116000301Y-56930095D01*
X116468866Y-56930092D01*
X116951276Y-56930089D01*
X117447734Y-56930087D01*
X117958442Y-56930086D01*
X118282172Y-56930085D01*
X118801793Y-56930084D01*
X119307040Y-56930083D01*
X119798114Y-56930083D01*
X120275217Y-56930084D01*
G37*
%TD.AperFunction*%
%TD*%
D11*
%TO.P,R303,1*%
%TO.N,/power-usb/CC2*%
X124060000Y-90190000D03*
%TO.P,R303,2*%
%TO.N,GND*%
X124060000Y-89170000D03*
%TD*%
D12*
%TO.P,P301,A1,GND*%
%TO.N,GND*%
X114970000Y-89975000D03*
%TO.P,P301,A4,VBUS*%
%TO.N,+5V*%
X115770000Y-89975000D03*
D13*
%TO.P,P301,A5,CC*%
%TO.N,/power-usb/CC*%
X116970000Y-89975000D03*
%TO.P,P301,A6,D+*%
%TO.N,/power-usb/NOFILTER_D+*%
X117970000Y-89975000D03*
%TO.P,P301,A7,D-*%
%TO.N,/power-usb/NOFILTER_D-*%
X118470000Y-89975000D03*
%TO.P,P301,A8*%
%TO.N,N/C*%
X119470000Y-89975000D03*
D12*
%TO.P,P301,A9,VBUS*%
%TO.N,+5V*%
X120670000Y-89975000D03*
%TO.P,P301,A12,GND*%
%TO.N,GND*%
X121470000Y-89975000D03*
%TO.P,P301,B1,GND*%
X121470000Y-89975000D03*
%TO.P,P301,B4,VBUS*%
%TO.N,+5V*%
X120670000Y-89975000D03*
D13*
%TO.P,P301,B5,VCONN*%
%TO.N,/power-usb/CC2*%
X119970000Y-89975000D03*
%TO.P,P301,B6,D+*%
%TO.N,/power-usb/NOFILTER_D+*%
X118970000Y-89975000D03*
%TO.P,P301,B7,D-*%
%TO.N,/power-usb/NOFILTER_D-*%
X117470000Y-89975000D03*
%TO.P,P301,B8*%
%TO.N,N/C*%
X116470000Y-89975000D03*
D12*
%TO.P,P301,B9,VBUS*%
%TO.N,+5V*%
X115770000Y-89975000D03*
%TO.P,P301,B12,GND*%
%TO.N,GND*%
X114970000Y-89975000D03*
D14*
%TO.P,P301,S1,SHIELD*%
%TO.N,unconnected-(P301-SHIELD-PadS1)*%
X113900000Y-90890000D03*
D15*
X113900000Y-95070000D03*
D14*
X122540000Y-90890000D03*
D15*
X122540000Y-95070000D03*
%TD*%
D16*
%TO.P,R203,1*%
%TO.N,GND*%
X130420000Y-69420000D03*
%TO.P,R203,2*%
%TO.N,/esp32/PHOTORESISTOR_IN*%
X130420000Y-70440000D03*
%TD*%
D17*
%TO.P,R101,1*%
%TO.N,+1V65*%
X131105000Y-73000000D03*
D18*
%TO.P,R101,2*%
%TO.N,/esp32/PHOTORESISTOR_IN*%
X131105000Y-75540000D03*
%TD*%
D19*
%TO.P,C213,1*%
%TO.N,/esp32/XTAL_N*%
X122140000Y-80370000D03*
%TO.P,C213,2*%
%TO.N,GND*%
X122140000Y-79410000D03*
%TD*%
D20*
%TO.P,C302,1*%
%TO.N,+3V3*%
X128145000Y-65060000D03*
%TO.P,C302,2*%
%TO.N,GND*%
X125195000Y-65060000D03*
%TD*%
D19*
%TO.P,C207,1*%
%TO.N,/esp32/VDD3P3*%
X116347500Y-73592500D03*
%TO.P,C207,2*%
%TO.N,GND*%
X116347500Y-72632500D03*
%TD*%
D16*
%TO.P,R301,1*%
%TO.N,+3V3*%
X132400000Y-69420000D03*
%TO.P,R301,2*%
%TO.N,+1V65*%
X132400000Y-70440000D03*
%TD*%
D11*
%TO.P,R304,1*%
%TO.N,/power-usb/CC*%
X112380000Y-90190000D03*
%TO.P,R304,2*%
%TO.N,GND*%
X112380000Y-89170000D03*
%TD*%
D21*
%TO.P,REF\u002A\u002A,*%
%TO.N,*%
X104440000Y-95100000D03*
%TD*%
D22*
%TO.P,L202,1*%
%TO.N,+3V3*%
X113572500Y-73292500D03*
%TO.P,L202,2*%
%TO.N,/esp32/VDD3P3*%
X115147500Y-73292500D03*
%TD*%
D21*
%TO.P,REF\u002A\u002A,*%
%TO.N,*%
X109190000Y-67500000D03*
%TD*%
D23*
%TO.P,L201,1*%
%TO.N,/esp32/LNA_Z=50*%
X117890000Y-71095000D03*
%TO.P,L201,2*%
%TO.N,/esp32/LNA*%
X117890000Y-72670000D03*
%TD*%
D24*
%TO.P,AE201,1,FEED*%
%TO.N,/esp32/LNA_Z=50*%
X116380600Y-63600000D03*
D25*
%TO.P,AE201,2,PCB_Trace*%
%TO.N,GND*%
X113010000Y-63600000D03*
D26*
X115083800Y-63600000D03*
%TD*%
D27*
%TO.P,C210,1*%
%TO.N,+3V3*%
X111660000Y-76892500D03*
%TO.P,C210,2*%
%TO.N,GND*%
X110700000Y-76892500D03*
%TD*%
D11*
%TO.P,R204,1*%
%TO.N,Net-(U201-GPIO2{slash}ADC1_CH2)*%
X112260000Y-73590000D03*
%TO.P,R204,2*%
%TO.N,+3V3*%
X112260000Y-72570000D03*
%TD*%
D28*
%TO.P,J104,1,Pin_1*%
%TO.N,/UART_TX*%
X131100000Y-85000000D03*
D29*
%TO.P,J104,2,Pin_2*%
%TO.N,/UART_RX*%
X131100000Y-83000000D03*
%TO.P,J104,3,Pin_3*%
%TO.N,GND*%
X131100000Y-81000000D03*
%TO.P,J104,4,Pin_4*%
%TO.N,+5V*%
X131100000Y-79000000D03*
%TD*%
D17*
%TO.P,J105,1,Pin_1*%
%TO.N,/D0*%
X105600000Y-74360000D03*
D18*
%TO.P,J105,2,Pin_2*%
%TO.N,/D1*%
X105600000Y-76900000D03*
%TO.P,J105,3,Pin_3*%
%TO.N,/D2*%
X105600000Y-79440000D03*
%TD*%
D30*
%TO.P,R206,1*%
%TO.N,+3V3*%
X110650000Y-78980000D03*
%TO.P,R206,2*%
%TO.N,/esp32/BOOT*%
X111670000Y-78980000D03*
%TD*%
D31*
%TO.P,U201,1,LNA_IN*%
%TO.N,/esp32/LNA*%
X117860000Y-75192500D03*
%TO.P,U201,2,VDD3P3*%
%TO.N,/esp32/VDD3P3*%
X117360000Y-75192500D03*
%TO.P,U201,3,VDD3P3*%
X116860000Y-75192500D03*
%TO.P,U201,4,XTAL_32K_P/ADC1_CH0*%
%TO.N,/esp32/PHOTORESISTOR_IN*%
X116360000Y-75192500D03*
%TO.P,U201,5,XTAL_32K_N/ADC1_CH1*%
%TO.N,unconnected-(U201-XTAL_32K_N{slash}ADC1_CH1-Pad5)*%
X115860000Y-75192500D03*
%TO.P,U201,6,GPIO2/ADC1_CH2*%
%TO.N,Net-(U201-GPIO2{slash}ADC1_CH2)*%
X115360000Y-75192500D03*
%TO.P,U201,7,CHIP_EN*%
%TO.N,/esp32/RESET*%
X114860000Y-75192500D03*
%TO.P,U201,8,GPIO3/ADC1_CH3*%
%TO.N,unconnected-(U201-GPIO3{slash}ADC1_CH3-Pad8)*%
X114360000Y-75192500D03*
D32*
%TO.P,U201,9,MTMS/GPIO4/ADC1_CH4*%
%TO.N,/D0*%
X113672500Y-75880000D03*
%TO.P,U201,10,MTDI/GPIO5/ADC2_CH0*%
%TO.N,/D1*%
X113672500Y-76380000D03*
%TO.P,U201,11,VDD3P3_RTC*%
%TO.N,+3V3*%
X113672500Y-76880000D03*
%TO.P,U201,12,MTCK/GPIO6*%
%TO.N,/SERVO_B*%
X113672500Y-77380000D03*
%TO.P,U201,13,MTDO/GPIO7*%
%TO.N,/SERVO_A*%
X113672500Y-77880000D03*
%TO.P,U201,14,GPIO8*%
%TO.N,Net-(U201-GPIO8)*%
X113672500Y-78380000D03*
%TO.P,U201,15,GPIO9/BOOT*%
%TO.N,/esp32/BOOT*%
X113672500Y-78880000D03*
%TO.P,U201,16,GPIO10*%
%TO.N,/D2*%
X113672500Y-79380000D03*
D31*
%TO.P,U201,17,VDD3P3_CPU*%
%TO.N,+3V3*%
X114360000Y-80067500D03*
%TO.P,U201,18,VDD_SPI/GPIO11*%
%TO.N,unconnected-(U201-VDD_SPI{slash}GPIO11-Pad18)*%
X114860000Y-80067500D03*
%TO.P,U201,19,SPIHD/GPIO12*%
%TO.N,unconnected-(U201-SPIHD{slash}GPIO12-Pad19)*%
X115360000Y-80067500D03*
%TO.P,U201,20,SPIWP/GPIO13*%
%TO.N,unconnected-(U201-SPIWP{slash}GPIO13-Pad20)*%
X115860000Y-80067500D03*
%TO.P,U201,21,SPICS0/GPIO14*%
%TO.N,unconnected-(U201-SPICS0{slash}GPIO14-Pad21)*%
X116360000Y-80067500D03*
%TO.P,U201,22,SPICLK/GPIO15*%
%TO.N,unconnected-(U201-SPICLK{slash}GPIO15-Pad22)*%
X116860000Y-80067500D03*
%TO.P,U201,23,SPID/GPIO16*%
%TO.N,unconnected-(U201-SPID{slash}GPIO16-Pad23)*%
X117360000Y-80067500D03*
%TO.P,U201,24,SPIQ/GPIO17*%
%TO.N,unconnected-(U201-SPIQ{slash}GPIO17-Pad24)*%
X117860000Y-80067500D03*
D32*
%TO.P,U201,25,GPIO18/USB_D-*%
%TO.N,/esp32/D-*%
X118547500Y-79380000D03*
%TO.P,U201,26,GPIO19/USB_D+*%
%TO.N,/esp32/D+*%
X118547500Y-78880000D03*
%TO.P,U201,27,U0RXD/GPIO20*%
%TO.N,/UART_RX*%
X118547500Y-78380000D03*
%TO.P,U201,28,U0TXD/GPIO21*%
%TO.N,Net-(U201-U0TXD{slash}GPIO21)*%
X118547500Y-77880000D03*
%TO.P,U201,29,XTAL_N*%
%TO.N,/esp32/XTAL_N*%
X118547500Y-77380000D03*
%TO.P,U201,30,XTAL_P*%
%TO.N,/esp32/XTAL_P*%
X118547500Y-76880000D03*
%TO.P,U201,31,VDDA*%
%TO.N,+3V3*%
X118547500Y-76380000D03*
%TO.P,U201,32,VDDA*%
X118547500Y-75880000D03*
D33*
%TO.P,U201,33,GND*%
%TO.N,GND*%
X116110000Y-77630000D03*
%TD*%
D30*
%TO.P,R201,1*%
%TO.N,Net-(U201-U0TXD{slash}GPIO21)*%
X121380000Y-81990000D03*
%TO.P,R201,2*%
%TO.N,/UART_TX*%
X122400000Y-81990000D03*
%TD*%
D27*
%TO.P,C211,1*%
%TO.N,/esp32/BOOT*%
X111660000Y-79950000D03*
%TO.P,C211,2*%
%TO.N,GND*%
X110700000Y-79950000D03*
%TD*%
D34*
%TO.P,Y201,1,1*%
%TO.N,Net-(C212-Pad1)*%
X124860000Y-78950000D03*
%TO.P,Y201,2,2*%
%TO.N,GND*%
X123460000Y-78950000D03*
%TO.P,Y201,3,3*%
%TO.N,/esp32/XTAL_N*%
X123460000Y-80050000D03*
%TO.P,Y201,4,4*%
%TO.N,GND*%
X124860000Y-80050000D03*
%TD*%
D35*
%TO.P,R205,1*%
%TO.N,Net-(U201-GPIO8)*%
X111670000Y-77980000D03*
%TO.P,R205,2*%
%TO.N,+3V3*%
X110650000Y-77980000D03*
%TD*%
D30*
%TO.P,R202,1*%
%TO.N,+3V3*%
X110650000Y-75880000D03*
%TO.P,R202,2*%
%TO.N,/esp32/RESET*%
X111670000Y-75880000D03*
%TD*%
D36*
%TO.P,C212,1*%
%TO.N,Net-(C212-Pad1)*%
X126160000Y-79390000D03*
%TO.P,C212,2*%
%TO.N,GND*%
X126160000Y-80350000D03*
%TD*%
D37*
%TO.P,C202,1*%
%TO.N,/esp32/LNA*%
X117860000Y-73860000D03*
%TO.P,C202,2*%
%TO.N,GND*%
X118820000Y-73860000D03*
%TD*%
D20*
%TO.P,C301,1*%
%TO.N,+5V*%
X128135000Y-76270000D03*
%TO.P,C301,2*%
%TO.N,GND*%
X125185000Y-76270000D03*
%TD*%
D38*
%TO.P,U302,1,I/O1*%
%TO.N,/esp32/D+*%
X119110000Y-83670000D03*
%TO.P,U302,2,GND*%
%TO.N,GND*%
X118160000Y-83670000D03*
%TO.P,U302,3,I/O2*%
%TO.N,/esp32/D-*%
X117210000Y-83670000D03*
%TO.P,U302,4,I/O2*%
%TO.N,/power-usb/NOFILTER_D-*%
X117210000Y-85945000D03*
%TO.P,U302,5,VBUS*%
%TO.N,+5V*%
X118160000Y-85945000D03*
%TO.P,U302,6,I/O1*%
%TO.N,/power-usb/NOFILTER_D+*%
X119110000Y-85945000D03*
%TD*%
D27*
%TO.P,C208,1*%
%TO.N,/esp32/RESET*%
X111660000Y-74880000D03*
%TO.P,C208,2*%
%TO.N,GND*%
X110700000Y-74880000D03*
%TD*%
D36*
%TO.P,C209,1*%
%TO.N,+3V3*%
X114360000Y-81312500D03*
%TO.P,C209,2*%
%TO.N,GND*%
X114360000Y-82272500D03*
%TD*%
D37*
%TO.P,C201,1*%
%TO.N,/esp32/LNA_Z=50*%
X117890000Y-69890000D03*
%TO.P,C201,2*%
%TO.N,GND*%
X118850000Y-69890000D03*
%TD*%
D21*
%TO.P,REF\u002A\u002A,*%
%TO.N,*%
X131990000Y-95100000D03*
%TD*%
D11*
%TO.P,R302,1*%
%TO.N,+1V65*%
X131410000Y-70440000D03*
%TO.P,R302,2*%
%TO.N,GND*%
X131410000Y-69420000D03*
%TD*%
D39*
%TO.P,SW201,1,1*%
%TO.N,GND*%
X104370000Y-83830000D03*
X108520000Y-83830000D03*
%TO.P,SW201,2,2*%
%TO.N,/esp32/RESET*%
X104370000Y-85980000D03*
X108520000Y-85980000D03*
%TD*%
D37*
%TO.P,C204,1*%
%TO.N,+3V3*%
X120080000Y-75992500D03*
%TO.P,C204,2*%
%TO.N,GND*%
X121040000Y-75992500D03*
%TD*%
D39*
%TO.P,SW202,1,1*%
%TO.N,GND*%
X110655000Y-83830000D03*
X114805000Y-83830000D03*
%TO.P,SW202,2,2*%
%TO.N,/esp32/BOOT*%
X110655000Y-85980000D03*
X114805000Y-85980000D03*
%TD*%
D19*
%TO.P,C205,1*%
%TO.N,+3V3*%
X113340000Y-72059999D03*
%TO.P,C205,2*%
%TO.N,GND*%
X113340000Y-71099999D03*
%TD*%
D37*
%TO.P,C203,1*%
%TO.N,+3V3*%
X120080000Y-75022500D03*
%TO.P,C203,2*%
%TO.N,GND*%
X121040000Y-75022500D03*
%TD*%
D17*
%TO.P,J102,1,Pin_1*%
%TO.N,/SERVO_B*%
X126395000Y-88675000D03*
D18*
%TO.P,J102,2,Pin_2*%
%TO.N,+5V*%
X126395000Y-91215000D03*
%TO.P,J102,3,Pin_3*%
%TO.N,GND*%
X126395000Y-93755000D03*
%TD*%
D17*
%TO.P,J101,1,Pin_1*%
%TO.N,/SERVO_A*%
X109990000Y-93810000D03*
D18*
%TO.P,J101,2,Pin_2*%
%TO.N,+5V*%
X109990000Y-91270000D03*
%TO.P,J101,3,Pin_3*%
%TO.N,GND*%
X109990000Y-88730000D03*
%TD*%
D40*
%TO.P,U301,1,GND*%
%TO.N,GND*%
X123070000Y-73810000D03*
%TO.P,U301,2,VO*%
%TO.N,+3V3*%
X125370000Y-73810000D03*
D41*
X125370000Y-67510000D03*
D40*
%TO.P,U301,3,VI*%
%TO.N,+5V*%
X127670000Y-73810000D03*
%TD*%
D17*
%TO.P,J103,1,Pin_1*%
%TO.N,GND*%
X105600000Y-67360000D03*
D18*
%TO.P,J103,2,Pin_2*%
%TO.N,+5V*%
X105600000Y-69900000D03*
%TD*%
D19*
%TO.P,C206,1*%
%TO.N,+3V3*%
X114360000Y-72060000D03*
%TO.P,C206,2*%
%TO.N,GND*%
X114360000Y-71100000D03*
%TD*%
D30*
%TO.P,R207,1*%
%TO.N,/esp32/XTAL_P*%
X122420000Y-77190000D03*
%TO.P,R207,2*%
%TO.N,Net-(C212-Pad1)*%
X123440000Y-77190000D03*
%TD*%
D42*
%TO.N,GND*%
X132000000Y-92703138D03*
X132000000Y-91203138D03*
X132000000Y-89703138D03*
X132000000Y-88203138D03*
X132000000Y-65703138D03*
X132000000Y-64203138D03*
X130500000Y-94203138D03*
X130500000Y-92703138D03*
X130500000Y-91203138D03*
X130500000Y-89703138D03*
X130500000Y-88203138D03*
X130500000Y-65703138D03*
X130500000Y-64203138D03*
X129000000Y-94203138D03*
X129000000Y-92703138D03*
X129000000Y-91203138D03*
X127500000Y-70203138D03*
X124500000Y-94203138D03*
X124500000Y-70203138D03*
X123000000Y-65703138D03*
X123000000Y-64203138D03*
X121500000Y-70203138D03*
X121500000Y-68703138D03*
X121500000Y-67203138D03*
X121500000Y-65703138D03*
X121500000Y-64203138D03*
X120000000Y-65703138D03*
X120000000Y-64203138D03*
X115500000Y-68703138D03*
X114000000Y-70203138D03*
X114000000Y-68703138D03*
X114000000Y-67203138D03*
X114000000Y-65703138D03*
X112500000Y-70203138D03*
X112500000Y-68703138D03*
X112500000Y-67203138D03*
X112500000Y-65703138D03*
X111000000Y-70203138D03*
X111000000Y-68703138D03*
X111000000Y-67203138D03*
X111000000Y-65703138D03*
X111000000Y-64203138D03*
X109500000Y-65703138D03*
X109500000Y-64203138D03*
X108000000Y-65703138D03*
X108000000Y-64203138D03*
X106500000Y-89703138D03*
X106500000Y-88203138D03*
X106500000Y-65703138D03*
X106500000Y-64203138D03*
X105000000Y-71703138D03*
X105000000Y-65703138D03*
X105000000Y-64203138D03*
X104150000Y-92480000D03*
X104150000Y-90040000D03*
X104150000Y-87880000D03*
%TO.N,+3V3*%
X132400000Y-68700000D03*
X115300000Y-81290000D03*
X120920000Y-72400000D03*
X125360000Y-72400000D03*
X115330000Y-72130000D03*
X126610000Y-75620000D03*
X127920000Y-67410000D03*
%TO.N,/esp32/PHOTORESISTOR_IN*%
X129600000Y-70500000D03*
X115850000Y-74270000D03*
%TO.N,/esp32/RESET*%
X106330000Y-85980000D03*
X111560000Y-74090000D03*
%TO.N,GND*%
X126810000Y-87330000D03*
X130400000Y-68700000D03*
X119180000Y-75150000D03*
X123910000Y-76270000D03*
X126350000Y-81160000D03*
X115550000Y-65720000D03*
X127090000Y-83740000D03*
X115810000Y-66400000D03*
X124770000Y-81190000D03*
X115260000Y-82300000D03*
X109920000Y-79940000D03*
X121040000Y-78160000D03*
X117510000Y-64970000D03*
X112480000Y-79510000D03*
X116150000Y-76300000D03*
X119170000Y-71560000D03*
X115350000Y-64200000D03*
X119440000Y-73200000D03*
X115220000Y-95270000D03*
X122110000Y-86280000D03*
X117500000Y-79000000D03*
X121470000Y-81090000D03*
X115950000Y-85030000D03*
X112900000Y-85330000D03*
X119800000Y-88400000D03*
X111640000Y-88250000D03*
X121170000Y-85420000D03*
X121900000Y-75000000D03*
X112750000Y-75290000D03*
X115240000Y-92800000D03*
X116340000Y-71590000D03*
X109530000Y-85150000D03*
X116770000Y-81840000D03*
X116920000Y-68940000D03*
X118160000Y-82700000D03*
X119990000Y-70490000D03*
X111620000Y-84990000D03*
X117810000Y-84740000D03*
X119910000Y-69870000D03*
X111040000Y-89830000D03*
X116530000Y-95280000D03*
X117500000Y-77690000D03*
X112950000Y-93930000D03*
X116260000Y-81150000D03*
X110710000Y-74030000D03*
X113000000Y-81130000D03*
X117190000Y-81110000D03*
X126550000Y-78420000D03*
X108040000Y-85150000D03*
X106550000Y-86800000D03*
X120100000Y-73320000D03*
X125030000Y-85490000D03*
X117840000Y-65670000D03*
X127050000Y-80020000D03*
X121930000Y-75970000D03*
X107040000Y-77050000D03*
X129500000Y-69500000D03*
X109920000Y-76890000D03*
X125150000Y-77880000D03*
X121449500Y-79420000D03*
X116660000Y-70470000D03*
X119200000Y-72430000D03*
X111080000Y-92480000D03*
X124070000Y-84890000D03*
X108560000Y-89350000D03*
X119640000Y-69100000D03*
X118920000Y-68280000D03*
X125580000Y-82180000D03*
X108600000Y-88380000D03*
X124020000Y-82180000D03*
X107040000Y-74040000D03*
X116670000Y-67550000D03*
X116770000Y-69700000D03*
X119800000Y-87000000D03*
X116150000Y-79000000D03*
X113390000Y-89380000D03*
X122340000Y-88420000D03*
X120000000Y-84060000D03*
X108620000Y-91010000D03*
X122130000Y-78380000D03*
X122890000Y-76280000D03*
X116910000Y-68230000D03*
X119760000Y-95300000D03*
X116700000Y-88600000D03*
X116220000Y-66990000D03*
X123920000Y-81160000D03*
X123160000Y-81140000D03*
X108660000Y-72900000D03*
X119560000Y-68410000D03*
X121110000Y-95260000D03*
X131400000Y-68700000D03*
X114750000Y-89010000D03*
X118090000Y-95260000D03*
X123120000Y-84020000D03*
X114800000Y-77690000D03*
X117440000Y-64220000D03*
X125560000Y-81180000D03*
X116040000Y-70940000D03*
X122930000Y-93700000D03*
X114000000Y-89000000D03*
X109950000Y-71440000D03*
X126990000Y-79150000D03*
X117500000Y-76300000D03*
X118640000Y-66910000D03*
X125730000Y-84080000D03*
X118280000Y-66260000D03*
X129930000Y-82150000D03*
X119000000Y-88400000D03*
X122990000Y-89200000D03*
X116150000Y-77690000D03*
X119400000Y-87600000D03*
X115760000Y-83850000D03*
X122300000Y-89200000D03*
X114800000Y-76300000D03*
X122330000Y-81160000D03*
X132280000Y-74440000D03*
X115400000Y-64930000D03*
X123060000Y-71300000D03*
X119930000Y-81160000D03*
X106500000Y-94500000D03*
X118830000Y-67580000D03*
X125920000Y-78290000D03*
X114800000Y-79000000D03*
X117000000Y-87700000D03*
X111680000Y-83810000D03*
X129930000Y-84410000D03*
X113060000Y-83850000D03*
X107000000Y-79150000D03*
X119410000Y-70840000D03*
%TO.N,+5V*%
X121790000Y-87530000D03*
X127670000Y-72290000D03*
X115770000Y-88740000D03*
X115770000Y-87300000D03*
X120670000Y-88750000D03*
X114570000Y-87350000D03*
X120670000Y-87300000D03*
%TO.N,/power-usb/NOFILTER_D+*%
X117419317Y-92389317D03*
X119540000Y-92510000D03*
%TO.N,/power-usb/NOFILTER_D-*%
X116340000Y-92560000D03*
X118460000Y-92560000D03*
%TO.N,/esp32/BOOT*%
X112260000Y-80690000D03*
X112300000Y-85980000D03*
%TO.N,/SERVO_A*%
X112650000Y-78300000D03*
%TO.N,/SERVO_B*%
X120880000Y-83950000D03*
X112490000Y-77480000D03*
%TO.N,/D0*%
X110550000Y-72010000D03*
X113680000Y-75260000D03*
%TO.N,/D1*%
X109480000Y-73060000D03*
X112520000Y-76230000D03*
%TD*%
D43*
%TO.N,Net-(C212-Pad1)*%
X123440000Y-77190000D02*
X124860000Y-78610000D01*
X125720000Y-78950000D02*
X126160000Y-79390000D01*
X124860000Y-78950000D02*
X125720000Y-78950000D01*
X124860000Y-78610000D02*
X124860000Y-78950000D01*
%TO.N,/esp32/VDD3P3*%
X116047500Y-73292500D02*
X116347500Y-73592500D01*
X116860000Y-74105000D02*
X116860000Y-75192500D01*
X116860000Y-75192500D02*
X117360000Y-75192500D01*
X115147500Y-73292500D02*
X116047500Y-73292500D01*
X116347500Y-73592500D02*
X116860000Y-74105000D01*
D44*
%TO.N,Net-(U201-U0TXD{slash}GPIO21)*%
X118547500Y-77880000D02*
X119850000Y-77880000D01*
X120900000Y-81510000D02*
X121380000Y-81990000D01*
X120900000Y-78930000D02*
X120900000Y-81510000D01*
X119850000Y-77880000D02*
X120900000Y-78930000D01*
%TO.N,Net-(U201-GPIO2{slash}ADC1_CH2)*%
X114912182Y-74110000D02*
X115360000Y-74557818D01*
X112260000Y-73590000D02*
X112780000Y-74110000D01*
X115360000Y-74557818D02*
X115360000Y-75192500D01*
X112780000Y-74110000D02*
X114912182Y-74110000D01*
%TO.N,Net-(U201-GPIO8)*%
X112090000Y-78400000D02*
X112090000Y-78720000D01*
X112257240Y-78877240D02*
X112100000Y-78720000D01*
X111670000Y-77980000D02*
X112090000Y-78400000D01*
X112100000Y-78720000D02*
X112090000Y-78720000D01*
X112937240Y-78877240D02*
X113434480Y-78380000D01*
X112937240Y-78877240D02*
X112257240Y-78877240D01*
X113434480Y-78380000D02*
X113672500Y-78380000D01*
D43*
%TO.N,+3V3*%
X113340000Y-72059999D02*
X112770001Y-72059999D01*
D44*
X132400000Y-68700000D02*
X132400000Y-69420000D01*
D43*
X110380000Y-75880000D02*
X110081471Y-75880000D01*
X110860000Y-72570000D02*
X112260000Y-72570000D01*
X118547500Y-75880000D02*
X119967500Y-75880000D01*
X120080000Y-75022500D02*
X120920000Y-74182500D01*
X109730000Y-73700000D02*
X110860000Y-72570000D01*
X112770001Y-72059999D02*
X112260000Y-72570000D01*
D45*
X125370000Y-73810000D02*
X125370000Y-72410000D01*
D44*
X125370000Y-73810000D02*
X125370000Y-74380000D01*
D43*
X110650000Y-75880000D02*
X110380000Y-75880000D01*
D45*
X127920000Y-67410000D02*
X125470000Y-67410000D01*
D43*
X125370000Y-67510000D02*
X125695000Y-67510000D01*
X120920000Y-74182500D02*
X120920000Y-72400000D01*
X111672500Y-76880000D02*
X113672500Y-76880000D01*
X110650000Y-77980000D02*
X110650000Y-77902500D01*
D44*
X114360000Y-81312500D02*
X115277500Y-81312500D01*
D43*
X109320000Y-77138529D02*
X109981471Y-77800000D01*
X110081471Y-75880000D02*
X109320000Y-76641471D01*
D44*
X114360000Y-81312500D02*
X114360000Y-80067500D01*
D43*
X119967500Y-75880000D02*
X120080000Y-75992500D01*
X111660000Y-76892500D02*
X111672500Y-76880000D01*
X114360000Y-72060000D02*
X115260000Y-72060000D01*
X120080000Y-75992500D02*
X120080000Y-75022500D01*
X109981471Y-77800000D02*
X110470000Y-77800000D01*
X118547500Y-75880000D02*
X118547500Y-76380000D01*
D44*
X125370000Y-74380000D02*
X126610000Y-75620000D01*
D43*
X110470000Y-77800000D02*
X110650000Y-77980000D01*
X109320000Y-76641471D02*
X109320000Y-77138529D01*
D45*
X125370000Y-72410000D02*
X125360000Y-72400000D01*
D43*
X110380000Y-75880000D02*
X109730000Y-75230000D01*
X110650000Y-77980000D02*
X110650000Y-78980000D01*
D45*
X125470000Y-67410000D02*
X125370000Y-67510000D01*
D43*
X115260000Y-72060000D02*
X115330000Y-72130000D01*
X114360000Y-72060000D02*
X113340001Y-72060000D01*
X113340000Y-73060000D02*
X113572500Y-73292500D01*
D44*
X115277500Y-81312500D02*
X115300000Y-81290000D01*
D43*
X113340000Y-72059999D02*
X113340000Y-73060000D01*
X110650000Y-77902500D02*
X111660000Y-76892500D01*
X125695000Y-67510000D02*
X128145000Y-65060000D01*
X109730000Y-75230000D02*
X109730000Y-73700000D01*
X113340001Y-72060000D02*
X113340000Y-72059999D01*
D44*
%TO.N,/esp32/PHOTORESISTOR_IN*%
X116360000Y-74780000D02*
X116360000Y-75192500D01*
X116360000Y-75192500D02*
X116360000Y-74950000D01*
X129600000Y-70500000D02*
X130360000Y-70500000D01*
X115860000Y-74450000D02*
X115860000Y-74320000D01*
X130360000Y-70500000D02*
X130420000Y-70440000D01*
X115850000Y-74270000D02*
X116360000Y-74780000D01*
%TO.N,/esp32/RESET*%
X104370000Y-85980000D02*
X108520000Y-85980000D01*
X111890000Y-74420000D02*
X111560000Y-74090000D01*
X111560000Y-74780000D02*
X111660000Y-74880000D01*
X111560000Y-74090000D02*
X111560000Y-74780000D01*
X114860000Y-75192500D02*
X114860000Y-74610000D01*
X111670000Y-74890000D02*
X111670000Y-75880000D01*
X114860000Y-74610000D02*
X114670000Y-74420000D01*
X111660000Y-74880000D02*
X111670000Y-74890000D01*
X114670000Y-74420000D02*
X111890000Y-74420000D01*
%TO.N,/power-usb/CC*%
X116970000Y-90870000D02*
X116970000Y-89975000D01*
X112380000Y-90190000D02*
X112380000Y-90980660D01*
X112380000Y-90980660D02*
X113589340Y-92190000D01*
X113589340Y-92190000D02*
X115650000Y-92190000D01*
X115650000Y-92190000D02*
X116970000Y-90870000D01*
D45*
%TO.N,GND*%
X124860000Y-80050000D02*
X124860000Y-81100000D01*
X124860000Y-81100000D02*
X124770000Y-81190000D01*
D44*
X122140000Y-79410000D02*
X121459500Y-79410000D01*
D43*
X110700000Y-76892500D02*
X109922500Y-76892500D01*
D45*
X121470000Y-89975000D02*
X122245000Y-89200000D01*
X116347500Y-72632500D02*
X116347500Y-71597500D01*
D44*
X115740000Y-83830000D02*
X115760000Y-83850000D01*
D45*
X116347500Y-71597500D02*
X116340000Y-71590000D01*
X121040000Y-75992500D02*
X121040000Y-75022500D01*
D46*
X118850000Y-69890000D02*
X119640000Y-69100000D01*
D44*
X118160000Y-83670000D02*
X118160000Y-84390000D01*
D45*
X121040000Y-75992500D02*
X121907500Y-75992500D01*
X122245000Y-89200000D02*
X122300000Y-89200000D01*
D43*
X109930000Y-79950000D02*
X109920000Y-79940000D01*
D45*
X114010000Y-89010000D02*
X114000000Y-89000000D01*
D43*
X109922500Y-76892500D02*
X109920000Y-76890000D01*
D46*
X118820000Y-73820000D02*
X119440000Y-73200000D01*
D44*
X115232500Y-82272500D02*
X115260000Y-82300000D01*
D45*
X114750000Y-89750000D02*
X114750000Y-89010000D01*
X123070000Y-73810000D02*
X123070000Y-71310000D01*
D43*
X110700000Y-74040000D02*
X110710000Y-74030000D01*
X110700000Y-79950000D02*
X109930000Y-79950000D01*
D44*
X114805000Y-83830000D02*
X115740000Y-83830000D01*
D45*
X114970000Y-89975000D02*
X114970000Y-89970000D01*
X118160000Y-83670000D02*
X118160000Y-82700000D01*
X121877500Y-75022500D02*
X121900000Y-75000000D01*
X114970000Y-89970000D02*
X114750000Y-89750000D01*
D44*
X121459500Y-79410000D02*
X121449500Y-79420000D01*
D43*
X118820000Y-73860000D02*
X118820000Y-73820000D01*
D45*
X114750000Y-89010000D02*
X114010000Y-89010000D01*
X121907500Y-75992500D02*
X121930000Y-75970000D01*
X121040000Y-75022500D02*
X121877500Y-75022500D01*
X123070000Y-71310000D02*
X123060000Y-71300000D01*
D44*
X118160000Y-84390000D02*
X117810000Y-84740000D01*
D45*
X122890000Y-78380000D02*
X123460000Y-78950000D01*
X122130000Y-78380000D02*
X122890000Y-78380000D01*
D43*
X110700000Y-74880000D02*
X110700000Y-74040000D01*
D44*
X114360000Y-82272500D02*
X115232500Y-82272500D01*
%TO.N,/power-usb/CC2*%
X124060000Y-91000000D02*
X124060000Y-90190000D01*
X122870000Y-92190000D02*
X124060000Y-91000000D01*
X120990460Y-92190000D02*
X122870000Y-92190000D01*
X119970000Y-89975000D02*
X119970000Y-91169540D01*
X119970000Y-91169540D02*
X120990460Y-92190000D01*
D47*
%TO.N,/esp32/D-*%
X117915400Y-81348682D02*
X117915400Y-81970849D01*
X118865400Y-79374600D02*
X118933303Y-79374600D01*
X118547500Y-79380000D02*
X118860000Y-79380000D01*
X119305400Y-79746697D02*
X119305400Y-79958682D01*
X119305400Y-79958682D02*
X117915400Y-81348682D01*
X117915400Y-81970849D02*
X117210000Y-82676249D01*
X118860000Y-79380000D02*
X118865400Y-79374600D01*
X117210000Y-82676249D02*
X117210000Y-83670000D01*
X118933303Y-79374600D02*
X119305400Y-79746697D01*
%TO.N,/esp32/D+*%
X118860000Y-78880000D02*
X118865400Y-78885400D01*
X118404600Y-81551318D02*
X118404600Y-81970849D01*
X119135939Y-78885400D02*
X119794600Y-79544061D01*
X119110000Y-82676249D02*
X119110000Y-83670000D01*
X118404600Y-81970849D02*
X119110000Y-82676249D01*
X118865400Y-78885400D02*
X119135939Y-78885400D01*
X119794600Y-80161318D02*
X118404600Y-81551318D01*
X118547500Y-78880000D02*
X118860000Y-78880000D01*
X119794600Y-79544061D02*
X119794600Y-80161318D01*
D44*
%TO.N,+5V*%
X119549300Y-85029300D02*
X118792989Y-85029300D01*
D45*
X128135000Y-74275000D02*
X127670000Y-73810000D01*
X120670000Y-88020000D02*
X120670000Y-87300000D01*
D44*
X120670000Y-86150000D02*
X120670000Y-87300000D01*
D45*
X115770000Y-89975000D02*
X115770000Y-88740000D01*
X127670000Y-72290000D02*
X127670000Y-73810000D01*
X115770000Y-88740000D02*
X115770000Y-87300000D01*
D44*
X118160000Y-85662289D02*
X118160000Y-85945000D01*
D45*
X128135000Y-76270000D02*
X128135000Y-74275000D01*
D44*
X118792989Y-85029300D02*
X118160000Y-85662289D01*
D45*
X120670000Y-89975000D02*
X120670000Y-88750000D01*
X120670000Y-88750000D02*
X120670000Y-88020000D01*
D48*
X121300000Y-88020000D02*
X121790000Y-87530000D01*
X120670000Y-88020000D02*
X121300000Y-88020000D01*
D44*
X120670000Y-86150000D02*
X119549300Y-85029300D01*
D43*
%TO.N,/esp32/XTAL_P*%
X122110000Y-76880000D02*
X122420000Y-77190000D01*
X118547500Y-76880000D02*
X122110000Y-76880000D01*
D46*
%TO.N,/esp32/LNA_Z=50*%
X116380600Y-64683293D02*
X116380600Y-63600000D01*
X117890000Y-69890000D02*
X117890000Y-71095000D01*
X117890000Y-68327306D02*
X117890000Y-69890000D01*
X116380603Y-64683293D02*
G75*
G03*
X117135300Y-66505300I2576697J-7D01*
G01*
X117889997Y-68327306D02*
G75*
G03*
X117135300Y-66505300I-2576697J6D01*
G01*
D47*
%TO.N,/power-usb/NOFILTER_D+*%
X117970000Y-88887499D02*
X117970000Y-89975000D01*
X118404600Y-87644151D02*
X118404600Y-88095999D01*
X119110000Y-85945000D02*
X119110000Y-86938751D01*
X118404600Y-88095999D02*
X117964600Y-88535999D01*
X118970000Y-91940000D02*
X118970000Y-89975000D01*
X117970000Y-91838634D02*
X117419317Y-92389317D01*
X117964600Y-88535999D02*
X117964600Y-88882099D01*
X117964600Y-88882099D02*
X117970000Y-88887499D01*
X117970000Y-89975000D02*
X117970000Y-91838634D01*
X119540000Y-92510000D02*
X118970000Y-91940000D01*
X119110000Y-86938751D02*
X118404600Y-87644151D01*
%TO.N,/power-usb/NOFILTER_D-*%
X117475400Y-88333363D02*
X117475400Y-88882099D01*
X117915400Y-87893363D02*
X117475400Y-88333363D01*
X117475400Y-88882099D02*
X117470000Y-88887499D01*
X117470000Y-91430000D02*
X116340000Y-92560000D01*
X117915400Y-87644151D02*
X117915400Y-87893363D01*
X117210000Y-85945000D02*
X117210000Y-86938751D01*
X118470000Y-92550000D02*
X118460000Y-92560000D01*
X117470000Y-88887499D02*
X117470000Y-89975000D01*
X117470000Y-89975000D02*
X117470000Y-91430000D01*
X117210000Y-86938751D02*
X117915400Y-87644151D01*
X118470000Y-89975000D02*
X118470000Y-92550000D01*
D44*
%TO.N,+1V65*%
X131410000Y-70440000D02*
X131410000Y-72695000D01*
X132400000Y-70440000D02*
X131410000Y-70440000D01*
X131410000Y-72695000D02*
X131105000Y-73000000D01*
D43*
%TO.N,/esp32/XTAL_N*%
X119690000Y-77380000D02*
X118547500Y-77380000D01*
X121950000Y-77500000D02*
X121950000Y-77513762D01*
X118547500Y-77380000D02*
X121830000Y-77380000D01*
X124110000Y-78410000D02*
X124110000Y-79660000D01*
X123720000Y-80050000D02*
X123460000Y-80050000D01*
X123460000Y-80050000D02*
X122460000Y-80050000D01*
X121830000Y-77380000D02*
X121950000Y-77500000D01*
X123410000Y-77710000D02*
X124110000Y-78410000D01*
X124110000Y-79660000D02*
X123720000Y-80050000D01*
X122146238Y-77710000D02*
X123410000Y-77710000D01*
X121950000Y-77513762D02*
X122146238Y-77710000D01*
X122460000Y-80050000D02*
X122140000Y-80370000D01*
%TO.N,/esp32/LNA*%
X117860000Y-75192500D02*
X117860000Y-73860000D01*
X117860000Y-72700000D02*
X117890000Y-72670000D01*
X117860000Y-73860000D02*
X117860000Y-72700000D01*
D44*
%TO.N,/esp32/BOOT*%
X113030000Y-79920000D02*
X112260000Y-80690000D01*
X111660000Y-79950000D02*
X111660000Y-78990000D01*
X112260000Y-80690000D02*
X112260000Y-80550000D01*
X111660000Y-78990000D02*
X111670000Y-78980000D01*
X113030000Y-79284480D02*
X113030000Y-79920000D01*
X112260000Y-80550000D02*
X111660000Y-79950000D01*
X110655000Y-85980000D02*
X114805000Y-85980000D01*
X111770000Y-78880000D02*
X111670000Y-78980000D01*
X113672500Y-78880000D02*
X113434480Y-78880000D01*
X113434480Y-78880000D02*
X113030000Y-79284480D01*
%TO.N,/SERVO_A*%
X113070000Y-77880000D02*
X112650000Y-78300000D01*
X113672500Y-77880000D02*
X113070000Y-77880000D01*
%TO.N,/SERVO_B*%
X113672500Y-77380000D02*
X112590000Y-77380000D01*
X120880000Y-83950000D02*
X125605000Y-88675000D01*
X112590000Y-77380000D02*
X112490000Y-77480000D01*
X125605000Y-88675000D02*
X126395000Y-88675000D01*
%TO.N,/UART_TX*%
X122400000Y-81990000D02*
X125410000Y-85000000D01*
X125410000Y-85000000D02*
X131100000Y-85000000D01*
%TO.N,/UART_RX*%
X132380000Y-84280000D02*
X131100000Y-83000000D01*
X124180000Y-86140000D02*
X132000000Y-86140000D01*
X119840000Y-78380000D02*
X120540000Y-79080000D01*
X118547500Y-78380000D02*
X119840000Y-78380000D01*
X132000000Y-86140000D02*
X132380000Y-85760000D01*
X120540000Y-79080000D02*
X120540000Y-82500000D01*
X132380000Y-85760000D02*
X132380000Y-84280000D01*
X120540000Y-82500000D02*
X124180000Y-86140000D01*
%TO.N,/D0*%
X113672500Y-75267500D02*
X113680000Y-75260000D01*
X110550000Y-72010000D02*
X107950000Y-72010000D01*
X107950000Y-72010000D02*
X105600000Y-74360000D01*
X113672500Y-75880000D02*
X113672500Y-75267500D01*
%TO.N,/D1*%
X109440000Y-73060000D02*
X105600000Y-76900000D01*
X113672500Y-76380000D02*
X112670000Y-76380000D01*
X112670000Y-76380000D02*
X112520000Y-76230000D01*
X109480000Y-73060000D02*
X109440000Y-73060000D01*
%TO.N,/D2*%
X113672500Y-81437500D02*
X113430000Y-81680000D01*
X113430000Y-81680000D02*
X107840000Y-81680000D01*
X107840000Y-81680000D02*
X105600000Y-79440000D01*
X113672500Y-79380000D02*
X113672500Y-81437500D01*
%TD*%
%TA.AperFunction,Conductor*%
%TO.N,GND*%
G36*
X115646223Y-63839685D02*
G01*
X115691978Y-63892489D01*
X115696225Y-63903045D01*
X115746476Y-64046653D01*
X115744516Y-64047338D01*
X115755450Y-64091420D01*
X115755450Y-64724583D01*
X115755453Y-64724676D01*
X115755453Y-64840584D01*
X115786286Y-65153657D01*
X115786289Y-65153673D01*
X115847656Y-65462197D01*
X115847659Y-65462208D01*
X115938983Y-65763267D01*
X116059370Y-66053906D01*
X116059373Y-66053913D01*
X116112234Y-66152809D01*
X116207668Y-66331356D01*
X116207679Y-66331374D01*
X116382444Y-66592928D01*
X116382454Y-66592942D01*
X116582031Y-66836127D01*
X116632506Y-66886601D01*
X116632510Y-66886606D01*
X116691813Y-66945909D01*
X116694583Y-66948866D01*
X116858889Y-67136221D01*
X116863825Y-67142653D01*
X116867098Y-67147552D01*
X117001130Y-67348146D01*
X117005188Y-67355175D01*
X117111051Y-67569844D01*
X117114497Y-67576830D01*
X117117599Y-67584320D01*
X117147515Y-67672448D01*
X117197042Y-67818352D01*
X117199143Y-67826193D01*
X117247357Y-68068579D01*
X117248417Y-68076629D01*
X117264716Y-68325327D01*
X117264849Y-68329383D01*
X117264849Y-68406950D01*
X117264850Y-68406967D01*
X117264850Y-69340166D01*
X117245165Y-69407205D01*
X117239228Y-69415649D01*
X117234199Y-69422202D01*
X117234198Y-69422204D01*
X117174699Y-69565848D01*
X117174698Y-69565850D01*
X117159500Y-69681298D01*
X117159500Y-70098703D01*
X117174696Y-70214142D01*
X117174699Y-70214151D01*
X117181405Y-70230340D01*
X117188874Y-70299810D01*
X117157599Y-70362289D01*
X117154526Y-70365473D01*
X117136747Y-70383251D01*
X117120315Y-70439214D01*
X117103681Y-70459856D01*
X117103060Y-70460476D01*
X117103059Y-70460477D01*
X117018977Y-70599566D01*
X116970628Y-70754726D01*
X116964500Y-70822165D01*
X116964500Y-71367844D01*
X116970626Y-71435267D01*
X116970628Y-71435275D01*
X117018978Y-71590435D01*
X117018979Y-71590437D01*
X117103053Y-71729514D01*
X117103057Y-71729519D01*
X117103681Y-71730143D01*
X117103991Y-71730711D01*
X117107680Y-71735419D01*
X117106896Y-71736032D01*
X117137166Y-71791466D01*
X117140000Y-71817824D01*
X117140000Y-71910539D01*
X117120315Y-71977578D01*
X117067511Y-72023333D01*
X116998353Y-72033277D01*
X116934797Y-72004252D01*
X116928321Y-71998222D01*
X116912885Y-71982786D01*
X116912874Y-71982778D01*
X116773695Y-71900468D01*
X116773690Y-71900466D01*
X116618418Y-71855355D01*
X116618412Y-71855354D01*
X116597500Y-71853709D01*
X116597500Y-72758500D01*
X116577815Y-72825539D01*
X116525011Y-72871294D01*
X116473500Y-72882500D01*
X116221500Y-72882500D01*
X116154461Y-72862815D01*
X116108706Y-72810011D01*
X116097500Y-72758500D01*
X116097500Y-71853710D01*
X116097499Y-71853709D01*
X116076587Y-71855354D01*
X116076581Y-71855355D01*
X115921309Y-71900466D01*
X115921303Y-71900468D01*
X115906923Y-71908973D01*
X115839198Y-71926153D01*
X115772936Y-71903992D01*
X115744239Y-71874208D01*
X115744187Y-71874254D01*
X115743325Y-71873259D01*
X115739491Y-71869280D01*
X115738382Y-71867555D01*
X115737856Y-71866948D01*
X115647896Y-71763128D01*
X115647893Y-71763126D01*
X115647891Y-71763124D01*
X115531661Y-71688427D01*
X115531656Y-71688425D01*
X115399087Y-71649500D01*
X115399085Y-71649500D01*
X115260915Y-71649500D01*
X115260912Y-71649500D01*
X115259875Y-71649649D01*
X115258839Y-71649500D01*
X115252046Y-71649500D01*
X115252046Y-71648522D01*
X115190717Y-71639701D01*
X115137915Y-71593943D01*
X115118235Y-71526902D01*
X115123158Y-71492315D01*
X115164504Y-71350000D01*
X113561363Y-71350000D01*
X113561360Y-71349999D01*
X112535496Y-71349999D01*
X112577968Y-71496194D01*
X112660278Y-71635373D01*
X112660285Y-71635382D01*
X112704903Y-71680000D01*
X112738388Y-71741323D01*
X112733404Y-71811015D01*
X112691532Y-71866948D01*
X112687207Y-71869575D01*
X112656515Y-71894051D01*
X112650839Y-71898079D01*
X112644196Y-71902252D01*
X112638643Y-71907805D01*
X112633462Y-71912435D01*
X112609213Y-71931774D01*
X112600505Y-71942694D01*
X112599890Y-71942203D01*
X112589245Y-71957203D01*
X112468908Y-72077542D01*
X112416451Y-72130000D01*
X112383270Y-72163181D01*
X112321947Y-72196666D01*
X112295588Y-72199500D01*
X112051802Y-72199500D01*
X111983115Y-72213162D01*
X111983112Y-72213164D01*
X111905214Y-72265214D01*
X111888653Y-72290000D01*
X111872355Y-72314391D01*
X111818743Y-72359196D01*
X111769253Y-72369500D01*
X111107005Y-72369500D01*
X111039966Y-72349815D01*
X110994211Y-72297011D01*
X110984267Y-72227853D01*
X110994211Y-72193988D01*
X111015777Y-72146765D01*
X111020950Y-72110785D01*
X111035441Y-72010000D01*
X111015884Y-71873979D01*
X111015777Y-71873234D01*
X110967015Y-71766462D01*
X110958379Y-71747551D01*
X110867896Y-71643128D01*
X110867893Y-71643126D01*
X110867891Y-71643124D01*
X110751661Y-71568427D01*
X110751656Y-71568425D01*
X110619087Y-71529500D01*
X110619085Y-71529500D01*
X110480915Y-71529500D01*
X110480912Y-71529500D01*
X110348343Y-71568425D01*
X110348338Y-71568427D01*
X110232108Y-71643124D01*
X110232106Y-71643126D01*
X110141622Y-71747549D01*
X110141620Y-71747552D01*
X110123600Y-71787012D01*
X110077845Y-71839816D01*
X110010806Y-71859500D01*
X107909672Y-71859500D01*
X107906043Y-71861595D01*
X107876147Y-71873979D01*
X107872097Y-71875064D01*
X107815064Y-71932096D01*
X106373978Y-73373181D01*
X106312655Y-73406666D01*
X106286297Y-73409500D01*
X104740105Y-73409500D01*
X104740097Y-73409501D01*
X104710787Y-73415330D01*
X104677542Y-73437542D01*
X104655332Y-73470785D01*
X104655329Y-73470791D01*
X104649500Y-73500098D01*
X104649500Y-75219894D01*
X104649501Y-75219902D01*
X104655330Y-75249212D01*
X104677542Y-75282457D01*
X104693940Y-75293413D01*
X104710787Y-75304669D01*
X104710790Y-75304669D01*
X104710791Y-75304670D01*
X104720647Y-75306630D01*
X104740101Y-75310500D01*
X106459898Y-75310499D01*
X106489213Y-75304669D01*
X106522457Y-75282457D01*
X106544669Y-75249213D01*
X106550500Y-75219899D01*
X106550499Y-73673699D01*
X106570184Y-73606661D01*
X106586813Y-73586024D01*
X107976019Y-72196819D01*
X108037343Y-72163334D01*
X108063701Y-72160500D01*
X110010806Y-72160500D01*
X110077845Y-72180185D01*
X110123599Y-72232987D01*
X110141621Y-72272449D01*
X110232104Y-72376872D01*
X110232106Y-72376873D01*
X110232108Y-72376875D01*
X110348338Y-72451572D01*
X110348343Y-72451574D01*
X110415694Y-72471350D01*
X110474473Y-72509124D01*
X110503498Y-72572679D01*
X110493555Y-72641838D01*
X110468441Y-72678008D01*
X110155817Y-72990632D01*
X110094494Y-73024117D01*
X110024802Y-73019133D01*
X109968869Y-72977261D01*
X109949826Y-72931288D01*
X109948276Y-72931744D01*
X109945777Y-72923235D01*
X109923651Y-72874786D01*
X109888379Y-72797551D01*
X109797896Y-72693128D01*
X109797893Y-72693126D01*
X109797891Y-72693124D01*
X109681661Y-72618427D01*
X109681656Y-72618425D01*
X109549087Y-72579500D01*
X109549085Y-72579500D01*
X109410915Y-72579500D01*
X109410912Y-72579500D01*
X109278343Y-72618425D01*
X109278338Y-72618427D01*
X109162108Y-72693124D01*
X109162106Y-72693126D01*
X109162104Y-72693127D01*
X109162104Y-72693128D01*
X109098204Y-72766873D01*
X109071621Y-72797551D01*
X109071620Y-72797552D01*
X109014222Y-72923234D01*
X108994559Y-73060000D01*
X109014964Y-73201924D01*
X109005020Y-73271083D01*
X108979907Y-73307252D01*
X106228674Y-76058485D01*
X106167351Y-76091970D01*
X106097659Y-76086986D01*
X106082540Y-76080162D01*
X105965502Y-76017604D01*
X105786333Y-75963253D01*
X105786331Y-75963252D01*
X105600000Y-75944901D01*
X105413668Y-75963252D01*
X105413666Y-75963253D01*
X105234497Y-76017604D01*
X105069376Y-76105862D01*
X105069373Y-76105864D01*
X104924642Y-76224642D01*
X104805864Y-76369373D01*
X104805862Y-76369376D01*
X104717604Y-76534497D01*
X104663253Y-76713666D01*
X104663252Y-76713668D01*
X104644901Y-76900000D01*
X104663252Y-77086331D01*
X104663253Y-77086333D01*
X104717604Y-77265502D01*
X104805862Y-77430623D01*
X104805864Y-77430626D01*
X104924642Y-77575357D01*
X105069373Y-77694135D01*
X105069376Y-77694137D01*
X105228576Y-77779230D01*
X105234499Y-77782396D01*
X105384139Y-77827789D01*
X105413666Y-77836746D01*
X105413668Y-77836747D01*
X105428655Y-77838223D01*
X105600000Y-77855099D01*
X105786331Y-77836747D01*
X105965501Y-77782396D01*
X106130625Y-77694136D01*
X106275357Y-77575357D01*
X106394136Y-77430625D01*
X106482396Y-77265501D01*
X106536747Y-77086331D01*
X106555099Y-76900000D01*
X106536747Y-76713669D01*
X106482396Y-76534499D01*
X106467033Y-76505756D01*
X106419837Y-76417457D01*
X106405595Y-76349054D01*
X106430595Y-76283810D01*
X106441507Y-76271330D01*
X109174467Y-73538370D01*
X109235788Y-73504887D01*
X109297080Y-73507076D01*
X109389244Y-73534137D01*
X109410915Y-73540500D01*
X109410919Y-73540500D01*
X109419692Y-73541762D01*
X109419318Y-73544360D01*
X109473209Y-73560185D01*
X109518964Y-73612989D01*
X109528126Y-73670448D01*
X109529500Y-73670448D01*
X109529500Y-73685255D01*
X109529110Y-73692201D01*
X109525637Y-73723026D01*
X109527202Y-73736908D01*
X109526418Y-73736996D01*
X109529500Y-73755132D01*
X109529500Y-75174870D01*
X109526419Y-75193002D01*
X109527202Y-75193091D01*
X109525638Y-75206972D01*
X109525638Y-75206973D01*
X109525638Y-75206974D01*
X109526791Y-75217207D01*
X109529110Y-75237797D01*
X109529500Y-75244742D01*
X109529500Y-75252591D01*
X109531246Y-75260245D01*
X109532411Y-75267100D01*
X109535875Y-75297850D01*
X109535884Y-75297924D01*
X109535885Y-75297926D01*
X109539702Y-75308833D01*
X109544708Y-75319229D01*
X109564055Y-75343489D01*
X109568078Y-75349160D01*
X109572251Y-75355801D01*
X109577797Y-75361347D01*
X109582433Y-75366534D01*
X109601775Y-75390787D01*
X109612698Y-75399498D01*
X109612206Y-75400114D01*
X109627212Y-75410761D01*
X109859504Y-75643054D01*
X109892989Y-75704376D01*
X109888005Y-75774068D01*
X109859504Y-75818415D01*
X109217208Y-76460712D01*
X109202204Y-76471359D01*
X109202696Y-76471975D01*
X109191773Y-76480685D01*
X109172432Y-76504936D01*
X109167806Y-76510113D01*
X109162255Y-76515665D01*
X109162251Y-76515671D01*
X109158071Y-76522321D01*
X109154053Y-76527982D01*
X109134710Y-76552238D01*
X109129698Y-76562644D01*
X109125883Y-76573549D01*
X109122411Y-76604366D01*
X109121248Y-76611214D01*
X109119500Y-76618878D01*
X109119500Y-76626726D01*
X109119110Y-76633672D01*
X109115637Y-76664497D01*
X109117202Y-76678379D01*
X109116418Y-76678467D01*
X109119500Y-76696603D01*
X109119500Y-77083399D01*
X109116419Y-77101531D01*
X109117202Y-77101620D01*
X109115638Y-77115501D01*
X109119110Y-77146326D01*
X109119500Y-77153271D01*
X109119500Y-77161120D01*
X109121246Y-77168774D01*
X109122411Y-77175629D01*
X109124267Y-77192107D01*
X109125884Y-77206453D01*
X109125885Y-77206455D01*
X109129702Y-77217362D01*
X109134708Y-77227758D01*
X109148709Y-77245315D01*
X109153997Y-77251946D01*
X109154055Y-77252018D01*
X109158078Y-77257689D01*
X109162251Y-77264330D01*
X109167797Y-77269876D01*
X109172433Y-77275063D01*
X109191775Y-77299316D01*
X109202698Y-77308027D01*
X109202206Y-77308643D01*
X109217213Y-77319291D01*
X109800711Y-77902790D01*
X109811354Y-77917789D01*
X109811970Y-77917299D01*
X109820682Y-77928223D01*
X109820683Y-77928224D01*
X109844930Y-77947561D01*
X109850113Y-77952193D01*
X109855665Y-77957745D01*
X109855668Y-77957747D01*
X109855669Y-77957748D01*
X109862308Y-77961919D01*
X109867986Y-77965947D01*
X109892240Y-77985290D01*
X109892244Y-77985290D01*
X109902645Y-77990300D01*
X109913545Y-77994114D01*
X109913547Y-77994115D01*
X109939902Y-77997084D01*
X109944366Y-77997587D01*
X109951226Y-77998753D01*
X109957387Y-78000158D01*
X109958881Y-78000500D01*
X109966737Y-78000500D01*
X109973676Y-78000889D01*
X110004497Y-78004362D01*
X110018378Y-78002798D01*
X110018466Y-78003581D01*
X110036602Y-78000500D01*
X110155500Y-78000500D01*
X110222539Y-78020185D01*
X110268294Y-78072989D01*
X110279500Y-78124500D01*
X110279500Y-78188196D01*
X110279500Y-78188198D01*
X110279499Y-78188198D01*
X110293162Y-78256884D01*
X110293163Y-78256886D01*
X110293164Y-78256888D01*
X110345214Y-78334786D01*
X110394392Y-78367646D01*
X110439195Y-78421255D01*
X110449500Y-78470746D01*
X110449500Y-78489252D01*
X110429815Y-78556291D01*
X110394392Y-78592353D01*
X110345214Y-78625213D01*
X110293164Y-78703112D01*
X110293162Y-78703115D01*
X110279500Y-78771801D01*
X110279500Y-79131613D01*
X110259815Y-79198652D01*
X110218623Y-79238344D01*
X110164619Y-79270282D01*
X110050285Y-79384616D01*
X110050278Y-79384625D01*
X109967968Y-79523804D01*
X109967966Y-79523809D01*
X109922855Y-79679081D01*
X109922854Y-79679087D01*
X109921209Y-79699999D01*
X109921210Y-79700000D01*
X110826000Y-79700000D01*
X110893039Y-79719685D01*
X110938794Y-79772489D01*
X110950000Y-79824000D01*
X110950000Y-80754503D01*
X111096195Y-80712031D01*
X111235374Y-80629721D01*
X111235383Y-80629714D01*
X111349714Y-80515383D01*
X111349718Y-80515377D01*
X111405311Y-80421378D01*
X111456381Y-80373695D01*
X111512043Y-80360500D01*
X111689294Y-80360500D01*
X111756333Y-80380185D01*
X111802088Y-80432989D01*
X111812032Y-80502147D01*
X111802088Y-80536011D01*
X111794223Y-80553232D01*
X111794223Y-80553233D01*
X111774559Y-80689999D01*
X111794222Y-80826765D01*
X111850504Y-80950003D01*
X111851621Y-80952449D01*
X111942104Y-81056872D01*
X111942106Y-81056873D01*
X111942108Y-81056875D01*
X112058338Y-81131572D01*
X112058343Y-81131574D01*
X112190912Y-81170499D01*
X112190914Y-81170500D01*
X112190915Y-81170500D01*
X112329086Y-81170500D01*
X112329086Y-81170499D01*
X112461659Y-81131573D01*
X112471657Y-81125148D01*
X112577891Y-81056875D01*
X112577890Y-81056875D01*
X112577896Y-81056872D01*
X112668379Y-80952449D01*
X112725777Y-80826765D01*
X112745441Y-80690000D01*
X112725777Y-80553235D01*
X112725120Y-80551798D01*
X112724896Y-80550237D01*
X112723279Y-80544730D01*
X112724071Y-80544497D01*
X112715176Y-80482640D01*
X112744200Y-80419084D01*
X112750217Y-80412620D01*
X113150430Y-80012409D01*
X113164935Y-79997904D01*
X113166016Y-79993865D01*
X113178411Y-79963943D01*
X113180500Y-79960327D01*
X113180500Y-79879674D01*
X113180500Y-79879673D01*
X113180500Y-79729499D01*
X113200185Y-79662461D01*
X113252989Y-79616706D01*
X113304500Y-79605500D01*
X113398000Y-79605500D01*
X113465039Y-79625185D01*
X113510794Y-79677989D01*
X113522000Y-79729500D01*
X113522000Y-81323799D01*
X113502315Y-81390838D01*
X113485681Y-81411480D01*
X113403980Y-81493181D01*
X113342657Y-81526666D01*
X113316299Y-81529500D01*
X107953701Y-81529500D01*
X107886662Y-81509815D01*
X107866020Y-81493181D01*
X106572839Y-80200000D01*
X109921210Y-80200000D01*
X109922854Y-80220910D01*
X109967968Y-80376195D01*
X110050278Y-80515374D01*
X110050285Y-80515383D01*
X110164616Y-80629714D01*
X110164625Y-80629721D01*
X110303803Y-80712030D01*
X110449999Y-80754504D01*
X110450000Y-80200000D01*
X109921210Y-80200000D01*
X106572839Y-80200000D01*
X106441514Y-80068675D01*
X106408029Y-80007352D01*
X106413013Y-79937660D01*
X106419837Y-79922541D01*
X106431743Y-79900266D01*
X106482396Y-79805501D01*
X106536747Y-79626331D01*
X106555099Y-79440000D01*
X106536747Y-79253669D01*
X106482396Y-79074499D01*
X106482395Y-79074497D01*
X106394137Y-78909376D01*
X106394135Y-78909373D01*
X106275357Y-78764642D01*
X106130626Y-78645864D01*
X106130623Y-78645862D01*
X105965502Y-78557604D01*
X105786333Y-78503253D01*
X105786331Y-78503252D01*
X105600000Y-78484901D01*
X105413668Y-78503252D01*
X105413666Y-78503253D01*
X105234497Y-78557604D01*
X105069376Y-78645862D01*
X105069373Y-78645864D01*
X104924642Y-78764642D01*
X104805864Y-78909373D01*
X104805862Y-78909376D01*
X104717604Y-79074497D01*
X104663253Y-79253666D01*
X104663252Y-79253668D01*
X104644901Y-79440000D01*
X104663252Y-79626331D01*
X104663253Y-79626333D01*
X104717604Y-79805502D01*
X104805862Y-79970623D01*
X104805864Y-79970626D01*
X104924642Y-80115357D01*
X105069373Y-80234135D01*
X105069376Y-80234137D01*
X105234497Y-80322395D01*
X105234499Y-80322396D01*
X105413666Y-80376746D01*
X105413668Y-80376747D01*
X105430374Y-80378392D01*
X105600000Y-80395099D01*
X105786331Y-80376747D01*
X105965501Y-80322396D01*
X106082541Y-80259836D01*
X106150943Y-80245595D01*
X106216187Y-80270595D01*
X106228674Y-80281513D01*
X107705065Y-81757904D01*
X107762096Y-81814935D01*
X107766135Y-81816017D01*
X107796049Y-81828408D01*
X107799670Y-81830499D01*
X107799672Y-81830499D01*
X107799673Y-81830500D01*
X107799674Y-81830500D01*
X113446124Y-81830500D01*
X113513163Y-81850185D01*
X113558918Y-81902989D01*
X113568862Y-81972147D01*
X113565201Y-81989094D01*
X113555496Y-82022500D01*
X115164504Y-82022500D01*
X115137368Y-81929094D01*
X115137568Y-81859225D01*
X115175511Y-81800555D01*
X115239149Y-81771712D01*
X115256445Y-81770500D01*
X115369086Y-81770500D01*
X115369086Y-81770499D01*
X115501659Y-81731573D01*
X115617896Y-81656872D01*
X115708379Y-81552449D01*
X115765777Y-81426765D01*
X115785441Y-81290000D01*
X115768248Y-81170426D01*
X115765777Y-81153234D01*
X115708379Y-81027552D01*
X115708379Y-81027551D01*
X115617896Y-80923128D01*
X115617893Y-80923126D01*
X115617891Y-80923124D01*
X115501661Y-80848427D01*
X115501656Y-80848425D01*
X115467100Y-80838279D01*
X115408321Y-80800505D01*
X115379296Y-80736950D01*
X115389239Y-80667791D01*
X115434994Y-80614987D01*
X115477843Y-80597685D01*
X115486094Y-80596043D01*
X115486094Y-80596042D01*
X115486099Y-80596042D01*
X115540016Y-80560016D01*
X115540016Y-80560014D01*
X115541109Y-80559285D01*
X115607787Y-80538407D01*
X115675167Y-80556891D01*
X115678891Y-80559285D01*
X115679983Y-80560014D01*
X115679984Y-80560016D01*
X115733901Y-80596042D01*
X115733903Y-80596042D01*
X115733904Y-80596043D01*
X115781445Y-80605500D01*
X115781448Y-80605500D01*
X115938554Y-80605500D01*
X115986095Y-80596043D01*
X115986095Y-80596042D01*
X115986099Y-80596042D01*
X116040016Y-80560016D01*
X116040016Y-80560014D01*
X116041109Y-80559285D01*
X116107787Y-80538407D01*
X116175167Y-80556891D01*
X116178891Y-80559285D01*
X116179983Y-80560014D01*
X116179984Y-80560016D01*
X116233901Y-80596042D01*
X116233903Y-80596042D01*
X116233904Y-80596043D01*
X116281445Y-80605500D01*
X116281448Y-80605500D01*
X116438554Y-80605500D01*
X116486095Y-80596043D01*
X116486095Y-80596042D01*
X116486099Y-80596042D01*
X116540016Y-80560016D01*
X116540016Y-80560014D01*
X116541109Y-80559285D01*
X116607787Y-80538407D01*
X116675167Y-80556891D01*
X116678891Y-80559285D01*
X116679983Y-80560014D01*
X116679984Y-80560016D01*
X116733901Y-80596042D01*
X116733903Y-80596042D01*
X116733904Y-80596043D01*
X116781445Y-80605500D01*
X116781448Y-80605500D01*
X116938554Y-80605500D01*
X116986095Y-80596043D01*
X116986095Y-80596042D01*
X116986099Y-80596042D01*
X117040016Y-80560016D01*
X117040016Y-80560014D01*
X117041109Y-80559285D01*
X117107787Y-80538407D01*
X117175167Y-80556891D01*
X117178891Y-80559285D01*
X117179983Y-80560014D01*
X117179984Y-80560016D01*
X117233901Y-80596042D01*
X117233903Y-80596042D01*
X117233904Y-80596043D01*
X117281445Y-80605500D01*
X117281448Y-80605500D01*
X117438554Y-80605500D01*
X117486095Y-80596043D01*
X117486095Y-80596042D01*
X117486099Y-80596042D01*
X117540016Y-80560016D01*
X117540016Y-80560014D01*
X117541109Y-80559285D01*
X117607787Y-80538407D01*
X117675167Y-80556891D01*
X117678891Y-80559285D01*
X117679983Y-80560014D01*
X117679984Y-80560016D01*
X117733901Y-80596042D01*
X117733903Y-80596042D01*
X117733904Y-80596043D01*
X117781445Y-80605500D01*
X117868912Y-80605500D01*
X117935951Y-80625185D01*
X117981706Y-80677989D01*
X117991650Y-80747147D01*
X117962625Y-80810703D01*
X117956593Y-80817181D01*
X117682871Y-81090903D01*
X117678883Y-81094557D01*
X117645715Y-81122390D01*
X117624067Y-81159883D01*
X117621162Y-81164443D01*
X117596336Y-81199898D01*
X117595284Y-81202153D01*
X117585437Y-81225928D01*
X117584581Y-81228279D01*
X117577063Y-81270914D01*
X117575892Y-81276194D01*
X117564692Y-81317999D01*
X117565535Y-81327641D01*
X117568464Y-81361114D01*
X117568700Y-81366520D01*
X117568700Y-81775879D01*
X117549015Y-81842918D01*
X117532381Y-81863560D01*
X116977470Y-82418471D01*
X116973482Y-82422125D01*
X116940315Y-82449957D01*
X116918667Y-82487450D01*
X116915762Y-82492010D01*
X116890936Y-82527465D01*
X116889884Y-82529720D01*
X116880037Y-82553495D01*
X116879181Y-82555846D01*
X116871663Y-82598481D01*
X116870492Y-82603761D01*
X116862140Y-82634935D01*
X116859292Y-82645566D01*
X116859887Y-82652373D01*
X116863064Y-82688681D01*
X116863300Y-82694087D01*
X116863300Y-82802629D01*
X116843615Y-82869668D01*
X116826981Y-82890310D01*
X116768162Y-82949128D01*
X116716317Y-83055181D01*
X116716315Y-83055186D01*
X116706300Y-83123930D01*
X116706300Y-84216063D01*
X116716317Y-84284819D01*
X116768162Y-84390871D01*
X116851628Y-84474337D01*
X116851629Y-84474337D01*
X116851631Y-84474339D01*
X116957681Y-84526183D01*
X116957684Y-84526183D01*
X116957686Y-84526184D01*
X116974264Y-84528599D01*
X117026431Y-84536200D01*
X117393568Y-84536199D01*
X117394448Y-84536199D01*
X117461487Y-84555883D01*
X117486534Y-84578805D01*
X117486800Y-84578540D01*
X117608438Y-84700178D01*
X117608447Y-84700185D01*
X117749801Y-84783781D01*
X117907514Y-84829600D01*
X117907511Y-84829600D01*
X117909998Y-84829795D01*
X117910000Y-84829795D01*
X117910000Y-83544000D01*
X117929685Y-83476961D01*
X117982489Y-83431206D01*
X118034000Y-83420000D01*
X118286000Y-83420000D01*
X118353039Y-83439685D01*
X118398794Y-83492489D01*
X118410000Y-83544000D01*
X118410000Y-84829795D01*
X118433895Y-84851884D01*
X118469762Y-84911845D01*
X118467517Y-84981679D01*
X118437408Y-85030618D01*
X118422349Y-85045678D01*
X118361027Y-85079165D01*
X118334665Y-85082000D01*
X117976739Y-85082000D01*
X117908608Y-85091926D01*
X117803514Y-85143303D01*
X117774943Y-85171874D01*
X117713619Y-85205359D01*
X117643928Y-85200373D01*
X117599582Y-85171873D01*
X117568371Y-85140662D01*
X117556654Y-85134934D01*
X117462319Y-85088817D01*
X117462317Y-85088816D01*
X117462313Y-85088815D01*
X117393569Y-85078800D01*
X117026436Y-85078800D01*
X116957680Y-85088817D01*
X116851628Y-85140662D01*
X116768162Y-85224128D01*
X116716317Y-85330181D01*
X116716315Y-85330186D01*
X116706300Y-85398930D01*
X116706300Y-86491063D01*
X116716317Y-86559819D01*
X116768162Y-86665871D01*
X116826981Y-86724690D01*
X116860466Y-86786013D01*
X116863300Y-86812371D01*
X116863300Y-86920911D01*
X116863064Y-86926317D01*
X116859291Y-86969434D01*
X116870493Y-87011242D01*
X116871664Y-87016523D01*
X116879183Y-87059160D01*
X116880039Y-87061511D01*
X116889877Y-87085264D01*
X116890933Y-87087528D01*
X116890935Y-87087531D01*
X116890936Y-87087533D01*
X116915762Y-87122988D01*
X116918669Y-87127551D01*
X116940316Y-87165043D01*
X116973483Y-87192874D01*
X116977462Y-87196520D01*
X117462018Y-87681076D01*
X117495502Y-87742398D01*
X117490518Y-87812090D01*
X117462017Y-87856437D01*
X117242871Y-88075583D01*
X117238883Y-88079238D01*
X117205715Y-88107071D01*
X117184067Y-88144564D01*
X117181162Y-88149124D01*
X117156336Y-88184579D01*
X117155284Y-88186834D01*
X117145437Y-88210609D01*
X117144581Y-88212960D01*
X117137063Y-88255595D01*
X117135892Y-88260875D01*
X117124692Y-88302680D01*
X117128464Y-88345795D01*
X117128700Y-88351201D01*
X117128700Y-88805379D01*
X117124475Y-88837472D01*
X117119292Y-88856815D01*
X117119291Y-88856815D01*
X117121051Y-88876924D01*
X117122956Y-88898704D01*
X117123064Y-88899931D01*
X117123300Y-88905337D01*
X117123300Y-89025500D01*
X117103615Y-89092539D01*
X117050811Y-89138294D01*
X116999301Y-89149500D01*
X116810105Y-89149500D01*
X116810097Y-89149501D01*
X116780787Y-89155330D01*
X116769504Y-89160004D01*
X116768032Y-89156452D01*
X116722166Y-89170795D01*
X116671759Y-89156946D01*
X116670493Y-89160004D01*
X116659208Y-89155329D01*
X116629901Y-89149500D01*
X116394500Y-89149500D01*
X116327461Y-89129815D01*
X116281706Y-89077011D01*
X116270500Y-89025500D01*
X116270500Y-88885143D01*
X116286279Y-88824610D01*
X116327490Y-88750937D01*
X116347175Y-88683898D01*
X116355500Y-88626000D01*
X116355500Y-86974000D01*
X116350803Y-86930316D01*
X116344568Y-86901655D01*
X116339598Y-86878807D01*
X116337110Y-86868629D01*
X116337110Y-86868627D01*
X116294100Y-86787915D01*
X116248345Y-86735111D01*
X116230756Y-86717159D01*
X116230750Y-86717154D01*
X116150940Y-86672511D01*
X116150935Y-86672509D01*
X116083903Y-86652826D01*
X116083899Y-86652825D01*
X116083898Y-86652825D01*
X116026000Y-86644500D01*
X115397359Y-86644500D01*
X115330320Y-86624815D01*
X115284565Y-86572011D01*
X115274621Y-86502853D01*
X115303646Y-86439297D01*
X115357951Y-86404397D01*
X115357929Y-86404343D01*
X115358229Y-86404218D01*
X115362424Y-86401523D01*
X115368111Y-86400125D01*
X115369209Y-86399669D01*
X115369213Y-86399669D01*
X115402457Y-86377457D01*
X115424669Y-86344213D01*
X115430500Y-86314899D01*
X115430499Y-85645102D01*
X115424669Y-85615787D01*
X115403289Y-85583788D01*
X115402457Y-85582542D01*
X115369214Y-85560332D01*
X115369215Y-85560332D01*
X115369213Y-85560331D01*
X115369211Y-85560330D01*
X115369208Y-85560329D01*
X115339901Y-85554500D01*
X114270105Y-85554500D01*
X114270097Y-85554501D01*
X114240787Y-85560330D01*
X114207542Y-85582542D01*
X114185332Y-85615785D01*
X114185329Y-85615791D01*
X114179500Y-85645098D01*
X114179500Y-85705500D01*
X114159815Y-85772539D01*
X114107011Y-85818294D01*
X114055500Y-85829500D01*
X112839194Y-85829500D01*
X112772155Y-85809815D01*
X112726400Y-85757012D01*
X112722037Y-85747458D01*
X112708379Y-85717551D01*
X112617896Y-85613128D01*
X112617893Y-85613126D01*
X112617891Y-85613124D01*
X112501661Y-85538427D01*
X112501656Y-85538425D01*
X112369087Y-85499500D01*
X112369085Y-85499500D01*
X112230915Y-85499500D01*
X112230912Y-85499500D01*
X112098343Y-85538425D01*
X112098338Y-85538427D01*
X111982108Y-85613124D01*
X111982106Y-85613126D01*
X111982104Y-85613127D01*
X111982104Y-85613128D01*
X111976263Y-85619869D01*
X111891622Y-85717549D01*
X111891620Y-85717552D01*
X111873600Y-85757012D01*
X111827845Y-85809816D01*
X111760806Y-85829500D01*
X111404499Y-85829500D01*
X111337460Y-85809815D01*
X111291705Y-85757011D01*
X111280499Y-85705500D01*
X111280499Y-85645105D01*
X111280498Y-85645097D01*
X111274669Y-85615787D01*
X111252457Y-85582542D01*
X111219214Y-85560332D01*
X111219215Y-85560332D01*
X111219213Y-85560331D01*
X111219211Y-85560330D01*
X111219208Y-85560329D01*
X111189901Y-85554500D01*
X110120105Y-85554500D01*
X110120097Y-85554501D01*
X110090787Y-85560330D01*
X110057542Y-85582542D01*
X110035332Y-85615785D01*
X110035329Y-85615791D01*
X110029500Y-85645098D01*
X110029500Y-86314894D01*
X110029501Y-86314902D01*
X110035330Y-86344212D01*
X110057542Y-86377457D01*
X110074219Y-86388599D01*
X110090787Y-86399669D01*
X110090790Y-86399669D01*
X110090791Y-86399670D01*
X110100647Y-86401630D01*
X110120101Y-86405500D01*
X111189898Y-86405499D01*
X111219213Y-86399669D01*
X111252457Y-86377457D01*
X111274669Y-86344213D01*
X111280419Y-86315306D01*
X111280500Y-86314901D01*
X111280500Y-86254500D01*
X111300185Y-86187461D01*
X111352989Y-86141706D01*
X111404500Y-86130500D01*
X111760806Y-86130500D01*
X111827845Y-86150185D01*
X111873599Y-86202987D01*
X111891621Y-86242449D01*
X111982104Y-86346872D01*
X111982106Y-86346873D01*
X111982108Y-86346875D01*
X112098338Y-86421572D01*
X112098343Y-86421574D01*
X112230912Y-86460499D01*
X112230914Y-86460500D01*
X112230915Y-86460500D01*
X112369086Y-86460500D01*
X112369086Y-86460499D01*
X112501659Y-86421573D01*
X112521194Y-86409019D01*
X112617891Y-86346875D01*
X112617890Y-86346875D01*
X112617896Y-86346872D01*
X112708379Y-86242449D01*
X112726400Y-86202987D01*
X112772155Y-86150184D01*
X112839194Y-86130500D01*
X114055501Y-86130500D01*
X114122540Y-86150185D01*
X114168295Y-86202989D01*
X114179501Y-86254500D01*
X114179501Y-86314902D01*
X114185330Y-86344212D01*
X114207542Y-86377457D01*
X114224219Y-86388599D01*
X114240787Y-86399669D01*
X114259539Y-86403399D01*
X114321449Y-86435782D01*
X114356024Y-86496497D01*
X114352285Y-86566267D01*
X114311420Y-86622940D01*
X114248613Y-86648304D01*
X114240316Y-86649196D01*
X114240315Y-86649196D01*
X114188807Y-86660402D01*
X114178629Y-86662889D01*
X114178624Y-86662891D01*
X114097916Y-86705899D01*
X114097913Y-86705901D01*
X114076231Y-86724689D01*
X114045111Y-86751655D01*
X114027159Y-86769243D01*
X114027154Y-86769249D01*
X113982511Y-86849059D01*
X113982509Y-86849064D01*
X113962826Y-86916096D01*
X113954499Y-86974003D01*
X113954500Y-87624138D01*
X113955090Y-87635144D01*
X113955090Y-87635145D01*
X113958511Y-87666961D01*
X113958513Y-87666970D01*
X113975076Y-87719865D01*
X113978622Y-87731191D01*
X113982470Y-87743478D01*
X113982471Y-87743483D01*
X113996272Y-87768757D01*
X114015956Y-87804805D01*
X114015958Y-87804808D01*
X114015960Y-87804811D01*
X114050998Y-87851615D01*
X114051002Y-87851619D01*
X114051009Y-87851629D01*
X115076314Y-88876934D01*
X115123131Y-88911983D01*
X115184445Y-88945466D01*
X115198160Y-88951900D01*
X115250494Y-88998190D01*
X115269500Y-89064162D01*
X115269500Y-90657612D01*
X115249815Y-90724651D01*
X115197011Y-90770406D01*
X115173016Y-90777230D01*
X115173242Y-90778108D01*
X115165686Y-90780047D01*
X115011702Y-90841014D01*
X115011693Y-90841019D01*
X114877715Y-90938360D01*
X114877712Y-90938363D01*
X114772144Y-91065973D01*
X114766698Y-91077547D01*
X114720342Y-91129824D01*
X114653081Y-91148740D01*
X114586271Y-91128290D01*
X114541124Y-91074966D01*
X114530500Y-91024748D01*
X114530500Y-90300335D01*
X114530499Y-90300324D01*
X114522849Y-90239769D01*
X114515545Y-90181955D01*
X114456903Y-90033840D01*
X114363268Y-89904963D01*
X114240524Y-89803420D01*
X114240522Y-89803419D01*
X114240521Y-89803418D01*
X114096384Y-89735593D01*
X113939904Y-89705743D01*
X113939900Y-89705743D01*
X113780915Y-89715746D01*
X113629414Y-89764971D01*
X113624476Y-89768105D01*
X113494910Y-89850330D01*
X113494908Y-89850332D01*
X113494905Y-89850334D01*
X113385863Y-89966452D01*
X113385857Y-89966460D01*
X113309118Y-90106049D01*
X113309115Y-90106057D01*
X113269500Y-90260346D01*
X113269500Y-91357959D01*
X113249815Y-91424998D01*
X113197011Y-91470753D01*
X113127853Y-91480697D01*
X113064297Y-91451672D01*
X113057819Y-91445640D01*
X112566819Y-90954640D01*
X112533334Y-90893317D01*
X112530500Y-90866959D01*
X112530500Y-90673740D01*
X112550185Y-90606701D01*
X112602989Y-90560946D01*
X112630306Y-90552123D01*
X112656888Y-90546836D01*
X112734786Y-90494786D01*
X112786836Y-90416888D01*
X112800500Y-90348196D01*
X112800500Y-90031804D01*
X112794802Y-90003157D01*
X112801028Y-89933569D01*
X112843890Y-89878391D01*
X112853299Y-89872234D01*
X112957288Y-89810736D01*
X112957294Y-89810731D01*
X113070731Y-89697294D01*
X113070738Y-89697285D01*
X113152404Y-89559194D01*
X113192844Y-89420000D01*
X111567156Y-89420000D01*
X111607595Y-89559194D01*
X111689261Y-89697285D01*
X111689268Y-89697294D01*
X111802705Y-89810731D01*
X111802713Y-89810737D01*
X111906701Y-89872235D01*
X111954384Y-89923304D01*
X111966888Y-89992045D01*
X111965198Y-90003157D01*
X111965144Y-90003429D01*
X111959500Y-90031804D01*
X111959500Y-90348196D01*
X111959500Y-90348198D01*
X111959499Y-90348198D01*
X111973162Y-90416884D01*
X111973163Y-90416886D01*
X111973164Y-90416888D01*
X112025214Y-90494786D01*
X112103112Y-90546836D01*
X112129690Y-90552122D01*
X112191601Y-90584506D01*
X112226176Y-90645221D01*
X112229500Y-90673740D01*
X112229500Y-91020987D01*
X112231593Y-91024613D01*
X112243980Y-91054517D01*
X112245063Y-91058562D01*
X112245065Y-91058564D01*
X112319532Y-91133033D01*
X112319538Y-91133037D01*
X113454405Y-92267904D01*
X113511436Y-92324935D01*
X113515475Y-92326017D01*
X113545389Y-92338408D01*
X113547765Y-92339779D01*
X113549013Y-92340500D01*
X113629666Y-92340501D01*
X113629668Y-92340500D01*
X115706654Y-92340500D01*
X115706654Y-92341567D01*
X115757841Y-92342783D01*
X115815706Y-92381942D01*
X115843215Y-92446168D01*
X115842831Y-92478544D01*
X115831120Y-92559999D01*
X115851732Y-92703363D01*
X115851734Y-92703371D01*
X115911900Y-92835117D01*
X115911905Y-92835125D01*
X116006751Y-92944584D01*
X116006753Y-92944585D01*
X116006754Y-92944586D01*
X116128604Y-93022894D01*
X116128605Y-93022894D01*
X116128608Y-93022896D01*
X116267576Y-93063699D01*
X116267578Y-93063700D01*
X116267579Y-93063700D01*
X116412422Y-93063700D01*
X116412422Y-93063699D01*
X116473143Y-93045870D01*
X116551391Y-93022896D01*
X116551392Y-93022895D01*
X116551396Y-93022894D01*
X116673246Y-92944586D01*
X116673248Y-92944584D01*
X116768094Y-92835125D01*
X116768094Y-92835124D01*
X116768097Y-92835121D01*
X116815999Y-92730230D01*
X116861751Y-92677430D01*
X116928790Y-92657745D01*
X116995830Y-92677429D01*
X117022504Y-92700542D01*
X117086071Y-92773903D01*
X117207921Y-92852211D01*
X117207922Y-92852211D01*
X117207925Y-92852213D01*
X117346893Y-92893016D01*
X117346895Y-92893017D01*
X117346896Y-92893017D01*
X117491739Y-92893017D01*
X117491739Y-92893016D01*
X117552460Y-92875187D01*
X117630708Y-92852213D01*
X117630709Y-92852212D01*
X117630713Y-92852211D01*
X117752563Y-92773903D01*
X117790830Y-92729740D01*
X117849605Y-92691967D01*
X117919474Y-92691965D01*
X117978253Y-92729738D01*
X117997336Y-92759431D01*
X118031902Y-92835119D01*
X118031905Y-92835125D01*
X118126751Y-92944584D01*
X118126753Y-92944585D01*
X118126754Y-92944586D01*
X118248604Y-93022894D01*
X118248605Y-93022894D01*
X118248608Y-93022896D01*
X118387576Y-93063699D01*
X118387578Y-93063700D01*
X118387579Y-93063700D01*
X118532422Y-93063700D01*
X118532422Y-93063699D01*
X118593143Y-93045870D01*
X118671391Y-93022896D01*
X118671392Y-93022895D01*
X118671396Y-93022894D01*
X118793246Y-92944586D01*
X118793248Y-92944584D01*
X118888094Y-92835125D01*
X118888094Y-92835124D01*
X118888097Y-92835121D01*
X118900141Y-92808747D01*
X118945894Y-92755945D01*
X119012933Y-92736259D01*
X119079973Y-92755942D01*
X119106649Y-92779057D01*
X119111902Y-92785120D01*
X119111903Y-92785121D01*
X119132377Y-92808749D01*
X119205393Y-92893016D01*
X119206754Y-92894586D01*
X119328604Y-92972894D01*
X119328605Y-92972894D01*
X119328608Y-92972896D01*
X119467576Y-93013699D01*
X119467578Y-93013700D01*
X119467579Y-93013700D01*
X119612422Y-93013700D01*
X119612422Y-93013699D01*
X119673143Y-92995870D01*
X119751391Y-92972896D01*
X119751392Y-92972895D01*
X119751396Y-92972894D01*
X119873246Y-92894586D01*
X119874606Y-92893017D01*
X119968094Y-92785125D01*
X119968095Y-92785123D01*
X119968097Y-92785121D01*
X120028267Y-92653368D01*
X120048880Y-92510000D01*
X120028267Y-92366632D01*
X120009520Y-92325582D01*
X119968099Y-92234882D01*
X119968094Y-92234874D01*
X119873248Y-92125415D01*
X119751391Y-92047103D01*
X119612423Y-92006300D01*
X119612421Y-92006300D01*
X119577970Y-92006300D01*
X119510931Y-91986615D01*
X119490289Y-91969981D01*
X119353019Y-91832711D01*
X119319534Y-91771388D01*
X119316700Y-91745030D01*
X119316700Y-90924499D01*
X119336385Y-90857460D01*
X119389189Y-90811705D01*
X119440700Y-90800499D01*
X119629895Y-90800499D01*
X119629898Y-90800499D01*
X119641653Y-90798161D01*
X119671193Y-90792287D01*
X119672085Y-90796773D01*
X119716760Y-90791690D01*
X119779432Y-90822578D01*
X119815456Y-90882445D01*
X119819500Y-90913854D01*
X119819500Y-91209867D01*
X119821593Y-91213493D01*
X119833980Y-91243397D01*
X119835063Y-91247442D01*
X119835065Y-91247444D01*
X119909532Y-91321913D01*
X119909538Y-91321917D01*
X120855525Y-92267904D01*
X120912556Y-92324935D01*
X120916595Y-92326017D01*
X120946509Y-92338408D01*
X120950130Y-92340499D01*
X120950132Y-92340499D01*
X120950133Y-92340500D01*
X120950134Y-92340500D01*
X122910326Y-92340500D01*
X122910327Y-92340500D01*
X122913943Y-92338411D01*
X122943862Y-92326017D01*
X122947904Y-92324935D01*
X123004935Y-92267905D01*
X123004935Y-92267904D01*
X123022371Y-92250469D01*
X123022375Y-92250462D01*
X124180430Y-91092409D01*
X124194935Y-91077904D01*
X124196017Y-91073864D01*
X124208411Y-91043944D01*
X124209449Y-91042147D01*
X124210500Y-91040327D01*
X124210501Y-90959674D01*
X124210500Y-90959672D01*
X124210500Y-90673739D01*
X124230185Y-90606700D01*
X124282989Y-90560945D01*
X124310306Y-90552123D01*
X124336888Y-90546836D01*
X124414786Y-90494786D01*
X124466836Y-90416888D01*
X124480500Y-90348196D01*
X124480500Y-90031804D01*
X124474802Y-90003157D01*
X124481028Y-89933569D01*
X124523890Y-89878391D01*
X124533299Y-89872234D01*
X124637288Y-89810736D01*
X124637294Y-89810731D01*
X124750731Y-89697294D01*
X124750738Y-89697285D01*
X124832404Y-89559194D01*
X124872844Y-89420000D01*
X123247156Y-89420000D01*
X123287595Y-89559194D01*
X123369261Y-89697285D01*
X123369268Y-89697294D01*
X123482705Y-89810731D01*
X123482713Y-89810737D01*
X123586701Y-89872235D01*
X123634384Y-89923304D01*
X123646888Y-89992045D01*
X123645198Y-90003157D01*
X123645144Y-90003429D01*
X123639500Y-90031804D01*
X123639500Y-90348196D01*
X123639500Y-90348198D01*
X123639499Y-90348198D01*
X123653162Y-90416884D01*
X123653163Y-90416886D01*
X123653164Y-90416888D01*
X123705214Y-90494786D01*
X123783112Y-90546836D01*
X123809690Y-90552122D01*
X123871601Y-90584506D01*
X123906176Y-90645221D01*
X123909500Y-90673740D01*
X123909500Y-90886297D01*
X123889815Y-90953336D01*
X123873181Y-90973978D01*
X123382181Y-91464978D01*
X123320858Y-91498463D01*
X123251166Y-91493479D01*
X123195233Y-91451607D01*
X123170816Y-91386143D01*
X123170500Y-91377297D01*
X123170500Y-90300335D01*
X123170499Y-90300324D01*
X123162849Y-90239769D01*
X123155545Y-90181955D01*
X123096903Y-90033840D01*
X123003268Y-89904963D01*
X122880524Y-89803420D01*
X122880522Y-89803419D01*
X122880521Y-89803418D01*
X122736384Y-89735593D01*
X122579904Y-89705743D01*
X122579900Y-89705743D01*
X122420915Y-89715746D01*
X122269414Y-89764971D01*
X122264476Y-89768105D01*
X122134910Y-89850330D01*
X122134908Y-89850332D01*
X122134905Y-89850334D01*
X122025863Y-89966452D01*
X122025857Y-89966460D01*
X121949118Y-90106049D01*
X121949115Y-90106057D01*
X121909500Y-90260346D01*
X121909500Y-91029655D01*
X121889815Y-91096694D01*
X121837011Y-91142449D01*
X121767853Y-91152393D01*
X121704297Y-91123368D01*
X121680804Y-91096098D01*
X121619090Y-90998853D01*
X121619087Y-90998850D01*
X121619086Y-90998848D01*
X121498356Y-90885474D01*
X121498353Y-90885472D01*
X121498350Y-90885470D01*
X121353227Y-90805688D01*
X121353219Y-90805685D01*
X121263662Y-90782691D01*
X121203624Y-90746953D01*
X121172439Y-90684429D01*
X121170500Y-90662587D01*
X121170500Y-89230251D01*
X121170500Y-89129815D01*
X121170499Y-89011450D01*
X121190183Y-88944414D01*
X121216824Y-88920000D01*
X123247156Y-88920000D01*
X123809999Y-88920000D01*
X123809999Y-88400068D01*
X124310000Y-88400068D01*
X124310000Y-88920000D01*
X124872844Y-88920000D01*
X124832404Y-88780805D01*
X124750738Y-88642714D01*
X124750731Y-88642705D01*
X124637294Y-88529268D01*
X124637285Y-88529261D01*
X124499191Y-88447593D01*
X124499188Y-88447592D01*
X124345130Y-88402834D01*
X124310000Y-88400068D01*
X123809999Y-88400068D01*
X123774869Y-88402834D01*
X123774868Y-88402834D01*
X123620811Y-88447592D01*
X123620808Y-88447593D01*
X123482714Y-88529261D01*
X123482705Y-88529268D01*
X123369268Y-88642705D01*
X123369261Y-88642714D01*
X123287595Y-88780805D01*
X123247156Y-88920000D01*
X121216824Y-88920000D01*
X121236793Y-88901700D01*
X121242482Y-88898709D01*
X121276699Y-88869386D01*
X121287206Y-88864657D01*
X121305842Y-88844877D01*
X121310630Y-88840309D01*
X121311930Y-88839194D01*
X121318341Y-88831611D01*
X121586068Y-88547444D01*
X121600824Y-88534109D01*
X121721506Y-88441506D01*
X121742820Y-88413727D01*
X121748161Y-88407637D01*
X122235292Y-87920508D01*
X122306238Y-87828050D01*
X122330792Y-87768768D01*
X122355101Y-87731191D01*
X122419064Y-87663302D01*
X122419065Y-87663301D01*
X122419068Y-87663297D01*
X122419076Y-87663289D01*
X122425252Y-87656096D01*
X122442232Y-87634369D01*
X122477490Y-87565724D01*
X122497175Y-87498685D01*
X122505500Y-87440787D01*
X122505500Y-87141544D01*
X122504067Y-87127560D01*
X122501233Y-87099891D01*
X122501232Y-87099888D01*
X122501231Y-87099873D01*
X122491033Y-87050627D01*
X122489155Y-87042412D01*
X122447768Y-86960856D01*
X122410524Y-86916096D01*
X122403086Y-86907157D01*
X122403078Y-86907148D01*
X122385848Y-86888845D01*
X122385845Y-86888843D01*
X122306941Y-86842611D01*
X122306939Y-86842610D01*
X122240307Y-86821590D01*
X122240302Y-86821589D01*
X122227956Y-86819561D01*
X122182589Y-86812110D01*
X122182584Y-86812109D01*
X122182576Y-86812109D01*
X121302055Y-86794500D01*
X121044500Y-86794500D01*
X120977461Y-86774815D01*
X120931706Y-86722011D01*
X120920500Y-86670500D01*
X120920500Y-86186885D01*
X120922883Y-86162691D01*
X120925408Y-86149998D01*
X120925408Y-86149997D01*
X120905967Y-86052263D01*
X120905966Y-86052259D01*
X120905966Y-86052258D01*
X120886057Y-86022463D01*
X120850601Y-85969399D01*
X120850598Y-85969397D01*
X120850598Y-85969396D01*
X120839832Y-85962203D01*
X120821042Y-85946782D01*
X119752517Y-84878257D01*
X119737094Y-84859465D01*
X119729900Y-84848698D01*
X119676836Y-84813242D01*
X119676745Y-84813181D01*
X119647041Y-84793334D01*
X119647040Y-84793333D01*
X119647039Y-84793333D01*
X119549302Y-84773892D01*
X119549299Y-84773892D01*
X119536606Y-84776417D01*
X119512414Y-84778800D01*
X119339610Y-84778800D01*
X119272571Y-84759115D01*
X119226816Y-84706311D01*
X119216872Y-84637153D01*
X119245897Y-84573597D01*
X119304675Y-84535823D01*
X119321725Y-84532096D01*
X119362319Y-84526183D01*
X119468369Y-84474339D01*
X119551839Y-84390869D01*
X119603683Y-84284819D01*
X119613700Y-84216069D01*
X119613699Y-83123932D01*
X119603683Y-83055181D01*
X119551839Y-82949131D01*
X119493016Y-82890308D01*
X119459533Y-82828988D01*
X119456699Y-82802635D01*
X119456699Y-82694087D01*
X119456935Y-82688680D01*
X119460708Y-82645566D01*
X119449503Y-82603748D01*
X119448335Y-82598481D01*
X119440817Y-82555841D01*
X119440816Y-82555839D01*
X119440816Y-82555838D01*
X119439956Y-82553475D01*
X119430134Y-82529763D01*
X119429063Y-82527465D01*
X119404234Y-82492007D01*
X119401326Y-82487443D01*
X119379684Y-82449957D01*
X119346526Y-82422134D01*
X119342537Y-82418478D01*
X119070387Y-82146328D01*
X118787617Y-81863559D01*
X118754133Y-81802237D01*
X118751299Y-81775879D01*
X118751299Y-81770499D01*
X118751299Y-81746284D01*
X118770984Y-81679248D01*
X118787613Y-81658611D01*
X120027147Y-80419077D01*
X120031119Y-80415437D01*
X120064284Y-80387610D01*
X120085928Y-80350120D01*
X120088830Y-80345566D01*
X120113663Y-80310101D01*
X120113664Y-80310100D01*
X120113664Y-80310097D01*
X120114735Y-80307802D01*
X120124549Y-80284110D01*
X120125415Y-80281730D01*
X120125415Y-80281729D01*
X120125417Y-80281726D01*
X120132937Y-80239071D01*
X120134103Y-80233816D01*
X120145308Y-80192001D01*
X120145307Y-80191998D01*
X120145725Y-80190441D01*
X120150007Y-80183415D01*
X120146523Y-80177993D01*
X120141972Y-80153865D01*
X120141536Y-80148884D01*
X120141300Y-80143478D01*
X120141300Y-79561896D01*
X120141536Y-79556490D01*
X120141638Y-79555331D01*
X120141971Y-79551509D01*
X120151896Y-79526135D01*
X120146523Y-79517774D01*
X120145726Y-79514934D01*
X120134103Y-79471561D01*
X120132936Y-79466301D01*
X120125417Y-79423653D01*
X120125416Y-79423651D01*
X120125416Y-79423650D01*
X120124556Y-79421287D01*
X120114734Y-79397575D01*
X120113663Y-79395277D01*
X120088834Y-79359819D01*
X120085926Y-79355255D01*
X120064284Y-79317769D01*
X120031121Y-79289941D01*
X120027137Y-79286290D01*
X119758330Y-79017483D01*
X119483026Y-78742180D01*
X119449542Y-78680858D01*
X119454526Y-78611167D01*
X119496397Y-78555233D01*
X119561862Y-78530816D01*
X119570708Y-78530500D01*
X119726299Y-78530500D01*
X119793338Y-78550185D01*
X119813980Y-78566819D01*
X120353181Y-79106020D01*
X120386666Y-79167343D01*
X120389500Y-79193701D01*
X120389500Y-79482839D01*
X120378258Y-79521122D01*
X120387069Y-79537884D01*
X120389500Y-79562316D01*
X120389500Y-80143058D01*
X120377770Y-80183002D01*
X120389465Y-80219586D01*
X120389500Y-80222536D01*
X120389500Y-82540327D01*
X120391593Y-82543953D01*
X120403980Y-82573857D01*
X120405063Y-82577902D01*
X120405065Y-82577904D01*
X120479532Y-82652373D01*
X120479538Y-82652377D01*
X121097610Y-83270449D01*
X121131095Y-83331772D01*
X121126111Y-83401464D01*
X121084239Y-83457397D01*
X121018775Y-83481814D01*
X120974995Y-83477107D01*
X120949088Y-83469500D01*
X120949085Y-83469500D01*
X120810915Y-83469500D01*
X120810912Y-83469500D01*
X120678343Y-83508425D01*
X120678338Y-83508427D01*
X120562108Y-83583124D01*
X120562106Y-83583126D01*
X120471621Y-83687551D01*
X120471620Y-83687552D01*
X120414222Y-83813234D01*
X120394559Y-83949999D01*
X120414222Y-84086765D01*
X120467551Y-84203537D01*
X120471621Y-84212449D01*
X120562104Y-84316872D01*
X120562106Y-84316873D01*
X120562108Y-84316875D01*
X120678338Y-84391572D01*
X120678343Y-84391574D01*
X120810912Y-84430499D01*
X120810914Y-84430500D01*
X120810915Y-84430500D01*
X120949085Y-84430500D01*
X121031997Y-84406155D01*
X121101865Y-84406155D01*
X121154612Y-84437451D01*
X125408181Y-88691020D01*
X125441666Y-88752343D01*
X125444500Y-88778701D01*
X125444500Y-89534894D01*
X125444501Y-89534902D01*
X125450330Y-89564212D01*
X125472542Y-89597457D01*
X125477968Y-89601082D01*
X125505787Y-89619669D01*
X125505790Y-89619669D01*
X125505791Y-89619670D01*
X125515647Y-89621630D01*
X125535101Y-89625500D01*
X127254898Y-89625499D01*
X127284213Y-89619669D01*
X127317457Y-89597457D01*
X127339669Y-89564213D01*
X127345500Y-89534899D01*
X127345499Y-87815102D01*
X127339669Y-87785787D01*
X127328301Y-87768773D01*
X127317457Y-87752542D01*
X127284214Y-87730332D01*
X127284215Y-87730332D01*
X127284213Y-87730331D01*
X127284211Y-87730330D01*
X127284208Y-87730329D01*
X127254901Y-87724500D01*
X125535105Y-87724500D01*
X125535097Y-87724501D01*
X125505787Y-87730330D01*
X125472542Y-87752542D01*
X125450332Y-87785785D01*
X125450329Y-87785791D01*
X125444499Y-87815098D01*
X125444500Y-88002299D01*
X125424815Y-88069338D01*
X125372011Y-88115093D01*
X125302853Y-88125037D01*
X125239297Y-88096012D01*
X125232819Y-88089980D01*
X121370233Y-84227394D01*
X121336748Y-84166071D01*
X121341732Y-84096379D01*
X121345113Y-84088218D01*
X121345777Y-84086765D01*
X121365441Y-83950000D01*
X121349324Y-83837911D01*
X121359269Y-83768752D01*
X121405024Y-83715949D01*
X121472063Y-83696264D01*
X121539103Y-83715949D01*
X121559744Y-83732583D01*
X124045065Y-86217904D01*
X124102096Y-86274935D01*
X124106135Y-86276017D01*
X124136049Y-86288408D01*
X124139670Y-86290499D01*
X124139672Y-86290499D01*
X124139673Y-86290500D01*
X124139674Y-86290500D01*
X132040326Y-86290500D01*
X132040327Y-86290500D01*
X132043943Y-86288411D01*
X132073862Y-86276017D01*
X132077904Y-86274935D01*
X132134935Y-86217905D01*
X132134935Y-86217904D01*
X132152371Y-86200469D01*
X132152375Y-86200462D01*
X132500430Y-85852409D01*
X132514935Y-85837904D01*
X132516016Y-85833865D01*
X132528411Y-85803943D01*
X132530500Y-85800327D01*
X132530500Y-85719674D01*
X132530500Y-84260186D01*
X132530500Y-84260185D01*
X132530500Y-84239673D01*
X132528407Y-84236049D01*
X132516017Y-84206137D01*
X132514935Y-84202096D01*
X132509086Y-84196247D01*
X132450845Y-84138004D01*
X132450830Y-84137991D01*
X131814516Y-83501677D01*
X131781031Y-83440354D01*
X131786015Y-83370662D01*
X131797203Y-83348025D01*
X131803122Y-83338606D01*
X131860841Y-83173657D01*
X131873461Y-83061649D01*
X131880407Y-83000003D01*
X131880407Y-82999996D01*
X131860842Y-82826351D01*
X131860841Y-82826349D01*
X131860841Y-82826343D01*
X131803122Y-82661394D01*
X131710147Y-82513424D01*
X131586576Y-82389853D01*
X131482368Y-82324375D01*
X131436078Y-82272041D01*
X131425429Y-82202988D01*
X131453805Y-82139140D01*
X131503548Y-82103755D01*
X131625982Y-82056324D01*
X131625987Y-82056322D01*
X131811130Y-81941685D01*
X131811131Y-81941685D01*
X131972054Y-81794985D01*
X132103284Y-81621208D01*
X132200348Y-81426280D01*
X132250505Y-81250000D01*
X131415686Y-81250000D01*
X131427641Y-81238045D01*
X131485165Y-81125148D01*
X131504986Y-81000000D01*
X131485165Y-80874852D01*
X131427641Y-80761955D01*
X131415686Y-80750000D01*
X132250505Y-80750000D01*
X132250505Y-80749999D01*
X132200348Y-80573719D01*
X132103284Y-80378791D01*
X131972054Y-80205014D01*
X131811131Y-80058314D01*
X131625987Y-79943677D01*
X131625979Y-79943673D01*
X131619434Y-79941138D01*
X131564033Y-79898565D01*
X131540443Y-79832798D01*
X131556155Y-79764718D01*
X131591342Y-79725195D01*
X131689050Y-79654207D01*
X131812195Y-79517440D01*
X131904214Y-79358059D01*
X131961085Y-79183029D01*
X131980322Y-79000000D01*
X131961085Y-78816971D01*
X131908295Y-78654500D01*
X131904216Y-78641946D01*
X131904213Y-78641940D01*
X131812195Y-78482560D01*
X131689050Y-78345793D01*
X131689048Y-78345791D01*
X131540165Y-78237621D01*
X131540162Y-78237619D01*
X131540161Y-78237619D01*
X131479112Y-78210438D01*
X131372038Y-78162765D01*
X131372033Y-78162763D01*
X131192019Y-78124500D01*
X131007981Y-78124500D01*
X130827966Y-78162763D01*
X130827961Y-78162765D01*
X130659839Y-78237619D01*
X130659834Y-78237621D01*
X130510951Y-78345791D01*
X130510949Y-78345793D01*
X130387804Y-78482561D01*
X130295786Y-78641940D01*
X130295783Y-78641946D01*
X130238916Y-78816967D01*
X130238915Y-78816971D01*
X130219678Y-79000000D01*
X130238915Y-79183029D01*
X130238916Y-79183032D01*
X130295783Y-79358053D01*
X130295786Y-79358059D01*
X130387805Y-79517440D01*
X130495433Y-79636974D01*
X130510949Y-79654206D01*
X130510951Y-79654208D01*
X130608655Y-79725194D01*
X130651321Y-79780524D01*
X130657300Y-79850137D01*
X130624694Y-79911932D01*
X130580568Y-79941137D01*
X130574020Y-79943673D01*
X130574012Y-79943677D01*
X130388869Y-80058314D01*
X130388868Y-80058314D01*
X130227945Y-80205014D01*
X130096715Y-80378791D01*
X129999651Y-80573719D01*
X129949494Y-80749999D01*
X129949495Y-80750000D01*
X130784314Y-80750000D01*
X130772359Y-80761955D01*
X130714835Y-80874852D01*
X130695014Y-81000000D01*
X130714835Y-81125148D01*
X130772359Y-81238045D01*
X130784314Y-81250000D01*
X129949495Y-81250000D01*
X129999651Y-81426280D01*
X130096715Y-81621208D01*
X130227945Y-81794985D01*
X130388868Y-81941685D01*
X130574012Y-82056322D01*
X130574017Y-82056324D01*
X130696451Y-82103755D01*
X130751853Y-82146328D01*
X130775444Y-82212094D01*
X130759733Y-82280175D01*
X130717630Y-82324376D01*
X130613423Y-82389853D01*
X130489853Y-82513423D01*
X130396877Y-82661395D01*
X130339159Y-82826341D01*
X130339157Y-82826351D01*
X130319593Y-82999996D01*
X130319593Y-83000003D01*
X130339157Y-83173648D01*
X130339159Y-83173658D01*
X130396877Y-83338604D01*
X130396878Y-83338606D01*
X130489853Y-83486576D01*
X130613424Y-83610147D01*
X130761394Y-83703122D01*
X130926343Y-83760841D01*
X130926349Y-83760841D01*
X130926351Y-83760842D01*
X131099996Y-83780407D01*
X131100000Y-83780407D01*
X131100004Y-83780407D01*
X131273648Y-83760842D01*
X131273647Y-83760842D01*
X131273657Y-83760841D01*
X131438606Y-83703122D01*
X131448019Y-83697206D01*
X131515252Y-83678203D01*
X131582088Y-83698566D01*
X131601677Y-83714516D01*
X131903750Y-84016589D01*
X131937235Y-84077912D01*
X131932251Y-84147604D01*
X131890379Y-84203537D01*
X131824915Y-84227954D01*
X131791882Y-84225888D01*
X131784902Y-84224500D01*
X130415105Y-84224500D01*
X130415097Y-84224501D01*
X130385787Y-84230330D01*
X130352542Y-84252542D01*
X130330332Y-84285785D01*
X130330329Y-84285791D01*
X130324500Y-84315098D01*
X130324500Y-84725500D01*
X130304815Y-84792539D01*
X130252011Y-84838294D01*
X130200500Y-84849500D01*
X125523701Y-84849500D01*
X125456662Y-84829815D01*
X125436020Y-84813181D01*
X122806819Y-82183980D01*
X122773334Y-82122657D01*
X122770500Y-82096299D01*
X122770500Y-81781801D01*
X122756837Y-81713115D01*
X122756836Y-81713114D01*
X122756836Y-81713112D01*
X122704786Y-81635214D01*
X122626888Y-81583164D01*
X122626886Y-81583163D01*
X122626884Y-81583162D01*
X122558198Y-81569500D01*
X122558196Y-81569500D01*
X122241804Y-81569500D01*
X122241802Y-81569500D01*
X122173115Y-81583162D01*
X122173112Y-81583164D01*
X122095214Y-81635214D01*
X122043164Y-81713112D01*
X122043162Y-81713115D01*
X122029500Y-81781801D01*
X122029500Y-81781803D01*
X122029500Y-81781804D01*
X122029500Y-82198196D01*
X122029500Y-82198198D01*
X122029499Y-82198198D01*
X122043162Y-82266884D01*
X122043163Y-82266886D01*
X122043164Y-82266888D01*
X122095214Y-82344786D01*
X122173112Y-82396836D01*
X122173114Y-82396836D01*
X122173115Y-82396837D01*
X122241801Y-82410500D01*
X122556299Y-82410500D01*
X122623338Y-82430185D01*
X122643980Y-82446819D01*
X125275065Y-85077904D01*
X125332096Y-85134935D01*
X125336135Y-85136017D01*
X125366049Y-85148408D01*
X125368425Y-85149779D01*
X125369673Y-85150500D01*
X125450326Y-85150501D01*
X125450328Y-85150500D01*
X130200501Y-85150500D01*
X130267540Y-85170185D01*
X130313295Y-85222989D01*
X130324501Y-85274500D01*
X130324501Y-85684902D01*
X130330330Y-85714212D01*
X130352543Y-85747458D01*
X130374901Y-85762396D01*
X130419708Y-85816006D01*
X130428418Y-85885331D01*
X130398265Y-85948360D01*
X130338823Y-85985081D01*
X130306014Y-85989500D01*
X124293701Y-85989500D01*
X124226662Y-85969815D01*
X124206020Y-85953181D01*
X120726819Y-82473980D01*
X120693334Y-82412657D01*
X120690500Y-82386299D01*
X120690500Y-81812701D01*
X120710185Y-81745662D01*
X120762989Y-81699907D01*
X120832147Y-81689963D01*
X120895703Y-81718988D01*
X120902174Y-81725014D01*
X120973180Y-81796020D01*
X121006665Y-81857342D01*
X121009499Y-81883700D01*
X121009499Y-82198198D01*
X121023162Y-82266884D01*
X121023163Y-82266886D01*
X121023164Y-82266888D01*
X121075214Y-82344786D01*
X121153112Y-82396836D01*
X121153114Y-82396836D01*
X121153115Y-82396837D01*
X121221801Y-82410500D01*
X121221804Y-82410500D01*
X121538198Y-82410500D01*
X121606884Y-82396837D01*
X121606884Y-82396836D01*
X121606888Y-82396836D01*
X121684786Y-82344786D01*
X121736836Y-82266888D01*
X121746523Y-82218189D01*
X121750500Y-82198198D01*
X121750500Y-81781801D01*
X121736837Y-81713115D01*
X121736836Y-81713114D01*
X121736836Y-81713112D01*
X121684786Y-81635214D01*
X121606888Y-81583164D01*
X121606886Y-81583163D01*
X121606884Y-81583162D01*
X121538198Y-81569500D01*
X121538196Y-81569500D01*
X121223703Y-81569500D01*
X121156664Y-81549815D01*
X121136022Y-81533181D01*
X121086818Y-81483977D01*
X121053333Y-81422654D01*
X121050499Y-81396296D01*
X121050500Y-80177993D01*
X121050500Y-79160000D01*
X121335496Y-79160000D01*
X121889999Y-79160000D01*
X121889999Y-78631208D01*
X121869090Y-78632854D01*
X121869078Y-78632856D01*
X121713809Y-78677966D01*
X121713804Y-78677968D01*
X121574625Y-78760278D01*
X121574616Y-78760285D01*
X121460285Y-78874616D01*
X121460278Y-78874625D01*
X121377968Y-79013804D01*
X121335496Y-79160000D01*
X121050500Y-79160000D01*
X121050500Y-78910186D01*
X121050500Y-78889673D01*
X121048407Y-78886049D01*
X121036017Y-78856137D01*
X121034935Y-78852096D01*
X121030052Y-78847213D01*
X120970845Y-78788004D01*
X120970830Y-78787991D01*
X119975020Y-77792181D01*
X119941535Y-77730858D01*
X119946519Y-77661166D01*
X119988391Y-77605233D01*
X120053855Y-77580816D01*
X120062701Y-77580500D01*
X121686608Y-77580500D01*
X121753647Y-77600185D01*
X121787536Y-77634421D01*
X121787912Y-77634122D01*
X121790695Y-77637612D01*
X121791600Y-77638526D01*
X121792252Y-77639564D01*
X121797797Y-77645109D01*
X121802433Y-77650296D01*
X121821775Y-77674549D01*
X121832698Y-77683260D01*
X121832206Y-77683876D01*
X121847212Y-77694523D01*
X121965480Y-77812792D01*
X121976121Y-77827789D01*
X121976737Y-77827299D01*
X121985449Y-77838223D01*
X121985450Y-77838224D01*
X122009697Y-77857561D01*
X122014880Y-77862193D01*
X122020432Y-77867745D01*
X122020435Y-77867747D01*
X122020436Y-77867748D01*
X122027075Y-77871919D01*
X122032753Y-77875947D01*
X122057007Y-77895290D01*
X122057011Y-77895290D01*
X122067412Y-77900300D01*
X122078312Y-77904114D01*
X122078314Y-77904115D01*
X122104669Y-77907084D01*
X122109133Y-77907587D01*
X122115993Y-77908753D01*
X122122154Y-77910158D01*
X122123648Y-77910500D01*
X122131504Y-77910500D01*
X122138443Y-77910889D01*
X122169264Y-77914362D01*
X122183145Y-77912798D01*
X122183233Y-77913581D01*
X122201369Y-77910500D01*
X122657373Y-77910500D01*
X122724412Y-77930185D01*
X122770167Y-77982989D01*
X122780111Y-78052147D01*
X122751086Y-78115703D01*
X122731684Y-78133766D01*
X122652812Y-78192809D01*
X122652809Y-78192812D01*
X122566649Y-78307906D01*
X122566645Y-78307913D01*
X122516403Y-78442620D01*
X122516401Y-78442627D01*
X122510000Y-78502155D01*
X122510000Y-78506510D01*
X122490315Y-78573549D01*
X122437511Y-78619304D01*
X122394692Y-78626872D01*
X122389999Y-78631210D01*
X122390000Y-79536000D01*
X122370315Y-79603039D01*
X122317511Y-79648794D01*
X122266000Y-79660000D01*
X121335496Y-79660000D01*
X121377968Y-79806195D01*
X121460278Y-79945374D01*
X121460285Y-79945383D01*
X121574616Y-80059714D01*
X121574625Y-80059721D01*
X121668621Y-80115310D01*
X121716305Y-80166379D01*
X121729500Y-80222042D01*
X121729500Y-80533692D01*
X121743452Y-80603834D01*
X121743453Y-80603837D01*
X121743454Y-80603839D01*
X121796609Y-80683391D01*
X121876161Y-80736546D01*
X121876164Y-80736546D01*
X121876165Y-80736547D01*
X121946307Y-80750499D01*
X121946310Y-80750500D01*
X121946312Y-80750500D01*
X122333690Y-80750500D01*
X122333691Y-80750499D01*
X122403839Y-80736546D01*
X122483391Y-80683391D01*
X122536546Y-80603839D01*
X122550500Y-80533688D01*
X122550500Y-80374500D01*
X122570185Y-80307461D01*
X122622989Y-80261706D01*
X122674500Y-80250500D01*
X122785501Y-80250500D01*
X122852540Y-80270185D01*
X122898295Y-80322989D01*
X122909501Y-80374500D01*
X122909501Y-80459902D01*
X122915330Y-80489212D01*
X122937542Y-80522457D01*
X122954219Y-80533599D01*
X122970787Y-80544669D01*
X122970790Y-80544669D01*
X122970791Y-80544670D01*
X122980647Y-80546630D01*
X123000101Y-80550500D01*
X123827741Y-80550499D01*
X123894780Y-80570183D01*
X123940535Y-80622987D01*
X123943923Y-80631165D01*
X123966646Y-80692087D01*
X123966649Y-80692093D01*
X124052809Y-80807187D01*
X124052812Y-80807190D01*
X124167906Y-80893350D01*
X124167913Y-80893354D01*
X124302620Y-80943596D01*
X124302627Y-80943598D01*
X124362155Y-80949999D01*
X124362172Y-80950000D01*
X124609999Y-80950000D01*
X124610000Y-79924000D01*
X124629685Y-79856961D01*
X124682489Y-79811206D01*
X124734000Y-79800000D01*
X124986000Y-79800000D01*
X125053039Y-79819685D01*
X125098794Y-79872489D01*
X125110000Y-79924000D01*
X125110000Y-80950000D01*
X125357828Y-80950000D01*
X125357844Y-80949999D01*
X125417372Y-80943598D01*
X125417376Y-80943597D01*
X125430927Y-80938543D01*
X125500618Y-80933556D01*
X125561942Y-80967039D01*
X125561946Y-80967043D01*
X125594616Y-80999714D01*
X125594625Y-80999721D01*
X125733804Y-81082031D01*
X125889089Y-81127145D01*
X125910000Y-81128789D01*
X126409998Y-81128789D01*
X126430917Y-81127144D01*
X126430919Y-81127144D01*
X126586189Y-81082033D01*
X126586195Y-81082031D01*
X126725374Y-80999721D01*
X126725383Y-80999714D01*
X126839714Y-80885383D01*
X126839721Y-80885374D01*
X126922031Y-80746195D01*
X126964504Y-80600000D01*
X126409999Y-80600000D01*
X126409998Y-81128789D01*
X125910000Y-81128789D01*
X125910000Y-80224000D01*
X125929685Y-80156961D01*
X125982489Y-80111206D01*
X126034000Y-80100000D01*
X126964504Y-80100000D01*
X126922031Y-79953804D01*
X126839721Y-79814625D01*
X126839714Y-79814616D01*
X126725383Y-79700285D01*
X126725377Y-79700281D01*
X126631378Y-79644689D01*
X126583695Y-79593619D01*
X126570500Y-79537957D01*
X126570500Y-79226309D01*
X126570499Y-79226307D01*
X126556547Y-79156165D01*
X126556546Y-79156164D01*
X126556546Y-79156161D01*
X126503391Y-79076609D01*
X126423839Y-79023454D01*
X126423837Y-79023453D01*
X126423834Y-79023452D01*
X126353691Y-79009500D01*
X126353688Y-79009500D01*
X126114411Y-79009500D01*
X126047372Y-78989815D01*
X126026730Y-78973181D01*
X125900762Y-78847213D01*
X125890114Y-78832206D01*
X125889498Y-78832698D01*
X125880787Y-78821775D01*
X125856534Y-78802433D01*
X125851347Y-78797797D01*
X125845801Y-78792251D01*
X125839160Y-78788078D01*
X125833489Y-78784055D01*
X125809229Y-78764708D01*
X125798833Y-78759702D01*
X125787926Y-78755885D01*
X125787924Y-78755884D01*
X125787920Y-78755883D01*
X125787919Y-78755883D01*
X125757100Y-78752411D01*
X125750245Y-78751246D01*
X125742592Y-78749500D01*
X125742590Y-78749500D01*
X125734743Y-78749500D01*
X125727797Y-78749110D01*
X125696972Y-78745637D01*
X125683092Y-78747202D01*
X125683003Y-78746418D01*
X125664868Y-78749500D01*
X125534499Y-78749500D01*
X125467460Y-78729815D01*
X125421705Y-78677011D01*
X125410499Y-78625500D01*
X125410499Y-78540105D01*
X125410498Y-78540097D01*
X125404669Y-78510787D01*
X125382457Y-78477542D01*
X125349214Y-78455332D01*
X125349215Y-78455332D01*
X125349213Y-78455331D01*
X125349211Y-78455330D01*
X125349208Y-78455329D01*
X125319901Y-78449500D01*
X125319899Y-78449500D01*
X125034411Y-78449500D01*
X124967372Y-78429815D01*
X124946730Y-78413181D01*
X124239419Y-77705870D01*
X124205934Y-77644547D01*
X124210918Y-77574855D01*
X124226822Y-77553608D01*
X124211224Y-77566628D01*
X124141894Y-77575289D01*
X124078886Y-77545093D01*
X124074129Y-77540580D01*
X123846818Y-77313269D01*
X123813333Y-77251946D01*
X123810499Y-77225588D01*
X123810499Y-77131294D01*
X123810500Y-76981804D01*
X123810499Y-76981801D01*
X123810500Y-76981801D01*
X123796837Y-76913115D01*
X123796836Y-76913114D01*
X123796836Y-76913112D01*
X123744786Y-76835214D01*
X123666888Y-76783164D01*
X123666886Y-76783163D01*
X123666884Y-76783162D01*
X123598198Y-76769500D01*
X123598196Y-76769500D01*
X123281804Y-76769500D01*
X123281802Y-76769500D01*
X123213115Y-76783162D01*
X123213112Y-76783164D01*
X123135214Y-76835214D01*
X123083164Y-76913112D01*
X123083162Y-76913115D01*
X123069500Y-76981801D01*
X123069500Y-77385500D01*
X123049815Y-77452539D01*
X122997011Y-77498294D01*
X122945500Y-77509500D01*
X122914500Y-77509500D01*
X122847461Y-77489815D01*
X122801706Y-77437011D01*
X122790500Y-77385500D01*
X122790500Y-76981801D01*
X122776837Y-76913115D01*
X122776836Y-76913114D01*
X122776836Y-76913112D01*
X122724786Y-76835214D01*
X122646888Y-76783164D01*
X122646886Y-76783163D01*
X122646884Y-76783162D01*
X122578198Y-76769500D01*
X122578196Y-76769500D01*
X122336403Y-76769500D01*
X122269364Y-76749815D01*
X122259085Y-76742443D01*
X122246531Y-76732431D01*
X122241346Y-76727796D01*
X122235801Y-76722251D01*
X122229160Y-76718078D01*
X122223489Y-76714055D01*
X122199229Y-76694708D01*
X122188833Y-76689702D01*
X122177926Y-76685885D01*
X122177924Y-76685884D01*
X122177920Y-76685883D01*
X122177919Y-76685883D01*
X122147100Y-76682411D01*
X122140245Y-76681246D01*
X122132592Y-76679500D01*
X122132590Y-76679500D01*
X122124743Y-76679500D01*
X122117797Y-76679110D01*
X122086972Y-76675637D01*
X122073092Y-76677202D01*
X122073003Y-76676418D01*
X122054868Y-76679500D01*
X121835187Y-76679500D01*
X121768148Y-76659815D01*
X121722393Y-76607011D01*
X121712449Y-76537853D01*
X121718733Y-76520000D01*
X124110001Y-76520000D01*
X124110001Y-76969986D01*
X124120494Y-77072697D01*
X124175641Y-77239119D01*
X124175643Y-77239124D01*
X124267349Y-77387802D01*
X124285789Y-77455195D01*
X124267510Y-77513431D01*
X124318254Y-77494505D01*
X124386527Y-77509357D01*
X124392197Y-77512650D01*
X124540875Y-77604356D01*
X124540880Y-77604358D01*
X124707302Y-77659505D01*
X124707309Y-77659506D01*
X124810019Y-77669999D01*
X124934999Y-77669999D01*
X124935000Y-77669998D01*
X124935000Y-76520000D01*
X125435000Y-76520000D01*
X125435000Y-77669999D01*
X125559972Y-77669999D01*
X125559986Y-77669998D01*
X125662697Y-77659505D01*
X125829119Y-77604358D01*
X125829124Y-77604356D01*
X125978345Y-77512315D01*
X126102315Y-77388345D01*
X126194356Y-77239124D01*
X126194358Y-77239119D01*
X126249505Y-77072697D01*
X126249506Y-77072690D01*
X126259999Y-76969986D01*
X126260000Y-76969973D01*
X126260000Y-76520000D01*
X125435000Y-76520000D01*
X124935000Y-76520000D01*
X124110001Y-76520000D01*
X121718733Y-76520000D01*
X121728455Y-76492379D01*
X121772031Y-76418695D01*
X121772033Y-76418690D01*
X121817144Y-76263418D01*
X121817145Y-76263412D01*
X121818790Y-76242500D01*
X120914000Y-76242500D01*
X120846961Y-76222815D01*
X120801206Y-76170011D01*
X120790000Y-76118500D01*
X120790000Y-74896500D01*
X120809685Y-74829461D01*
X120862489Y-74783706D01*
X120914000Y-74772500D01*
X121166000Y-74772500D01*
X121233039Y-74792185D01*
X121278794Y-74844989D01*
X121290000Y-74896500D01*
X121290000Y-75742500D01*
X121818790Y-75742500D01*
X121817145Y-75721589D01*
X121772031Y-75566303D01*
X121768934Y-75559146D01*
X121771406Y-75558075D01*
X121757400Y-75502929D01*
X121770964Y-75456732D01*
X121768934Y-75455854D01*
X121772031Y-75448696D01*
X121817144Y-75293413D01*
X121818284Y-75287176D01*
X121820098Y-75287507D01*
X121841829Y-75230451D01*
X121898050Y-75188966D01*
X121967774Y-75184462D01*
X122014892Y-75206177D01*
X122077911Y-75253352D01*
X122077913Y-75253354D01*
X122212620Y-75303596D01*
X122212627Y-75303598D01*
X122272155Y-75309999D01*
X122272172Y-75310000D01*
X122820000Y-75310000D01*
X123320000Y-75310000D01*
X123867828Y-75310000D01*
X123867844Y-75309999D01*
X123927372Y-75303598D01*
X123927380Y-75303596D01*
X123967198Y-75288745D01*
X124036890Y-75283759D01*
X124098213Y-75317244D01*
X124131699Y-75378567D01*
X124128240Y-75443927D01*
X124120495Y-75467300D01*
X124120493Y-75467309D01*
X124110000Y-75570013D01*
X124110000Y-76020000D01*
X126307242Y-76020000D01*
X126374281Y-76039684D01*
X126408341Y-76061573D01*
X126408344Y-76061574D01*
X126408343Y-76061574D01*
X126485923Y-76084353D01*
X126539842Y-76100185D01*
X126540912Y-76100499D01*
X126540914Y-76100500D01*
X126540915Y-76100500D01*
X126679086Y-76100500D01*
X126679086Y-76100499D01*
X126811659Y-76061573D01*
X126927896Y-75986872D01*
X127018379Y-75882449D01*
X127075777Y-75756765D01*
X127095441Y-75620000D01*
X127075777Y-75483235D01*
X127072901Y-75476938D01*
X127041016Y-75407119D01*
X127018379Y-75357551D01*
X126927896Y-75253128D01*
X126927893Y-75253126D01*
X126927894Y-75253126D01*
X126905625Y-75238815D01*
X126859871Y-75186011D01*
X126849927Y-75116853D01*
X126878952Y-75053297D01*
X126937730Y-75015523D01*
X126972665Y-75010500D01*
X127500365Y-75010500D01*
X127567404Y-75030185D01*
X127613159Y-75082989D01*
X127623103Y-75152147D01*
X127594078Y-75215703D01*
X127573998Y-75234270D01*
X127487851Y-75297848D01*
X127407207Y-75407117D01*
X127407206Y-75407119D01*
X127362353Y-75535298D01*
X127362353Y-75535300D01*
X127359500Y-75565730D01*
X127359500Y-76974269D01*
X127362353Y-77004699D01*
X127362353Y-77004701D01*
X127406651Y-77131294D01*
X127407207Y-77132882D01*
X127487850Y-77242150D01*
X127597118Y-77322793D01*
X127639845Y-77337743D01*
X127725299Y-77367646D01*
X127755730Y-77370500D01*
X127755734Y-77370500D01*
X128514270Y-77370500D01*
X128544699Y-77367646D01*
X128544701Y-77367646D01*
X128625653Y-77339319D01*
X128672882Y-77322793D01*
X128782150Y-77242150D01*
X128862793Y-77132882D01*
X128888290Y-77060016D01*
X128907646Y-77004701D01*
X128907646Y-77004699D01*
X128910500Y-76974269D01*
X128910500Y-75565730D01*
X128908087Y-75540000D01*
X130149901Y-75540000D01*
X130168252Y-75726331D01*
X130168253Y-75726333D01*
X130222604Y-75905502D01*
X130310862Y-76070623D01*
X130310864Y-76070626D01*
X130429642Y-76215357D01*
X130574373Y-76334135D01*
X130574376Y-76334137D01*
X130732575Y-76418695D01*
X130739499Y-76422396D01*
X130918666Y-76476746D01*
X130918668Y-76476747D01*
X130935374Y-76478392D01*
X131105000Y-76495099D01*
X131291331Y-76476747D01*
X131470501Y-76422396D01*
X131635625Y-76334136D01*
X131780357Y-76215357D01*
X131899136Y-76070625D01*
X131987396Y-75905501D01*
X132041747Y-75726331D01*
X132060099Y-75540000D01*
X132042503Y-75361347D01*
X132041747Y-75353668D01*
X132041746Y-75353666D01*
X132031300Y-75319229D01*
X131987396Y-75174499D01*
X131971008Y-75143839D01*
X131899137Y-75009376D01*
X131899135Y-75009373D01*
X131780357Y-74864642D01*
X131635626Y-74745864D01*
X131635623Y-74745862D01*
X131470502Y-74657604D01*
X131291333Y-74603253D01*
X131291331Y-74603252D01*
X131105000Y-74584901D01*
X130918668Y-74603252D01*
X130918666Y-74603253D01*
X130739497Y-74657604D01*
X130574376Y-74745862D01*
X130574373Y-74745864D01*
X130429642Y-74864642D01*
X130310864Y-75009373D01*
X130310862Y-75009376D01*
X130222604Y-75174497D01*
X130168253Y-75353666D01*
X130168252Y-75353668D01*
X130149901Y-75540000D01*
X128908087Y-75540000D01*
X128907646Y-75535300D01*
X128907646Y-75535298D01*
X128862793Y-75407119D01*
X128862792Y-75407117D01*
X128861874Y-75405873D01*
X128782150Y-75297850D01*
X128716249Y-75249213D01*
X128685866Y-75226789D01*
X128643615Y-75171141D01*
X128635500Y-75127019D01*
X128635500Y-74342142D01*
X128638334Y-74315784D01*
X128639359Y-74311071D01*
X128639358Y-74311070D01*
X128635656Y-74259327D01*
X128635499Y-74254899D01*
X128635499Y-74249815D01*
X128635500Y-74239201D01*
X128633264Y-74223654D01*
X128632791Y-74219255D01*
X128629091Y-74167517D01*
X128628316Y-74165441D01*
X128620500Y-74122111D01*
X128620500Y-72790249D01*
X128620499Y-72790247D01*
X128608868Y-72731770D01*
X128608867Y-72731769D01*
X128564552Y-72665447D01*
X128498230Y-72621132D01*
X128498229Y-72621131D01*
X128439752Y-72609500D01*
X128439748Y-72609500D01*
X128294500Y-72609500D01*
X128227461Y-72589815D01*
X128181706Y-72537011D01*
X128170500Y-72485500D01*
X128170500Y-72334667D01*
X128171762Y-72317020D01*
X128172771Y-72310000D01*
X128175647Y-72290000D01*
X128155165Y-72147543D01*
X128095377Y-72016627D01*
X128001128Y-71907857D01*
X127880053Y-71830047D01*
X127880051Y-71830046D01*
X127880049Y-71830045D01*
X127880050Y-71830045D01*
X127741963Y-71789500D01*
X127741961Y-71789500D01*
X127598039Y-71789500D01*
X127598036Y-71789500D01*
X127459949Y-71830045D01*
X127338873Y-71907856D01*
X127338872Y-71907856D01*
X127338872Y-71907857D01*
X127336548Y-71910539D01*
X127244623Y-72016626D01*
X127244622Y-72016628D01*
X127184834Y-72147543D01*
X127164353Y-72290000D01*
X127168238Y-72317020D01*
X127169500Y-72334667D01*
X127169500Y-72485500D01*
X127149815Y-72552539D01*
X127097011Y-72598294D01*
X127045500Y-72609500D01*
X126900247Y-72609500D01*
X126841770Y-72621131D01*
X126841769Y-72621132D01*
X126775447Y-72665447D01*
X126731132Y-72731769D01*
X126731131Y-72731770D01*
X126719500Y-72790247D01*
X126719500Y-74829752D01*
X126731131Y-74888229D01*
X126731132Y-74888230D01*
X126770140Y-74946609D01*
X126791018Y-75013286D01*
X126772534Y-75080666D01*
X126720555Y-75127357D01*
X126667038Y-75139500D01*
X126540911Y-75139500D01*
X126458002Y-75163844D01*
X126388132Y-75163844D01*
X126335387Y-75132548D01*
X126221492Y-75018653D01*
X126188007Y-74957330D01*
X126192991Y-74887638D01*
X126206069Y-74862084D01*
X126214669Y-74849213D01*
X126220500Y-74819899D01*
X126220499Y-72800102D01*
X126214669Y-72770787D01*
X126208902Y-72762155D01*
X126192457Y-72737542D01*
X126159214Y-72715332D01*
X126159215Y-72715332D01*
X126159213Y-72715331D01*
X126159211Y-72715330D01*
X126159208Y-72715329D01*
X126129901Y-72709500D01*
X126129899Y-72709500D01*
X125939839Y-72709500D01*
X125872800Y-72689815D01*
X125827045Y-72637011D01*
X125817101Y-72567853D01*
X125823696Y-72545389D01*
X125823280Y-72545267D01*
X125825775Y-72536768D01*
X125825777Y-72536765D01*
X125845441Y-72400000D01*
X125827102Y-72272449D01*
X125825777Y-72263234D01*
X125787849Y-72180185D01*
X125768379Y-72137551D01*
X125677896Y-72033128D01*
X125677893Y-72033126D01*
X125677891Y-72033124D01*
X125561661Y-71958427D01*
X125561656Y-71958425D01*
X125429087Y-71919500D01*
X125429085Y-71919500D01*
X125290915Y-71919500D01*
X125290912Y-71919500D01*
X125158343Y-71958425D01*
X125158338Y-71958427D01*
X125042108Y-72033124D01*
X125042106Y-72033126D01*
X124951621Y-72137551D01*
X124951620Y-72137552D01*
X124894222Y-72263234D01*
X124874559Y-72400000D01*
X124894223Y-72536766D01*
X124896721Y-72545274D01*
X124894665Y-72545877D01*
X124902897Y-72603153D01*
X124873869Y-72666707D01*
X124815089Y-72704479D01*
X124780161Y-72709500D01*
X124610105Y-72709500D01*
X124610097Y-72709501D01*
X124580787Y-72715330D01*
X124547542Y-72737543D01*
X124539079Y-72750209D01*
X124485466Y-72795014D01*
X124416141Y-72803721D01*
X124353114Y-72773566D01*
X124316395Y-72714123D01*
X124315298Y-72709822D01*
X124313597Y-72702621D01*
X124263354Y-72567913D01*
X124263350Y-72567906D01*
X124177190Y-72452812D01*
X124177187Y-72452809D01*
X124062093Y-72366649D01*
X124062086Y-72366645D01*
X123927379Y-72316403D01*
X123927372Y-72316401D01*
X123867844Y-72310000D01*
X123320000Y-72310000D01*
X123320000Y-75310000D01*
X122820000Y-75310000D01*
X122820000Y-74060000D01*
X121820000Y-74060000D01*
X121820000Y-74288040D01*
X121800315Y-74355079D01*
X121747511Y-74400834D01*
X121678353Y-74410778D01*
X121614797Y-74381753D01*
X121608319Y-74375721D01*
X121575383Y-74342785D01*
X121575374Y-74342778D01*
X121436196Y-74260469D01*
X121280909Y-74215354D01*
X121244639Y-74212500D01*
X121244500Y-74212500D01*
X121177461Y-74192815D01*
X121131706Y-74140011D01*
X121120500Y-74088500D01*
X121120500Y-73560000D01*
X121820000Y-73560000D01*
X122820000Y-73560000D01*
X122820000Y-72310000D01*
X122272155Y-72310000D01*
X122212627Y-72316401D01*
X122212620Y-72316403D01*
X122077913Y-72366645D01*
X122077906Y-72366649D01*
X121962812Y-72452809D01*
X121962809Y-72452812D01*
X121876649Y-72567906D01*
X121876645Y-72567913D01*
X121826403Y-72702620D01*
X121826401Y-72702627D01*
X121820000Y-72762155D01*
X121820000Y-73560000D01*
X121120500Y-73560000D01*
X121120500Y-72910026D01*
X121140185Y-72842987D01*
X121177460Y-72805711D01*
X121237896Y-72766872D01*
X121328379Y-72662449D01*
X121385777Y-72536765D01*
X121405441Y-72400000D01*
X121387102Y-72272449D01*
X121385777Y-72263234D01*
X121347849Y-72180185D01*
X121328379Y-72137551D01*
X121237896Y-72033128D01*
X121237893Y-72033126D01*
X121237891Y-72033124D01*
X121121661Y-71958427D01*
X121121656Y-71958425D01*
X120989087Y-71919500D01*
X120989085Y-71919500D01*
X120850915Y-71919500D01*
X120850912Y-71919500D01*
X120718343Y-71958425D01*
X120718338Y-71958427D01*
X120602108Y-72033124D01*
X120602106Y-72033126D01*
X120511621Y-72137551D01*
X120511620Y-72137552D01*
X120454222Y-72263234D01*
X120434559Y-72400000D01*
X120454222Y-72536765D01*
X120500004Y-72637011D01*
X120511621Y-72662449D01*
X120602104Y-72766872D01*
X120602106Y-72766873D01*
X120602106Y-72766874D01*
X120635418Y-72788281D01*
X120662539Y-72805711D01*
X120708294Y-72858513D01*
X120719500Y-72910026D01*
X120719500Y-74048088D01*
X120699815Y-74115127D01*
X120683181Y-74135769D01*
X120243270Y-74575681D01*
X120181947Y-74609166D01*
X120155589Y-74612000D01*
X119916309Y-74612000D01*
X119846165Y-74625952D01*
X119846161Y-74625954D01*
X119766609Y-74679109D01*
X119713454Y-74758661D01*
X119713452Y-74758665D01*
X119699500Y-74828807D01*
X119699500Y-75216192D01*
X119713452Y-75286334D01*
X119713453Y-75286337D01*
X119713454Y-75286339D01*
X119766609Y-75365891D01*
X119824239Y-75404398D01*
X119869043Y-75458011D01*
X119877750Y-75527336D01*
X119847595Y-75590363D01*
X119824239Y-75610601D01*
X119766609Y-75649109D01*
X119766607Y-75649110D01*
X119756456Y-75655894D01*
X119754530Y-75653013D01*
X119711214Y-75676666D01*
X119684856Y-75679500D01*
X119046975Y-75679500D01*
X118998745Y-75665338D01*
X118997381Y-75668631D01*
X118986097Y-75663957D01*
X118938554Y-75654500D01*
X118938552Y-75654500D01*
X118334126Y-75654500D01*
X118267087Y-75634815D01*
X118234859Y-75604811D01*
X118192188Y-75547810D01*
X118135188Y-75505139D01*
X118093318Y-75449205D01*
X118085500Y-75405873D01*
X118085500Y-74801445D01*
X118076043Y-74753904D01*
X118071369Y-74742620D01*
X118074895Y-74741159D01*
X118060519Y-74695215D01*
X118060500Y-74693025D01*
X118060500Y-74614960D01*
X118080185Y-74547921D01*
X118132989Y-74502166D01*
X118202147Y-74492222D01*
X118265703Y-74521247D01*
X118272181Y-74527279D01*
X118284616Y-74539714D01*
X118284625Y-74539721D01*
X118423804Y-74622031D01*
X118570000Y-74664504D01*
X118570000Y-74110000D01*
X119070000Y-74110000D01*
X119070000Y-74664503D01*
X119216195Y-74622031D01*
X119355374Y-74539721D01*
X119355383Y-74539714D01*
X119469714Y-74425383D01*
X119469721Y-74425374D01*
X119552031Y-74286195D01*
X119552033Y-74286190D01*
X119597144Y-74130918D01*
X119597145Y-74130912D01*
X119598790Y-74110000D01*
X119070000Y-74110000D01*
X118570000Y-74110000D01*
X118569999Y-73610000D01*
X119070000Y-73610000D01*
X119598790Y-73610000D01*
X119597145Y-73589089D01*
X119552031Y-73433804D01*
X119469721Y-73294625D01*
X119469714Y-73294616D01*
X119355383Y-73180285D01*
X119355374Y-73180278D01*
X119216193Y-73097967D01*
X119216190Y-73097965D01*
X119070001Y-73055493D01*
X119070000Y-73055494D01*
X119070000Y-73610000D01*
X118569999Y-73610000D01*
X118569999Y-73491362D01*
X118589683Y-73424323D01*
X118606318Y-73403680D01*
X118629997Y-73380000D01*
X118630000Y-73380000D01*
X118630000Y-71827823D01*
X118649685Y-71760785D01*
X118666319Y-71740143D01*
X118671043Y-71735419D01*
X118676942Y-71729520D01*
X118761021Y-71590436D01*
X118809372Y-71435272D01*
X118815500Y-71367837D01*
X118815499Y-70822164D01*
X118815499Y-70822163D01*
X118815499Y-70822155D01*
X118809373Y-70754732D01*
X118809371Y-70754724D01*
X118761021Y-70599564D01*
X118761020Y-70599562D01*
X118676946Y-70460485D01*
X118675639Y-70458817D01*
X118675062Y-70457368D01*
X118673062Y-70454060D01*
X118673612Y-70453727D01*
X118649788Y-70393906D01*
X118650327Y-70390326D01*
X118636319Y-70376318D01*
X118602834Y-70314995D01*
X118600000Y-70288637D01*
X118600000Y-70250260D01*
X118604225Y-70218168D01*
X118605300Y-70214153D01*
X118605299Y-70214153D01*
X118605301Y-70214151D01*
X118615063Y-70140000D01*
X119100000Y-70140000D01*
X119100000Y-70694503D01*
X119246195Y-70652031D01*
X119385374Y-70569721D01*
X119385383Y-70569714D01*
X119499714Y-70455383D01*
X119499721Y-70455374D01*
X119582031Y-70316195D01*
X119582033Y-70316190D01*
X119627144Y-70160918D01*
X119627145Y-70160912D01*
X119628790Y-70140000D01*
X119100000Y-70140000D01*
X118615063Y-70140000D01*
X118620500Y-70098701D01*
X118620499Y-69681300D01*
X118620499Y-69681298D01*
X118620499Y-69681296D01*
X118615063Y-69639999D01*
X119099999Y-69639999D01*
X119100000Y-69640000D01*
X119628790Y-69640000D01*
X119627145Y-69619089D01*
X119582031Y-69463804D01*
X119499721Y-69324625D01*
X119499714Y-69324616D01*
X119385383Y-69210285D01*
X119385374Y-69210278D01*
X119317267Y-69170000D01*
X129607156Y-69170000D01*
X130169999Y-69170000D01*
X130670000Y-69170000D01*
X131160000Y-69170000D01*
X131160000Y-68650068D01*
X131159999Y-68650068D01*
X131124869Y-68652834D01*
X131124868Y-68652834D01*
X130970807Y-68697593D01*
X130964245Y-68700433D01*
X130894902Y-68708991D01*
X130865755Y-68700433D01*
X130859192Y-68697593D01*
X130705130Y-68652834D01*
X130670000Y-68650068D01*
X130670000Y-69170000D01*
X130169999Y-69170000D01*
X130169999Y-68650068D01*
X130134869Y-68652834D01*
X130134868Y-68652834D01*
X129980811Y-68697592D01*
X129980808Y-68697593D01*
X129842714Y-68779261D01*
X129842705Y-68779268D01*
X129729268Y-68892705D01*
X129729261Y-68892714D01*
X129647595Y-69030805D01*
X129607156Y-69170000D01*
X119317267Y-69170000D01*
X119246193Y-69127967D01*
X119246190Y-69127965D01*
X119100001Y-69085493D01*
X119100000Y-69085494D01*
X119099999Y-69639999D01*
X118615063Y-69639999D01*
X118605302Y-69565854D01*
X118605300Y-69565848D01*
X118605300Y-69565846D01*
X118604224Y-69561829D01*
X118600000Y-69529738D01*
X118600000Y-69085493D01*
X118564696Y-69058986D01*
X118522905Y-69002993D01*
X118515149Y-68959826D01*
X118515149Y-68836765D01*
X118515150Y-68287972D01*
X118515149Y-68287964D01*
X118515149Y-68286060D01*
X118515147Y-68285963D01*
X118515147Y-68170013D01*
X118484313Y-67856941D01*
X118484312Y-67856940D01*
X118484312Y-67856931D01*
X118457238Y-67720824D01*
X118422943Y-67548401D01*
X118422940Y-67548390D01*
X118422939Y-67548387D01*
X118422938Y-67548381D01*
X118331617Y-67247333D01*
X118211227Y-66956686D01*
X118062929Y-66679239D01*
X118019972Y-66614949D01*
X117888162Y-66417680D01*
X117888155Y-66417670D01*
X117888150Y-66417663D01*
X117688573Y-66174478D01*
X117578779Y-66064683D01*
X117576005Y-66061721D01*
X117411708Y-65874376D01*
X117406776Y-65867948D01*
X117269468Y-65662451D01*
X117265410Y-65655422D01*
X117156097Y-65433757D01*
X117153001Y-65426283D01*
X117073556Y-65192243D01*
X117071455Y-65184402D01*
X117065339Y-65153657D01*
X117023239Y-64942005D01*
X117022182Y-64933971D01*
X117005883Y-64685271D01*
X117005750Y-64681215D01*
X117005751Y-64607388D01*
X117005750Y-64607383D01*
X117005749Y-64091419D01*
X117016683Y-64047338D01*
X117014724Y-64046653D01*
X117064975Y-63903045D01*
X117105696Y-63846269D01*
X117170649Y-63820522D01*
X117182016Y-63820000D01*
X124130546Y-63820000D01*
X124197585Y-63839685D01*
X124243340Y-63892489D01*
X124253284Y-63961647D01*
X124236085Y-64009096D01*
X124185645Y-64090871D01*
X124185641Y-64090880D01*
X124130494Y-64257302D01*
X124130493Y-64257309D01*
X124120000Y-64360013D01*
X124120000Y-64810000D01*
X126269999Y-64810000D01*
X126269999Y-64360028D01*
X126269998Y-64360013D01*
X126259505Y-64257302D01*
X126204358Y-64090880D01*
X126204354Y-64090871D01*
X126153915Y-64009096D01*
X126135475Y-63941704D01*
X126156398Y-63875040D01*
X126210040Y-63830271D01*
X126259454Y-63820000D01*
X127719416Y-63820000D01*
X127786455Y-63839685D01*
X127832210Y-63892489D01*
X127842154Y-63961647D01*
X127813129Y-64025203D01*
X127754351Y-64062977D01*
X127737294Y-64066704D01*
X127718608Y-64069426D01*
X127613514Y-64120803D01*
X127530803Y-64203514D01*
X127479426Y-64308608D01*
X127469500Y-64376739D01*
X127469500Y-65400588D01*
X127449815Y-65467627D01*
X127433181Y-65488269D01*
X126548269Y-66373181D01*
X126486946Y-66406666D01*
X126460588Y-66409500D01*
X126180523Y-66409500D01*
X126113484Y-66389815D01*
X126067729Y-66337011D01*
X126057785Y-66267853D01*
X126086810Y-66204297D01*
X126092842Y-66197819D01*
X126112315Y-66178345D01*
X126204356Y-66029124D01*
X126204358Y-66029119D01*
X126259505Y-65862697D01*
X126259506Y-65862690D01*
X126269999Y-65759986D01*
X126270000Y-65759973D01*
X126270000Y-65310000D01*
X124120001Y-65310000D01*
X124120001Y-65759986D01*
X124130494Y-65862697D01*
X124185641Y-66029119D01*
X124185643Y-66029124D01*
X124277684Y-66178345D01*
X124297158Y-66197819D01*
X124330643Y-66259142D01*
X124325659Y-66328834D01*
X124283787Y-66384767D01*
X124218323Y-66409184D01*
X124209477Y-66409500D01*
X123460105Y-66409500D01*
X123460097Y-66409501D01*
X123430787Y-66415330D01*
X123397542Y-66437542D01*
X123375332Y-66470785D01*
X123375329Y-66470791D01*
X123369500Y-66500098D01*
X123369500Y-68519894D01*
X123369501Y-68519902D01*
X123375330Y-68549212D01*
X123397542Y-68582457D01*
X123414219Y-68593599D01*
X123430787Y-68604669D01*
X123430790Y-68604669D01*
X123430791Y-68604670D01*
X123440647Y-68606630D01*
X123460101Y-68610500D01*
X127279898Y-68610499D01*
X127309213Y-68604669D01*
X127342457Y-68582457D01*
X127364669Y-68549213D01*
X127364670Y-68549208D01*
X127370500Y-68519901D01*
X127370500Y-67934500D01*
X127390185Y-67867461D01*
X127442989Y-67821706D01*
X127494500Y-67810500D01*
X127618020Y-67810500D01*
X127685058Y-67830183D01*
X127718339Y-67851572D01*
X127718343Y-67851574D01*
X127850912Y-67890499D01*
X127850914Y-67890500D01*
X127850915Y-67890500D01*
X127989086Y-67890500D01*
X127989086Y-67890499D01*
X128121659Y-67851573D01*
X128167357Y-67822205D01*
X128237891Y-67776875D01*
X128237890Y-67776875D01*
X128237896Y-67776872D01*
X128328379Y-67672449D01*
X128385777Y-67546765D01*
X128405441Y-67410000D01*
X128385777Y-67273235D01*
X128328379Y-67147551D01*
X128237896Y-67043128D01*
X128237893Y-67043126D01*
X128237891Y-67043124D01*
X128121661Y-66968427D01*
X128121656Y-66968425D01*
X127989087Y-66929500D01*
X127989085Y-66929500D01*
X127850915Y-66929500D01*
X127850912Y-66929500D01*
X127718343Y-66968425D01*
X127685059Y-66989816D01*
X127618020Y-67009500D01*
X127494499Y-67009500D01*
X127427460Y-66989815D01*
X127381705Y-66937011D01*
X127370499Y-66885500D01*
X127370499Y-66500105D01*
X127370498Y-66500097D01*
X127364669Y-66470787D01*
X127342457Y-66437542D01*
X127299059Y-66408547D01*
X127300444Y-66406473D01*
X127259383Y-66373379D01*
X127237323Y-66307084D01*
X127254606Y-66239385D01*
X127273559Y-66214989D01*
X127467519Y-66021029D01*
X127528840Y-65987546D01*
X127598532Y-65992530D01*
X127609658Y-65997311D01*
X127613516Y-65999197D01*
X127613517Y-65999198D01*
X127718607Y-66050573D01*
X127741483Y-66053906D01*
X127786739Y-66060500D01*
X127786740Y-66060500D01*
X128503261Y-66060500D01*
X128525970Y-66057190D01*
X128571393Y-66050573D01*
X128676483Y-65999198D01*
X128759198Y-65916483D01*
X128810573Y-65811393D01*
X128820500Y-65743260D01*
X128820500Y-64376740D01*
X128810573Y-64308607D01*
X128759198Y-64203517D01*
X128759196Y-64203515D01*
X128759196Y-64203514D01*
X128676485Y-64120803D01*
X128571391Y-64069426D01*
X128552706Y-64066704D01*
X128489205Y-64037560D01*
X128451541Y-63978711D01*
X128451673Y-63908842D01*
X128489558Y-63850135D01*
X128553168Y-63821229D01*
X128570584Y-63820000D01*
X132795500Y-63820000D01*
X132862539Y-63839685D01*
X132908294Y-63892489D01*
X132919500Y-63944000D01*
X132919500Y-68236296D01*
X132899815Y-68303335D01*
X132847011Y-68349090D01*
X132777853Y-68359034D01*
X132726777Y-68335711D01*
X132725357Y-68337922D01*
X132601661Y-68258427D01*
X132601656Y-68258425D01*
X132469087Y-68219500D01*
X132469085Y-68219500D01*
X132330915Y-68219500D01*
X132330912Y-68219500D01*
X132198343Y-68258425D01*
X132198338Y-68258427D01*
X132082108Y-68333124D01*
X132082106Y-68333126D01*
X132082104Y-68333127D01*
X132082104Y-68333128D01*
X132018137Y-68406950D01*
X131991621Y-68437551D01*
X131991620Y-68437552D01*
X131934222Y-68563234D01*
X131932577Y-68574681D01*
X131903551Y-68638237D01*
X131844773Y-68676011D01*
X131775244Y-68676110D01*
X131695126Y-68652833D01*
X131660000Y-68650068D01*
X131660000Y-69546000D01*
X131640315Y-69613039D01*
X131587511Y-69658794D01*
X131536000Y-69670000D01*
X129607156Y-69670000D01*
X129647594Y-69809193D01*
X129661307Y-69832380D01*
X129678488Y-69900104D01*
X129656328Y-69966366D01*
X129601862Y-70010129D01*
X129554574Y-70019500D01*
X129530912Y-70019500D01*
X129398343Y-70058425D01*
X129398338Y-70058427D01*
X129282108Y-70133124D01*
X129282106Y-70133126D01*
X129282104Y-70133127D01*
X129282104Y-70133128D01*
X129197869Y-70230340D01*
X129191621Y-70237551D01*
X129191620Y-70237552D01*
X129134222Y-70363234D01*
X129114559Y-70500000D01*
X129134222Y-70636765D01*
X129188093Y-70754724D01*
X129191621Y-70762449D01*
X129282104Y-70866872D01*
X129282106Y-70866873D01*
X129282108Y-70866875D01*
X129398338Y-70941572D01*
X129398343Y-70941574D01*
X129530912Y-70980499D01*
X129530914Y-70980500D01*
X129530915Y-70980500D01*
X129669086Y-70980500D01*
X129669086Y-70980499D01*
X129801659Y-70941573D01*
X129917896Y-70866872D01*
X129967273Y-70809886D01*
X130026047Y-70772115D01*
X130095916Y-70772114D01*
X130129868Y-70787987D01*
X130143112Y-70796836D01*
X130143114Y-70796836D01*
X130143115Y-70796837D01*
X130211801Y-70810500D01*
X130211804Y-70810500D01*
X130628198Y-70810500D01*
X130696884Y-70796837D01*
X130696884Y-70796836D01*
X130696888Y-70796836D01*
X130774786Y-70744786D01*
X130811898Y-70689243D01*
X130865510Y-70644438D01*
X130934835Y-70635731D01*
X130997862Y-70665885D01*
X131018102Y-70689244D01*
X131053843Y-70742735D01*
X131055214Y-70744786D01*
X131133112Y-70796836D01*
X131159690Y-70802122D01*
X131221601Y-70834506D01*
X131256176Y-70895221D01*
X131259500Y-70923740D01*
X131259500Y-71925500D01*
X131239815Y-71992539D01*
X131187011Y-72038294D01*
X131135500Y-72049500D01*
X130245105Y-72049500D01*
X130245097Y-72049501D01*
X130215787Y-72055330D01*
X130182542Y-72077542D01*
X130160332Y-72110785D01*
X130160329Y-72110791D01*
X130154500Y-72140098D01*
X130154500Y-73859894D01*
X130154501Y-73859902D01*
X130160330Y-73889212D01*
X130182542Y-73922457D01*
X130199219Y-73933599D01*
X130215787Y-73944669D01*
X130215790Y-73944669D01*
X130215791Y-73944670D01*
X130225647Y-73946630D01*
X130245101Y-73950500D01*
X131964898Y-73950499D01*
X131994213Y-73944669D01*
X132027457Y-73922457D01*
X132049669Y-73889213D01*
X132055500Y-73859899D01*
X132055499Y-72140102D01*
X132049669Y-72110787D01*
X132049668Y-72110785D01*
X132027457Y-72077542D01*
X131994214Y-72055332D01*
X131994215Y-72055332D01*
X131994213Y-72055331D01*
X131994211Y-72055330D01*
X131994208Y-72055329D01*
X131964901Y-72049500D01*
X131964899Y-72049500D01*
X131684500Y-72049500D01*
X131617461Y-72029815D01*
X131571706Y-71977011D01*
X131560500Y-71925500D01*
X131560500Y-70923740D01*
X131580185Y-70856701D01*
X131632989Y-70810946D01*
X131660306Y-70802123D01*
X131686888Y-70796836D01*
X131764786Y-70744786D01*
X131801898Y-70689243D01*
X131855510Y-70644438D01*
X131924835Y-70635731D01*
X131987862Y-70665885D01*
X132008102Y-70689244D01*
X132043843Y-70742735D01*
X132045214Y-70744786D01*
X132123112Y-70796836D01*
X132123114Y-70796836D01*
X132123115Y-70796837D01*
X132191801Y-70810500D01*
X132191804Y-70810500D01*
X132608198Y-70810500D01*
X132676884Y-70796837D01*
X132676884Y-70796836D01*
X132676888Y-70796836D01*
X132726609Y-70763612D01*
X132793287Y-70742735D01*
X132860667Y-70761219D01*
X132907357Y-70813198D01*
X132919500Y-70866715D01*
X132919500Y-94426144D01*
X132899815Y-94493183D01*
X132847011Y-94538938D01*
X132777853Y-94548882D01*
X132714297Y-94519857D01*
X132703350Y-94509116D01*
X132612697Y-94408435D01*
X132612694Y-94408433D01*
X132612693Y-94408432D01*
X132612692Y-94408431D01*
X132511571Y-94334962D01*
X132455297Y-94294076D01*
X132318848Y-94233326D01*
X132277571Y-94214949D01*
X132277569Y-94214948D01*
X132087274Y-94174500D01*
X131892726Y-94174500D01*
X131702431Y-94214948D01*
X131524702Y-94294076D01*
X131367305Y-94408433D01*
X131367302Y-94408435D01*
X131237129Y-94553009D01*
X131139857Y-94721488D01*
X131139856Y-94721489D01*
X131079738Y-94906516D01*
X131059402Y-95099999D01*
X131079738Y-95293483D01*
X131139856Y-95478510D01*
X131139857Y-95478511D01*
X131212275Y-95603942D01*
X131237130Y-95646992D01*
X131263393Y-95676160D01*
X131367302Y-95791564D01*
X131367311Y-95791571D01*
X131386045Y-95805183D01*
X131428711Y-95860513D01*
X131434689Y-95930126D01*
X131402083Y-95991921D01*
X131341243Y-96026278D01*
X131313159Y-96029500D01*
X123072156Y-96029500D01*
X123005117Y-96009815D01*
X122959362Y-95957011D01*
X122949418Y-95887853D01*
X122978443Y-95824297D01*
X122981764Y-95820616D01*
X123054136Y-95743547D01*
X123054135Y-95743547D01*
X123054139Y-95743544D01*
X123130883Y-95603947D01*
X123170500Y-95449651D01*
X123170500Y-94730334D01*
X123169382Y-94721488D01*
X123165448Y-94690346D01*
X123155545Y-94611955D01*
X123096903Y-94463840D01*
X123003268Y-94334963D01*
X122880524Y-94233420D01*
X122880522Y-94233419D01*
X122880521Y-94233418D01*
X122736384Y-94165593D01*
X122579904Y-94135743D01*
X122579900Y-94135743D01*
X122420915Y-94145746D01*
X122269414Y-94194971D01*
X122237936Y-94214948D01*
X122134910Y-94280330D01*
X122134908Y-94280332D01*
X122134905Y-94280334D01*
X122025863Y-94396452D01*
X122025857Y-94396460D01*
X121949118Y-94536049D01*
X121949115Y-94536057D01*
X121909500Y-94690346D01*
X121909500Y-95409675D01*
X121924454Y-95528039D01*
X121924456Y-95528048D01*
X121974942Y-95655564D01*
X121983097Y-95676160D01*
X122076732Y-95805037D01*
X122076733Y-95805038D01*
X122076734Y-95805039D01*
X122076737Y-95805042D01*
X122082679Y-95809958D01*
X122121786Y-95867858D01*
X122123381Y-95937709D01*
X122086958Y-95997335D01*
X122024082Y-96027803D01*
X122003637Y-96029500D01*
X114432156Y-96029500D01*
X114365117Y-96009815D01*
X114319362Y-95957011D01*
X114309418Y-95887853D01*
X114338443Y-95824297D01*
X114341764Y-95820616D01*
X114414136Y-95743547D01*
X114414135Y-95743547D01*
X114414139Y-95743544D01*
X114490883Y-95603947D01*
X114530500Y-95449651D01*
X114530500Y-94730334D01*
X114529382Y-94721488D01*
X114525448Y-94690346D01*
X114515545Y-94611955D01*
X114456903Y-94463840D01*
X114363268Y-94334963D01*
X114240524Y-94233420D01*
X114240522Y-94233419D01*
X114240521Y-94233418D01*
X114096384Y-94165593D01*
X113939904Y-94135743D01*
X113939900Y-94135743D01*
X113780915Y-94145746D01*
X113629414Y-94194971D01*
X113597936Y-94214948D01*
X113494910Y-94280330D01*
X113494908Y-94280332D01*
X113494905Y-94280334D01*
X113385863Y-94396452D01*
X113385857Y-94396460D01*
X113309118Y-94536049D01*
X113309115Y-94536057D01*
X113269500Y-94690346D01*
X113269500Y-95409675D01*
X113284454Y-95528039D01*
X113284456Y-95528048D01*
X113334942Y-95655564D01*
X113343097Y-95676160D01*
X113436732Y-95805037D01*
X113436733Y-95805038D01*
X113436734Y-95805039D01*
X113436737Y-95805042D01*
X113442679Y-95809958D01*
X113481786Y-95867858D01*
X113483381Y-95937709D01*
X113446958Y-95997335D01*
X113384082Y-96027803D01*
X113363637Y-96029500D01*
X105116841Y-96029500D01*
X105049802Y-96009815D01*
X105004047Y-95957011D01*
X104994103Y-95887853D01*
X105023128Y-95824297D01*
X105043955Y-95805183D01*
X105052362Y-95799073D01*
X105062692Y-95791569D01*
X105192870Y-95646992D01*
X105290144Y-95478508D01*
X105350262Y-95293482D01*
X105370598Y-95100000D01*
X105350262Y-94906518D01*
X105290144Y-94721492D01*
X105290143Y-94721491D01*
X105290143Y-94721489D01*
X105290142Y-94721488D01*
X105260354Y-94669894D01*
X109039500Y-94669894D01*
X109039501Y-94669902D01*
X109045330Y-94699212D01*
X109067542Y-94732457D01*
X109084219Y-94743599D01*
X109100787Y-94754669D01*
X109100790Y-94754669D01*
X109100791Y-94754670D01*
X109110647Y-94756630D01*
X109130101Y-94760500D01*
X110849898Y-94760499D01*
X110879213Y-94754669D01*
X110912457Y-94732457D01*
X110934669Y-94699213D01*
X110940500Y-94669899D01*
X110940500Y-94005000D01*
X125064364Y-94005000D01*
X125121567Y-94218486D01*
X125121570Y-94218492D01*
X125221399Y-94432578D01*
X125356894Y-94626082D01*
X125523917Y-94793105D01*
X125717421Y-94928600D01*
X125931507Y-95028429D01*
X125931516Y-95028433D01*
X126145000Y-95085634D01*
X126145000Y-94190501D01*
X126252685Y-94239680D01*
X126359237Y-94255000D01*
X126430763Y-94255000D01*
X126537315Y-94239680D01*
X126645000Y-94190501D01*
X126645000Y-95085633D01*
X126858483Y-95028433D01*
X126858492Y-95028429D01*
X127072578Y-94928600D01*
X127266082Y-94793105D01*
X127433105Y-94626082D01*
X127568600Y-94432578D01*
X127668429Y-94218492D01*
X127668432Y-94218486D01*
X127725636Y-94005000D01*
X126828686Y-94005000D01*
X126854493Y-93964844D01*
X126895000Y-93826889D01*
X126895000Y-93683111D01*
X126854493Y-93545156D01*
X126828686Y-93505000D01*
X127725636Y-93505000D01*
X127725635Y-93504999D01*
X127668432Y-93291513D01*
X127668429Y-93291507D01*
X127568600Y-93077422D01*
X127568599Y-93077420D01*
X127433113Y-92883926D01*
X127433108Y-92883920D01*
X127266082Y-92716894D01*
X127072578Y-92581399D01*
X126858492Y-92481570D01*
X126858486Y-92481567D01*
X126736349Y-92448841D01*
X126676689Y-92412476D01*
X126646160Y-92349629D01*
X126654455Y-92280253D01*
X126698940Y-92226375D01*
X126732444Y-92210407D01*
X126798954Y-92190232D01*
X126981450Y-92092685D01*
X127141410Y-91961410D01*
X127272685Y-91801450D01*
X127370232Y-91618954D01*
X127430300Y-91420934D01*
X127450583Y-91215000D01*
X127430300Y-91009066D01*
X127370232Y-90811046D01*
X127272685Y-90628550D01*
X127209963Y-90552122D01*
X127141410Y-90468589D01*
X126994711Y-90348198D01*
X126981450Y-90337315D01*
X126798954Y-90239768D01*
X126600934Y-90179700D01*
X126600932Y-90179699D01*
X126600934Y-90179699D01*
X126395000Y-90159417D01*
X126189067Y-90179699D01*
X125991043Y-90239769D01*
X125888151Y-90294767D01*
X125808550Y-90337315D01*
X125808548Y-90337316D01*
X125808547Y-90337317D01*
X125648589Y-90468589D01*
X125517317Y-90628547D01*
X125419769Y-90811043D01*
X125359699Y-91009067D01*
X125339417Y-91214999D01*
X125359699Y-91420932D01*
X125373060Y-91464978D01*
X125419768Y-91618954D01*
X125517315Y-91801450D01*
X125517317Y-91801452D01*
X125648589Y-91961410D01*
X125745209Y-92040702D01*
X125808550Y-92092685D01*
X125991046Y-92190232D01*
X126057551Y-92210405D01*
X126115989Y-92248702D01*
X126144446Y-92312514D01*
X126133887Y-92381581D01*
X126087663Y-92433975D01*
X126053650Y-92448841D01*
X125931514Y-92481567D01*
X125931507Y-92481570D01*
X125717422Y-92581399D01*
X125717420Y-92581400D01*
X125523926Y-92716886D01*
X125523920Y-92716891D01*
X125356891Y-92883920D01*
X125356886Y-92883926D01*
X125221400Y-93077420D01*
X125221399Y-93077422D01*
X125121570Y-93291507D01*
X125121567Y-93291513D01*
X125064364Y-93504999D01*
X125064364Y-93505000D01*
X125961314Y-93505000D01*
X125935507Y-93545156D01*
X125895000Y-93683111D01*
X125895000Y-93826889D01*
X125935507Y-93964844D01*
X125961314Y-94005000D01*
X125064364Y-94005000D01*
X110940500Y-94005000D01*
X110940499Y-92950102D01*
X110934669Y-92920787D01*
X110917163Y-92894586D01*
X110912457Y-92887542D01*
X110879214Y-92865332D01*
X110879215Y-92865332D01*
X110879213Y-92865331D01*
X110879211Y-92865330D01*
X110879208Y-92865329D01*
X110849901Y-92859500D01*
X109130105Y-92859500D01*
X109130097Y-92859501D01*
X109100787Y-92865330D01*
X109067542Y-92887542D01*
X109045332Y-92920785D01*
X109045329Y-92920791D01*
X109039500Y-92950098D01*
X109039500Y-94669894D01*
X105260354Y-94669894D01*
X105226903Y-94611955D01*
X105192870Y-94553008D01*
X105139003Y-94493183D01*
X105062697Y-94408435D01*
X105062694Y-94408433D01*
X105062693Y-94408432D01*
X105062692Y-94408431D01*
X104961571Y-94334962D01*
X104905297Y-94294076D01*
X104768848Y-94233326D01*
X104727571Y-94214949D01*
X104727569Y-94214948D01*
X104537274Y-94174500D01*
X104342726Y-94174500D01*
X104152431Y-94214948D01*
X103974702Y-94294076D01*
X103817306Y-94408432D01*
X103736649Y-94498011D01*
X103677162Y-94534659D01*
X103607305Y-94533328D01*
X103549257Y-94494441D01*
X103521447Y-94430345D01*
X103520500Y-94415054D01*
X103520500Y-88980000D01*
X108659364Y-88980000D01*
X108716567Y-89193486D01*
X108716570Y-89193492D01*
X108816399Y-89407578D01*
X108951894Y-89601082D01*
X109118917Y-89768105D01*
X109312421Y-89903600D01*
X109526507Y-90003429D01*
X109526516Y-90003433D01*
X109648649Y-90036158D01*
X109708310Y-90072523D01*
X109738839Y-90135369D01*
X109730545Y-90204745D01*
X109686059Y-90258623D01*
X109652552Y-90274593D01*
X109586046Y-90294767D01*
X109486090Y-90348196D01*
X109403550Y-90392315D01*
X109403548Y-90392316D01*
X109403547Y-90392317D01*
X109243589Y-90523589D01*
X109112317Y-90683547D01*
X109112315Y-90683550D01*
X109092967Y-90719748D01*
X109014769Y-90866043D01*
X109014768Y-90866045D01*
X109014768Y-90866046D01*
X109008876Y-90885470D01*
X108954699Y-91064067D01*
X108935075Y-91263323D01*
X108934417Y-91270000D01*
X108936083Y-91286916D01*
X108954699Y-91475932D01*
X108960022Y-91493479D01*
X109014768Y-91673954D01*
X109112315Y-91856450D01*
X109112317Y-91856452D01*
X109243589Y-92016410D01*
X109280993Y-92047106D01*
X109403550Y-92147685D01*
X109586046Y-92245232D01*
X109784066Y-92305300D01*
X109784065Y-92305300D01*
X109802529Y-92307118D01*
X109990000Y-92325583D01*
X110195934Y-92305300D01*
X110393954Y-92245232D01*
X110576450Y-92147685D01*
X110736410Y-92016410D01*
X110867685Y-91856450D01*
X110965232Y-91673954D01*
X111025300Y-91475934D01*
X111045583Y-91270000D01*
X111025300Y-91064066D01*
X110965232Y-90866046D01*
X110867685Y-90683550D01*
X110786402Y-90584506D01*
X110736410Y-90523589D01*
X110606391Y-90416887D01*
X110576450Y-90392315D01*
X110393954Y-90294768D01*
X110327447Y-90274593D01*
X110269009Y-90236296D01*
X110240553Y-90172484D01*
X110251113Y-90103417D01*
X110297337Y-90051023D01*
X110331350Y-90036158D01*
X110453483Y-90003433D01*
X110453492Y-90003429D01*
X110667578Y-89903600D01*
X110861082Y-89768105D01*
X111028105Y-89601082D01*
X111163600Y-89407578D01*
X111263429Y-89193492D01*
X111263433Y-89193483D01*
X111320636Y-88980000D01*
X110423686Y-88980000D01*
X110449493Y-88939844D01*
X110455320Y-88919999D01*
X111567154Y-88919999D01*
X111567155Y-88920000D01*
X112130000Y-88920000D01*
X112130000Y-88919999D01*
X112629999Y-88919999D01*
X112630000Y-88920000D01*
X113192844Y-88920000D01*
X113152404Y-88780805D01*
X113070738Y-88642714D01*
X113070731Y-88642705D01*
X112957294Y-88529268D01*
X112957285Y-88529261D01*
X112819191Y-88447593D01*
X112819188Y-88447592D01*
X112665130Y-88402834D01*
X112630000Y-88400068D01*
X112629999Y-88919999D01*
X112130000Y-88919999D01*
X112130000Y-88400068D01*
X112129999Y-88400068D01*
X112094869Y-88402834D01*
X112094868Y-88402834D01*
X111940811Y-88447592D01*
X111940808Y-88447593D01*
X111802714Y-88529261D01*
X111802705Y-88529268D01*
X111689268Y-88642705D01*
X111689261Y-88642714D01*
X111607594Y-88780806D01*
X111607592Y-88780811D01*
X111567154Y-88919999D01*
X110455320Y-88919999D01*
X110490000Y-88801889D01*
X110490000Y-88658111D01*
X110449493Y-88520156D01*
X110423686Y-88480000D01*
X111320636Y-88480000D01*
X111320635Y-88479999D01*
X111263432Y-88266513D01*
X111263429Y-88266507D01*
X111163600Y-88052422D01*
X111163599Y-88052420D01*
X111028113Y-87858926D01*
X111028108Y-87858920D01*
X110861082Y-87691894D01*
X110667578Y-87556399D01*
X110453492Y-87456570D01*
X110453486Y-87456567D01*
X110240000Y-87399364D01*
X110239999Y-87399364D01*
X110239999Y-88294498D01*
X110132315Y-88245320D01*
X110025763Y-88230000D01*
X109954237Y-88230000D01*
X109847685Y-88245320D01*
X109740000Y-88294498D01*
X109740000Y-87399364D01*
X109739999Y-87399364D01*
X109526513Y-87456567D01*
X109526507Y-87456570D01*
X109312422Y-87556399D01*
X109312420Y-87556400D01*
X109118926Y-87691886D01*
X109118920Y-87691891D01*
X108951891Y-87858920D01*
X108951886Y-87858926D01*
X108816400Y-88052420D01*
X108816399Y-88052422D01*
X108716570Y-88266507D01*
X108716567Y-88266513D01*
X108659364Y-88479999D01*
X108659364Y-88480000D01*
X109556314Y-88480000D01*
X109530507Y-88520156D01*
X109490000Y-88658111D01*
X109490000Y-88801889D01*
X109530507Y-88939844D01*
X109556314Y-88980000D01*
X108659364Y-88980000D01*
X103520500Y-88980000D01*
X103520500Y-86409019D01*
X103540185Y-86341980D01*
X103592989Y-86296225D01*
X103662147Y-86286281D01*
X103725703Y-86315306D01*
X103747604Y-86340131D01*
X103772542Y-86377457D01*
X103789219Y-86388599D01*
X103805787Y-86399669D01*
X103805790Y-86399669D01*
X103805791Y-86399670D01*
X103815647Y-86401630D01*
X103835101Y-86405500D01*
X104904898Y-86405499D01*
X104934213Y-86399669D01*
X104967457Y-86377457D01*
X104989669Y-86344213D01*
X104995419Y-86315306D01*
X104995500Y-86314901D01*
X104995500Y-86254500D01*
X105015185Y-86187461D01*
X105067989Y-86141706D01*
X105119500Y-86130500D01*
X105790806Y-86130500D01*
X105857845Y-86150185D01*
X105903599Y-86202987D01*
X105921621Y-86242449D01*
X106012104Y-86346872D01*
X106012106Y-86346873D01*
X106012108Y-86346875D01*
X106128338Y-86421572D01*
X106128343Y-86421574D01*
X106260912Y-86460499D01*
X106260914Y-86460500D01*
X106260915Y-86460500D01*
X106399086Y-86460500D01*
X106399086Y-86460499D01*
X106531659Y-86421573D01*
X106551194Y-86409019D01*
X106647891Y-86346875D01*
X106647890Y-86346875D01*
X106647896Y-86346872D01*
X106738379Y-86242449D01*
X106756400Y-86202987D01*
X106802155Y-86150184D01*
X106869194Y-86130500D01*
X107770501Y-86130500D01*
X107837540Y-86150185D01*
X107883295Y-86202989D01*
X107894501Y-86254500D01*
X107894501Y-86314902D01*
X107900330Y-86344212D01*
X107922542Y-86377457D01*
X107939219Y-86388599D01*
X107955787Y-86399669D01*
X107955790Y-86399669D01*
X107955791Y-86399670D01*
X107965647Y-86401630D01*
X107985101Y-86405500D01*
X109054898Y-86405499D01*
X109084213Y-86399669D01*
X109117457Y-86377457D01*
X109139669Y-86344213D01*
X109145500Y-86314899D01*
X109145499Y-85645102D01*
X109139669Y-85615787D01*
X109118289Y-85583788D01*
X109117457Y-85582542D01*
X109084214Y-85560332D01*
X109084215Y-85560332D01*
X109084213Y-85560331D01*
X109084211Y-85560330D01*
X109084208Y-85560329D01*
X109054901Y-85554500D01*
X107985105Y-85554500D01*
X107985097Y-85554501D01*
X107955787Y-85560330D01*
X107922542Y-85582542D01*
X107900332Y-85615785D01*
X107900329Y-85615791D01*
X107894500Y-85645098D01*
X107894500Y-85705500D01*
X107874815Y-85772539D01*
X107822011Y-85818294D01*
X107770500Y-85829500D01*
X106869194Y-85829500D01*
X106802155Y-85809815D01*
X106756400Y-85757012D01*
X106752037Y-85747458D01*
X106738379Y-85717551D01*
X106647896Y-85613128D01*
X106647893Y-85613126D01*
X106647891Y-85613124D01*
X106531661Y-85538427D01*
X106531656Y-85538425D01*
X106399087Y-85499500D01*
X106399085Y-85499500D01*
X106260915Y-85499500D01*
X106260912Y-85499500D01*
X106128343Y-85538425D01*
X106128338Y-85538427D01*
X106012108Y-85613124D01*
X106012106Y-85613126D01*
X106012104Y-85613127D01*
X106012104Y-85613128D01*
X106006263Y-85619869D01*
X105921622Y-85717549D01*
X105921620Y-85717552D01*
X105903600Y-85757012D01*
X105857845Y-85809816D01*
X105790806Y-85829500D01*
X105119499Y-85829500D01*
X105052460Y-85809815D01*
X105006705Y-85757011D01*
X104995499Y-85705500D01*
X104995499Y-85645105D01*
X104995498Y-85645097D01*
X104989669Y-85615787D01*
X104967457Y-85582542D01*
X104934214Y-85560332D01*
X104934215Y-85560332D01*
X104934213Y-85560331D01*
X104934211Y-85560330D01*
X104934208Y-85560329D01*
X104904901Y-85554500D01*
X103835105Y-85554500D01*
X103835097Y-85554501D01*
X103805787Y-85560330D01*
X103772543Y-85582542D01*
X103771711Y-85583788D01*
X103750333Y-85615785D01*
X103747604Y-85619869D01*
X103693992Y-85664675D01*
X103624668Y-85673384D01*
X103561639Y-85643230D01*
X103524919Y-85583788D01*
X103520500Y-85550980D01*
X103520500Y-85150498D01*
X103520500Y-84746205D01*
X103540183Y-84679170D01*
X103592987Y-84633415D01*
X103662146Y-84623471D01*
X103687832Y-84630027D01*
X103737620Y-84648596D01*
X103737627Y-84648598D01*
X103797155Y-84654999D01*
X103797172Y-84655000D01*
X104120000Y-84655000D01*
X104120000Y-84080000D01*
X104620000Y-84080000D01*
X104620000Y-84655000D01*
X104942828Y-84655000D01*
X104942844Y-84654999D01*
X105002372Y-84648598D01*
X105002379Y-84648596D01*
X105137086Y-84598354D01*
X105137093Y-84598350D01*
X105252187Y-84512190D01*
X105252190Y-84512187D01*
X105338350Y-84397093D01*
X105338354Y-84397086D01*
X105388596Y-84262379D01*
X105388598Y-84262372D01*
X105394999Y-84202844D01*
X105395000Y-84202827D01*
X105395000Y-84080000D01*
X107495000Y-84080000D01*
X107495000Y-84202844D01*
X107501401Y-84262372D01*
X107501403Y-84262379D01*
X107551645Y-84397086D01*
X107551649Y-84397093D01*
X107637809Y-84512187D01*
X107637812Y-84512190D01*
X107752906Y-84598350D01*
X107752913Y-84598354D01*
X107887620Y-84648596D01*
X107887627Y-84648598D01*
X107947155Y-84654999D01*
X107947172Y-84655000D01*
X108269999Y-84655000D01*
X108270000Y-84080000D01*
X107495000Y-84080000D01*
X105395000Y-84080000D01*
X104620000Y-84080000D01*
X104120000Y-84080000D01*
X104120000Y-83005000D01*
X104620000Y-83005000D01*
X104620000Y-83580000D01*
X105395000Y-83580000D01*
X107495000Y-83580000D01*
X108269999Y-83580000D01*
X108270000Y-83005000D01*
X108770000Y-83005000D01*
X108770000Y-84655000D01*
X109092828Y-84655000D01*
X109092844Y-84654999D01*
X109152372Y-84648598D01*
X109152379Y-84648596D01*
X109287086Y-84598354D01*
X109287093Y-84598350D01*
X109402187Y-84512190D01*
X109402190Y-84512187D01*
X109488234Y-84397249D01*
X109544168Y-84355378D01*
X109613859Y-84350394D01*
X109675182Y-84383880D01*
X109686766Y-84397249D01*
X109772809Y-84512187D01*
X109772812Y-84512190D01*
X109887906Y-84598350D01*
X109887913Y-84598354D01*
X110022620Y-84648596D01*
X110022627Y-84648598D01*
X110082155Y-84654999D01*
X110082172Y-84655000D01*
X110405000Y-84655000D01*
X110405000Y-84080000D01*
X110905000Y-84080000D01*
X110905000Y-84655000D01*
X111227828Y-84655000D01*
X111227844Y-84654999D01*
X111287372Y-84648598D01*
X111287379Y-84648596D01*
X111422086Y-84598354D01*
X111422093Y-84598350D01*
X111537187Y-84512190D01*
X111537190Y-84512187D01*
X111623350Y-84397093D01*
X111623354Y-84397086D01*
X111673596Y-84262379D01*
X111673598Y-84262372D01*
X111679999Y-84202844D01*
X111680000Y-84202827D01*
X111680000Y-84080000D01*
X113780000Y-84080000D01*
X113780000Y-84202844D01*
X113786401Y-84262372D01*
X113786403Y-84262379D01*
X113836645Y-84397086D01*
X113836649Y-84397093D01*
X113922809Y-84512187D01*
X113922812Y-84512190D01*
X114037906Y-84598350D01*
X114037913Y-84598354D01*
X114172620Y-84648596D01*
X114172627Y-84648598D01*
X114232155Y-84654999D01*
X114232172Y-84655000D01*
X114554999Y-84655000D01*
X114555000Y-84080000D01*
X115055000Y-84080000D01*
X115055000Y-84655000D01*
X115377828Y-84655000D01*
X115377844Y-84654999D01*
X115437372Y-84648598D01*
X115437379Y-84648596D01*
X115572086Y-84598354D01*
X115572093Y-84598350D01*
X115687187Y-84512190D01*
X115687190Y-84512187D01*
X115773350Y-84397093D01*
X115773354Y-84397086D01*
X115823596Y-84262379D01*
X115823598Y-84262372D01*
X115829999Y-84202844D01*
X115830000Y-84202827D01*
X115830000Y-84080000D01*
X115055000Y-84080000D01*
X114555000Y-84080000D01*
X113780000Y-84080000D01*
X111680000Y-84080000D01*
X110905000Y-84080000D01*
X110405000Y-84080000D01*
X110405000Y-83005000D01*
X110905000Y-83005000D01*
X110905000Y-83580000D01*
X111680000Y-83580000D01*
X111680000Y-83457172D01*
X111679999Y-83457155D01*
X111673598Y-83397627D01*
X111673596Y-83397620D01*
X111623354Y-83262913D01*
X111623350Y-83262906D01*
X111537190Y-83147812D01*
X111537187Y-83147809D01*
X111422093Y-83061649D01*
X111422086Y-83061645D01*
X111287379Y-83011403D01*
X111287372Y-83011401D01*
X111227844Y-83005000D01*
X110905000Y-83005000D01*
X110405000Y-83005000D01*
X110082155Y-83005000D01*
X110022627Y-83011401D01*
X110022620Y-83011403D01*
X109887913Y-83061645D01*
X109887906Y-83061649D01*
X109772812Y-83147809D01*
X109686766Y-83262751D01*
X109630832Y-83304621D01*
X109561140Y-83309605D01*
X109499818Y-83276119D01*
X109488234Y-83262751D01*
X109402187Y-83147809D01*
X109287093Y-83061649D01*
X109287086Y-83061645D01*
X109152379Y-83011403D01*
X109152372Y-83011401D01*
X109092844Y-83005000D01*
X108770000Y-83005000D01*
X108270000Y-83005000D01*
X107947155Y-83005000D01*
X107887627Y-83011401D01*
X107887620Y-83011403D01*
X107752913Y-83061645D01*
X107752906Y-83061649D01*
X107637812Y-83147809D01*
X107637809Y-83147812D01*
X107551649Y-83262906D01*
X107551645Y-83262913D01*
X107501403Y-83397620D01*
X107501401Y-83397627D01*
X107495000Y-83457155D01*
X107495000Y-83580000D01*
X105395000Y-83580000D01*
X105395000Y-83457172D01*
X105394999Y-83457155D01*
X105388598Y-83397627D01*
X105388596Y-83397620D01*
X105338354Y-83262913D01*
X105338350Y-83262906D01*
X105252190Y-83147812D01*
X105252187Y-83147809D01*
X105137093Y-83061649D01*
X105137086Y-83061645D01*
X105002379Y-83011403D01*
X105002372Y-83011401D01*
X104942844Y-83005000D01*
X104620000Y-83005000D01*
X104120000Y-83005000D01*
X103797155Y-83005000D01*
X103737627Y-83011401D01*
X103737621Y-83011403D01*
X103687830Y-83029973D01*
X103618139Y-83034956D01*
X103556816Y-83001470D01*
X103523332Y-82940146D01*
X103520500Y-82913799D01*
X103520500Y-82522500D01*
X113555496Y-82522500D01*
X113597968Y-82668695D01*
X113680278Y-82807874D01*
X113680285Y-82807883D01*
X113794616Y-82922214D01*
X113794625Y-82922221D01*
X113881536Y-82973620D01*
X113929220Y-83024689D01*
X113941723Y-83093431D01*
X113917681Y-83154663D01*
X113836649Y-83262906D01*
X113836645Y-83262913D01*
X113786403Y-83397620D01*
X113786401Y-83397627D01*
X113780000Y-83457155D01*
X113780000Y-83580000D01*
X115830000Y-83580000D01*
X115830000Y-83457172D01*
X115829999Y-83457155D01*
X115823598Y-83397627D01*
X115823596Y-83397620D01*
X115773354Y-83262913D01*
X115773350Y-83262906D01*
X115687190Y-83147812D01*
X115687187Y-83147809D01*
X115572093Y-83061649D01*
X115572086Y-83061645D01*
X115437379Y-83011403D01*
X115437372Y-83011401D01*
X115377844Y-83005000D01*
X115139931Y-83005000D01*
X115072892Y-82985315D01*
X115027137Y-82932511D01*
X115017193Y-82863353D01*
X115037453Y-82815601D01*
X115035748Y-82814593D01*
X115122031Y-82668695D01*
X115164504Y-82522500D01*
X113555496Y-82522500D01*
X103520500Y-82522500D01*
X103520500Y-68257844D01*
X104250000Y-68257844D01*
X104256401Y-68317372D01*
X104256403Y-68317379D01*
X104306645Y-68452086D01*
X104306649Y-68452093D01*
X104392809Y-68567187D01*
X104392812Y-68567190D01*
X104507906Y-68653350D01*
X104507913Y-68653354D01*
X104642620Y-68703596D01*
X104642627Y-68703598D01*
X104702155Y-68709999D01*
X104702172Y-68710000D01*
X105102813Y-68710000D01*
X105169852Y-68729685D01*
X105215607Y-68782489D01*
X105225551Y-68851647D01*
X105196526Y-68915203D01*
X105161267Y-68943357D01*
X105013550Y-69022315D01*
X105013548Y-69022316D01*
X105013547Y-69022317D01*
X104853589Y-69153589D01*
X104722317Y-69313547D01*
X104722315Y-69313550D01*
X104683643Y-69385897D01*
X104624769Y-69496043D01*
X104564699Y-69694067D01*
X104544417Y-69900000D01*
X104564699Y-70105932D01*
X104581377Y-70160912D01*
X104624768Y-70303954D01*
X104722315Y-70486450D01*
X104722317Y-70486452D01*
X104853589Y-70646410D01*
X104923524Y-70703803D01*
X105013550Y-70777685D01*
X105196046Y-70875232D01*
X105394066Y-70935300D01*
X105394065Y-70935300D01*
X105412529Y-70937118D01*
X105600000Y-70955583D01*
X105805934Y-70935300D01*
X106003954Y-70875232D01*
X106051161Y-70849999D01*
X112535496Y-70849999D01*
X113090000Y-70849999D01*
X113090000Y-70321209D01*
X113089999Y-70321208D01*
X113590000Y-70321208D01*
X113590000Y-70849999D01*
X114110000Y-70849999D01*
X114110000Y-70321210D01*
X114109999Y-70321209D01*
X114610000Y-70321209D01*
X114610000Y-70850000D01*
X115164504Y-70850000D01*
X115122031Y-70703804D01*
X115039721Y-70564625D01*
X115039714Y-70564616D01*
X114925383Y-70450285D01*
X114925374Y-70450278D01*
X114786195Y-70367968D01*
X114786190Y-70367966D01*
X114630918Y-70322855D01*
X114630912Y-70322854D01*
X114610000Y-70321209D01*
X114109999Y-70321209D01*
X114089087Y-70322854D01*
X114089081Y-70322855D01*
X113933809Y-70367966D01*
X113933797Y-70367971D01*
X113913117Y-70380201D01*
X113845393Y-70397381D01*
X113786881Y-70380200D01*
X113766198Y-70367968D01*
X113766190Y-70367965D01*
X113610918Y-70322854D01*
X113610912Y-70322853D01*
X113590000Y-70321208D01*
X113089999Y-70321208D01*
X113069087Y-70322853D01*
X113069081Y-70322854D01*
X112913809Y-70367965D01*
X112913804Y-70367967D01*
X112774625Y-70450277D01*
X112774616Y-70450284D01*
X112660285Y-70564615D01*
X112660278Y-70564624D01*
X112577968Y-70703803D01*
X112535496Y-70849999D01*
X106051161Y-70849999D01*
X106186450Y-70777685D01*
X106346410Y-70646410D01*
X106477685Y-70486450D01*
X106575232Y-70303954D01*
X106635300Y-70105934D01*
X106655583Y-69900000D01*
X106635300Y-69694066D01*
X106575232Y-69496046D01*
X106477685Y-69313550D01*
X106392938Y-69210285D01*
X106346410Y-69153589D01*
X106186452Y-69022317D01*
X106186453Y-69022317D01*
X106186450Y-69022315D01*
X106038732Y-68943357D01*
X105988889Y-68894395D01*
X105973429Y-68826257D01*
X105997261Y-68760578D01*
X106052819Y-68718209D01*
X106097187Y-68710000D01*
X106497828Y-68710000D01*
X106497844Y-68709999D01*
X106557372Y-68703598D01*
X106557379Y-68703596D01*
X106692086Y-68653354D01*
X106692093Y-68653350D01*
X106807187Y-68567190D01*
X106807190Y-68567187D01*
X106893350Y-68452093D01*
X106893354Y-68452086D01*
X106943596Y-68317379D01*
X106943598Y-68317372D01*
X106949999Y-68257844D01*
X106950000Y-68257827D01*
X106950000Y-67610000D01*
X106033686Y-67610000D01*
X106059493Y-67569844D01*
X106080001Y-67500000D01*
X108259402Y-67500000D01*
X108279738Y-67693483D01*
X108339856Y-67878510D01*
X108339857Y-67878511D01*
X108420159Y-68017597D01*
X108437130Y-68046992D01*
X108482476Y-68097354D01*
X108567302Y-68191564D01*
X108567305Y-68191566D01*
X108567308Y-68191569D01*
X108659327Y-68258425D01*
X108724702Y-68305923D01*
X108785798Y-68333124D01*
X108902429Y-68385051D01*
X109092726Y-68425500D01*
X109287274Y-68425500D01*
X109477571Y-68385051D01*
X109655299Y-68305922D01*
X109812692Y-68191569D01*
X109942870Y-68046992D01*
X110040144Y-67878508D01*
X110100262Y-67693482D01*
X110120598Y-67500000D01*
X110100262Y-67306518D01*
X110040144Y-67121492D01*
X110040143Y-67121491D01*
X110040143Y-67121489D01*
X110040142Y-67121488D01*
X109994901Y-67043128D01*
X109942870Y-66953008D01*
X109883077Y-66886601D01*
X109812697Y-66808435D01*
X109812694Y-66808433D01*
X109812693Y-66808432D01*
X109812692Y-66808431D01*
X109733995Y-66751254D01*
X109655297Y-66694076D01*
X109518848Y-66633326D01*
X109477571Y-66614949D01*
X109477569Y-66614948D01*
X109287274Y-66574500D01*
X109092726Y-66574500D01*
X108902431Y-66614948D01*
X108724702Y-66694076D01*
X108567305Y-66808433D01*
X108567302Y-66808435D01*
X108437129Y-66953009D01*
X108339857Y-67121488D01*
X108339856Y-67121489D01*
X108279738Y-67306516D01*
X108259402Y-67500000D01*
X106080001Y-67500000D01*
X106100000Y-67431889D01*
X106100000Y-67288111D01*
X106059493Y-67150156D01*
X106033686Y-67110000D01*
X106950000Y-67110000D01*
X106950000Y-66462172D01*
X106949999Y-66462155D01*
X106943598Y-66402627D01*
X106943596Y-66402620D01*
X106893354Y-66267913D01*
X106893350Y-66267906D01*
X106807190Y-66152812D01*
X106807187Y-66152809D01*
X106692093Y-66066649D01*
X106692086Y-66066645D01*
X106557379Y-66016403D01*
X106557372Y-66016401D01*
X106497844Y-66010000D01*
X105850000Y-66010000D01*
X105850000Y-66924498D01*
X105742315Y-66875320D01*
X105635763Y-66860000D01*
X105564237Y-66860000D01*
X105457685Y-66875320D01*
X105350000Y-66924498D01*
X105350000Y-66010000D01*
X104702155Y-66010000D01*
X104642627Y-66016401D01*
X104642620Y-66016403D01*
X104507913Y-66066645D01*
X104507906Y-66066649D01*
X104392812Y-66152809D01*
X104392809Y-66152812D01*
X104306649Y-66267906D01*
X104306645Y-66267913D01*
X104256403Y-66402620D01*
X104256401Y-66402627D01*
X104250000Y-66462155D01*
X104250000Y-67110000D01*
X105166314Y-67110000D01*
X105140507Y-67150156D01*
X105100000Y-67288111D01*
X105100000Y-67431889D01*
X105140507Y-67569844D01*
X105166314Y-67610000D01*
X104250000Y-67610000D01*
X104250000Y-68257844D01*
X103520500Y-68257844D01*
X103520500Y-63944000D01*
X103540185Y-63876961D01*
X103592989Y-63831206D01*
X103644500Y-63820000D01*
X115579184Y-63820000D01*
X115646223Y-63839685D01*
G37*
%TD.AperFunction*%
%TA.AperFunction,Conductor*%
G36*
X119818902Y-85653608D02*
G01*
X119825380Y-85659640D01*
X120383180Y-86217440D01*
X120416665Y-86278763D01*
X120419499Y-86305121D01*
X120419499Y-86690892D01*
X120399814Y-86757931D01*
X120347010Y-86803686D01*
X120324946Y-86811345D01*
X120318632Y-86812888D01*
X120318624Y-86812891D01*
X120237916Y-86855899D01*
X120237913Y-86855901D01*
X120193244Y-86894607D01*
X120185111Y-86901655D01*
X120167159Y-86919243D01*
X120167154Y-86919249D01*
X120122511Y-86999059D01*
X120122509Y-86999064D01*
X120102826Y-87066096D01*
X120102825Y-87066101D01*
X120102825Y-87066102D01*
X120094646Y-87122991D01*
X120094500Y-87124003D01*
X120094500Y-87859460D01*
X120093969Y-87867562D01*
X120073900Y-88019998D01*
X120073900Y-88020001D01*
X120093969Y-88172438D01*
X120094500Y-88180540D01*
X120094500Y-88355522D01*
X120094762Y-88362854D01*
X120096547Y-88387818D01*
X120096548Y-88387829D01*
X120096435Y-88386770D01*
X120096432Y-88413245D01*
X120096548Y-88412172D01*
X120094762Y-88437145D01*
X120094500Y-88444477D01*
X120094500Y-88626007D01*
X120099197Y-88669686D01*
X120110402Y-88721193D01*
X120112889Y-88731370D01*
X120112892Y-88731379D01*
X120154931Y-88810268D01*
X120169499Y-88868582D01*
X120169499Y-89025500D01*
X120149814Y-89092539D01*
X120097010Y-89138294D01*
X120045500Y-89149500D01*
X119810105Y-89149500D01*
X119810097Y-89149501D01*
X119780787Y-89155330D01*
X119769504Y-89160004D01*
X119768032Y-89156452D01*
X119722166Y-89170795D01*
X119671759Y-89156946D01*
X119670493Y-89160004D01*
X119659208Y-89155329D01*
X119629901Y-89149500D01*
X119364117Y-89149500D01*
X119297078Y-89129815D01*
X119277092Y-89110185D01*
X119275499Y-89111779D01*
X119266862Y-89103143D01*
X119266860Y-89103140D01*
X119208524Y-89064162D01*
X119199479Y-89058118D01*
X119199476Y-89058117D01*
X119140066Y-89046300D01*
X119140064Y-89046300D01*
X118799936Y-89046300D01*
X118799934Y-89046300D01*
X118744192Y-89057388D01*
X118695808Y-89057388D01*
X118640066Y-89046300D01*
X118640064Y-89046300D01*
X118440700Y-89046300D01*
X118373661Y-89026615D01*
X118327906Y-88973811D01*
X118316700Y-88922300D01*
X118316700Y-88905337D01*
X118316936Y-88899931D01*
X118317044Y-88898704D01*
X118320708Y-88856816D01*
X118315525Y-88837472D01*
X118311300Y-88805379D01*
X118311300Y-88730967D01*
X118330985Y-88663928D01*
X118347615Y-88643290D01*
X118637142Y-88353762D01*
X118641113Y-88350123D01*
X118674284Y-88322291D01*
X118695933Y-88284792D01*
X118698834Y-88280240D01*
X118723664Y-88244781D01*
X118723665Y-88244773D01*
X118724739Y-88242474D01*
X118734548Y-88218792D01*
X118735415Y-88216411D01*
X118735415Y-88216410D01*
X118735417Y-88216407D01*
X118742937Y-88173752D01*
X118744103Y-88168497D01*
X118749295Y-88149124D01*
X118755308Y-88126682D01*
X118751535Y-88083560D01*
X118751300Y-88078159D01*
X118751300Y-87839119D01*
X118770985Y-87772080D01*
X118787614Y-87751443D01*
X119342559Y-87196498D01*
X119346523Y-87192868D01*
X119379684Y-87165043D01*
X119401341Y-87127528D01*
X119404217Y-87123015D01*
X119429064Y-87087533D01*
X119429065Y-87087527D01*
X119430134Y-87085235D01*
X119439954Y-87061529D01*
X119440815Y-87059163D01*
X119440816Y-87059160D01*
X119440817Y-87059159D01*
X119448336Y-87016508D01*
X119449503Y-87011249D01*
X119452769Y-86999063D01*
X119460708Y-86969434D01*
X119456934Y-86926317D01*
X119456699Y-86920910D01*
X119456699Y-86842610D01*
X119456699Y-86812368D01*
X119476384Y-86745332D01*
X119493013Y-86724694D01*
X119551839Y-86665869D01*
X119603683Y-86559819D01*
X119613700Y-86491069D01*
X119613699Y-85747320D01*
X119633383Y-85680282D01*
X119686187Y-85634527D01*
X119755346Y-85624583D01*
X119818902Y-85653608D01*
G37*
%TD.AperFunction*%
%TA.AperFunction,Conductor*%
G36*
X112200903Y-79024416D02*
G01*
X112201145Y-79023514D01*
X112216911Y-79027738D01*
X112216913Y-79027740D01*
X112297566Y-79027741D01*
X112297568Y-79027740D01*
X112783542Y-79027740D01*
X112850581Y-79047425D01*
X112896336Y-79100229D01*
X112906280Y-79169387D01*
X112898900Y-79190706D01*
X112899290Y-79190811D01*
X112893980Y-79210625D01*
X112881596Y-79240522D01*
X112879500Y-79244151D01*
X112879499Y-79244154D01*
X112879499Y-79806299D01*
X112859814Y-79873338D01*
X112843180Y-79893980D01*
X112534611Y-80202548D01*
X112473288Y-80236033D01*
X112411996Y-80233844D01*
X112329087Y-80209500D01*
X112329085Y-80209500D01*
X112190915Y-80209500D01*
X112183701Y-80209500D01*
X112116662Y-80189815D01*
X112096020Y-80173181D01*
X112076819Y-80153980D01*
X112043334Y-80092657D01*
X112040500Y-80066299D01*
X112040500Y-79756309D01*
X112040499Y-79756307D01*
X112026547Y-79686165D01*
X112026546Y-79686164D01*
X112026546Y-79686161D01*
X111973391Y-79606609D01*
X111924985Y-79574265D01*
X111880180Y-79520652D01*
X111871473Y-79451327D01*
X111901628Y-79388300D01*
X111924978Y-79368066D01*
X111974786Y-79334786D01*
X112026836Y-79256888D01*
X112027430Y-79253901D01*
X112040500Y-79188198D01*
X112040500Y-79140662D01*
X112060185Y-79073623D01*
X112112989Y-79027868D01*
X112182147Y-79017924D01*
X112200903Y-79024416D01*
G37*
%TD.AperFunction*%
%TA.AperFunction,Conductor*%
G36*
X109841776Y-76505756D02*
G01*
X109897710Y-76547627D01*
X109922127Y-76613092D01*
X109922061Y-76631665D01*
X109921208Y-76642498D01*
X109921210Y-76642500D01*
X110826000Y-76642500D01*
X110893039Y-76662185D01*
X110938794Y-76714989D01*
X110950000Y-76766500D01*
X110950000Y-77018500D01*
X110930315Y-77085539D01*
X110877511Y-77131294D01*
X110826000Y-77142500D01*
X109921209Y-77142500D01*
X109921635Y-77147912D01*
X109907268Y-77216288D01*
X109858214Y-77266042D01*
X109790048Y-77281378D01*
X109724412Y-77257425D01*
X109710336Y-77245315D01*
X109556819Y-77091798D01*
X109523334Y-77030475D01*
X109520500Y-77004117D01*
X109520500Y-76775882D01*
X109540185Y-76708843D01*
X109556813Y-76688206D01*
X109710766Y-76534254D01*
X109772085Y-76500772D01*
X109841776Y-76505756D01*
G37*
%TD.AperFunction*%
%TA.AperFunction,Conductor*%
G36*
X113527302Y-74590185D02*
G01*
X113573057Y-74642989D01*
X113583001Y-74712147D01*
X113553976Y-74775703D01*
X113495198Y-74813477D01*
X113495197Y-74813477D01*
X113478343Y-74818425D01*
X113478338Y-74818427D01*
X113362108Y-74893124D01*
X113362106Y-74893126D01*
X113362104Y-74893127D01*
X113362104Y-74893128D01*
X113308880Y-74954552D01*
X113271621Y-74997551D01*
X113271620Y-74997552D01*
X113214222Y-75123234D01*
X113194559Y-75260000D01*
X113214222Y-75396765D01*
X113268481Y-75515573D01*
X113278425Y-75584732D01*
X113249400Y-75648287D01*
X113224578Y-75670187D01*
X113179983Y-75699984D01*
X113143959Y-75753898D01*
X113143956Y-75753904D01*
X113134500Y-75801445D01*
X113134500Y-75872970D01*
X113114815Y-75940009D01*
X113062011Y-75985764D01*
X112992853Y-75995708D01*
X112929297Y-75966683D01*
X112916787Y-75954173D01*
X112846424Y-75872970D01*
X112837896Y-75863128D01*
X112837895Y-75863127D01*
X112837894Y-75863126D01*
X112837891Y-75863124D01*
X112721661Y-75788427D01*
X112721656Y-75788425D01*
X112589087Y-75749500D01*
X112589085Y-75749500D01*
X112450915Y-75749500D01*
X112450912Y-75749500D01*
X112318343Y-75788425D01*
X112231539Y-75844211D01*
X112164500Y-75863895D01*
X112097460Y-75844210D01*
X112051705Y-75791406D01*
X112040500Y-75739895D01*
X112040500Y-75671801D01*
X112026837Y-75603115D01*
X112026836Y-75603114D01*
X112026836Y-75603112D01*
X111974786Y-75525214D01*
X111902535Y-75476937D01*
X111857731Y-75423326D01*
X111849024Y-75354001D01*
X111879179Y-75290973D01*
X111902531Y-75270738D01*
X111973391Y-75223391D01*
X112026546Y-75143839D01*
X112040500Y-75073688D01*
X112040500Y-74694500D01*
X112060185Y-74627461D01*
X112112989Y-74581706D01*
X112164500Y-74570500D01*
X113460263Y-74570500D01*
X113527302Y-74590185D01*
G37*
%TD.AperFunction*%
%TA.AperFunction,Conductor*%
G36*
X112918065Y-72297998D02*
G01*
X112973998Y-72339870D01*
X112977833Y-72345290D01*
X112994110Y-72369651D01*
X112996609Y-72373390D01*
X113025133Y-72392449D01*
X113084391Y-72432044D01*
X113129196Y-72485656D01*
X113139500Y-72535146D01*
X113139500Y-72747649D01*
X113119815Y-72814688D01*
X113103183Y-72835328D01*
X113088200Y-72850310D01*
X113040621Y-72952345D01*
X113040620Y-72952346D01*
X113034500Y-72998840D01*
X113034500Y-73586152D01*
X113034501Y-73586158D01*
X113040621Y-73632653D01*
X113040622Y-73632655D01*
X113040622Y-73632656D01*
X113088201Y-73734689D01*
X113101331Y-73747819D01*
X113134816Y-73809142D01*
X113129832Y-73878834D01*
X113087960Y-73934767D01*
X113022496Y-73959184D01*
X113013650Y-73959500D01*
X112893701Y-73959500D01*
X112826662Y-73939815D01*
X112806020Y-73923181D01*
X112716819Y-73833980D01*
X112683334Y-73772657D01*
X112680500Y-73746299D01*
X112680500Y-73431801D01*
X112666837Y-73363115D01*
X112666836Y-73363114D01*
X112666836Y-73363112D01*
X112614786Y-73285214D01*
X112536888Y-73233164D01*
X112536886Y-73233163D01*
X112536884Y-73233162D01*
X112468198Y-73219500D01*
X112468196Y-73219500D01*
X112051804Y-73219500D01*
X112051802Y-73219500D01*
X111983115Y-73233162D01*
X111983112Y-73233164D01*
X111905214Y-73285214D01*
X111853164Y-73363112D01*
X111853162Y-73363115D01*
X111839500Y-73431801D01*
X111839500Y-73505638D01*
X111819815Y-73572677D01*
X111767011Y-73618432D01*
X111697853Y-73628376D01*
X111680566Y-73624615D01*
X111629088Y-73609500D01*
X111629085Y-73609500D01*
X111490915Y-73609500D01*
X111490912Y-73609500D01*
X111358343Y-73648425D01*
X111358338Y-73648427D01*
X111242108Y-73723124D01*
X111242106Y-73723126D01*
X111242104Y-73723127D01*
X111242104Y-73723128D01*
X111163104Y-73814299D01*
X111151621Y-73827551D01*
X111151620Y-73827552D01*
X111094222Y-73953235D01*
X111094221Y-73953238D01*
X111091872Y-73969576D01*
X111062845Y-74033131D01*
X111004066Y-74070903D01*
X110956024Y-74070971D01*
X110950000Y-74075494D01*
X110950000Y-75006000D01*
X110930315Y-75073039D01*
X110877511Y-75118794D01*
X110826000Y-75130000D01*
X110574000Y-75130000D01*
X110506961Y-75110315D01*
X110461206Y-75057511D01*
X110450000Y-75006000D01*
X110449999Y-74075493D01*
X110449998Y-74075493D01*
X110303809Y-74117965D01*
X110303806Y-74117967D01*
X110164625Y-74200278D01*
X110164616Y-74200285D01*
X110142181Y-74222721D01*
X110080858Y-74256206D01*
X110011166Y-74251222D01*
X109955233Y-74209350D01*
X109930816Y-74143886D01*
X109930500Y-74135040D01*
X109930500Y-73834411D01*
X109950185Y-73767372D01*
X109966819Y-73746730D01*
X110906731Y-72806819D01*
X110968054Y-72773334D01*
X110994412Y-72770500D01*
X111769253Y-72770500D01*
X111836292Y-72790185D01*
X111872354Y-72825608D01*
X111905214Y-72874786D01*
X111983112Y-72926836D01*
X111983114Y-72926836D01*
X111983115Y-72926837D01*
X112051801Y-72940500D01*
X112051804Y-72940500D01*
X112468198Y-72940500D01*
X112536884Y-72926837D01*
X112536884Y-72926836D01*
X112536888Y-72926836D01*
X112614786Y-72874786D01*
X112666836Y-72796888D01*
X112668157Y-72790247D01*
X112680500Y-72728198D01*
X112680500Y-72484411D01*
X112700185Y-72417372D01*
X112716819Y-72396730D01*
X112764915Y-72348634D01*
X112787051Y-72326498D01*
X112848373Y-72293014D01*
X112918065Y-72297998D01*
G37*
%TD.AperFunction*%
%TD*%
%TA.AperFunction,Conductor*%
%TO.N,+5V*%
G36*
X116093039Y-86869685D02*
G01*
X116138794Y-86922489D01*
X116150000Y-86974000D01*
X116150000Y-88626000D01*
X116130315Y-88693039D01*
X116077511Y-88738794D01*
X116026000Y-88750000D01*
X116020000Y-88750000D01*
X116020000Y-89030000D01*
X115520000Y-89030000D01*
X115520000Y-88750000D01*
X115422155Y-88750000D01*
X115362627Y-88756401D01*
X115362616Y-88756404D01*
X115352630Y-88760128D01*
X115282938Y-88765107D01*
X115221624Y-88731624D01*
X114196319Y-87706319D01*
X114162834Y-87644996D01*
X114160000Y-87618638D01*
X114160000Y-86974000D01*
X114179685Y-86906961D01*
X114232489Y-86861206D01*
X114284000Y-86850000D01*
X116026000Y-86850000D01*
X116093039Y-86869685D01*
G37*
%TD.AperFunction*%
%TD*%
%TA.AperFunction,Conductor*%
%TO.N,+5V*%
G36*
X122178480Y-87017569D02*
G01*
X122245112Y-87038590D01*
X122289802Y-87092298D01*
X122300000Y-87141544D01*
X122300000Y-87440787D01*
X122280315Y-87507826D01*
X122266253Y-87525819D01*
X121160001Y-88699998D01*
X121156569Y-88704367D01*
X121154945Y-88703091D01*
X121108763Y-88742666D01*
X121044619Y-88752880D01*
X121017830Y-88750000D01*
X120920000Y-88750000D01*
X120920000Y-89069230D01*
X120900000Y-89100000D01*
X120420000Y-89100000D01*
X120420000Y-88750000D01*
X120418337Y-88748337D01*
X120356961Y-88730315D01*
X120311206Y-88677511D01*
X120300000Y-88626000D01*
X120300000Y-88448145D01*
X120301262Y-88430498D01*
X120302771Y-88420000D01*
X120305647Y-88400000D01*
X120301262Y-88369500D01*
X120300000Y-88351854D01*
X120300000Y-87124000D01*
X120319685Y-87056961D01*
X120372489Y-87011206D01*
X120424000Y-87000000D01*
X121300000Y-87000000D01*
X122178480Y-87017569D01*
G37*
%TD.AperFunction*%
%TD*%
M02*
