%TF.GenerationSoftware,KiCad,Pcbnew,7.0.6-rc3*%
%TF.CreationDate,2023-07-14T23:43:47-04:00*%
%TF.ProjectId,esp,6573702e-6b69-4636-9164-5f7063625858,rev?*%
%TF.SameCoordinates,Original*%
%TF.FileFunction,Copper,L3,Inr*%
%TF.FilePolarity,Positive*%
%FSLAX46Y46*%
G04 Gerber Fmt 4.6, Leading zero omitted, Abs format (unit mm)*
G04 Created by KiCad (PCBNEW 7.0.6-rc3) date 2023-07-14 23:43:47*
%MOMM*%
%LPD*%
G01*
G04 APERTURE LIST*
%TA.AperFunction,ComponentPad*%
%ADD10O,1.000000X2.100000*%
%TD*%
%TA.AperFunction,ComponentPad*%
%ADD11O,1.000000X1.600000*%
%TD*%
%TA.AperFunction,ComponentPad*%
%ADD12R,1.700000X1.700000*%
%TD*%
%TA.AperFunction,ComponentPad*%
%ADD13O,1.700000X1.700000*%
%TD*%
%TA.AperFunction,ComponentPad*%
%ADD14C,1.650000*%
%TD*%
%TA.AperFunction,ComponentPad*%
%ADD15R,1.350000X1.350000*%
%TD*%
%TA.AperFunction,ComponentPad*%
%ADD16O,1.350000X1.350000*%
%TD*%
%TA.AperFunction,ViaPad*%
%ADD17C,0.600000*%
%TD*%
G04 APERTURE END LIST*
D10*
%TO.N,unconnected-(P301-SHIELD-PadS1)*%
%TO.C,P301*%
X113900000Y-90890000D03*
D11*
X113900000Y-95070000D03*
D10*
X122540000Y-90890000D03*
D11*
X122540000Y-95070000D03*
%TD*%
D12*
%TO.N,+1V65*%
%TO.C,R101*%
X131105000Y-73000000D03*
D13*
%TO.N,/esp32/PHOTORESISTOR_IN*%
X131105000Y-75540000D03*
%TD*%
D14*
%TO.N,*%
%TO.C,REF\u002A\u002A*%
X104440000Y-95100000D03*
%TD*%
%TO.N,*%
%TO.C,REF\u002A\u002A*%
X109190000Y-67500000D03*
%TD*%
D15*
%TO.N,/UART_TX*%
%TO.C,J104*%
X131100000Y-85000000D03*
D16*
%TO.N,/UART_RX*%
X131100000Y-83000000D03*
%TO.N,GND*%
X131100000Y-81000000D03*
%TO.N,+5V*%
X131100000Y-79000000D03*
%TD*%
D12*
%TO.N,/D0*%
%TO.C,J105*%
X105600000Y-74360000D03*
D13*
%TO.N,/D1*%
X105600000Y-76900000D03*
%TO.N,/D2*%
X105600000Y-79440000D03*
%TD*%
D14*
%TO.N,*%
%TO.C,REF\u002A\u002A*%
X131990000Y-95100000D03*
%TD*%
D12*
%TO.N,/SERVO_B*%
%TO.C,J102*%
X126395000Y-88675000D03*
D13*
%TO.N,+5V*%
X126395000Y-91215000D03*
%TO.N,GND*%
X126395000Y-93755000D03*
%TD*%
D12*
%TO.N,/SERVO_A*%
%TO.C,J101*%
X109990000Y-93810000D03*
D13*
%TO.N,+5V*%
X109990000Y-91270000D03*
%TO.N,GND*%
X109990000Y-88730000D03*
%TD*%
D12*
%TO.N,GND*%
%TO.C,J103*%
X105600000Y-67360000D03*
D13*
%TO.N,+5V*%
X105600000Y-69900000D03*
%TD*%
D17*
%TO.N,GND*%
X132000000Y-92703138D03*
X132000000Y-91203138D03*
X132000000Y-89703138D03*
X132000000Y-88203138D03*
X132000000Y-65703138D03*
X132000000Y-64203138D03*
X130500000Y-94203138D03*
X130500000Y-92703138D03*
X130500000Y-91203138D03*
X130500000Y-89703138D03*
X130500000Y-88203138D03*
X130500000Y-65703138D03*
X130500000Y-64203138D03*
X129000000Y-94203138D03*
X129000000Y-92703138D03*
X129000000Y-91203138D03*
X127500000Y-70203138D03*
X124500000Y-94203138D03*
X124500000Y-70203138D03*
X123000000Y-65703138D03*
X123000000Y-64203138D03*
X121500000Y-70203138D03*
X121500000Y-68703138D03*
X121500000Y-67203138D03*
X121500000Y-65703138D03*
X121500000Y-64203138D03*
X120000000Y-65703138D03*
X120000000Y-64203138D03*
X115500000Y-68703138D03*
X114000000Y-70203138D03*
X114000000Y-68703138D03*
X114000000Y-67203138D03*
X114000000Y-65703138D03*
X112500000Y-70203138D03*
X112500000Y-68703138D03*
X112500000Y-67203138D03*
X112500000Y-65703138D03*
X111000000Y-70203138D03*
X111000000Y-68703138D03*
X111000000Y-67203138D03*
X111000000Y-65703138D03*
X111000000Y-64203138D03*
X109500000Y-65703138D03*
X109500000Y-64203138D03*
X108000000Y-65703138D03*
X108000000Y-64203138D03*
X106500000Y-89703138D03*
X106500000Y-88203138D03*
X106500000Y-65703138D03*
X106500000Y-64203138D03*
X105000000Y-71703138D03*
X105000000Y-65703138D03*
X105000000Y-64203138D03*
X104150000Y-92480000D03*
X104150000Y-90040000D03*
X104150000Y-87880000D03*
%TO.N,+3V3*%
X132400000Y-68700000D03*
X115300000Y-81290000D03*
X120920000Y-72400000D03*
X125360000Y-72400000D03*
X115330000Y-72130000D03*
X126610000Y-75620000D03*
X127920000Y-67410000D03*
%TO.N,/esp32/PHOTORESISTOR_IN*%
X129600000Y-70500000D03*
X115850000Y-74270000D03*
%TO.N,/esp32/RESET*%
X106330000Y-85980000D03*
X111560000Y-74090000D03*
%TO.N,GND*%
X126810000Y-87330000D03*
X130400000Y-68700000D03*
X119180000Y-75150000D03*
X123910000Y-76270000D03*
X126350000Y-81160000D03*
X115550000Y-65720000D03*
X127090000Y-83740000D03*
X115810000Y-66400000D03*
X124770000Y-81190000D03*
X115260000Y-82300000D03*
X109920000Y-79940000D03*
X121040000Y-78160000D03*
X117510000Y-64970000D03*
X112480000Y-79510000D03*
X116150000Y-76300000D03*
X119170000Y-71560000D03*
X115350000Y-64200000D03*
X119440000Y-73200000D03*
X115220000Y-95270000D03*
X122110000Y-86280000D03*
X117500000Y-79000000D03*
X121470000Y-81090000D03*
X115950000Y-85030000D03*
X112900000Y-85330000D03*
X119800000Y-88400000D03*
X111640000Y-88250000D03*
X121170000Y-85420000D03*
X121900000Y-75000000D03*
X112750000Y-75290000D03*
X115240000Y-92800000D03*
X116340000Y-71590000D03*
X109530000Y-85150000D03*
X116770000Y-81840000D03*
X116920000Y-68940000D03*
X118160000Y-82700000D03*
X119990000Y-70490000D03*
X111620000Y-84990000D03*
X117810000Y-84740000D03*
X119910000Y-69870000D03*
X111040000Y-89830000D03*
X116530000Y-95280000D03*
X117500000Y-77690000D03*
X112950000Y-93930000D03*
X116260000Y-81150000D03*
X110710000Y-74030000D03*
X113000000Y-81130000D03*
X117190000Y-81110000D03*
X126550000Y-78420000D03*
X108040000Y-85150000D03*
X106550000Y-86800000D03*
X120100000Y-73320000D03*
X125030000Y-85490000D03*
X117840000Y-65670000D03*
X127050000Y-80020000D03*
X121930000Y-75970000D03*
X107040000Y-77050000D03*
X129500000Y-69500000D03*
X109920000Y-76890000D03*
X125150000Y-77880000D03*
X121449500Y-79420000D03*
X116660000Y-70470000D03*
X119200000Y-72430000D03*
X111080000Y-92480000D03*
X124070000Y-84890000D03*
X108560000Y-89350000D03*
X119640000Y-69100000D03*
X118920000Y-68280000D03*
X125580000Y-82180000D03*
X108600000Y-88380000D03*
X124020000Y-82180000D03*
X107040000Y-74040000D03*
X116670000Y-67550000D03*
X116770000Y-69700000D03*
X119800000Y-87000000D03*
X116150000Y-79000000D03*
X113390000Y-89380000D03*
X122340000Y-88420000D03*
X120000000Y-84060000D03*
X108620000Y-91010000D03*
X122130000Y-78380000D03*
X122890000Y-76280000D03*
X116910000Y-68230000D03*
X119760000Y-95300000D03*
X116700000Y-88600000D03*
X116220000Y-66990000D03*
X123920000Y-81160000D03*
X123160000Y-81140000D03*
X108660000Y-72900000D03*
X119560000Y-68410000D03*
X121110000Y-95260000D03*
X131400000Y-68700000D03*
X114750000Y-89010000D03*
X118090000Y-95260000D03*
X123120000Y-84020000D03*
X114800000Y-77690000D03*
X117440000Y-64220000D03*
X125560000Y-81180000D03*
X116040000Y-70940000D03*
X122930000Y-93700000D03*
X114000000Y-89000000D03*
X109950000Y-71440000D03*
X126990000Y-79150000D03*
X117500000Y-76300000D03*
X118640000Y-66910000D03*
X125730000Y-84080000D03*
X118280000Y-66260000D03*
X129930000Y-82150000D03*
X119000000Y-88400000D03*
X122990000Y-89200000D03*
X116150000Y-77690000D03*
X119400000Y-87600000D03*
X115760000Y-83850000D03*
X122300000Y-89200000D03*
X114800000Y-76300000D03*
X122330000Y-81160000D03*
X132280000Y-74440000D03*
X115400000Y-64930000D03*
X123060000Y-71300000D03*
X119930000Y-81160000D03*
X106500000Y-94500000D03*
X118830000Y-67580000D03*
X125920000Y-78290000D03*
X114800000Y-79000000D03*
X117000000Y-87700000D03*
X111680000Y-83810000D03*
X129930000Y-84410000D03*
X113060000Y-83850000D03*
X107000000Y-79150000D03*
X119410000Y-70840000D03*
%TO.N,+5V*%
X121790000Y-87530000D03*
X127670000Y-72290000D03*
X115770000Y-88740000D03*
X115770000Y-87300000D03*
X120670000Y-88750000D03*
X114570000Y-87350000D03*
X120670000Y-87300000D03*
%TO.N,/power-usb/NOFILTER_D+*%
X117419317Y-92389317D03*
X119540000Y-92510000D03*
%TO.N,/power-usb/NOFILTER_D-*%
X116340000Y-92560000D03*
X118460000Y-92560000D03*
%TO.N,/esp32/BOOT*%
X112260000Y-80690000D03*
X112300000Y-85980000D03*
%TO.N,/SERVO_A*%
X112650000Y-78300000D03*
%TO.N,/SERVO_B*%
X120880000Y-83950000D03*
X112490000Y-77480000D03*
%TO.N,/D0*%
X110550000Y-72010000D03*
X113680000Y-75260000D03*
%TO.N,/D1*%
X109480000Y-73060000D03*
X112520000Y-76230000D03*
%TD*%
%TA.AperFunction,Conductor*%
%TO.N,GND*%
G36*
X132862539Y-63839685D02*
G01*
X132908294Y-63892489D01*
X132919500Y-63944000D01*
X132919500Y-68236296D01*
X132899815Y-68303335D01*
X132847011Y-68349090D01*
X132777853Y-68359034D01*
X132726777Y-68335711D01*
X132725357Y-68337922D01*
X132601661Y-68258427D01*
X132601656Y-68258425D01*
X132469087Y-68219500D01*
X132469085Y-68219500D01*
X132330915Y-68219500D01*
X132330912Y-68219500D01*
X132198343Y-68258425D01*
X132198338Y-68258427D01*
X132082108Y-68333124D01*
X132082106Y-68333126D01*
X132082104Y-68333127D01*
X132082104Y-68333128D01*
X132002063Y-68425500D01*
X131991621Y-68437551D01*
X131991620Y-68437552D01*
X131934222Y-68563234D01*
X131914559Y-68700000D01*
X131934222Y-68836765D01*
X131982902Y-68943358D01*
X131991621Y-68962449D01*
X132082104Y-69066872D01*
X132082106Y-69066873D01*
X132082108Y-69066875D01*
X132198338Y-69141572D01*
X132198343Y-69141574D01*
X132330912Y-69180499D01*
X132330914Y-69180500D01*
X132330915Y-69180500D01*
X132469086Y-69180500D01*
X132469086Y-69180499D01*
X132601659Y-69141573D01*
X132601661Y-69141572D01*
X132725357Y-69062078D01*
X132726779Y-69064291D01*
X132777845Y-69040966D01*
X132847004Y-69050905D01*
X132899811Y-69096656D01*
X132919500Y-69163695D01*
X132919500Y-94426144D01*
X132899815Y-94493183D01*
X132847011Y-94538938D01*
X132777853Y-94548882D01*
X132714297Y-94519857D01*
X132703350Y-94509116D01*
X132612697Y-94408435D01*
X132612694Y-94408433D01*
X132612693Y-94408432D01*
X132612692Y-94408431D01*
X132511571Y-94334962D01*
X132455297Y-94294076D01*
X132318848Y-94233326D01*
X132277571Y-94214949D01*
X132277569Y-94214948D01*
X132087274Y-94174500D01*
X131892726Y-94174500D01*
X131702431Y-94214948D01*
X131524702Y-94294076D01*
X131367305Y-94408433D01*
X131367302Y-94408435D01*
X131237129Y-94553009D01*
X131139857Y-94721488D01*
X131139856Y-94721489D01*
X131079738Y-94906516D01*
X131059402Y-95099999D01*
X131079738Y-95293483D01*
X131139856Y-95478510D01*
X131139857Y-95478511D01*
X131212275Y-95603942D01*
X131237130Y-95646992D01*
X131263393Y-95676160D01*
X131367302Y-95791564D01*
X131367311Y-95791571D01*
X131386045Y-95805183D01*
X131428711Y-95860513D01*
X131434689Y-95930126D01*
X131402083Y-95991921D01*
X131341243Y-96026278D01*
X131313159Y-96029500D01*
X123072156Y-96029500D01*
X123005117Y-96009815D01*
X122959362Y-95957011D01*
X122949418Y-95887853D01*
X122978443Y-95824297D01*
X122981764Y-95820616D01*
X123054136Y-95743547D01*
X123054135Y-95743547D01*
X123054139Y-95743544D01*
X123130883Y-95603947D01*
X123170500Y-95449651D01*
X123170500Y-94730334D01*
X123169382Y-94721488D01*
X123165448Y-94690346D01*
X123155545Y-94611955D01*
X123096903Y-94463840D01*
X123003268Y-94334963D01*
X122880524Y-94233420D01*
X122880522Y-94233419D01*
X122880521Y-94233418D01*
X122736384Y-94165593D01*
X122579904Y-94135743D01*
X122579900Y-94135743D01*
X122420915Y-94145746D01*
X122269414Y-94194971D01*
X122237936Y-94214948D01*
X122134910Y-94280330D01*
X122134908Y-94280332D01*
X122134905Y-94280334D01*
X122025863Y-94396452D01*
X122025857Y-94396460D01*
X121949118Y-94536049D01*
X121949115Y-94536057D01*
X121909500Y-94690346D01*
X121909500Y-95409675D01*
X121924454Y-95528039D01*
X121924456Y-95528048D01*
X121974942Y-95655564D01*
X121983097Y-95676160D01*
X122076732Y-95805037D01*
X122076733Y-95805038D01*
X122076734Y-95805039D01*
X122076737Y-95805042D01*
X122082679Y-95809958D01*
X122121786Y-95867858D01*
X122123381Y-95937709D01*
X122086958Y-95997335D01*
X122024082Y-96027803D01*
X122003637Y-96029500D01*
X114432156Y-96029500D01*
X114365117Y-96009815D01*
X114319362Y-95957011D01*
X114309418Y-95887853D01*
X114338443Y-95824297D01*
X114341764Y-95820616D01*
X114414136Y-95743547D01*
X114414135Y-95743547D01*
X114414139Y-95743544D01*
X114490883Y-95603947D01*
X114530500Y-95449651D01*
X114530500Y-94730334D01*
X114529382Y-94721488D01*
X114525448Y-94690346D01*
X114515545Y-94611955D01*
X114456903Y-94463840D01*
X114363268Y-94334963D01*
X114240524Y-94233420D01*
X114240522Y-94233419D01*
X114240521Y-94233418D01*
X114096384Y-94165593D01*
X113939904Y-94135743D01*
X113939900Y-94135743D01*
X113780915Y-94145746D01*
X113629414Y-94194971D01*
X113597936Y-94214948D01*
X113494910Y-94280330D01*
X113494908Y-94280332D01*
X113494905Y-94280334D01*
X113385863Y-94396452D01*
X113385857Y-94396460D01*
X113309118Y-94536049D01*
X113309115Y-94536057D01*
X113269500Y-94690346D01*
X113269500Y-95409675D01*
X113284454Y-95528039D01*
X113284456Y-95528048D01*
X113334942Y-95655564D01*
X113343097Y-95676160D01*
X113436732Y-95805037D01*
X113436733Y-95805038D01*
X113436734Y-95805039D01*
X113436737Y-95805042D01*
X113442679Y-95809958D01*
X113481786Y-95867858D01*
X113483381Y-95937709D01*
X113446958Y-95997335D01*
X113384082Y-96027803D01*
X113363637Y-96029500D01*
X105116841Y-96029500D01*
X105049802Y-96009815D01*
X105004047Y-95957011D01*
X104994103Y-95887853D01*
X105023128Y-95824297D01*
X105043955Y-95805183D01*
X105052362Y-95799073D01*
X105062692Y-95791569D01*
X105192870Y-95646992D01*
X105290144Y-95478508D01*
X105350262Y-95293482D01*
X105370598Y-95100000D01*
X105350262Y-94906518D01*
X105290144Y-94721492D01*
X105290143Y-94721491D01*
X105290143Y-94721489D01*
X105290142Y-94721488D01*
X105260354Y-94669894D01*
X109039500Y-94669894D01*
X109039501Y-94669902D01*
X109045330Y-94699212D01*
X109067542Y-94732457D01*
X109084219Y-94743599D01*
X109100787Y-94754669D01*
X109100790Y-94754669D01*
X109100791Y-94754670D01*
X109110647Y-94756630D01*
X109130101Y-94760500D01*
X110849898Y-94760499D01*
X110879213Y-94754669D01*
X110912457Y-94732457D01*
X110934669Y-94699213D01*
X110940500Y-94669899D01*
X110940500Y-94005000D01*
X125064364Y-94005000D01*
X125121567Y-94218486D01*
X125121570Y-94218492D01*
X125221399Y-94432578D01*
X125356894Y-94626082D01*
X125523917Y-94793105D01*
X125717421Y-94928600D01*
X125931507Y-95028429D01*
X125931516Y-95028433D01*
X126145000Y-95085634D01*
X126145000Y-94190501D01*
X126252685Y-94239680D01*
X126359237Y-94255000D01*
X126430763Y-94255000D01*
X126537315Y-94239680D01*
X126645000Y-94190501D01*
X126645000Y-95085633D01*
X126858483Y-95028433D01*
X126858492Y-95028429D01*
X127072578Y-94928600D01*
X127266082Y-94793105D01*
X127433105Y-94626082D01*
X127568600Y-94432578D01*
X127668429Y-94218492D01*
X127668432Y-94218486D01*
X127725636Y-94005000D01*
X126828686Y-94005000D01*
X126854493Y-93964844D01*
X126895000Y-93826889D01*
X126895000Y-93683111D01*
X126854493Y-93545156D01*
X126828686Y-93505000D01*
X127725636Y-93505000D01*
X127725635Y-93504999D01*
X127668432Y-93291513D01*
X127668429Y-93291507D01*
X127568600Y-93077422D01*
X127568599Y-93077420D01*
X127433113Y-92883926D01*
X127433108Y-92883920D01*
X127266082Y-92716894D01*
X127072578Y-92581399D01*
X126858492Y-92481570D01*
X126858486Y-92481567D01*
X126736349Y-92448841D01*
X126676689Y-92412476D01*
X126646160Y-92349629D01*
X126654455Y-92280253D01*
X126698940Y-92226375D01*
X126732444Y-92210407D01*
X126798954Y-92190232D01*
X126981450Y-92092685D01*
X127141410Y-91961410D01*
X127272685Y-91801450D01*
X127370232Y-91618954D01*
X127430300Y-91420934D01*
X127450583Y-91215000D01*
X127430300Y-91009066D01*
X127370232Y-90811046D01*
X127272685Y-90628550D01*
X127186547Y-90523590D01*
X127141410Y-90468589D01*
X126981452Y-90337317D01*
X126981453Y-90337317D01*
X126981450Y-90337315D01*
X126798954Y-90239768D01*
X126600934Y-90179700D01*
X126600932Y-90179699D01*
X126600934Y-90179699D01*
X126395000Y-90159417D01*
X126189067Y-90179699D01*
X125991043Y-90239769D01*
X125888151Y-90294767D01*
X125808550Y-90337315D01*
X125808548Y-90337316D01*
X125808547Y-90337317D01*
X125648589Y-90468589D01*
X125517317Y-90628547D01*
X125419769Y-90811043D01*
X125359699Y-91009067D01*
X125339417Y-91214999D01*
X125359699Y-91420932D01*
X125359700Y-91420934D01*
X125419768Y-91618954D01*
X125517315Y-91801450D01*
X125517317Y-91801452D01*
X125648589Y-91961410D01*
X125701377Y-92004731D01*
X125808550Y-92092685D01*
X125991046Y-92190232D01*
X126057551Y-92210405D01*
X126115989Y-92248702D01*
X126144446Y-92312514D01*
X126133887Y-92381581D01*
X126087663Y-92433975D01*
X126053650Y-92448841D01*
X125931514Y-92481567D01*
X125931507Y-92481570D01*
X125717422Y-92581399D01*
X125717420Y-92581400D01*
X125523926Y-92716886D01*
X125523920Y-92716891D01*
X125356891Y-92883920D01*
X125356886Y-92883926D01*
X125221400Y-93077420D01*
X125221399Y-93077422D01*
X125121570Y-93291507D01*
X125121567Y-93291513D01*
X125064364Y-93504999D01*
X125064364Y-93505000D01*
X125961314Y-93505000D01*
X125935507Y-93545156D01*
X125895000Y-93683111D01*
X125895000Y-93826889D01*
X125935507Y-93964844D01*
X125961314Y-94005000D01*
X125064364Y-94005000D01*
X110940500Y-94005000D01*
X110940499Y-92950102D01*
X110934669Y-92920787D01*
X110917163Y-92894586D01*
X110912457Y-92887542D01*
X110879214Y-92865332D01*
X110879215Y-92865332D01*
X110879213Y-92865331D01*
X110879211Y-92865330D01*
X110879208Y-92865329D01*
X110849901Y-92859500D01*
X109130105Y-92859500D01*
X109130097Y-92859501D01*
X109100787Y-92865330D01*
X109067542Y-92887542D01*
X109045332Y-92920785D01*
X109045329Y-92920791D01*
X109039500Y-92950098D01*
X109039500Y-94669894D01*
X105260354Y-94669894D01*
X105226903Y-94611955D01*
X105192870Y-94553008D01*
X105139003Y-94493183D01*
X105062697Y-94408435D01*
X105062694Y-94408433D01*
X105062693Y-94408432D01*
X105062692Y-94408431D01*
X104961571Y-94334962D01*
X104905297Y-94294076D01*
X104768848Y-94233326D01*
X104727571Y-94214949D01*
X104727569Y-94214948D01*
X104537274Y-94174500D01*
X104342726Y-94174500D01*
X104152431Y-94214948D01*
X103974702Y-94294076D01*
X103817305Y-94408433D01*
X103817302Y-94408435D01*
X103736650Y-94498010D01*
X103677163Y-94534659D01*
X103607306Y-94533328D01*
X103549258Y-94494442D01*
X103521448Y-94430345D01*
X103520500Y-94415038D01*
X103520500Y-92560000D01*
X115831120Y-92560000D01*
X115851732Y-92703363D01*
X115851734Y-92703371D01*
X115911900Y-92835117D01*
X115911905Y-92835125D01*
X116006751Y-92944584D01*
X116006753Y-92944585D01*
X116006754Y-92944586D01*
X116128604Y-93022894D01*
X116128605Y-93022894D01*
X116128608Y-93022896D01*
X116267576Y-93063699D01*
X116267578Y-93063700D01*
X116267579Y-93063700D01*
X116412422Y-93063700D01*
X116412422Y-93063699D01*
X116473143Y-93045870D01*
X116551391Y-93022896D01*
X116551392Y-93022895D01*
X116551396Y-93022894D01*
X116673246Y-92944586D01*
X116673248Y-92944584D01*
X116768094Y-92835125D01*
X116768094Y-92835124D01*
X116768097Y-92835121D01*
X116815999Y-92730230D01*
X116861751Y-92677430D01*
X116928790Y-92657745D01*
X116995830Y-92677429D01*
X117022504Y-92700542D01*
X117086071Y-92773903D01*
X117207921Y-92852211D01*
X117207922Y-92852211D01*
X117207925Y-92852213D01*
X117346893Y-92893016D01*
X117346895Y-92893017D01*
X117346896Y-92893017D01*
X117491739Y-92893017D01*
X117491739Y-92893016D01*
X117552460Y-92875187D01*
X117630708Y-92852213D01*
X117630709Y-92852212D01*
X117630713Y-92852211D01*
X117752563Y-92773903D01*
X117790830Y-92729740D01*
X117849605Y-92691967D01*
X117919474Y-92691965D01*
X117978253Y-92729738D01*
X117997336Y-92759431D01*
X118031902Y-92835119D01*
X118031905Y-92835125D01*
X118126751Y-92944584D01*
X118126753Y-92944585D01*
X118126754Y-92944586D01*
X118248604Y-93022894D01*
X118248605Y-93022894D01*
X118248608Y-93022896D01*
X118387576Y-93063699D01*
X118387578Y-93063700D01*
X118387579Y-93063700D01*
X118532422Y-93063700D01*
X118532422Y-93063699D01*
X118593143Y-93045870D01*
X118671391Y-93022896D01*
X118671392Y-93022895D01*
X118671396Y-93022894D01*
X118793246Y-92944586D01*
X118793248Y-92944584D01*
X118888094Y-92835125D01*
X118888094Y-92835124D01*
X118888097Y-92835121D01*
X118900141Y-92808747D01*
X118945894Y-92755945D01*
X119012933Y-92736259D01*
X119079973Y-92755942D01*
X119106649Y-92779057D01*
X119111902Y-92785120D01*
X119111903Y-92785121D01*
X119132377Y-92808749D01*
X119205393Y-92893016D01*
X119206754Y-92894586D01*
X119328604Y-92972894D01*
X119328605Y-92972894D01*
X119328608Y-92972896D01*
X119467576Y-93013699D01*
X119467578Y-93013700D01*
X119467579Y-93013700D01*
X119612422Y-93013700D01*
X119612422Y-93013699D01*
X119673143Y-92995870D01*
X119751391Y-92972896D01*
X119751392Y-92972895D01*
X119751396Y-92972894D01*
X119873246Y-92894586D01*
X119874606Y-92893017D01*
X119968094Y-92785125D01*
X119968095Y-92785123D01*
X119968097Y-92785121D01*
X120028267Y-92653368D01*
X120048880Y-92510000D01*
X120028267Y-92366632D01*
X120003552Y-92312514D01*
X119968099Y-92234882D01*
X119968094Y-92234874D01*
X119873248Y-92125415D01*
X119795578Y-92075500D01*
X119751396Y-92047106D01*
X119751395Y-92047105D01*
X119751391Y-92047103D01*
X119612423Y-92006300D01*
X119612421Y-92006300D01*
X119467579Y-92006300D01*
X119467576Y-92006300D01*
X119328608Y-92047103D01*
X119206751Y-92125415D01*
X119111905Y-92234874D01*
X119111901Y-92234881D01*
X119099857Y-92261254D01*
X119054102Y-92314057D01*
X118987062Y-92333740D01*
X118920023Y-92314054D01*
X118893350Y-92290942D01*
X118888097Y-92284880D01*
X118888097Y-92284879D01*
X118793246Y-92175414D01*
X118671396Y-92097106D01*
X118671395Y-92097105D01*
X118671391Y-92097103D01*
X118532423Y-92056300D01*
X118532421Y-92056300D01*
X118387579Y-92056300D01*
X118387576Y-92056300D01*
X118248608Y-92097103D01*
X118126752Y-92175414D01*
X118088487Y-92219576D01*
X118029709Y-92257350D01*
X117959839Y-92257350D01*
X117901061Y-92219576D01*
X117881980Y-92189884D01*
X117847416Y-92114199D01*
X117847411Y-92114191D01*
X117752565Y-92004732D01*
X117635765Y-91929670D01*
X117630713Y-91926423D01*
X117630712Y-91926422D01*
X117630708Y-91926420D01*
X117491740Y-91885617D01*
X117491738Y-91885617D01*
X117346896Y-91885617D01*
X117346893Y-91885617D01*
X117207925Y-91926420D01*
X117086068Y-92004732D01*
X116991222Y-92114191D01*
X116991219Y-92114197D01*
X116943319Y-92219083D01*
X116897564Y-92271887D01*
X116830524Y-92291571D01*
X116763485Y-92271886D01*
X116736811Y-92248773D01*
X116736749Y-92248702D01*
X116673246Y-92175414D01*
X116551396Y-92097106D01*
X116551395Y-92097105D01*
X116551391Y-92097103D01*
X116412423Y-92056300D01*
X116412421Y-92056300D01*
X116267579Y-92056300D01*
X116267576Y-92056300D01*
X116128608Y-92097103D01*
X116006751Y-92175415D01*
X115911905Y-92284874D01*
X115911900Y-92284882D01*
X115851734Y-92416628D01*
X115851732Y-92416636D01*
X115831120Y-92560000D01*
X103520500Y-92560000D01*
X103520500Y-88980000D01*
X108659364Y-88980000D01*
X108716567Y-89193486D01*
X108716570Y-89193492D01*
X108816399Y-89407578D01*
X108951894Y-89601082D01*
X109118917Y-89768105D01*
X109312421Y-89903600D01*
X109526507Y-90003429D01*
X109526516Y-90003433D01*
X109648649Y-90036158D01*
X109708310Y-90072523D01*
X109738839Y-90135369D01*
X109730545Y-90204745D01*
X109686059Y-90258623D01*
X109652552Y-90274593D01*
X109586046Y-90294767D01*
X109455358Y-90364622D01*
X109403550Y-90392315D01*
X109403548Y-90392316D01*
X109403547Y-90392317D01*
X109243589Y-90523589D01*
X109112317Y-90683547D01*
X109014769Y-90866043D01*
X108954699Y-91064067D01*
X108934417Y-91269999D01*
X108954699Y-91475932D01*
X108967960Y-91519648D01*
X109014768Y-91673954D01*
X109112315Y-91856450D01*
X109112317Y-91856452D01*
X109243589Y-92016410D01*
X109315592Y-92075500D01*
X109403550Y-92147685D01*
X109586046Y-92245232D01*
X109784066Y-92305300D01*
X109784065Y-92305300D01*
X109802529Y-92307118D01*
X109990000Y-92325583D01*
X110195934Y-92305300D01*
X110393954Y-92245232D01*
X110576450Y-92147685D01*
X110736410Y-92016410D01*
X110867685Y-91856450D01*
X110965232Y-91673954D01*
X111024165Y-91479675D01*
X113269500Y-91479675D01*
X113284454Y-91598039D01*
X113284456Y-91598048D01*
X113325342Y-91701317D01*
X113343097Y-91746160D01*
X113436732Y-91875037D01*
X113559476Y-91976580D01*
X113703616Y-92044407D01*
X113860096Y-92074257D01*
X114019083Y-92064254D01*
X114170587Y-92015028D01*
X114305090Y-91929670D01*
X114414139Y-91813544D01*
X114490883Y-91673947D01*
X114490886Y-91673934D01*
X114491733Y-91671798D01*
X114492854Y-91670360D01*
X114494641Y-91667111D01*
X114495164Y-91667399D01*
X114534711Y-91616710D01*
X114600648Y-91593602D01*
X114668612Y-91609812D01*
X114717023Y-91660192D01*
X114724958Y-91679117D01*
X114732171Y-91701315D01*
X114732171Y-91701316D01*
X114732172Y-91701317D01*
X114820914Y-91841152D01*
X114941644Y-91954526D01*
X114941647Y-91954528D01*
X114941649Y-91954529D01*
X115086772Y-92034311D01*
X115086776Y-92034313D01*
X115247191Y-92075500D01*
X115247195Y-92075500D01*
X115371240Y-92075500D01*
X115371242Y-92075500D01*
X115371247Y-92075499D01*
X115371251Y-92075499D01*
X115384590Y-92073813D01*
X115494312Y-92059953D01*
X115648299Y-91998985D01*
X115782287Y-91901637D01*
X115887856Y-91774026D01*
X115958373Y-91624171D01*
X115989406Y-91461486D01*
X115984186Y-91378516D01*
X120450594Y-91378516D01*
X120460993Y-91543804D01*
X120460993Y-91543807D01*
X120500016Y-91663906D01*
X120512172Y-91701317D01*
X120600914Y-91841152D01*
X120721644Y-91954526D01*
X120721647Y-91954528D01*
X120721649Y-91954529D01*
X120866772Y-92034311D01*
X120866776Y-92034313D01*
X121027191Y-92075500D01*
X121027195Y-92075500D01*
X121151240Y-92075500D01*
X121151242Y-92075500D01*
X121151247Y-92075499D01*
X121151251Y-92075499D01*
X121164590Y-92073813D01*
X121274312Y-92059953D01*
X121428299Y-91998985D01*
X121562287Y-91901637D01*
X121667856Y-91774026D01*
X121723040Y-91656754D01*
X121769394Y-91604478D01*
X121836654Y-91585560D01*
X121903465Y-91606009D01*
X121948613Y-91659332D01*
X121950527Y-91663898D01*
X121983097Y-91746160D01*
X122076732Y-91875037D01*
X122199476Y-91976580D01*
X122343616Y-92044407D01*
X122500096Y-92074257D01*
X122659083Y-92064254D01*
X122810587Y-92015028D01*
X122945090Y-91929670D01*
X123054139Y-91813544D01*
X123130883Y-91673947D01*
X123170500Y-91519651D01*
X123170500Y-90300334D01*
X123155545Y-90181955D01*
X123096903Y-90033840D01*
X123003268Y-89904963D01*
X122880524Y-89803420D01*
X122880522Y-89803419D01*
X122880521Y-89803418D01*
X122736384Y-89735593D01*
X122579904Y-89705743D01*
X122579900Y-89705743D01*
X122420915Y-89715746D01*
X122269414Y-89764971D01*
X122264476Y-89768105D01*
X122134910Y-89850330D01*
X122134908Y-89850332D01*
X122134905Y-89850334D01*
X122025863Y-89966452D01*
X122025857Y-89966460D01*
X121949118Y-90106049D01*
X121949115Y-90106057D01*
X121909500Y-90260346D01*
X121909500Y-91029655D01*
X121889815Y-91096694D01*
X121837011Y-91142449D01*
X121767853Y-91152393D01*
X121704297Y-91123368D01*
X121680804Y-91096098D01*
X121619090Y-90998853D01*
X121619087Y-90998850D01*
X121619086Y-90998848D01*
X121498356Y-90885474D01*
X121498353Y-90885472D01*
X121498350Y-90885470D01*
X121353227Y-90805688D01*
X121353217Y-90805685D01*
X121192812Y-90764500D01*
X121192809Y-90764500D01*
X121068758Y-90764500D01*
X121068748Y-90764500D01*
X120945688Y-90780047D01*
X120945686Y-90780047D01*
X120791702Y-90841014D01*
X120791693Y-90841019D01*
X120657715Y-90938360D01*
X120657712Y-90938363D01*
X120552144Y-91065972D01*
X120481626Y-91215831D01*
X120450594Y-91378516D01*
X115984186Y-91378516D01*
X115979007Y-91296195D01*
X115927828Y-91138683D01*
X115839086Y-90998848D01*
X115718356Y-90885474D01*
X115718353Y-90885472D01*
X115718350Y-90885470D01*
X115573227Y-90805688D01*
X115573217Y-90805685D01*
X115412812Y-90764500D01*
X115412809Y-90764500D01*
X115288758Y-90764500D01*
X115288748Y-90764500D01*
X115165688Y-90780047D01*
X115165686Y-90780047D01*
X115011702Y-90841014D01*
X115011693Y-90841019D01*
X114877715Y-90938360D01*
X114877712Y-90938363D01*
X114772144Y-91065973D01*
X114766698Y-91077547D01*
X114720342Y-91129824D01*
X114653081Y-91148740D01*
X114586271Y-91128290D01*
X114541124Y-91074966D01*
X114530500Y-91024748D01*
X114530500Y-90300335D01*
X114530499Y-90300324D01*
X114522849Y-90239769D01*
X114515545Y-90181955D01*
X114456903Y-90033840D01*
X114363268Y-89904963D01*
X114240524Y-89803420D01*
X114240522Y-89803419D01*
X114240521Y-89803418D01*
X114096384Y-89735593D01*
X113939904Y-89705743D01*
X113939900Y-89705743D01*
X113780915Y-89715746D01*
X113629414Y-89764971D01*
X113624476Y-89768105D01*
X113494910Y-89850330D01*
X113494908Y-89850332D01*
X113494905Y-89850334D01*
X113385863Y-89966452D01*
X113385857Y-89966460D01*
X113309118Y-90106049D01*
X113309115Y-90106057D01*
X113269500Y-90260346D01*
X113269500Y-91479675D01*
X111024165Y-91479675D01*
X111025300Y-91475934D01*
X111045583Y-91270000D01*
X111025300Y-91064066D01*
X110965232Y-90866046D01*
X110867685Y-90683550D01*
X110815702Y-90620209D01*
X110736410Y-90523589D01*
X110576452Y-90392317D01*
X110576453Y-90392317D01*
X110576450Y-90392315D01*
X110393954Y-90294768D01*
X110327447Y-90274593D01*
X110269009Y-90236296D01*
X110240553Y-90172484D01*
X110251113Y-90103417D01*
X110297337Y-90051023D01*
X110331350Y-90036158D01*
X110453483Y-90003433D01*
X110453492Y-90003429D01*
X110667578Y-89903600D01*
X110861082Y-89768105D01*
X111028105Y-89601082D01*
X111074451Y-89534894D01*
X125444500Y-89534894D01*
X125444501Y-89534902D01*
X125450330Y-89564212D01*
X125472542Y-89597457D01*
X125477968Y-89601082D01*
X125505787Y-89619669D01*
X125505790Y-89619669D01*
X125505791Y-89619670D01*
X125515647Y-89621630D01*
X125535101Y-89625500D01*
X127254898Y-89625499D01*
X127284213Y-89619669D01*
X127317457Y-89597457D01*
X127339669Y-89564213D01*
X127345500Y-89534899D01*
X127345499Y-87815102D01*
X127339669Y-87785787D01*
X127322409Y-87759954D01*
X127317457Y-87752542D01*
X127284214Y-87730332D01*
X127284215Y-87730332D01*
X127284213Y-87730331D01*
X127284211Y-87730330D01*
X127284208Y-87730329D01*
X127254901Y-87724500D01*
X125535105Y-87724500D01*
X125535097Y-87724501D01*
X125505787Y-87730330D01*
X125472542Y-87752542D01*
X125450332Y-87785785D01*
X125450329Y-87785791D01*
X125444500Y-87815098D01*
X125444500Y-89534894D01*
X111074451Y-89534894D01*
X111163600Y-89407578D01*
X111263429Y-89193492D01*
X111263432Y-89193486D01*
X111320636Y-88980000D01*
X110423686Y-88980000D01*
X110449493Y-88939844D01*
X110490000Y-88801889D01*
X110490000Y-88740000D01*
X115264353Y-88740000D01*
X115284834Y-88882456D01*
X115311043Y-88939844D01*
X115344623Y-89013373D01*
X115438872Y-89122143D01*
X115559947Y-89199953D01*
X115559950Y-89199954D01*
X115559949Y-89199954D01*
X115698036Y-89240499D01*
X115698038Y-89240500D01*
X115698039Y-89240500D01*
X115841962Y-89240500D01*
X115841962Y-89240499D01*
X115980053Y-89199953D01*
X116101128Y-89122143D01*
X116195377Y-89013373D01*
X116255165Y-88882457D01*
X116274209Y-88749999D01*
X120164353Y-88749999D01*
X120184834Y-88892456D01*
X120206476Y-88939844D01*
X120244623Y-89023373D01*
X120338872Y-89132143D01*
X120459947Y-89209953D01*
X120459950Y-89209954D01*
X120459949Y-89209954D01*
X120598036Y-89250499D01*
X120598038Y-89250500D01*
X120598039Y-89250500D01*
X120741962Y-89250500D01*
X120741962Y-89250499D01*
X120880053Y-89209953D01*
X121001128Y-89132143D01*
X121095377Y-89023373D01*
X121155165Y-88892457D01*
X121175647Y-88750000D01*
X121155165Y-88607543D01*
X121095377Y-88476627D01*
X121001128Y-88367857D01*
X120880053Y-88290047D01*
X120880051Y-88290046D01*
X120880049Y-88290045D01*
X120880050Y-88290045D01*
X120741963Y-88249500D01*
X120741961Y-88249500D01*
X120598039Y-88249500D01*
X120598036Y-88249500D01*
X120459949Y-88290045D01*
X120338873Y-88367856D01*
X120244623Y-88476626D01*
X120244622Y-88476628D01*
X120184834Y-88607543D01*
X120164353Y-88749999D01*
X116274209Y-88749999D01*
X116275647Y-88740000D01*
X116255165Y-88597543D01*
X116195377Y-88466627D01*
X116101128Y-88357857D01*
X115980053Y-88280047D01*
X115980051Y-88280046D01*
X115980049Y-88280045D01*
X115980050Y-88280045D01*
X115841963Y-88239500D01*
X115841961Y-88239500D01*
X115698039Y-88239500D01*
X115698036Y-88239500D01*
X115559949Y-88280045D01*
X115438873Y-88357856D01*
X115344623Y-88466626D01*
X115344622Y-88466628D01*
X115284834Y-88597543D01*
X115264353Y-88740000D01*
X110490000Y-88740000D01*
X110490000Y-88658111D01*
X110449493Y-88520156D01*
X110423686Y-88480000D01*
X111320636Y-88480000D01*
X111320635Y-88479999D01*
X111263432Y-88266513D01*
X111263429Y-88266507D01*
X111163600Y-88052422D01*
X111163599Y-88052420D01*
X111028113Y-87858926D01*
X111028108Y-87858920D01*
X110861082Y-87691894D01*
X110667578Y-87556399D01*
X110453492Y-87456570D01*
X110453486Y-87456567D01*
X110240000Y-87399364D01*
X110239999Y-87399364D01*
X110239999Y-88294498D01*
X110132315Y-88245320D01*
X110025763Y-88230000D01*
X109954237Y-88230000D01*
X109847685Y-88245320D01*
X109740000Y-88294498D01*
X109740000Y-87399364D01*
X109739999Y-87399364D01*
X109526513Y-87456567D01*
X109526507Y-87456570D01*
X109312422Y-87556399D01*
X109312420Y-87556400D01*
X109118926Y-87691886D01*
X109118920Y-87691891D01*
X108951891Y-87858920D01*
X108951886Y-87858926D01*
X108816400Y-88052420D01*
X108816399Y-88052422D01*
X108716570Y-88266507D01*
X108716567Y-88266513D01*
X108659364Y-88479999D01*
X108659364Y-88480000D01*
X109556314Y-88480000D01*
X109530507Y-88520156D01*
X109490000Y-88658111D01*
X109490000Y-88801889D01*
X109530507Y-88939844D01*
X109556314Y-88980000D01*
X108659364Y-88980000D01*
X103520500Y-88980000D01*
X103520500Y-87349999D01*
X114064353Y-87349999D01*
X114084834Y-87492456D01*
X114127258Y-87585349D01*
X114144623Y-87623373D01*
X114238872Y-87732143D01*
X114359947Y-87809953D01*
X114359950Y-87809954D01*
X114359949Y-87809954D01*
X114498036Y-87850499D01*
X114498038Y-87850500D01*
X114498039Y-87850500D01*
X114641962Y-87850500D01*
X114641962Y-87850499D01*
X114780053Y-87809953D01*
X114901128Y-87732143D01*
X114995377Y-87623373D01*
X115055165Y-87492457D01*
X115055524Y-87489955D01*
X115056575Y-87487653D01*
X115057665Y-87483944D01*
X115058197Y-87484100D01*
X115084543Y-87426399D01*
X115143318Y-87388620D01*
X115213188Y-87388614D01*
X115271969Y-87426383D01*
X115291057Y-87456082D01*
X115344622Y-87573371D01*
X115344623Y-87573373D01*
X115438872Y-87682143D01*
X115559947Y-87759953D01*
X115559950Y-87759954D01*
X115559949Y-87759954D01*
X115698036Y-87800499D01*
X115698038Y-87800500D01*
X115698039Y-87800500D01*
X115841962Y-87800500D01*
X115841962Y-87800499D01*
X115980053Y-87759953D01*
X116101128Y-87682143D01*
X116195377Y-87573373D01*
X116255165Y-87442457D01*
X116275647Y-87300000D01*
X120164353Y-87300000D01*
X120184834Y-87442456D01*
X120244622Y-87573371D01*
X120244623Y-87573373D01*
X120338872Y-87682143D01*
X120459947Y-87759953D01*
X120459950Y-87759954D01*
X120459949Y-87759954D01*
X120598036Y-87800499D01*
X120598038Y-87800500D01*
X120598039Y-87800500D01*
X120741962Y-87800500D01*
X120741962Y-87800499D01*
X120880053Y-87759953D01*
X121001128Y-87682143D01*
X121085000Y-87585347D01*
X121143774Y-87547576D01*
X121213644Y-87547575D01*
X121272422Y-87585349D01*
X121301447Y-87648903D01*
X121304833Y-87672451D01*
X121304834Y-87672455D01*
X121344794Y-87759953D01*
X121364623Y-87803373D01*
X121458872Y-87912143D01*
X121579947Y-87989953D01*
X121579950Y-87989954D01*
X121579949Y-87989954D01*
X121718036Y-88030499D01*
X121718038Y-88030500D01*
X121718039Y-88030500D01*
X121861962Y-88030500D01*
X121861962Y-88030499D01*
X122000053Y-87989953D01*
X122121128Y-87912143D01*
X122215377Y-87803373D01*
X122275165Y-87672457D01*
X122295647Y-87530000D01*
X122275165Y-87387543D01*
X122215377Y-87256627D01*
X122121128Y-87147857D01*
X122000053Y-87070047D01*
X122000051Y-87070046D01*
X122000049Y-87070045D01*
X122000050Y-87070045D01*
X121861963Y-87029500D01*
X121861961Y-87029500D01*
X121718039Y-87029500D01*
X121718036Y-87029500D01*
X121579949Y-87070045D01*
X121458873Y-87147856D01*
X121458872Y-87147856D01*
X121458872Y-87147857D01*
X121443238Y-87165900D01*
X121375002Y-87244649D01*
X121316224Y-87282423D01*
X121246354Y-87282423D01*
X121187576Y-87244649D01*
X121158551Y-87181093D01*
X121155165Y-87157543D01*
X121155165Y-87157542D01*
X121095377Y-87026627D01*
X121001128Y-86917857D01*
X120880053Y-86840047D01*
X120880051Y-86840046D01*
X120880049Y-86840045D01*
X120880050Y-86840045D01*
X120741963Y-86799500D01*
X120741961Y-86799500D01*
X120598039Y-86799500D01*
X120598036Y-86799500D01*
X120459949Y-86840045D01*
X120338873Y-86917856D01*
X120244623Y-87026626D01*
X120244622Y-87026628D01*
X120184834Y-87157543D01*
X120164353Y-87300000D01*
X116275647Y-87300000D01*
X116255165Y-87157543D01*
X116195377Y-87026627D01*
X116101128Y-86917857D01*
X115980053Y-86840047D01*
X115980051Y-86840046D01*
X115980049Y-86840045D01*
X115980050Y-86840045D01*
X115841963Y-86799500D01*
X115841961Y-86799500D01*
X115698039Y-86799500D01*
X115698036Y-86799500D01*
X115559949Y-86840045D01*
X115438873Y-86917856D01*
X115344623Y-87026626D01*
X115344622Y-87026628D01*
X115284835Y-87157543D01*
X115284474Y-87160054D01*
X115283419Y-87162362D01*
X115282335Y-87166056D01*
X115281804Y-87165900D01*
X115255448Y-87223609D01*
X115196669Y-87261383D01*
X115126799Y-87261382D01*
X115068022Y-87223606D01*
X115048942Y-87193917D01*
X114995377Y-87076627D01*
X114901128Y-86967857D01*
X114780053Y-86890047D01*
X114780051Y-86890046D01*
X114780049Y-86890045D01*
X114780050Y-86890045D01*
X114641963Y-86849500D01*
X114641961Y-86849500D01*
X114498039Y-86849500D01*
X114498036Y-86849500D01*
X114359949Y-86890045D01*
X114238873Y-86967856D01*
X114144623Y-87076626D01*
X114144622Y-87076628D01*
X114084834Y-87207543D01*
X114064353Y-87349999D01*
X103520500Y-87349999D01*
X103520500Y-85980000D01*
X105844559Y-85980000D01*
X105864222Y-86116765D01*
X105921620Y-86242447D01*
X105921621Y-86242449D01*
X106012104Y-86346872D01*
X106012106Y-86346873D01*
X106012108Y-86346875D01*
X106128338Y-86421572D01*
X106128343Y-86421574D01*
X106260912Y-86460499D01*
X106260914Y-86460500D01*
X106260915Y-86460500D01*
X106399086Y-86460500D01*
X106399086Y-86460499D01*
X106531659Y-86421573D01*
X106647896Y-86346872D01*
X106738379Y-86242449D01*
X106795777Y-86116765D01*
X106815441Y-85980000D01*
X111814559Y-85980000D01*
X111834222Y-86116765D01*
X111891620Y-86242447D01*
X111891621Y-86242449D01*
X111982104Y-86346872D01*
X111982106Y-86346873D01*
X111982108Y-86346875D01*
X112098338Y-86421572D01*
X112098343Y-86421574D01*
X112230912Y-86460499D01*
X112230914Y-86460500D01*
X112230915Y-86460500D01*
X112369086Y-86460500D01*
X112369086Y-86460499D01*
X112501659Y-86421573D01*
X112617896Y-86346872D01*
X112708379Y-86242449D01*
X112765777Y-86116765D01*
X112785441Y-85980000D01*
X112765777Y-85843235D01*
X112708379Y-85717551D01*
X112680082Y-85684894D01*
X130324500Y-85684894D01*
X130324501Y-85684902D01*
X130330330Y-85714212D01*
X130352542Y-85747457D01*
X130369219Y-85758599D01*
X130385787Y-85769669D01*
X130385790Y-85769669D01*
X130385791Y-85769670D01*
X130395647Y-85771630D01*
X130415101Y-85775500D01*
X131784898Y-85775499D01*
X131814213Y-85769669D01*
X131847457Y-85747457D01*
X131869669Y-85714213D01*
X131875500Y-85684899D01*
X131875499Y-84315102D01*
X131869669Y-84285787D01*
X131869668Y-84285785D01*
X131847457Y-84252542D01*
X131814214Y-84230332D01*
X131814215Y-84230332D01*
X131814213Y-84230331D01*
X131814211Y-84230330D01*
X131814208Y-84230329D01*
X131784901Y-84224500D01*
X130415105Y-84224500D01*
X130415097Y-84224501D01*
X130385787Y-84230330D01*
X130352542Y-84252542D01*
X130330332Y-84285785D01*
X130330329Y-84285791D01*
X130324500Y-84315098D01*
X130324500Y-85684894D01*
X112680082Y-85684894D01*
X112617896Y-85613128D01*
X112617893Y-85613126D01*
X112617891Y-85613124D01*
X112501661Y-85538427D01*
X112501656Y-85538425D01*
X112369087Y-85499500D01*
X112369085Y-85499500D01*
X112230915Y-85499500D01*
X112230912Y-85499500D01*
X112098343Y-85538425D01*
X112098338Y-85538427D01*
X111982108Y-85613124D01*
X111982106Y-85613126D01*
X111982104Y-85613127D01*
X111982104Y-85613128D01*
X111919915Y-85684898D01*
X111891621Y-85717551D01*
X111891620Y-85717552D01*
X111834222Y-85843234D01*
X111814559Y-85980000D01*
X106815441Y-85980000D01*
X106795777Y-85843235D01*
X106738379Y-85717551D01*
X106647896Y-85613128D01*
X106647893Y-85613126D01*
X106647891Y-85613124D01*
X106531661Y-85538427D01*
X106531656Y-85538425D01*
X106399087Y-85499500D01*
X106399085Y-85499500D01*
X106260915Y-85499500D01*
X106260912Y-85499500D01*
X106128343Y-85538425D01*
X106128338Y-85538427D01*
X106012108Y-85613124D01*
X106012106Y-85613126D01*
X106012104Y-85613127D01*
X106012104Y-85613128D01*
X105949915Y-85684898D01*
X105921621Y-85717551D01*
X105921620Y-85717552D01*
X105864222Y-85843234D01*
X105844559Y-85980000D01*
X103520500Y-85980000D01*
X103520500Y-83949999D01*
X120394559Y-83949999D01*
X120414222Y-84086765D01*
X120471620Y-84212447D01*
X120471621Y-84212449D01*
X120562104Y-84316872D01*
X120562106Y-84316873D01*
X120562108Y-84316875D01*
X120678338Y-84391572D01*
X120678343Y-84391574D01*
X120810912Y-84430499D01*
X120810914Y-84430500D01*
X120810915Y-84430500D01*
X120949086Y-84430500D01*
X120949086Y-84430499D01*
X121081659Y-84391573D01*
X121197896Y-84316872D01*
X121288379Y-84212449D01*
X121345777Y-84086765D01*
X121365441Y-83950000D01*
X121345777Y-83813235D01*
X121321849Y-83760841D01*
X121288379Y-83687552D01*
X121288379Y-83687551D01*
X121197896Y-83583128D01*
X121197893Y-83583126D01*
X121197891Y-83583124D01*
X121081661Y-83508427D01*
X121081656Y-83508425D01*
X120949087Y-83469500D01*
X120949085Y-83469500D01*
X120810915Y-83469500D01*
X120810912Y-83469500D01*
X120678343Y-83508425D01*
X120678338Y-83508427D01*
X120562108Y-83583124D01*
X120562106Y-83583126D01*
X120471621Y-83687551D01*
X120471620Y-83687552D01*
X120414222Y-83813234D01*
X120394559Y-83949999D01*
X103520500Y-83949999D01*
X103520500Y-81289999D01*
X114814559Y-81289999D01*
X114834222Y-81426765D01*
X114891620Y-81552447D01*
X114891621Y-81552449D01*
X114982104Y-81656872D01*
X114982106Y-81656873D01*
X114982108Y-81656875D01*
X115098338Y-81731572D01*
X115098343Y-81731574D01*
X115230912Y-81770499D01*
X115230914Y-81770500D01*
X115230915Y-81770500D01*
X115369086Y-81770500D01*
X115369086Y-81770499D01*
X115501659Y-81731573D01*
X115617896Y-81656872D01*
X115708379Y-81552449D01*
X115765777Y-81426765D01*
X115785441Y-81290000D01*
X115765777Y-81153235D01*
X115755884Y-81131573D01*
X115708379Y-81027552D01*
X115708379Y-81027551D01*
X115617896Y-80923128D01*
X115617893Y-80923126D01*
X115617891Y-80923124D01*
X115501661Y-80848427D01*
X115501656Y-80848425D01*
X115369087Y-80809500D01*
X115369085Y-80809500D01*
X115230915Y-80809500D01*
X115230912Y-80809500D01*
X115098343Y-80848425D01*
X115098338Y-80848427D01*
X114982108Y-80923124D01*
X114982106Y-80923126D01*
X114891621Y-81027551D01*
X114891620Y-81027552D01*
X114834222Y-81153234D01*
X114814559Y-81289999D01*
X103520500Y-81289999D01*
X103520500Y-80689999D01*
X111774559Y-80689999D01*
X111794222Y-80826765D01*
X111851620Y-80952447D01*
X111851621Y-80952449D01*
X111942104Y-81056872D01*
X111942106Y-81056873D01*
X111942108Y-81056875D01*
X112058338Y-81131572D01*
X112058343Y-81131574D01*
X112190912Y-81170499D01*
X112190914Y-81170500D01*
X112190915Y-81170500D01*
X112329086Y-81170500D01*
X112329086Y-81170499D01*
X112461659Y-81131573D01*
X112471657Y-81125148D01*
X112577891Y-81056875D01*
X112577890Y-81056875D01*
X112577896Y-81056872D01*
X112668379Y-80952449D01*
X112725777Y-80826765D01*
X112736814Y-80749999D01*
X129949494Y-80749999D01*
X129949495Y-80750000D01*
X130784314Y-80750000D01*
X130772359Y-80761955D01*
X130714835Y-80874852D01*
X130695014Y-81000000D01*
X130714835Y-81125148D01*
X130772359Y-81238045D01*
X130784314Y-81250000D01*
X129949495Y-81250000D01*
X129999651Y-81426280D01*
X130096715Y-81621208D01*
X130227945Y-81794985D01*
X130388868Y-81941685D01*
X130574012Y-82056322D01*
X130574017Y-82056324D01*
X130696451Y-82103755D01*
X130751853Y-82146328D01*
X130775444Y-82212094D01*
X130759733Y-82280175D01*
X130717630Y-82324376D01*
X130613423Y-82389853D01*
X130489853Y-82513423D01*
X130396877Y-82661395D01*
X130339159Y-82826341D01*
X130339157Y-82826351D01*
X130319593Y-82999996D01*
X130319593Y-83000003D01*
X130339157Y-83173648D01*
X130339159Y-83173657D01*
X130396878Y-83338606D01*
X130489853Y-83486576D01*
X130613424Y-83610147D01*
X130761394Y-83703122D01*
X130926343Y-83760841D01*
X130926349Y-83760841D01*
X130926351Y-83760842D01*
X131099996Y-83780407D01*
X131100000Y-83780407D01*
X131100004Y-83780407D01*
X131273648Y-83760842D01*
X131273647Y-83760842D01*
X131273657Y-83760841D01*
X131438606Y-83703122D01*
X131586576Y-83610147D01*
X131710147Y-83486576D01*
X131803122Y-83338606D01*
X131860841Y-83173657D01*
X131880407Y-83000000D01*
X131860841Y-82826343D01*
X131803122Y-82661394D01*
X131710147Y-82513424D01*
X131586576Y-82389853D01*
X131482368Y-82324375D01*
X131436078Y-82272041D01*
X131425429Y-82202988D01*
X131453805Y-82139140D01*
X131503548Y-82103755D01*
X131625982Y-82056324D01*
X131625987Y-82056322D01*
X131811130Y-81941685D01*
X131811131Y-81941685D01*
X131972054Y-81794985D01*
X132103284Y-81621208D01*
X132200348Y-81426280D01*
X132250505Y-81250000D01*
X131415686Y-81250000D01*
X131427641Y-81238045D01*
X131485165Y-81125148D01*
X131504986Y-81000000D01*
X131485165Y-80874852D01*
X131427641Y-80761955D01*
X131415686Y-80750000D01*
X132250505Y-80750000D01*
X132250505Y-80749999D01*
X132200348Y-80573719D01*
X132103284Y-80378791D01*
X131972054Y-80205014D01*
X131811131Y-80058314D01*
X131625987Y-79943677D01*
X131625979Y-79943673D01*
X131619434Y-79941138D01*
X131564033Y-79898565D01*
X131540443Y-79832798D01*
X131556155Y-79764718D01*
X131591342Y-79725195D01*
X131689050Y-79654207D01*
X131812195Y-79517440D01*
X131904214Y-79358059D01*
X131961085Y-79183029D01*
X131980322Y-79000000D01*
X131961085Y-78816971D01*
X131904214Y-78641941D01*
X131812195Y-78482560D01*
X131689050Y-78345793D01*
X131689048Y-78345791D01*
X131540165Y-78237621D01*
X131540162Y-78237619D01*
X131540161Y-78237619D01*
X131479112Y-78210438D01*
X131372038Y-78162765D01*
X131372033Y-78162763D01*
X131192019Y-78124500D01*
X131007981Y-78124500D01*
X130827966Y-78162763D01*
X130827961Y-78162765D01*
X130659839Y-78237619D01*
X130659834Y-78237621D01*
X130510951Y-78345791D01*
X130510949Y-78345793D01*
X130387804Y-78482561D01*
X130295786Y-78641940D01*
X130295783Y-78641946D01*
X130250765Y-78780500D01*
X130238915Y-78816971D01*
X130219678Y-79000000D01*
X130238915Y-79183029D01*
X130238916Y-79183032D01*
X130295783Y-79358053D01*
X130295786Y-79358059D01*
X130387805Y-79517440D01*
X130485852Y-79626333D01*
X130510949Y-79654206D01*
X130510951Y-79654208D01*
X130608655Y-79725194D01*
X130651321Y-79780524D01*
X130657300Y-79850137D01*
X130624694Y-79911932D01*
X130580568Y-79941137D01*
X130574020Y-79943673D01*
X130574012Y-79943677D01*
X130388869Y-80058314D01*
X130388868Y-80058314D01*
X130227945Y-80205014D01*
X130096715Y-80378791D01*
X129999651Y-80573719D01*
X129949494Y-80749999D01*
X112736814Y-80749999D01*
X112745441Y-80690000D01*
X112725777Y-80553235D01*
X112668379Y-80427551D01*
X112577896Y-80323128D01*
X112577893Y-80323126D01*
X112577891Y-80323124D01*
X112461661Y-80248427D01*
X112461656Y-80248425D01*
X112329087Y-80209500D01*
X112329085Y-80209500D01*
X112190915Y-80209500D01*
X112190912Y-80209500D01*
X112058343Y-80248425D01*
X112058338Y-80248427D01*
X111942108Y-80323124D01*
X111942106Y-80323126D01*
X111851621Y-80427551D01*
X111851620Y-80427552D01*
X111794222Y-80553234D01*
X111774559Y-80689999D01*
X103520500Y-80689999D01*
X103520500Y-79440000D01*
X104644901Y-79440000D01*
X104663252Y-79626331D01*
X104663253Y-79626333D01*
X104717604Y-79805502D01*
X104805862Y-79970623D01*
X104805864Y-79970626D01*
X104924642Y-80115357D01*
X105069373Y-80234135D01*
X105069376Y-80234137D01*
X105234497Y-80322395D01*
X105234499Y-80322396D01*
X105413666Y-80376746D01*
X105413668Y-80376747D01*
X105430374Y-80378392D01*
X105600000Y-80395099D01*
X105786331Y-80376747D01*
X105965501Y-80322396D01*
X106130625Y-80234136D01*
X106275357Y-80115357D01*
X106394136Y-79970625D01*
X106482396Y-79805501D01*
X106536747Y-79626331D01*
X106555099Y-79440000D01*
X106536747Y-79253669D01*
X106482396Y-79074499D01*
X106394136Y-78909375D01*
X106394135Y-78909373D01*
X106275357Y-78764642D01*
X106130626Y-78645864D01*
X106130623Y-78645862D01*
X105965502Y-78557604D01*
X105786333Y-78503253D01*
X105786331Y-78503252D01*
X105600000Y-78484901D01*
X105413668Y-78503252D01*
X105413666Y-78503253D01*
X105234497Y-78557604D01*
X105069376Y-78645862D01*
X105069373Y-78645864D01*
X104924642Y-78764642D01*
X104805864Y-78909373D01*
X104805862Y-78909376D01*
X104717604Y-79074497D01*
X104663253Y-79253666D01*
X104663252Y-79253668D01*
X104644901Y-79440000D01*
X103520500Y-79440000D01*
X103520500Y-76900000D01*
X104644901Y-76900000D01*
X104663252Y-77086331D01*
X104663253Y-77086333D01*
X104717604Y-77265502D01*
X104805862Y-77430623D01*
X104805864Y-77430626D01*
X104924642Y-77575357D01*
X105069373Y-77694135D01*
X105069376Y-77694137D01*
X105234497Y-77782395D01*
X105234499Y-77782396D01*
X105413666Y-77836746D01*
X105413668Y-77836747D01*
X105430374Y-77838392D01*
X105600000Y-77855099D01*
X105786331Y-77836747D01*
X105965501Y-77782396D01*
X106130625Y-77694136D01*
X106275357Y-77575357D01*
X106353615Y-77480000D01*
X112004559Y-77480000D01*
X112024222Y-77616765D01*
X112081620Y-77742447D01*
X112081621Y-77742449D01*
X112172104Y-77846872D01*
X112192549Y-77860011D01*
X112203709Y-77867183D01*
X112249464Y-77919987D01*
X112259408Y-77989146D01*
X112244501Y-78029117D01*
X112245305Y-78029484D01*
X112184222Y-78163234D01*
X112164559Y-78300000D01*
X112184222Y-78436765D01*
X112214587Y-78503253D01*
X112241621Y-78562449D01*
X112332104Y-78666872D01*
X112332106Y-78666873D01*
X112332108Y-78666875D01*
X112448338Y-78741572D01*
X112448343Y-78741574D01*
X112580912Y-78780499D01*
X112580914Y-78780500D01*
X112580915Y-78780500D01*
X112719086Y-78780500D01*
X112719086Y-78780499D01*
X112851659Y-78741573D01*
X112967896Y-78666872D01*
X113058379Y-78562449D01*
X113115777Y-78436765D01*
X113135441Y-78300000D01*
X113115777Y-78163235D01*
X113115562Y-78162765D01*
X113058379Y-78037552D01*
X113058379Y-78037551D01*
X112967896Y-77933128D01*
X112949916Y-77921573D01*
X112936289Y-77912815D01*
X112890534Y-77860011D01*
X112880591Y-77790853D01*
X112895500Y-77750884D01*
X112894695Y-77750516D01*
X112955777Y-77616765D01*
X112975441Y-77480000D01*
X112955777Y-77343235D01*
X112898379Y-77217551D01*
X112807896Y-77113128D01*
X112807893Y-77113126D01*
X112807891Y-77113124D01*
X112691661Y-77038427D01*
X112691656Y-77038425D01*
X112559087Y-76999500D01*
X112559085Y-76999500D01*
X112420915Y-76999500D01*
X112420912Y-76999500D01*
X112288343Y-77038425D01*
X112288338Y-77038427D01*
X112172108Y-77113124D01*
X112172106Y-77113126D01*
X112081621Y-77217551D01*
X112081620Y-77217552D01*
X112024222Y-77343234D01*
X112004559Y-77480000D01*
X106353615Y-77480000D01*
X106394136Y-77430625D01*
X106482396Y-77265501D01*
X106536747Y-77086331D01*
X106555099Y-76900000D01*
X106536747Y-76713669D01*
X106482396Y-76534499D01*
X106482395Y-76534497D01*
X106394137Y-76369376D01*
X106394135Y-76369373D01*
X106279754Y-76230000D01*
X112034559Y-76230000D01*
X112054222Y-76366765D01*
X112104450Y-76476747D01*
X112111621Y-76492449D01*
X112202104Y-76596872D01*
X112202106Y-76596873D01*
X112202108Y-76596875D01*
X112318338Y-76671572D01*
X112318343Y-76671574D01*
X112450912Y-76710499D01*
X112450914Y-76710500D01*
X112450915Y-76710500D01*
X112589086Y-76710500D01*
X112589086Y-76710499D01*
X112721659Y-76671573D01*
X112837896Y-76596872D01*
X112928379Y-76492449D01*
X112985777Y-76366765D01*
X113005441Y-76230000D01*
X112985777Y-76093235D01*
X112975451Y-76070625D01*
X112937203Y-75986873D01*
X112928379Y-75967551D01*
X112837896Y-75863128D01*
X112837893Y-75863126D01*
X112837891Y-75863124D01*
X112721661Y-75788427D01*
X112721656Y-75788425D01*
X112589087Y-75749500D01*
X112589085Y-75749500D01*
X112450915Y-75749500D01*
X112450912Y-75749500D01*
X112318343Y-75788425D01*
X112318338Y-75788427D01*
X112202108Y-75863124D01*
X112202106Y-75863126D01*
X112111621Y-75967551D01*
X112111620Y-75967552D01*
X112054222Y-76093234D01*
X112034559Y-76230000D01*
X106279754Y-76230000D01*
X106275357Y-76224642D01*
X106130626Y-76105864D01*
X106130623Y-76105862D01*
X105965502Y-76017604D01*
X105786333Y-75963253D01*
X105786331Y-75963252D01*
X105600000Y-75944901D01*
X105413668Y-75963252D01*
X105413666Y-75963253D01*
X105234497Y-76017604D01*
X105069376Y-76105862D01*
X105069373Y-76105864D01*
X104924642Y-76224642D01*
X104805864Y-76369373D01*
X104805862Y-76369376D01*
X104717604Y-76534497D01*
X104663253Y-76713666D01*
X104663252Y-76713668D01*
X104644901Y-76900000D01*
X103520500Y-76900000D01*
X103520500Y-75219894D01*
X104649500Y-75219894D01*
X104649501Y-75219902D01*
X104655330Y-75249212D01*
X104677542Y-75282457D01*
X104694219Y-75293599D01*
X104710787Y-75304669D01*
X104710790Y-75304669D01*
X104710791Y-75304670D01*
X104720647Y-75306630D01*
X104740101Y-75310500D01*
X106459898Y-75310499D01*
X106489213Y-75304669D01*
X106522457Y-75282457D01*
X106537462Y-75260000D01*
X113194559Y-75260000D01*
X113214222Y-75396765D01*
X113271620Y-75522447D01*
X113271621Y-75522449D01*
X113362104Y-75626872D01*
X113362106Y-75626873D01*
X113362108Y-75626875D01*
X113478338Y-75701572D01*
X113478343Y-75701574D01*
X113610912Y-75740499D01*
X113610914Y-75740500D01*
X113610915Y-75740500D01*
X113749086Y-75740500D01*
X113749086Y-75740499D01*
X113881659Y-75701573D01*
X113997896Y-75626872D01*
X114003851Y-75620000D01*
X126124559Y-75620000D01*
X126144222Y-75756765D01*
X126192796Y-75863126D01*
X126201621Y-75882449D01*
X126292104Y-75986872D01*
X126292106Y-75986873D01*
X126292108Y-75986875D01*
X126408338Y-76061572D01*
X126408343Y-76061574D01*
X126540912Y-76100499D01*
X126540914Y-76100500D01*
X126540915Y-76100500D01*
X126679086Y-76100500D01*
X126679086Y-76100499D01*
X126811659Y-76061573D01*
X126927896Y-75986872D01*
X127018379Y-75882449D01*
X127075777Y-75756765D01*
X127095441Y-75620000D01*
X127083939Y-75540000D01*
X130149901Y-75540000D01*
X130168252Y-75726331D01*
X130168253Y-75726333D01*
X130222604Y-75905502D01*
X130310862Y-76070623D01*
X130310864Y-76070626D01*
X130429642Y-76215357D01*
X130574373Y-76334135D01*
X130574376Y-76334137D01*
X130739497Y-76422395D01*
X130739499Y-76422396D01*
X130918666Y-76476746D01*
X130918668Y-76476747D01*
X130935374Y-76478392D01*
X131105000Y-76495099D01*
X131291331Y-76476747D01*
X131470501Y-76422396D01*
X131635625Y-76334136D01*
X131780357Y-76215357D01*
X131899136Y-76070625D01*
X131987396Y-75905501D01*
X132041747Y-75726331D01*
X132060099Y-75540000D01*
X132043392Y-75370374D01*
X132041747Y-75353668D01*
X132041746Y-75353666D01*
X132020145Y-75282457D01*
X131987396Y-75174499D01*
X131959995Y-75123235D01*
X131899137Y-75009376D01*
X131899135Y-75009373D01*
X131780357Y-74864642D01*
X131635626Y-74745864D01*
X131635623Y-74745862D01*
X131470502Y-74657604D01*
X131291333Y-74603253D01*
X131291331Y-74603252D01*
X131105000Y-74584901D01*
X130918668Y-74603252D01*
X130918666Y-74603253D01*
X130739497Y-74657604D01*
X130574376Y-74745862D01*
X130574373Y-74745864D01*
X130429642Y-74864642D01*
X130310864Y-75009373D01*
X130310862Y-75009376D01*
X130222604Y-75174497D01*
X130168253Y-75353666D01*
X130168252Y-75353668D01*
X130149901Y-75540000D01*
X127083939Y-75540000D01*
X127075777Y-75483235D01*
X127018379Y-75357551D01*
X126927896Y-75253128D01*
X126927893Y-75253126D01*
X126927891Y-75253124D01*
X126811661Y-75178427D01*
X126811656Y-75178425D01*
X126679087Y-75139500D01*
X126679085Y-75139500D01*
X126540915Y-75139500D01*
X126540912Y-75139500D01*
X126408343Y-75178425D01*
X126408338Y-75178427D01*
X126292108Y-75253124D01*
X126292106Y-75253126D01*
X126292104Y-75253127D01*
X126292104Y-75253128D01*
X126247443Y-75304670D01*
X126201621Y-75357551D01*
X126201620Y-75357552D01*
X126144222Y-75483234D01*
X126124559Y-75620000D01*
X114003851Y-75620000D01*
X114088379Y-75522449D01*
X114145777Y-75396765D01*
X114165441Y-75260000D01*
X114145777Y-75123235D01*
X114088379Y-74997551D01*
X113997896Y-74893128D01*
X113997893Y-74893126D01*
X113997891Y-74893124D01*
X113881661Y-74818427D01*
X113881656Y-74818425D01*
X113749087Y-74779500D01*
X113749085Y-74779500D01*
X113610915Y-74779500D01*
X113610912Y-74779500D01*
X113478343Y-74818425D01*
X113478338Y-74818427D01*
X113362108Y-74893124D01*
X113362106Y-74893126D01*
X113271621Y-74997551D01*
X113271620Y-74997552D01*
X113214222Y-75123234D01*
X113194559Y-75260000D01*
X106537462Y-75260000D01*
X106544669Y-75249213D01*
X106550500Y-75219899D01*
X106550499Y-74089999D01*
X111074559Y-74089999D01*
X111094222Y-74226765D01*
X111151620Y-74352447D01*
X111151621Y-74352449D01*
X111242104Y-74456872D01*
X111242106Y-74456873D01*
X111242108Y-74456875D01*
X111358338Y-74531572D01*
X111358343Y-74531574D01*
X111490912Y-74570499D01*
X111490914Y-74570500D01*
X111490915Y-74570500D01*
X111629086Y-74570500D01*
X111629086Y-74570499D01*
X111758679Y-74532448D01*
X111761656Y-74531574D01*
X111761657Y-74531573D01*
X111761659Y-74531573D01*
X111877896Y-74456872D01*
X111968379Y-74352449D01*
X112006032Y-74270000D01*
X115364559Y-74270000D01*
X115384222Y-74406765D01*
X115407107Y-74456875D01*
X115441621Y-74532449D01*
X115532104Y-74636872D01*
X115532106Y-74636873D01*
X115532108Y-74636875D01*
X115648338Y-74711572D01*
X115648343Y-74711574D01*
X115751220Y-74741780D01*
X115765119Y-74745862D01*
X115780912Y-74750499D01*
X115780914Y-74750500D01*
X115780915Y-74750500D01*
X115919086Y-74750500D01*
X115919086Y-74750499D01*
X116051659Y-74711573D01*
X116167896Y-74636872D01*
X116258379Y-74532449D01*
X116315777Y-74406765D01*
X116335441Y-74270000D01*
X116315777Y-74133235D01*
X116258379Y-74007551D01*
X116167896Y-73903128D01*
X116167893Y-73903126D01*
X116167891Y-73903124D01*
X116100624Y-73859894D01*
X130154500Y-73859894D01*
X130154501Y-73859902D01*
X130160330Y-73889212D01*
X130182542Y-73922457D01*
X130199219Y-73933599D01*
X130215787Y-73944669D01*
X130215790Y-73944669D01*
X130215791Y-73944670D01*
X130225647Y-73946630D01*
X130245101Y-73950500D01*
X131964898Y-73950499D01*
X131994213Y-73944669D01*
X132027457Y-73922457D01*
X132049669Y-73889213D01*
X132055500Y-73859899D01*
X132055499Y-72140102D01*
X132049669Y-72110787D01*
X132049668Y-72110785D01*
X132027457Y-72077542D01*
X131994214Y-72055332D01*
X131994215Y-72055332D01*
X131994213Y-72055331D01*
X131994211Y-72055330D01*
X131994208Y-72055329D01*
X131964901Y-72049500D01*
X130245105Y-72049500D01*
X130245097Y-72049501D01*
X130215787Y-72055330D01*
X130182542Y-72077542D01*
X130160332Y-72110785D01*
X130160329Y-72110791D01*
X130154500Y-72140098D01*
X130154500Y-73859894D01*
X116100624Y-73859894D01*
X116051661Y-73828427D01*
X116051656Y-73828425D01*
X115919087Y-73789500D01*
X115919085Y-73789500D01*
X115780915Y-73789500D01*
X115780912Y-73789500D01*
X115648343Y-73828425D01*
X115648338Y-73828427D01*
X115532108Y-73903124D01*
X115532106Y-73903126D01*
X115532104Y-73903127D01*
X115532104Y-73903128D01*
X115496110Y-73944667D01*
X115441621Y-74007551D01*
X115441620Y-74007552D01*
X115384222Y-74133234D01*
X115364559Y-74270000D01*
X112006032Y-74270000D01*
X112025777Y-74226765D01*
X112045441Y-74090000D01*
X112025777Y-73953235D01*
X112021865Y-73944670D01*
X111983151Y-73859898D01*
X111968379Y-73827551D01*
X111877896Y-73723128D01*
X111877893Y-73723126D01*
X111877891Y-73723124D01*
X111761661Y-73648427D01*
X111761656Y-73648425D01*
X111629087Y-73609500D01*
X111629085Y-73609500D01*
X111490915Y-73609500D01*
X111490912Y-73609500D01*
X111358343Y-73648425D01*
X111358338Y-73648427D01*
X111242108Y-73723124D01*
X111242106Y-73723126D01*
X111151621Y-73827551D01*
X111151620Y-73827552D01*
X111094222Y-73953234D01*
X111074559Y-74089999D01*
X106550499Y-74089999D01*
X106550499Y-73500102D01*
X106544669Y-73470787D01*
X106544668Y-73470785D01*
X106522457Y-73437542D01*
X106489214Y-73415332D01*
X106489215Y-73415332D01*
X106489213Y-73415331D01*
X106489211Y-73415330D01*
X106489208Y-73415329D01*
X106459901Y-73409500D01*
X104740105Y-73409500D01*
X104740097Y-73409501D01*
X104710787Y-73415330D01*
X104677542Y-73437542D01*
X104655332Y-73470785D01*
X104655329Y-73470791D01*
X104649500Y-73500098D01*
X104649500Y-75219894D01*
X103520500Y-75219894D01*
X103520500Y-73060000D01*
X108994559Y-73060000D01*
X109014222Y-73196765D01*
X109071620Y-73322447D01*
X109071621Y-73322449D01*
X109162104Y-73426872D01*
X109162106Y-73426873D01*
X109162108Y-73426875D01*
X109278338Y-73501572D01*
X109278343Y-73501574D01*
X109410912Y-73540499D01*
X109410914Y-73540500D01*
X109410915Y-73540500D01*
X109549086Y-73540500D01*
X109549086Y-73540499D01*
X109681659Y-73501573D01*
X109683944Y-73500105D01*
X109748169Y-73458829D01*
X109797896Y-73426872D01*
X109888379Y-73322449D01*
X109945777Y-73196765D01*
X109965441Y-73060000D01*
X109945777Y-72923235D01*
X109888379Y-72797551D01*
X109797896Y-72693128D01*
X109797893Y-72693126D01*
X109797891Y-72693124D01*
X109681661Y-72618427D01*
X109681656Y-72618425D01*
X109549087Y-72579500D01*
X109549085Y-72579500D01*
X109410915Y-72579500D01*
X109410912Y-72579500D01*
X109278343Y-72618425D01*
X109278338Y-72618427D01*
X109162108Y-72693124D01*
X109162106Y-72693126D01*
X109162104Y-72693127D01*
X109162104Y-72693128D01*
X109098204Y-72766873D01*
X109071621Y-72797551D01*
X109071620Y-72797552D01*
X109014222Y-72923234D01*
X108994559Y-73060000D01*
X103520500Y-73060000D01*
X103520500Y-72010000D01*
X110064559Y-72010000D01*
X110084222Y-72146765D01*
X110137413Y-72263235D01*
X110141621Y-72272449D01*
X110232104Y-72376872D01*
X110232106Y-72376873D01*
X110232108Y-72376875D01*
X110348338Y-72451572D01*
X110348343Y-72451574D01*
X110480912Y-72490499D01*
X110480914Y-72490500D01*
X110480915Y-72490500D01*
X110619086Y-72490500D01*
X110619086Y-72490499D01*
X110751659Y-72451573D01*
X110867896Y-72376872D01*
X110958379Y-72272449D01*
X111015777Y-72146765D01*
X111018187Y-72130000D01*
X114844559Y-72130000D01*
X114864222Y-72266765D01*
X114921620Y-72392447D01*
X114921621Y-72392449D01*
X115012104Y-72496872D01*
X115012106Y-72496873D01*
X115012108Y-72496875D01*
X115128338Y-72571572D01*
X115128343Y-72571574D01*
X115260912Y-72610499D01*
X115260914Y-72610500D01*
X115260915Y-72610500D01*
X115399086Y-72610500D01*
X115399086Y-72610499D01*
X115531659Y-72571573D01*
X115544419Y-72563373D01*
X115647891Y-72496875D01*
X115647890Y-72496875D01*
X115647896Y-72496872D01*
X115731836Y-72400000D01*
X120434559Y-72400000D01*
X120454222Y-72536765D01*
X120511620Y-72662447D01*
X120511621Y-72662449D01*
X120602104Y-72766872D01*
X120602106Y-72766873D01*
X120602108Y-72766875D01*
X120718338Y-72841572D01*
X120718343Y-72841574D01*
X120850912Y-72880499D01*
X120850914Y-72880500D01*
X120850915Y-72880500D01*
X120989086Y-72880500D01*
X120989086Y-72880499D01*
X121121659Y-72841573D01*
X121237896Y-72766872D01*
X121328379Y-72662449D01*
X121385777Y-72536765D01*
X121405441Y-72400000D01*
X124874559Y-72400000D01*
X124894222Y-72536765D01*
X124951620Y-72662447D01*
X124951621Y-72662449D01*
X125042104Y-72766872D01*
X125042106Y-72766873D01*
X125042108Y-72766875D01*
X125158338Y-72841572D01*
X125158343Y-72841574D01*
X125290912Y-72880499D01*
X125290914Y-72880500D01*
X125290915Y-72880500D01*
X125429086Y-72880500D01*
X125429086Y-72880499D01*
X125561659Y-72841573D01*
X125677896Y-72766872D01*
X125768379Y-72662449D01*
X125825777Y-72536765D01*
X125845441Y-72400000D01*
X125829626Y-72290000D01*
X127164353Y-72290000D01*
X127184834Y-72432456D01*
X127214253Y-72496873D01*
X127244623Y-72563373D01*
X127338872Y-72672143D01*
X127459947Y-72749953D01*
X127459950Y-72749954D01*
X127459949Y-72749954D01*
X127598036Y-72790499D01*
X127598038Y-72790500D01*
X127598039Y-72790500D01*
X127741962Y-72790500D01*
X127741962Y-72790499D01*
X127880053Y-72749953D01*
X128001128Y-72672143D01*
X128095377Y-72563373D01*
X128155165Y-72432457D01*
X128175647Y-72290000D01*
X128155165Y-72147543D01*
X128095377Y-72016627D01*
X128001128Y-71907857D01*
X127880053Y-71830047D01*
X127880051Y-71830046D01*
X127880049Y-71830045D01*
X127880050Y-71830045D01*
X127741963Y-71789500D01*
X127741961Y-71789500D01*
X127598039Y-71789500D01*
X127598036Y-71789500D01*
X127459949Y-71830045D01*
X127338873Y-71907856D01*
X127244623Y-72016626D01*
X127244622Y-72016628D01*
X127184834Y-72147543D01*
X127164353Y-72290000D01*
X125829626Y-72290000D01*
X125827102Y-72272448D01*
X125825777Y-72263234D01*
X125769544Y-72140102D01*
X125768379Y-72137551D01*
X125677896Y-72033128D01*
X125677893Y-72033126D01*
X125677891Y-72033124D01*
X125561661Y-71958427D01*
X125561656Y-71958425D01*
X125429087Y-71919500D01*
X125429085Y-71919500D01*
X125290915Y-71919500D01*
X125290912Y-71919500D01*
X125158343Y-71958425D01*
X125158338Y-71958427D01*
X125042108Y-72033124D01*
X125042106Y-72033126D01*
X124951621Y-72137551D01*
X124951620Y-72137552D01*
X124894222Y-72263234D01*
X124874559Y-72400000D01*
X121405441Y-72400000D01*
X121387102Y-72272448D01*
X121385777Y-72263234D01*
X121329544Y-72140102D01*
X121328379Y-72137551D01*
X121237896Y-72033128D01*
X121237893Y-72033126D01*
X121237891Y-72033124D01*
X121121661Y-71958427D01*
X121121656Y-71958425D01*
X120989087Y-71919500D01*
X120989085Y-71919500D01*
X120850915Y-71919500D01*
X120850912Y-71919500D01*
X120718343Y-71958425D01*
X120718338Y-71958427D01*
X120602108Y-72033124D01*
X120602106Y-72033126D01*
X120511621Y-72137551D01*
X120511620Y-72137552D01*
X120454222Y-72263234D01*
X120434559Y-72400000D01*
X115731836Y-72400000D01*
X115738379Y-72392449D01*
X115795777Y-72266765D01*
X115815441Y-72130000D01*
X115795777Y-71993235D01*
X115738379Y-71867551D01*
X115647896Y-71763128D01*
X115647893Y-71763126D01*
X115647891Y-71763124D01*
X115531661Y-71688427D01*
X115531656Y-71688425D01*
X115399087Y-71649500D01*
X115399085Y-71649500D01*
X115260915Y-71649500D01*
X115260912Y-71649500D01*
X115128343Y-71688425D01*
X115128338Y-71688427D01*
X115012108Y-71763124D01*
X115012106Y-71763126D01*
X114921621Y-71867551D01*
X114921620Y-71867552D01*
X114864222Y-71993234D01*
X114844559Y-72130000D01*
X111018187Y-72130000D01*
X111035441Y-72010000D01*
X111015777Y-71873235D01*
X111013181Y-71867551D01*
X110977536Y-71789500D01*
X110958379Y-71747551D01*
X110867896Y-71643128D01*
X110867893Y-71643126D01*
X110867891Y-71643124D01*
X110751661Y-71568427D01*
X110751656Y-71568425D01*
X110619087Y-71529500D01*
X110619085Y-71529500D01*
X110480915Y-71529500D01*
X110480912Y-71529500D01*
X110348343Y-71568425D01*
X110348338Y-71568427D01*
X110232108Y-71643124D01*
X110232106Y-71643126D01*
X110141621Y-71747551D01*
X110141620Y-71747552D01*
X110084222Y-71873234D01*
X110064559Y-72010000D01*
X103520500Y-72010000D01*
X103520500Y-68257844D01*
X104250000Y-68257844D01*
X104256401Y-68317372D01*
X104256403Y-68317379D01*
X104306645Y-68452086D01*
X104306649Y-68452093D01*
X104392809Y-68567187D01*
X104392812Y-68567190D01*
X104507906Y-68653350D01*
X104507913Y-68653354D01*
X104642620Y-68703596D01*
X104642627Y-68703598D01*
X104702155Y-68709999D01*
X104702172Y-68710000D01*
X105102813Y-68710000D01*
X105169852Y-68729685D01*
X105215607Y-68782489D01*
X105225551Y-68851647D01*
X105196526Y-68915203D01*
X105161267Y-68943357D01*
X105013550Y-69022315D01*
X105013548Y-69022316D01*
X105013547Y-69022317D01*
X104853589Y-69153589D01*
X104722317Y-69313547D01*
X104624769Y-69496043D01*
X104564699Y-69694067D01*
X104544417Y-69900000D01*
X104564699Y-70105932D01*
X104572949Y-70133128D01*
X104624768Y-70303954D01*
X104722315Y-70486450D01*
X104722317Y-70486452D01*
X104853589Y-70646410D01*
X104950209Y-70725702D01*
X105013550Y-70777685D01*
X105196046Y-70875232D01*
X105394066Y-70935300D01*
X105394065Y-70935300D01*
X105412529Y-70937118D01*
X105600000Y-70955583D01*
X105805934Y-70935300D01*
X106003954Y-70875232D01*
X106186450Y-70777685D01*
X106346410Y-70646410D01*
X106466565Y-70500000D01*
X129114559Y-70500000D01*
X129134222Y-70636765D01*
X129191620Y-70762447D01*
X129191621Y-70762449D01*
X129282104Y-70866872D01*
X129282106Y-70866873D01*
X129282108Y-70866875D01*
X129398338Y-70941572D01*
X129398343Y-70941574D01*
X129530912Y-70980499D01*
X129530914Y-70980500D01*
X129530915Y-70980500D01*
X129669086Y-70980500D01*
X129669086Y-70980499D01*
X129801659Y-70941573D01*
X129917896Y-70866872D01*
X130008379Y-70762449D01*
X130065777Y-70636765D01*
X130085441Y-70500000D01*
X130065777Y-70363235D01*
X130008379Y-70237551D01*
X129917896Y-70133128D01*
X129917893Y-70133126D01*
X129917891Y-70133124D01*
X129801661Y-70058427D01*
X129801656Y-70058425D01*
X129669087Y-70019500D01*
X129669085Y-70019500D01*
X129530915Y-70019500D01*
X129530912Y-70019500D01*
X129398343Y-70058425D01*
X129398338Y-70058427D01*
X129282108Y-70133124D01*
X129282106Y-70133126D01*
X129191621Y-70237551D01*
X129191620Y-70237552D01*
X129134222Y-70363234D01*
X129114559Y-70500000D01*
X106466565Y-70500000D01*
X106477685Y-70486450D01*
X106575232Y-70303954D01*
X106635300Y-70105934D01*
X106655583Y-69900000D01*
X106635300Y-69694066D01*
X106575232Y-69496046D01*
X106477685Y-69313550D01*
X106425702Y-69250209D01*
X106346410Y-69153589D01*
X106186452Y-69022317D01*
X106186453Y-69022317D01*
X106186450Y-69022315D01*
X106038732Y-68943357D01*
X105988889Y-68894395D01*
X105973429Y-68826257D01*
X105997261Y-68760578D01*
X106052819Y-68718209D01*
X106097187Y-68710000D01*
X106497828Y-68710000D01*
X106497844Y-68709999D01*
X106557372Y-68703598D01*
X106557379Y-68703596D01*
X106692086Y-68653354D01*
X106692093Y-68653350D01*
X106807187Y-68567190D01*
X106807190Y-68567187D01*
X106893350Y-68452093D01*
X106893354Y-68452086D01*
X106943596Y-68317379D01*
X106943598Y-68317372D01*
X106949999Y-68257844D01*
X106950000Y-68257827D01*
X106950000Y-67610000D01*
X106033686Y-67610000D01*
X106059493Y-67569844D01*
X106080001Y-67500000D01*
X108259402Y-67500000D01*
X108279738Y-67693483D01*
X108339856Y-67878510D01*
X108339857Y-67878511D01*
X108420159Y-68017597D01*
X108437130Y-68046992D01*
X108482476Y-68097354D01*
X108567302Y-68191564D01*
X108567305Y-68191566D01*
X108567308Y-68191569D01*
X108659327Y-68258425D01*
X108724702Y-68305923D01*
X108785798Y-68333124D01*
X108902429Y-68385051D01*
X109092726Y-68425500D01*
X109287274Y-68425500D01*
X109477571Y-68385051D01*
X109655299Y-68305922D01*
X109812692Y-68191569D01*
X109942870Y-68046992D01*
X110040144Y-67878508D01*
X110100262Y-67693482D01*
X110120598Y-67500000D01*
X110111139Y-67410000D01*
X127434559Y-67410000D01*
X127454222Y-67546765D01*
X127483101Y-67610000D01*
X127511621Y-67672449D01*
X127602104Y-67776872D01*
X127602106Y-67776873D01*
X127602108Y-67776875D01*
X127718338Y-67851572D01*
X127718343Y-67851574D01*
X127850912Y-67890499D01*
X127850914Y-67890500D01*
X127850915Y-67890500D01*
X127989086Y-67890500D01*
X127989086Y-67890499D01*
X128121659Y-67851573D01*
X128237896Y-67776872D01*
X128328379Y-67672449D01*
X128385777Y-67546765D01*
X128405441Y-67410000D01*
X128385777Y-67273235D01*
X128328379Y-67147551D01*
X128237896Y-67043128D01*
X128237893Y-67043126D01*
X128237891Y-67043124D01*
X128121661Y-66968427D01*
X128121656Y-66968425D01*
X127989087Y-66929500D01*
X127989085Y-66929500D01*
X127850915Y-66929500D01*
X127850912Y-66929500D01*
X127718343Y-66968425D01*
X127718338Y-66968427D01*
X127602108Y-67043124D01*
X127602106Y-67043126D01*
X127511621Y-67147551D01*
X127511620Y-67147552D01*
X127454222Y-67273234D01*
X127434559Y-67410000D01*
X110111139Y-67410000D01*
X110100262Y-67306518D01*
X110040144Y-67121492D01*
X110040143Y-67121491D01*
X110040143Y-67121489D01*
X110040142Y-67121488D01*
X109994901Y-67043128D01*
X109942870Y-66953008D01*
X109891882Y-66896381D01*
X109812697Y-66808435D01*
X109812694Y-66808433D01*
X109812693Y-66808432D01*
X109812692Y-66808431D01*
X109733995Y-66751254D01*
X109655297Y-66694076D01*
X109518848Y-66633326D01*
X109477571Y-66614949D01*
X109477569Y-66614948D01*
X109287274Y-66574500D01*
X109092726Y-66574500D01*
X108902431Y-66614948D01*
X108724702Y-66694076D01*
X108567305Y-66808433D01*
X108567302Y-66808435D01*
X108437129Y-66953009D01*
X108339857Y-67121488D01*
X108339856Y-67121489D01*
X108279738Y-67306516D01*
X108259402Y-67500000D01*
X106080001Y-67500000D01*
X106100000Y-67431889D01*
X106100000Y-67288111D01*
X106059493Y-67150156D01*
X106033686Y-67110000D01*
X106950000Y-67110000D01*
X106950000Y-66462172D01*
X106949999Y-66462155D01*
X106943598Y-66402627D01*
X106943596Y-66402620D01*
X106893354Y-66267913D01*
X106893350Y-66267906D01*
X106807190Y-66152812D01*
X106807187Y-66152809D01*
X106692093Y-66066649D01*
X106692086Y-66066645D01*
X106557379Y-66016403D01*
X106557372Y-66016401D01*
X106497844Y-66010000D01*
X105850000Y-66010000D01*
X105850000Y-66924498D01*
X105742315Y-66875320D01*
X105635763Y-66860000D01*
X105564237Y-66860000D01*
X105457685Y-66875320D01*
X105350000Y-66924498D01*
X105350000Y-66010000D01*
X104702155Y-66010000D01*
X104642627Y-66016401D01*
X104642620Y-66016403D01*
X104507913Y-66066645D01*
X104507906Y-66066649D01*
X104392812Y-66152809D01*
X104392809Y-66152812D01*
X104306649Y-66267906D01*
X104306645Y-66267913D01*
X104256403Y-66402620D01*
X104256401Y-66402627D01*
X104250000Y-66462155D01*
X104250000Y-67110000D01*
X105166314Y-67110000D01*
X105140507Y-67150156D01*
X105100000Y-67288111D01*
X105100000Y-67431889D01*
X105140507Y-67569844D01*
X105166314Y-67610000D01*
X104250000Y-67610000D01*
X104250000Y-68257844D01*
X103520500Y-68257844D01*
X103520500Y-63944000D01*
X103540185Y-63876961D01*
X103592989Y-63831206D01*
X103644500Y-63820000D01*
X132795500Y-63820000D01*
X132862539Y-63839685D01*
G37*
%TD.AperFunction*%
%TD*%
M02*
