M48
; DRILL file {KiCad 7.0.6-rc3} date Fri Jul 14 23:43:47 2023
; FORMAT={-:-/ absolute / inch / decimal}
; #@! TF.CreationDate,2023-07-14T23:43:47-04:00
; #@! TF.GenerationSoftware,Kicad,Pcbnew,7.0.6-rc3
; #@! TF.FileFunction,Plated,1,4,PTH
FMAT,2
INCH
; #@! TA.AperFunction,Plated,PTH,ViaDrill
T1C0.0118
; #@! TA.AperFunction,Plated,PTH,ComponentDrill
T2C0.0236
; #@! TA.AperFunction,Plated,PTH,ComponentDrill
T3C0.0315
; #@! TA.AperFunction,Plated,PTH,ComponentDrill
T4C0.0394
; #@! TA.AperFunction,Plated,PTH,ComponentDrill
T5C0.0454
%
G90
G05
T1
X4.1004Y-3.4598
X4.1004Y-3.5449
X4.1004Y-3.6409
X4.1339Y-2.5277
X4.1339Y-2.5867
X4.1339Y-2.823
X4.1862Y-3.385
X4.1929Y-2.5277
X4.1929Y-2.5867
X4.1929Y-3.4726
X4.1929Y-3.5316
X4.1929Y-3.7205
X4.1949Y-3.4173
X4.2126Y-3.1161
X4.2142Y-2.915
X4.2142Y-3.0335
X4.252Y-2.5277
X4.252Y-2.5867
X4.2535Y-3.3524
X4.274Y-3.5177
X4.2756Y-3.4795
X4.2764Y-3.5831
X4.278Y-2.8701
X4.3102Y-2.8764
X4.311Y-2.5277
X4.311Y-2.5867
X4.3122Y-3.3524
X4.3276Y-3.0272
X4.3276Y-3.1472
X4.3287Y-2.8126
X4.3524Y-2.835
X4.3587Y-2.9146
X4.3701Y-2.5277
X4.3701Y-2.5867
X4.3701Y-2.6458
X4.3701Y-2.7048
X4.3701Y-2.7639
X4.3717Y-3.5366
X4.3732Y-3.6409
X4.3921Y-2.9169
X4.3945Y-3.3461
X4.3953Y-3.4744
X4.3969Y-3.2996
X4.4197Y-3.1768
X4.4213Y-3.385
X4.4283Y-3.1303
X4.4287Y-3.0504
X4.4291Y-2.5867
X4.4291Y-2.6458
X4.4291Y-2.7048
X4.4291Y-2.7639
X4.4299Y-3.0012
X4.435Y-3.0827
X4.439Y-2.9642
X4.4449Y-3.3594
X4.4469Y-3.698
X4.4488Y-3.1941
X4.4512Y-3.3012
X4.4642Y-3.5189
X4.4756Y-2.963
X4.4882Y-2.5867
X4.4882Y-2.6458
X4.4882Y-2.7048
X4.4882Y-2.7639
X4.4882Y-3.5039
X4.5106Y-3.439
X4.5177Y-3.5043
X4.5197Y-3.0039
X4.5197Y-3.0587
X4.5197Y-3.1102
X4.5362Y-3.7508
X4.537Y-3.6535
X4.5378Y-3.2402
X4.5394Y-3.2004
X4.5406Y-2.8398
X4.5413Y-2.5276
X4.5433Y-2.5563
X4.5472Y-2.7048
X4.5492Y-2.5874
X4.5575Y-3.3012
X4.5579Y-3.437
X4.5579Y-3.4937
X4.5594Y-2.6142
X4.561Y-2.924
X4.565Y-3.3476
X4.5685Y-2.7929
X4.5728Y-3.0039
X4.5728Y-3.0587
X4.5728Y-3.1102
X4.5756Y-2.6374
X4.5772Y-3.1949
X4.5803Y-2.8185
X4.5803Y-3.6441
X4.5878Y-3.7512
X4.5929Y-2.7744
X4.5933Y-2.6594
X4.5945Y-3.4882
X4.5972Y-2.7441
X4.5972Y-3.222
X4.6028Y-2.6862
X4.6031Y-2.7142
X4.6063Y-3.4528
X4.6138Y-3.1933
X4.6228Y-3.6374
X4.6236Y-2.5283
X4.626Y-3.0039
X4.626Y-3.0587
X4.626Y-3.1102
X4.6264Y-2.5579
X4.6382Y-3.3362
X4.6394Y-2.5854
X4.6492Y-3.7504
X4.652Y-3.2559
X4.6567Y-2.6087
X4.6638Y-3.6441
X4.6709Y-2.6343
X4.6783Y-2.6606
X4.6819Y-2.6882
X4.685Y-3.4803
X4.6917Y-2.8173
X4.6921Y-2.9587
X4.6929Y-2.8516
X4.7008Y-3.4488
X4.7012Y-2.789
X4.7024Y-2.8819
X4.7063Y-3.6421
X4.7071Y-2.6933
X4.7102Y-2.7205
X4.715Y-3.752
X4.7165Y-3.4252
X4.7165Y-3.4803
X4.7209Y-2.7508
X4.7217Y-3.1953
X4.724Y-2.7752
X4.7244Y-2.5277
X4.7244Y-2.5867
X4.7244Y-3.3094
X4.7283Y-2.8866
X4.7508Y-3.437
X4.7508Y-3.4941
X4.7591Y-3.3051
X4.7606Y-2.8504
X4.7654Y-3.0772
X4.7681Y-3.7504
X4.7705Y-3.363
X4.7815Y-3.1268
X4.7823Y-3.1925
X4.7835Y-2.5277
X4.7835Y-2.5867
X4.7835Y-2.6458
X4.7835Y-2.7048
X4.7835Y-2.7639
X4.7949Y-3.4461
X4.7992Y-2.9528
X4.8004Y-2.9909
X4.8075Y-3.3969
X4.8083Y-3.0858
X4.815Y-3.5118
X4.8161Y-3.1953
X4.8165Y-3.4811
X4.8382Y-3.0031
X4.8398Y-3.689
X4.8421Y-3.5118
X4.8425Y-2.5277
X4.8425Y-2.5867
X4.8449Y-2.8071
X4.8472Y-3.3079
X4.8488Y-3.1945
X4.8783Y-3.0028
X4.8787Y-3.1953
X4.8827Y-3.2354
X4.8846Y-3.3421
X4.9016Y-2.7639
X4.9016Y-3.7088
X4.9122Y-3.1965
X4.9224Y-3.3657
X4.9272Y-3.0661
X4.9354Y-2.8504
X4.9433Y-3.1961
X4.9441Y-3.2354
X4.95Y-3.3102
X4.9575Y-3.0823
X4.9744Y-3.1953
X4.9823Y-3.0874
X4.9846Y-2.9772
X4.9925Y-3.4382
X4.9996Y-3.1161
X5.002Y-3.1504
X5.0035Y-3.2969
X5.0197Y-2.7639
X5.0264Y-2.8461
X5.0362Y-2.6539
X5.0787Y-3.5907
X5.0787Y-3.6497
X5.0787Y-3.7088
X5.0984Y-2.7362
X5.1024Y-2.7756
X5.1154Y-3.2343
X5.1154Y-3.3232
X5.1339Y-2.7047
X5.1378Y-2.5277
X5.1378Y-2.5867
X5.1378Y-3.4726
X5.1378Y-3.5316
X5.1378Y-3.5907
X5.1378Y-3.6497
X5.1378Y-3.7088
X5.1732Y-2.7047
X5.1969Y-2.5277
X5.1969Y-2.5867
X5.1969Y-3.4726
X5.1969Y-3.5316
X5.1969Y-3.5907
X5.1969Y-3.6497
X5.2079Y-2.9307
X5.2126Y-2.7047
T3
X5.1614Y-3.1102
X5.1614Y-3.189
X5.1614Y-3.2677
X5.1614Y-3.3465
T4
X4.1575Y-2.652
X4.1575Y-2.752
X4.1575Y-2.9276
X4.1575Y-3.0276
X4.1575Y-3.1276
X4.3303Y-3.4933
X4.3303Y-3.5933
X4.3303Y-3.6933
X4.9762Y-3.4911
X4.9762Y-3.5911
X4.9762Y-3.6911
X5.1616Y-2.874
X5.1616Y-2.974
T5
X4.1118Y-3.7441
X4.2988Y-2.6575
X5.1965Y-3.7441
T2
G00X4.4843Y-3.5567
M15
G01X4.4843Y-3.6
M16
G05
G00X4.4843Y-3.7311
M15
G01X4.4843Y-3.7547
M16
G05
G00X4.8244Y-3.5567
M15
G01X4.8244Y-3.6
M16
G05
G00X4.8244Y-3.7311
M15
G01X4.8244Y-3.7547
M16
G05
T0
M30
